<svg width="314" height="177" viewBox="0 0 314 177" fill="none" xmlns="http://www.w3.org/2000/svg">
<line x1="1.3531" y1="124.387" x2="320.387" y2="38.6469" stroke="#808080" stroke-opacity="0.33" stroke-linecap="round" stroke-dasharray="11 11"/>
<line x1="320.395" y1="131.366" x2="1.3656" y2="52.6053" stroke="#808080" stroke-opacity="0.33" stroke-linecap="round" stroke-dasharray="11 11"/>
<path d="M87.637 61.2577C88.064 60.1848 89.4923 59.9765 90.2079 60.8826L92.2662 63.4889C92.9819 64.3951 92.4482 65.7362 91.3056 65.9029L88.0193 66.3823C86.8767 66.549 85.9821 65.4162 86.4091 64.3434L87.637 61.2577Z" fill="#4B4B4B" stroke="black"/>
<rect x="120.5" y="112.5" width="13" height="16" rx="6.5" fill="#4B4B4B" stroke="black"/>
<rect x="83.5" y="112.5" width="13" height="16" rx="6.5" fill="#4B4B4B" stroke="black"/>
<mask id="path-6-inside-1_106_9" fill="white">
<path fill-rule="evenodd" clip-rule="evenodd" d="M71.0908 110.105C70.6998 110.143 70.3033 110.163 69.9022 110.163C63.3288 110.163 58 104.834 58 98.261C58 93.1751 61.1899 88.8343 65.6782 87.1301C68.2555 74.026 79.8065 64.1414 93.6662 64.1414H136.595C152.349 64.1414 165.12 76.9124 165.12 92.6662C165.12 104.164 158.317 114.073 148.517 118.588C148.547 118.88 148.563 119.177 148.563 119.478V128.403C148.563 133.151 144.714 137 139.966 137C135.218 137 131.369 133.151 131.369 128.403V121.191H107.807V128.403C107.807 133.151 103.958 137 99.2104 137C94.4625 137 90.6136 133.151 90.6136 128.403V121.03C82.6824 120.186 75.7222 116.092 71.0908 110.105Z"/>
</mask>
<path fill-rule="evenodd" clip-rule="evenodd" d="M71.0908 110.105C70.6998 110.143 70.3033 110.163 69.9022 110.163C63.3288 110.163 58 104.834 58 98.261C58 93.1751 61.1899 88.8343 65.6782 87.1301C68.2555 74.026 79.8065 64.1414 93.6662 64.1414H136.595C152.349 64.1414 165.12 76.9124 165.12 92.6662C165.12 104.164 158.317 114.073 148.517 118.588C148.547 118.88 148.563 119.177 148.563 119.478V128.403C148.563 133.151 144.714 137 139.966 137C135.218 137 131.369 133.151 131.369 128.403V121.191H107.807V128.403C107.807 133.151 103.958 137 99.2104 137C94.4625 137 90.6136 133.151 90.6136 128.403V121.03C82.6824 120.186 75.7222 116.092 71.0908 110.105Z" fill="url(#paint0_linear_106_9)"/>
<path d="M71.0908 110.105L71.8817 109.493L71.543 109.055L70.9921 109.109L71.0908 110.105ZM65.6782 87.1301L66.0331 88.065L66.5522 87.8679L66.6594 87.3231L65.6782 87.1301ZM148.517 118.588L148.099 117.679L147.449 117.979L147.523 118.69L148.517 118.588ZM131.369 121.191H132.369V120.191H131.369V121.191ZM107.807 121.191V120.191H106.807V121.191H107.807ZM90.6136 121.03H91.6136V120.13L90.7193 120.035L90.6136 121.03ZM70.9921 109.109C70.6339 109.145 70.2703 109.163 69.9022 109.163V111.163C70.3364 111.163 70.7658 111.142 71.1895 111.1L70.9921 109.109ZM69.9022 109.163C63.8811 109.163 59 104.282 59 98.261H57C57 105.387 62.7765 111.163 69.9022 111.163V109.163ZM59 98.261C59 93.604 61.9204 89.6266 66.0331 88.065L65.3232 86.1952C60.4595 88.042 57 92.7462 57 98.261H59ZM66.6594 87.3231C69.1462 74.6788 80.2935 65.1414 93.6662 65.1414V63.1414C79.3195 63.1414 67.3647 73.3731 64.697 86.9371L66.6594 87.3231ZM93.6662 65.1414H136.595V63.1414H93.6662V65.1414ZM136.595 65.1414C151.797 65.1414 164.12 77.4647 164.12 92.6662H166.12C166.12 76.3601 152.901 63.1414 136.595 63.1414V65.1414ZM164.12 92.6662C164.12 103.759 157.558 113.322 148.099 117.679L148.936 119.496C159.077 114.824 166.12 104.568 166.12 92.6662H164.12ZM147.523 118.69C147.549 118.949 147.563 119.211 147.563 119.478H149.563C149.563 119.143 149.546 118.812 149.512 118.485L147.523 118.69ZM147.563 119.478V128.403H149.563V119.478H147.563ZM147.563 128.403C147.563 132.599 144.162 136 139.966 136V138C145.266 138 149.563 133.703 149.563 128.403H147.563ZM139.966 136C135.77 136 132.369 132.599 132.369 128.403H130.369C130.369 133.703 134.666 138 139.966 138V136ZM132.369 128.403V121.191H130.369V128.403H132.369ZM131.369 120.191H107.807V122.191H131.369V120.191ZM106.807 121.191V128.403H108.807V121.191H106.807ZM106.807 128.403C106.807 132.599 103.406 136 99.2104 136V138C104.511 138 108.807 133.703 108.807 128.403H106.807ZM99.2104 136C95.0148 136 91.6136 132.599 91.6136 128.403H89.6136C89.6136 133.703 93.9102 138 99.2104 138V136ZM91.6136 128.403V121.03H89.6136V128.403H91.6136ZM90.7193 120.035C83.0688 119.221 76.3525 115.272 71.8817 109.493L70.2998 110.716C75.092 116.911 82.296 121.15 90.5078 122.024L90.7193 120.035Z" fill="black" mask="url(#path-6-inside-1_106_9)"/>
<path d="M112.929 70.0943C114.083 70.0339 114.869 71.2444 114.345 72.2732L110.315 80.1826C109.79 81.2115 108.349 81.287 107.72 80.3186L102.885 72.874C102.256 71.9056 102.912 70.6195 104.065 70.5591L112.929 70.0943Z" fill="#B6ACAC" stroke="black"/>
<ellipse cx="73.272" cy="79.4421" rx="1.32282" ry="1.38227" transform="rotate(24.984 73.272 79.4421)" fill="#171515"/>
<circle cx="89" cy="88" r="3" fill="#171515"/>
<g filter="url(#filter0_i_106_9)">
<rect x="102.59" y="64.4639" width="28.7882" height="10.3246" rx="5.1623" transform="rotate(59.3957 102.59 64.4639)" fill="#C4C4C4"/>
</g>
<rect x="102.414" y="65.1488" width="27.7882" height="9.32461" rx="4.6623" transform="rotate(59.3957 102.414 65.1488)" stroke="black"/>
<g filter="url(#filter1_i_106_9)">
<rect x="169" y="62.2965" width="100.248" height="19.3944" rx="9.6972" transform="rotate(-38.4202 169 62.2965)" fill="#635656"/>
</g>
<rect x="169.702" y="62.3775" width="99.2481" height="18.3944" rx="9.1972" transform="rotate(-38.4202 169.702 62.3775)" stroke="black"/>
<circle cx="99.5" cy="72.5" r="1.5" fill="#171515"/>
<ellipse cx="104.5" cy="75" rx="1.5" ry="1" fill="#171515"/>
<circle cx="106.5" cy="81.5" r="2.5" fill="#171515"/>
<circle cx="111.5" cy="88.5" r="1.5" fill="#171515"/>
<path d="M179 72.5C166.5 72.5 166 97 147 91.5C147 91.5 151.205 86 151.103 81C151 76 155 71 158.5 69.5C162 67.9999 174 67 174 67L179 72.5Z" fill="#E4F1EA" stroke="black"/>
<path fill-rule="evenodd" clip-rule="evenodd" d="M160.316 69C159.591 69.1819 158.969 69.3739 158.5 69.5749C155 71.0749 151 76.0749 151.103 81.0749C151.205 86.0749 147 91.5749 147 91.5749C155.858 94.1391 160.695 90.1825 164.602 85.228C161.437 86.1618 157.682 86.699 153.119 86.6722C153.119 86.6722 158.411 80.7647 157.51 76.3652C157.022 73.9835 158.284 71.3044 160.316 69Z" fill="#6FD299"/>
<path d="M158.5 69.5749L158.697 70.0345L158.5 69.5749ZM160.316 69L160.691 69.3307L161.755 68.1234L160.194 68.515L160.316 69ZM147 91.5749L146.603 91.2712L146.159 91.8519L146.861 92.0552L147 91.5749ZM164.602 85.228L164.994 85.5376L165.967 84.3038L164.46 84.7484L164.602 85.228ZM153.119 86.6722L152.747 86.3386L152.006 87.1656L153.117 87.1722L153.119 86.6722ZM157.51 76.3652L157.02 76.4655L157.51 76.3652ZM158.697 70.0345C159.131 69.8486 159.723 69.6641 160.437 69.485L160.194 68.515C159.458 68.6996 158.807 68.8992 158.303 69.1153L158.697 70.0345ZM151.602 81.0647C151.554 78.6974 152.479 76.2987 153.862 74.2966C155.247 72.2914 157.054 70.7388 158.697 70.0345L158.303 69.1153C156.446 69.9111 154.503 71.6085 153.039 73.7283C151.572 75.8511 150.549 78.4524 150.603 81.0852L151.602 81.0647ZM147 91.5749C147.397 91.8786 147.397 91.8785 147.397 91.8784C147.397 91.8783 147.398 91.8782 147.398 91.878C147.398 91.8777 147.398 91.8774 147.399 91.8769C147.399 91.876 147.4 91.8748 147.401 91.8732C147.404 91.8701 147.407 91.8656 147.411 91.8598C147.42 91.8483 147.433 91.8315 147.449 91.8097C147.481 91.7662 147.528 91.7025 147.587 91.6201C147.705 91.4554 147.872 91.2158 148.073 90.9132C148.472 90.3084 149.004 89.4493 149.533 88.4303C150.584 86.4069 151.656 83.6912 151.602 81.0647L150.603 81.0852C150.651 83.4586 149.672 85.9929 148.646 87.9695C148.137 88.9505 147.624 89.7789 147.238 90.3616C147.046 90.6528 146.886 90.882 146.774 91.0376C146.718 91.1154 146.675 91.1747 146.646 91.2141C146.631 91.2339 146.62 91.2486 146.613 91.2582C146.609 91.263 146.606 91.2665 146.605 91.2686C146.604 91.2697 146.603 91.2705 146.603 91.2709C146.603 91.2712 146.603 91.2713 146.603 91.2713C146.603 91.2714 146.603 91.2713 146.603 91.2714C146.603 91.2713 146.603 91.2712 147 91.5749ZM164.209 84.9184C162.273 87.3741 160.146 89.528 157.449 90.7666C154.769 91.9974 151.47 92.3484 147.139 91.0946L146.861 92.0552C151.388 93.3657 154.937 93.0204 157.866 91.6754C160.779 90.3381 163.024 88.0364 164.994 85.5376L164.209 84.9184ZM164.46 84.7484C161.349 85.6664 157.644 86.1988 153.122 86.1722L153.117 87.1722C157.72 87.1992 161.525 86.6573 164.743 85.7076L164.46 84.7484ZM153.119 86.6722C153.492 87.0058 153.492 87.0057 153.492 87.0055C153.492 87.0055 153.492 87.0053 153.492 87.0052C153.493 87.0049 153.493 87.0045 153.493 87.004C153.494 87.0031 153.495 87.0018 153.497 87.0001C153.5 86.9968 153.504 86.9921 153.509 86.986C153.52 86.9737 153.536 86.9559 153.556 86.9327C153.596 86.8864 153.655 86.8187 153.728 86.7314C153.875 86.5568 154.082 86.3036 154.328 85.9865C154.818 85.3529 155.464 84.4601 156.082 83.4248C156.699 82.3913 157.296 81.2038 157.681 79.9819C158.065 78.7631 158.248 77.4776 158 76.2648L157.02 76.4655C157.222 77.4525 157.082 78.5552 156.727 79.6814C156.373 80.8046 155.817 81.9189 155.223 82.9121C154.631 83.9037 154.01 84.7627 153.537 85.3743C153.3 85.6797 153.101 85.9224 152.962 86.0881C152.893 86.1709 152.838 86.2344 152.801 86.2768C152.783 86.2979 152.769 86.3138 152.76 86.3242C152.755 86.3294 152.752 86.3332 152.75 86.3356C152.749 86.3368 152.748 86.3377 152.747 86.3381C152.747 86.3384 152.747 86.3385 152.747 86.3386C152.747 86.3387 152.747 86.3386 152.747 86.3387C152.747 86.3386 152.747 86.3386 153.119 86.6722ZM158 76.2648C157.56 74.1162 158.694 71.5955 160.691 69.3307L159.941 68.6693C157.874 71.0134 156.484 73.8509 157.02 76.4655L158 76.2648Z" fill="#6FD299"/>
<circle cx="164" cy="75" r="3" fill="#6FD299"/>
<circle cx="160.5" cy="81.5" r="1.5" fill="#6FD299"/>
<circle cx="143.5" cy="100.5" r="3.5" fill="#6FD299"/>
<circle cx="149" cy="105" r="5" fill="#6FD299"/>
<circle cx="155" cy="97" r="2" fill="#6FD299"/>
<circle cx="158.5" cy="89.5" r="1.5" fill="#6FD299"/>
<line x1="42.5" y1="59" x2="42.5" y2="129" stroke="#525B69"/>
<line x1="149" y1="152.5" x2="79" y2="152.5" stroke="#525B69"/>
<line x1="36" y1="128.5" x2="49" y2="128.5" stroke="#525B69"/>
<line x1="79.5" y1="146" x2="79.5" y2="159" stroke="#525B69"/>
<line x1="36" y1="59.5" x2="49" y2="59.5" stroke="#525B69"/>
<line x1="148.5" y1="146" x2="148.5" y2="159" stroke="#525B69"/>
<path d="M204.175 135.5L253.5 84.2407L253.5 135.5H204.175Z" stroke="#525B69"/>
<path d="M103.977 164.317H100.467L99.711 166H99.018L101.898 159.7H102.555L105.435 166H104.733L103.977 164.317ZM103.734 163.777L102.222 160.393L100.71 163.777H103.734ZM108.754 161.23C109.348 161.23 109.819 161.404 110.167 161.752C110.521 162.094 110.698 162.595 110.698 163.255V166H110.059V163.318C110.059 162.826 109.936 162.451 109.69 162.193C109.444 161.935 109.093 161.806 108.637 161.806C108.127 161.806 107.722 161.959 107.422 162.265C107.128 162.565 106.981 162.982 106.981 163.516V166H106.342V161.266H106.954V162.139C107.128 161.851 107.368 161.629 107.674 161.473C107.986 161.311 108.346 161.23 108.754 161.23ZM114.413 166.045C113.945 166.045 113.525 165.943 113.153 165.739C112.787 165.535 112.499 165.25 112.289 164.884C112.079 164.512 111.974 164.095 111.974 163.633C111.974 163.171 112.079 162.757 112.289 162.391C112.499 162.025 112.787 161.74 113.153 161.536C113.525 161.332 113.945 161.23 114.413 161.23C114.821 161.23 115.184 161.311 115.502 161.473C115.826 161.629 116.081 161.86 116.267 162.166L115.79 162.49C115.634 162.256 115.436 162.082 115.196 161.968C114.956 161.848 114.695 161.788 114.413 161.788C114.071 161.788 113.762 161.866 113.486 162.022C113.216 162.172 113.003 162.388 112.847 162.67C112.697 162.952 112.622 163.273 112.622 163.633C112.622 163.999 112.697 164.323 112.847 164.605C113.003 164.881 113.216 165.097 113.486 165.253C113.762 165.403 114.071 165.478 114.413 165.478C114.695 165.478 114.956 165.421 115.196 165.307C115.436 165.193 115.634 165.019 115.79 164.785L116.267 165.109C116.081 165.415 115.826 165.649 115.502 165.811C115.178 165.967 114.815 166.045 114.413 166.045ZM119.864 161.23C120.458 161.23 120.929 161.404 121.277 161.752C121.631 162.094 121.808 162.595 121.808 163.255V166H121.169V163.318C121.169 162.826 121.046 162.451 120.8 162.193C120.554 161.935 120.203 161.806 119.747 161.806C119.237 161.806 118.832 161.959 118.532 162.265C118.238 162.565 118.091 162.982 118.091 163.516V166H117.452V159.322H118.091V162.094C118.265 161.818 118.505 161.605 118.811 161.455C119.117 161.305 119.468 161.23 119.864 161.23ZM125.495 166.045C125.039 166.045 124.628 165.943 124.262 165.739C123.896 165.529 123.608 165.241 123.398 164.875C123.188 164.509 123.083 164.095 123.083 163.633C123.083 163.171 123.188 162.757 123.398 162.391C123.608 162.025 123.896 161.74 124.262 161.536C124.628 161.332 125.039 161.23 125.495 161.23C125.951 161.23 126.362 161.332 126.728 161.536C127.094 161.74 127.379 162.025 127.583 162.391C127.793 162.757 127.898 163.171 127.898 163.633C127.898 164.095 127.793 164.509 127.583 164.875C127.379 165.241 127.094 165.529 126.728 165.739C126.362 165.943 125.951 166.045 125.495 166.045ZM125.495 165.478C125.831 165.478 126.131 165.403 126.395 165.253C126.665 165.097 126.875 164.878 127.025 164.596C127.175 164.314 127.25 163.993 127.25 163.633C127.25 163.273 127.175 162.952 127.025 162.67C126.875 162.388 126.665 162.172 126.395 162.022C126.131 161.866 125.831 161.788 125.495 161.788C125.159 161.788 124.856 161.866 124.586 162.022C124.322 162.172 124.112 162.388 123.956 162.67C123.806 162.952 123.731 163.273 123.731 163.633C123.731 163.993 123.806 164.314 123.956 164.596C124.112 164.878 124.322 165.097 124.586 165.253C124.856 165.403 125.159 165.478 125.495 165.478Z" fill="#868F9D"/>
<path d="M218.25 141.276H216.036V140.7H221.13V141.276H218.916V147H218.25V141.276ZM223.451 142.23C224.069 142.23 224.543 142.386 224.873 142.698C225.203 143.004 225.368 143.46 225.368 144.066V147H224.756V146.262C224.612 146.508 224.399 146.7 224.117 146.838C223.841 146.976 223.511 147.045 223.127 147.045C222.599 147.045 222.179 146.919 221.867 146.667C221.555 146.415 221.399 146.082 221.399 145.668C221.399 145.266 221.543 144.942 221.831 144.696C222.125 144.45 222.59 144.327 223.226 144.327H224.729V144.039C224.729 143.631 224.615 143.322 224.387 143.112C224.159 142.896 223.826 142.788 223.388 142.788C223.088 142.788 222.8 142.839 222.524 142.941C222.248 143.037 222.011 143.172 221.813 143.346L221.525 142.869C221.765 142.665 222.053 142.509 222.389 142.401C222.725 142.287 223.079 142.23 223.451 142.23ZM223.226 146.541C223.586 146.541 223.895 146.46 224.153 146.298C224.411 146.13 224.603 145.89 224.729 145.578V144.804H223.244C222.434 144.804 222.029 145.086 222.029 145.65C222.029 145.926 222.134 146.145 222.344 146.307C222.554 146.463 222.848 146.541 223.226 146.541ZM233.008 142.23C233.602 142.23 234.067 142.401 234.403 142.743C234.745 143.085 234.916 143.589 234.916 144.255V147H234.277V144.318C234.277 143.826 234.157 143.451 233.917 143.193C233.683 142.935 233.35 142.806 232.918 142.806C232.426 142.806 232.039 142.959 231.757 143.265C231.475 143.565 231.334 143.982 231.334 144.516V147H230.695V144.318C230.695 143.826 230.575 143.451 230.335 143.193C230.101 142.935 229.765 142.806 229.327 142.806C228.841 142.806 228.454 142.959 228.166 143.265C227.884 143.565 227.743 143.982 227.743 144.516V147H227.104V142.266H227.716V143.13C227.884 142.842 228.118 142.62 228.418 142.464C228.718 142.308 229.063 142.23 229.453 142.23C229.849 142.23 230.191 142.314 230.479 142.482C230.773 142.65 230.992 142.899 231.136 143.229C231.31 142.917 231.559 142.674 231.883 142.5C232.213 142.32 232.588 142.23 233.008 142.23ZM238.305 142.23C238.923 142.23 239.397 142.386 239.727 142.698C240.057 143.004 240.222 143.46 240.222 144.066V147H239.61V146.262C239.466 146.508 239.253 146.7 238.971 146.838C238.695 146.976 238.365 147.045 237.981 147.045C237.453 147.045 237.033 146.919 236.721 146.667C236.409 146.415 236.253 146.082 236.253 145.668C236.253 145.266 236.397 144.942 236.685 144.696C236.979 144.45 237.444 144.327 238.08 144.327H239.583V144.039C239.583 143.631 239.469 143.322 239.241 143.112C239.013 142.896 238.68 142.788 238.242 142.788C237.942 142.788 237.654 142.839 237.378 142.941C237.102 143.037 236.865 143.172 236.667 143.346L236.379 142.869C236.619 142.665 236.907 142.509 237.243 142.401C237.579 142.287 237.933 142.23 238.305 142.23ZM238.08 146.541C238.44 146.541 238.749 146.46 239.007 146.298C239.265 146.13 239.457 145.89 239.583 145.578V144.804H238.098C237.288 144.804 236.883 145.086 236.883 145.65C236.883 145.926 236.988 146.145 237.198 146.307C237.408 146.463 237.702 146.541 238.08 146.541ZM244.369 142.23C244.963 142.23 245.434 142.404 245.782 142.752C246.136 143.094 246.313 143.595 246.313 144.255V147H245.674V144.318C245.674 143.826 245.551 143.451 245.305 143.193C245.059 142.935 244.708 142.806 244.252 142.806C243.742 142.806 243.337 142.959 243.037 143.265C242.743 143.565 242.596 143.982 242.596 144.516V147H241.957V142.266H242.569V143.139C242.743 142.851 242.983 142.629 243.289 142.473C243.601 142.311 243.961 142.23 244.369 142.23ZM244.738 141.474C244.6 141.474 244.477 141.444 244.369 141.384C244.261 141.318 244.144 141.228 244.018 141.114C243.91 141.024 243.823 140.961 243.757 140.925C243.697 140.883 243.631 140.862 243.559 140.862C243.421 140.862 243.31 140.913 243.226 141.015C243.142 141.117 243.097 141.258 243.091 141.438H242.704C242.716 141.138 242.794 140.898 242.938 140.718C243.082 140.538 243.274 140.448 243.514 140.448C243.652 140.448 243.772 140.478 243.874 140.538C243.982 140.598 244.105 140.688 244.243 140.808C244.339 140.892 244.42 140.955 244.486 140.997C244.552 141.039 244.621 141.06 244.693 141.06C244.825 141.06 244.933 141.012 245.017 140.916C245.101 140.814 245.149 140.676 245.161 140.502H245.548C245.536 140.796 245.458 141.033 245.314 141.213C245.17 141.387 244.978 141.474 244.738 141.474ZM250.001 147.045C249.545 147.045 249.134 146.943 248.768 146.739C248.402 146.529 248.114 146.241 247.904 145.875C247.694 145.509 247.589 145.095 247.589 144.633C247.589 144.171 247.694 143.757 247.904 143.391C248.114 143.025 248.402 142.74 248.768 142.536C249.134 142.332 249.545 142.23 250.001 142.23C250.457 142.23 250.868 142.332 251.234 142.536C251.6 142.74 251.885 143.025 252.089 143.391C252.299 143.757 252.404 144.171 252.404 144.633C252.404 145.095 252.299 145.509 252.089 145.875C251.885 146.241 251.6 146.529 251.234 146.739C250.868 146.943 250.457 147.045 250.001 147.045ZM250.001 146.478C250.337 146.478 250.637 146.403 250.901 146.253C251.171 146.097 251.381 145.878 251.531 145.596C251.681 145.314 251.756 144.993 251.756 144.633C251.756 144.273 251.681 143.952 251.531 143.67C251.381 143.388 251.171 143.172 250.901 143.022C250.637 142.866 250.337 142.788 250.001 142.788C249.665 142.788 249.362 142.866 249.092 143.022C248.828 143.172 248.618 143.388 248.462 143.67C248.312 143.952 248.237 144.273 248.237 144.633C248.237 144.993 248.312 145.314 248.462 145.596C248.618 145.878 248.828 146.097 249.092 146.253C249.362 146.403 249.665 146.478 250.001 146.478Z" fill="#868F9D"/>
<path d="M211.566 109.627L213.405 111.283L215.586 108.863L216.014 109.248L213.833 111.669L215.819 113.458L215.374 113.953L210.693 109.736L213.584 106.526L214.012 106.912L211.566 109.627ZM220.318 108.531C220.013 108.87 219.662 109.107 219.265 109.243C218.864 109.374 218.457 109.395 218.045 109.306C217.632 109.217 217.255 109.018 216.911 108.709C216.568 108.4 216.331 108.045 216.199 107.644C216.068 107.243 216.049 106.838 216.142 106.43C216.236 106.021 216.435 105.647 216.74 105.309C217.046 104.97 217.396 104.733 217.793 104.597C218.19 104.462 218.592 104.441 219 104.534C219.413 104.623 219.791 104.822 220.134 105.132C220.477 105.441 220.715 105.796 220.846 106.197C220.981 106.593 221.005 106.998 220.916 107.41C220.822 107.819 220.623 108.193 220.318 108.531ZM219.897 108.152C220.121 107.902 220.266 107.629 220.332 107.333C220.397 107.028 220.374 106.725 220.265 106.425C220.156 106.125 219.968 105.854 219.7 105.613C219.433 105.372 219.144 105.213 218.834 105.136C218.524 105.058 218.223 105.07 217.931 105.17C217.639 105.262 217.38 105.432 217.155 105.682C216.93 105.932 216.785 106.209 216.72 106.514C216.655 106.811 216.675 107.111 216.78 107.416C216.889 107.716 217.078 107.987 217.345 108.228C217.613 108.469 217.901 108.628 218.211 108.705C218.525 108.778 218.828 108.768 219.121 108.677C219.413 108.576 219.672 108.402 219.897 108.152ZM220.347 102.744C220.211 102.42 220.181 102.094 220.258 101.767C220.338 101.436 220.525 101.107 220.818 100.782L221.28 101.198L221.171 101.305C220.837 101.675 220.69 102.067 220.728 102.482C220.767 102.896 220.991 103.288 221.402 103.657L223.194 105.272L222.766 105.747L219.249 102.578L219.658 102.123L220.347 102.744ZM225.544 95.5358C225.942 95.0945 226.38 94.8635 226.859 94.8427C227.342 94.8175 227.831 95.0278 228.326 95.4736L230.365 97.3109L229.938 97.7856L227.945 95.9905C227.579 95.6612 227.22 95.4994 226.868 95.505C226.52 95.5062 226.201 95.6673 225.912 95.9882C225.583 96.3538 225.437 96.7437 225.476 97.158C225.51 97.5684 225.726 97.9522 226.122 98.3096L227.968 99.9722L227.54 100.447L225.547 98.6519C225.182 98.3226 224.823 98.1607 224.471 98.1664C224.122 98.1675 223.802 98.3308 223.508 98.6563C223.183 99.0173 223.038 99.4073 223.072 99.8261C223.107 100.236 223.322 100.62 223.719 100.978L225.564 102.64L225.137 103.115L221.619 99.9465L222.029 99.4918L222.671 100.07C222.569 99.7525 222.561 99.43 222.646 99.1027C222.731 98.7754 222.904 98.4669 223.165 98.1771C223.43 97.8829 223.721 97.685 224.039 97.5835C224.36 97.4775 224.692 97.4814 225.034 97.5953C224.918 97.2572 224.904 96.9096 224.992 96.5524C225.079 96.1867 225.263 95.8479 225.544 95.5358ZM229.09 91.6003C229.503 91.1412 229.936 90.8934 230.389 90.8571C230.837 90.8167 231.287 90.9993 231.737 91.4049L233.917 93.3687L233.507 93.8234L232.959 93.3294C233.045 93.6011 233.045 93.8878 232.959 94.1897C232.877 94.4871 232.707 94.7785 232.45 95.0638C232.097 95.4561 231.722 95.6838 231.326 95.747C230.93 95.8101 230.578 95.7031 230.27 95.426C229.972 95.157 229.827 94.8331 229.837 94.4545C229.851 94.0714 230.071 93.6436 230.497 93.1711L231.503 92.0544L231.289 91.8616C230.986 91.5885 230.68 91.4664 230.371 91.4952C230.058 91.5201 229.755 91.6952 229.462 92.0206C229.261 92.2435 229.106 92.4916 228.997 92.765C228.884 93.0343 228.826 93.3007 228.822 93.5643L228.275 93.459C228.284 93.1441 228.361 92.8258 228.506 92.5038C228.646 92.1779 228.841 91.8767 229.09 91.6003ZM232.142 94.6529C232.383 94.3855 232.53 94.1017 232.582 93.8015C232.63 93.4974 232.58 93.1941 232.432 92.8917L231.857 92.3736L230.863 93.477C230.321 94.0788 230.26 94.5684 230.679 94.9459C230.884 95.1306 231.117 95.1992 231.378 95.1516C231.634 95.1 231.889 94.9338 232.142 94.6529Z" fill="#868F9D"/>
<path d="M34.317 99.023V102.533L36 103.289V103.982L29.7 101.102V100.445L36 97.565V98.267L34.317 99.023ZM33.777 99.266L30.393 100.778L33.777 102.29V99.266ZM29.322 96.6578V96.0188H36V96.6578H29.322ZM35.712 91.7303C35.82 91.8503 35.904 92.0003 35.964 92.1803C36.018 92.3543 36.045 92.5373 36.045 92.7293C36.045 93.1733 35.925 93.5153 35.685 93.7553C35.445 93.9953 35.106 94.1153 34.668 94.1153H31.806V94.9613H31.266V94.1153H30.231V93.4763H31.266V92.0363H31.806V93.4763H34.632C34.914 93.4763 35.13 93.4073 35.28 93.2693C35.424 93.1253 35.496 92.9213 35.496 92.6573C35.496 92.5253 35.475 92.3993 35.433 92.2793C35.391 92.1533 35.331 92.0453 35.253 91.9553L35.712 91.7303ZM36.045 88.799C36.045 89.255 35.943 89.666 35.739 90.032C35.529 90.398 35.241 90.686 34.875 90.896C34.509 91.106 34.095 91.211 33.633 91.211C33.171 91.211 32.757 91.106 32.391 90.896C32.025 90.686 31.74 90.398 31.536 90.032C31.332 89.666 31.23 89.255 31.23 88.799C31.23 88.343 31.332 87.932 31.536 87.566C31.74 87.2 32.025 86.915 32.391 86.711C32.757 86.501 33.171 86.396 33.633 86.396C34.095 86.396 34.509 86.501 34.875 86.711C35.241 86.915 35.529 87.2 35.739 87.566C35.943 87.932 36.045 88.343 36.045 88.799ZM35.478 88.799C35.478 88.463 35.403 88.163 35.253 87.899C35.097 87.629 34.878 87.419 34.596 87.269C34.314 87.119 33.993 87.044 33.633 87.044C33.273 87.044 32.952 87.119 32.67 87.269C32.388 87.419 32.172 87.629 32.022 87.899C31.866 88.163 31.788 88.463 31.788 88.799C31.788 89.135 31.866 89.438 32.022 89.708C32.172 89.972 32.388 90.182 32.67 90.338C32.952 90.488 33.273 90.563 33.633 90.563C33.993 90.563 34.314 90.488 34.596 90.338C34.878 90.182 35.097 89.972 35.253 89.708C35.403 89.438 35.478 89.135 35.478 88.799Z" fill="#868F9D"/>
<defs>
<filter id="filter0_i_106_9" x="95.6118" y="66.3721" width="19.7261" height="30.218" filterUnits="userSpaceOnUse" color-interpolation-filters="sRGB">
<feFlood flood-opacity="0" result="BackgroundImageFix"/>
<feBlend mode="normal" in="SourceGraphic" in2="BackgroundImageFix" result="shape"/>
<feColorMatrix in="SourceAlpha" type="matrix" values="0 0 0 0 0 0 0 0 0 0 0 0 0 0 0 0 0 0 127 0" result="hardAlpha"/>
<feOffset dy="4"/>
<feGaussianBlur stdDeviation="2"/>
<feComposite in2="hardAlpha" operator="arithmetic" k2="-1" k3="1"/>
<feColorMatrix type="matrix" values="0 0 0 0 0 0 0 0 0 0 0 0 0 0 0 0 0 0 0.25 0"/>
<feBlend mode="normal" in2="shape" result="effect1_innerShadow_106_9"/>
</filter>
<filter id="filter1_i_106_9" x="172.926" y="3.9259" width="82.742" height="73.6396" filterUnits="userSpaceOnUse" color-interpolation-filters="sRGB">
<feFlood flood-opacity="0" result="BackgroundImageFix"/>
<feBlend mode="normal" in="SourceGraphic" in2="BackgroundImageFix" result="shape"/>
<feColorMatrix in="SourceAlpha" type="matrix" values="0 0 0 0 0 0 0 0 0 0 0 0 0 0 0 0 0 0 127 0" result="hardAlpha"/>
<feOffset dy="4"/>
<feGaussianBlur stdDeviation="2"/>
<feComposite in2="hardAlpha" operator="arithmetic" k2="-1" k3="1"/>
<feColorMatrix type="matrix" values="0 0 0 0 0 0 0 0 0 0 0 0 0 0 0 0 0 0 0.25 0"/>
<feBlend mode="normal" in2="shape" result="effect1_innerShadow_106_9"/>
</filter>
<linearGradient id="paint0_linear_106_9" x1="69.1087" y1="84.3751" x2="153.218" y2="110.56" gradientUnits="userSpaceOnUse">
<stop stop-color="#BF9393"/>
<stop offset="1" stop-color="#323841"/>
</linearGradient>
</defs>
</svg>
