<svg width="94" height="94" viewBox="0 0 94 94" fill="none" xmlns="http://www.w3.org/2000/svg">
<path d="M59 27.9791C59.0041 33.321 57.4236 38.544 54.4584 42.9873C51.4932 47.4307 47.2766 50.8946 42.3421 52.9407C37.4077 54.9869 31.9771 55.5233 26.7377 54.4822C21.4983 53.4411 16.6854 50.8691 12.9081 47.0919C9.13085 43.3146 6.55892 38.5017 5.51779 33.2623C4.47666 28.0229 5.01311 22.5923 7.05926 17.6579C9.10542 12.7234 12.5693 8.50682 17.0126 5.54162C21.456 2.57641 26.679 0.995872 32.0209 1.00001C39.1745 1.00555 46.0335 3.84976 51.0919 8.90812C56.1502 13.9665 58.9945 20.8255 59 27.9791Z" fill="#89D4F4"/>
<path d="M76.5928 39.4613C76.3127 38.883 75.8748 38.3956 75.3296 38.0553C74.7844 37.7151 74.1542 37.5358 73.5115 37.5383H49.0363V18.417C49.0552 17.6994 48.8471 16.9942 48.4417 16.4018C48.0364 15.8094 47.4543 15.3601 46.7786 15.1179C46.1029 14.8757 45.368 14.8529 44.6786 15.0529C43.9892 15.2529 43.3805 15.6655 42.9393 16.2317L14.9676 51.4586C14.5698 51.9662 14.3221 52.575 14.2525 53.2162C14.183 53.8573 14.2944 54.5051 14.5742 55.0862C14.8543 55.6646 15.2922 56.152 15.8374 56.4923C16.3826 56.8325 17.0128 57.0117 17.6555 57.0092H42.1963V76.1305C42.1856 76.8285 42.3894 77.5129 42.7802 78.0914C43.1711 78.6698 43.73 79.1143 44.3816 79.3648C44.7391 79.4936 45.1161 79.5601 45.4961 79.5615C46.0123 79.5626 46.522 79.4473 46.9874 79.224C47.4528 79.0008 47.8618 78.6754 48.184 78.2722L76.1557 43.0234C76.5481 42.5267 76.7963 41.9318 76.8734 41.3036C76.9505 40.6754 76.8534 40.0381 76.5928 39.4613V39.4613Z" stroke="#001698" stroke-width="4" stroke-linecap="round" stroke-linejoin="round"/>
</svg>
