<svg width="165" height="68" fill="none" xmlns="http://www.w3.org/2000/svg"><path d="M2 25.275c10.3 52.99 47.068 15.988 56.146 10.506 9.078-5.481 18.313-9.177 26.78-8.68 17.181 1.01 29.519 25.407 16.342 36.546-16.607 14.038-44.599-19.23-38.583-40.2C68.672 2.58 100.32-7.149 114.431 9.286c10.315 12.014 11.802 31.52 3.632 31.52-9.648 0-12.855-7.314-7.717-15.531 4.873-7.795 13.031-7.252 20.426-1.828 8.452 6.2 15.568 25.996 6.355 21.014-6.217-3.362-5.447-8.223 0-14.162C142.574 24.361 163 38.98 163 38.98" stroke="#fff" stroke-opacity=".87" stroke-width="2" stroke-linecap="square"/></svg>