<svg width="154" height="115" fill="none" xmlns="http://www.w3.org/2000/svg"><g clip-path="url(#a)"><path fill-rule="evenodd" clip-rule="evenodd" d="m95.979 56.964 11.217-25.571c.744-1.696.824-3.6.223-5.293s-1.834-3.037-3.427-3.735L67.944 6.552c-1.593-.699-3.417-.696-5.07.009-1.652.704-2.998 2.053-3.742 3.748L47.915 35.88c-.743 1.695-.824 3.6-.223 5.292.601 1.693 1.834 3.037 3.427 3.736l9.012 3.953 4.806 13.542 13.218-5.635 9.012 3.953c1.593.699 3.417.696 5.07-.01 1.652-.704 2.998-2.052 3.742-3.747zm-30.64-36.309a3.607 3.607 0 0 1 1.872-1.874 3.183 3.183 0 0 1 2.535-.005l24.032 10.542a3.184 3.184 0 0 1 1.713 1.868c.3.847.26 1.798-.111 2.646a3.607 3.607 0 0 1-1.872 1.874 3.184 3.184 0 0 1-2.534.005L66.942 25.169a3.183 3.183 0 0 1-1.714-1.868c-.3-.846-.26-1.798.112-2.646zm-1.201 10.907a3.183 3.183 0 0 0-2.535.004 3.607 3.607 0 0 0-1.872 1.874 3.607 3.607 0 0 0-.111 2.647c.3.846.917 1.518 1.713 1.867l9.012 3.954c.797.35 1.709.347 2.535-.005a3.607 3.607 0 0 0 1.871-1.874c.372-.848.412-1.8.112-2.646a3.184 3.184 0 0 0-1.713-1.868l-9.013-3.953z" fill="#1D2226"/><path fill="#1D2226" d="m63.74 13.64 37.656 15.505-10.769 26.152-37.655-15.504z"/><g opacity=".37" fill="#6FB5D2"><ellipse cx="72.192" cy="29.299" rx="6.977" ry="6.779" transform="rotate(26.35 72.192 29.3)"/><ellipse cx="83.966" cy="35.131" rx="6.977" ry="6.779" transform="rotate(26.35 83.966 35.131)"/><ellipse cx="69.782" cy="37.636" rx="4.984" ry="4.842" transform="rotate(26.35 69.782 37.636)"/><ellipse cx="78.389" cy="41.899" rx="4.984" ry="4.842" transform="rotate(26.35 78.39 41.9)"/><path d="m74.46 30.029 6.577 3.258-3.634 7.337-6.577-3.258z"/></g><g opacity=".55" fill="#6FB5D2"><ellipse cx="72.942" cy="30.532" rx="5.813" ry="5.535" transform="rotate(26.35 72.942 30.532)"/><ellipse cx="82.751" cy="35.391" rx="5.813" ry="5.535" transform="rotate(26.35 82.75 35.39)"/><ellipse cx="70.997" cy="37.35" rx="4.152" ry="3.954" transform="rotate(26.35 70.997 37.35)"/><ellipse cx="78.167" cy="40.902" rx="4.152" ry="3.954" transform="rotate(26.35 78.167 40.902)"/><path d="m74.828 31.146 5.48 2.714-2.968 5.991-5.48-2.714z"/></g><ellipse cx="73.839" cy="31.466" rx="4.648" ry="4.361" transform="rotate(26.35 73.84 31.466)" fill="#7FDEE4"/><ellipse cx="81.683" cy="35.352" rx="4.648" ry="4.361" transform="rotate(26.35 81.683 35.352)" fill="#7FDEE4"/><ellipse cx="72.32" cy="36.846" rx="3.32" ry="3.115" transform="rotate(26.35 72.32 36.846)" fill="#7FDEE4"/><ellipse cx="78.054" cy="39.686" rx="3.32" ry="3.115" transform="rotate(26.35 78.054 39.686)" fill="#7FDEE4"/><path fill="#7FDEE4" d="m75.346 31.96 4.382 2.17-2.338 4.721-4.382-2.17zM83.055 26.73c.486-.131.88-.34 1.18-.626.306-.284.536-.58.69-.89.172-.35.25-.688.232-1.014-.01-.33-.053-.63-.132-.904a.607.607 0 0 1 .06-.415 1.13 1.13 0 0 1 .356-.404c.165-.125.35-.224.55-.297a2.02 2.02 0 0 1 .643-.106c.222 0 .43.047.623.143.216.107.36.268.434.484.075.21.106.44.093.688-.012.25-.057.5-.134.752a4.078 4.078 0 0 1-.242.636 3.314 3.314 0 0 1-.735.982 4.512 4.512 0 0 1-1.026.713 5.41 5.41 0 0 1-1.198.452 7.433 7.433 0 0 1-1.289.22l-.105-.414zM79.153 24.798c-.19-.467-.262-.907-.217-1.319.04-.415.137-.778.29-1.088.174-.35.395-.616.666-.8.267-.191.534-.339.799-.442a.607.607 0 0 0 .293-.3c.074-.15.11-.325.106-.527 0-.208-.033-.413-.098-.618a2.02 2.02 0 0 0-.305-.576 1.374 1.374 0 0 0-.49-.408.818.818 0 0 0-.648-.052 1.75 1.75 0 0 0-.605.343c-.19.16-.362.348-.516.562-.152.208-.271.4-.36.578-.186.377-.298.77-.335 1.18-.04.414-.022.83.055 1.248.07.415.192.823.365 1.227.17.408.372.795.606 1.159l.394-.167z"/></g><path stroke="gray" stroke-opacity=".33" stroke-linecap="round" stroke-dasharray="11 11" d="m1.353 97.153 152.034-40.859M153.395 101 1.366 63.468"/><path d="M42.372 68.123a.915.915 0 1 1 1.7.676.915.915 0 0 1-1.7-.676z" fill="#4B4B4B" stroke="#000"/><rect x="58.397" y="92.05" width="5.694" height="7.128" rx="2.847" fill="#4B4B4B" stroke="#000"/><rect x="40.706" y="92.05" width="5.694" height="7.128" rx="2.847" fill="#4B4B4B" stroke="#000"/><mask id="c" fill="#fff"><path fill-rule="evenodd" clip-rule="evenodd" d="M34.512 90.644a5.69 5.69 0 0 1-2.588-10.985c1.232-6.265 6.755-10.991 13.382-10.991h20.525c7.533 0 13.639 6.106 13.639 13.638 0 5.497-3.253 10.235-7.938 12.394.014.14.022.282.022.425v4.268a4.11 4.11 0 1 1-8.221 0v-3.448H52.067v3.448a4.11 4.11 0 1 1-8.22 0v-3.526a13.622 13.622 0 0 1-9.335-5.223z"/></mask><path fill-rule="evenodd" clip-rule="evenodd" d="M34.512 90.644a5.69 5.69 0 0 1-2.588-10.985c1.232-6.265 6.755-10.991 13.382-10.991h20.525c7.533 0 13.639 6.106 13.639 13.638 0 5.497-3.253 10.235-7.938 12.394.014.14.022.282.022.425v4.268a4.11 4.11 0 1 1-8.221 0v-3.448H52.067v3.448a4.11 4.11 0 1 1-8.22 0v-3.526a13.622 13.622 0 0 1-9.335-5.223z" fill="url(#b)"/><path d="m34.512 90.644.791-.612-.339-.438-.55.055.098.995zm-2.588-10.985.355.935.52-.197.106-.545-.98-.193zM71.532 94.7l-.419-.908-.65.3.074.711.995-.102zm-8.2 1.246h1v-1h-1v1zm-11.265 0v-1h-1v1h1zm-8.22-.078h1v-.899l-.895-.095-.105.994zm-9.434-6.218c-.154.015-.31.023-.47.023v2c.226 0 .448-.011.668-.033l-.197-1.99zm-.47.023a4.69 4.69 0 0 1-4.69-4.691h-2a6.69 6.69 0 0 0 6.69 6.69v-2zm-4.69-4.691a4.693 4.693 0 0 1 3.026-4.387l-.71-1.87a6.693 6.693 0 0 0-4.316 6.257h2zm3.652-5.129c1.142-5.806 6.261-10.184 12.401-10.184v-2c-7.114 0-13.04 5.073-14.363 11.798l1.962.386zm12.401-10.184h20.525v-2H45.306v2zm20.525 0c6.98 0 12.639 5.658 12.639 12.638h2c0-8.085-6.554-14.638-14.639-14.638v2zM78.47 82.306c0 5.093-3.012 9.484-7.357 11.485l.837 1.817c5.027-2.316 8.52-7.4 8.52-13.302h-2zm-7.933 12.496c.01.106.016.214.016.323h2c0-.178-.009-.354-.026-.528l-1.99.205zm.016.323v4.268h2v-4.268h-2zm0 4.268a3.11 3.11 0 0 1-3.11 3.11v2a5.11 5.11 0 0 0 5.11-5.11h-2zm-3.11 3.11a3.11 3.11 0 0 1-3.11-3.11h-2a5.11 5.11 0 0 0 5.11 5.11v-2zm-3.11-3.11v-3.448h-2v3.448h2zm-1-4.448H52.067v2h11.266v-2zm-12.266 1v3.448h2v-3.448h-2zm0 3.448a3.11 3.11 0 0 1-3.11 3.11v2a5.11 5.11 0 0 0 5.11-5.11h-2zm-3.11 3.11a3.11 3.11 0 0 1-3.11-3.11h-2a5.11 5.11 0 0 0 5.11 5.11v-2zm-3.11-3.11v-3.526h-2v3.526h2zm-.895-4.52a12.622 12.622 0 0 1-8.649-4.841l-1.582 1.224a14.622 14.622 0 0 0 10.02 5.606l.211-1.99z" fill="#000" mask="url(#c)"/><path d="M52.725 71.87a1.5 1.5 0 0 1 1.415 2.178l-.286.56a1.5 1.5 0 0 1-2.594.136l-.343-.527a1.5 1.5 0 0 1 1.18-2.315l.628-.033z" fill="#B6ACAC" stroke="#000"/><ellipse cx="35.555" cy="75.983" rx=".632" ry=".661" transform="rotate(24.984 35.555 75.983)" fill="#171515"/><circle cx="43.075" cy="80.075" r="1.434" fill="#171515"/><g filter="url(#d)"><rect x="49.573" y="68.822" width="13.764" height="4.936" rx="2.468" transform="rotate(59.396 49.573 68.822)" fill="#C4C4C4"/></g><rect x="49.397" y="69.507" width="12.764" height="3.936" rx="1.968" transform="rotate(59.396 49.397 69.507)" stroke="#000"/><g filter="url(#e)"><rect x="81.325" y="67.785" width="47.931" height="9.273" rx="4.636" transform="rotate(-38.42 81.325 67.785)" fill="#635656"/></g><rect x="82.028" y="67.867" width="46.931" height="8.273" rx="4.136" transform="rotate(-38.42 82.028 67.867)" stroke="#000"/><circle cx="48.095" cy="72.664" r=".717" fill="#171515"/><ellipse cx="50.486" cy="73.859" rx=".717" ry=".478" fill="#171515"/><circle cx="51.442" cy="76.967" r="1.195" fill="#171515"/><circle cx="53.833" cy="80.314" r=".717" fill="#171515"/><path d="M86.106 72.664c-5.976 0-6.215 11.714-15.3 9.085 0 0 2.01-2.63 1.962-5.02-.05-2.391 1.863-4.782 3.537-5.5 1.673-.716 7.41-1.195 7.41-1.195l2.391 2.63z" fill="#E4F1EA" stroke="#000"/><path fill-rule="evenodd" clip-rule="evenodd" d="M77.173 70.99a6.017 6.017 0 0 0-.868.276c-1.674.717-3.586 3.107-3.537 5.498.049 2.39-1.962 5.02-1.962 5.02 4.236 1.226 6.548-.666 8.416-3.034-1.513.446-3.308.703-5.49.69 0 0 2.53-2.824 2.1-4.928-.234-1.139.37-2.42 1.34-3.521z" fill="#6FD299"/><path d="m76.305 71.266.197.46-.197-.46zm.868-.275.375.33 1.064-1.207-1.56.392.12.485zm-6.367 10.793-.397-.303-.444.58.702.204.14-.48zm8.416-3.034.393.31.973-1.235-1.507.445.141.48zm-5.49.69-.372-.334-.741.828 1.11.006.003-.5zm2.1-4.928.49-.1-.49.1zm.67-2.787c.189-.08.457-.165.793-.25l-.244-.97a6.49 6.49 0 0 0-.943.3l.394.92zm-3.234 5.029c-.022-1.063.394-2.157 1.034-3.083.641-.928 1.47-1.633 2.2-1.946l-.394-.92c-.944.405-1.908 1.255-2.63 2.298-.722 1.047-1.237 2.343-1.21 3.671l1-.02zm-2.462 5.03.398.304v-.001l.002-.002.005-.007a4.35 4.35 0 0 0 .02-.026l.068-.094a13.527 13.527 0 0 0 .95-1.557c.509-.98 1.046-2.325 1.019-3.647l-1 .02c.022 1.069-.422 2.233-.906 3.166a12.507 12.507 0 0 1-.935 1.516l-.014.02-.004.004.397.304zm8.023-3.344c-.916 1.163-1.902 2.154-3.136 2.72-1.216.56-2.728.729-4.748.144l-.278.96c2.216.642 3.978.478 5.444-.195 1.448-.665 2.553-1.804 3.504-3.01l-.785-.619zm.252-.17c-1.46.43-3.206.683-5.346.67l-.006 1c2.223.013 4.068-.248 5.635-.71l-.283-.96zm-5.349 1.17.373.334v-.001l.003-.003.006-.007.024-.027a9.055 9.055 0 0 0 .378-.464c.24-.309.554-.744.857-1.25a8.198 8.198 0 0 0 .789-1.702c.191-.607.29-1.27.16-1.908l-.98.2c.084.413.028.893-.134 1.407a7.212 7.212 0 0 1-.694 1.49 11.763 11.763 0 0 1-1.15 1.592l-.004.005.372.334zm2.59-5.028c-.186-.906.29-2.029 1.226-3.09l-.75-.662c-1.007 1.141-1.737 2.58-1.457 3.953l.98-.201z" fill="#6FD299"/><circle cx="78.934" cy="73.859" r="1.434" fill="#6FD299"/><circle cx="77.261" cy="76.967" r=".717" fill="#6FD299"/><circle cx="69.133" cy="86.052" r="1.673" fill="#6FD299"/><circle cx="71.763" cy="88.203" r="2.391" fill="#6FD299"/><circle cx="74.631" cy="84.378" r=".956" fill="#6FD299"/><circle cx="76.305" cy="80.792" r=".717" fill="#6FD299"/><path stroke="#525B69" d="M21.103 66.209v33.469M71.763 111.175H38.294M17.734 99.178h6.216M38.794 107.806v6.216M17.734 66.188h6.216M71.784 107.806v6.216M98.756 102.525l22.71-23.6v23.6h-22.71z"/><defs><filter id="d" x="46.236" y="69.734" width="9.432" height="16.535" filterUnits="userSpaceOnUse" color-interpolation-filters="sRGB"><feFlood flood-opacity="0" result="BackgroundImageFix"/><feBlend in="SourceGraphic" in2="BackgroundImageFix" result="shape"/><feColorMatrix in="SourceAlpha" values="0 0 0 0 0 0 0 0 0 0 0 0 0 0 0 0 0 0 127 0" result="hardAlpha"/><feOffset dy="4"/><feGaussianBlur stdDeviation="2"/><feComposite in2="hardAlpha" operator="arithmetic" k2="-1" k3="1"/><feColorMatrix values="0 0 0 0 0 0 0 0 0 0 0 0 0 0 0 0 0 0 0.25 0"/><feBlend in2="shape" result="effect1_innerShadow_209_4899"/></filter><filter id="e" x="83.202" y="39.877" width="39.561" height="37.296" filterUnits="userSpaceOnUse" color-interpolation-filters="sRGB"><feFlood flood-opacity="0" result="BackgroundImageFix"/><feBlend in="SourceGraphic" in2="BackgroundImageFix" result="shape"/><feColorMatrix in="SourceAlpha" values="0 0 0 0 0 0 0 0 0 0 0 0 0 0 0 0 0 0 127 0" result="hardAlpha"/><feOffset dy="4"/><feGaussianBlur stdDeviation="2"/><feComposite in2="hardAlpha" operator="arithmetic" k2="-1" k3="1"/><feColorMatrix values="0 0 0 0 0 0 0 0 0 0 0 0 0 0 0 0 0 0 0.25 0"/><feBlend in2="shape" result="effect1_innerShadow_209_4899"/></filter><linearGradient id="b" x1="33.565" y1="78.342" x2="73.779" y2="90.862" gradientUnits="userSpaceOnUse"><stop stop-color="#BF9393"/><stop offset="1" stop-color="#323841"/></linearGradient><clipPath id="a"><path fill="#fff" transform="rotate(23.685 28.551 136.162)" d="M0 0h60v60H0z"/></clipPath></defs></svg>