<svg width="154" height="115" viewBox="0 0 154 115" fill="none" xmlns="http://www.w3.org/2000/svg">
<g clip-path="url(#clip0_209_4899)">
<path fill-rule="evenodd" clip-rule="evenodd" d="M95.979 56.9635L107.196 31.3927C107.94 29.6972 108.02 27.7936 107.419 26.1005C106.818 24.4074 105.585 23.0635 103.992 22.3646L67.9443 6.55194C66.3509 5.85298 64.5273 5.85616 62.8747 6.56079C61.2221 7.26541 59.8759 8.61375 59.1321 10.3092L47.9153 35.88C47.1716 37.5754 47.0913 39.4791 47.6921 41.1722C48.293 42.8653 49.5257 44.2091 51.1191 44.9081L60.131 48.8613L64.9366 62.4034L78.1549 56.7676L87.1668 60.7207C88.7602 61.4197 90.5838 61.4165 92.2364 60.7119C93.889 60.0073 95.2353 58.6589 95.979 56.9635ZM65.3399 20.655C65.7117 19.8073 66.3849 19.1332 67.2112 18.7808C68.0375 18.4285 68.9492 18.4269 69.746 18.7764L93.7778 29.3182C94.5745 29.6676 95.1908 30.3396 95.4913 31.1861C95.7917 32.0327 95.7515 32.9845 95.3797 33.8322C95.0078 34.68 94.3347 35.3541 93.5084 35.7064C92.6821 36.0587 91.7703 36.0603 90.9736 35.7109L66.9417 25.1691C66.145 24.8196 65.5287 24.1477 65.2283 23.3012C64.9279 22.4546 64.968 21.5028 65.3399 20.655ZM64.1375 31.5618C63.3408 31.2123 62.429 31.2139 61.6027 31.5662C60.7764 31.9185 60.1033 32.5927 59.7315 33.4404C59.3596 34.2882 59.3195 35.24 59.6199 36.0865C59.9203 36.9331 60.5366 37.605 61.3333 37.9545L70.3453 41.9077C71.142 42.2571 72.0538 42.2555 72.8801 41.9032C73.7064 41.5509 74.3795 40.8767 74.7514 40.029C75.1232 39.1813 75.1634 38.2295 74.863 37.3829C74.5625 36.5364 73.9462 35.8644 73.1495 35.515L64.1375 31.5618Z" fill="#1D2226"/>
<rect x="63.7407" y="13.6398" width="40.7224" height="28.2828" transform="rotate(22.3795 63.7407 13.6398)" fill="#1D2226"/>
<g opacity="0.37">
<ellipse cx="72.1924" cy="29.2992" rx="6.97733" ry="6.77934" transform="rotate(26.3505 72.1924 29.2992)" fill="#6FB5D2"/>
<ellipse cx="83.9664" cy="35.1311" rx="6.97736" ry="6.77935" transform="rotate(26.3505 83.9664 35.1311)" fill="#6FB5D2"/>
<ellipse cx="69.7821" cy="37.6358" rx="4.98381" ry="4.84239" transform="rotate(26.3505 69.7821 37.6358)" fill="#6FB5D2"/>
<ellipse cx="78.3893" cy="41.8992" rx="4.98384" ry="4.84239" transform="rotate(26.3505 78.3893 41.8992)" fill="#6FB5D2"/>
<rect x="74.46" y="30.0293" width="7.33983" height="8.18804" transform="rotate(26.3505 74.46 30.0293)" fill="#6FB5D2"/>
</g>
<g opacity="0.55">
<ellipse cx="72.9418" cy="30.5322" rx="5.81274" ry="5.53549" transform="rotate(26.3505 72.9418 30.5322)" fill="#6FB5D2"/>
<ellipse cx="82.7505" cy="35.3907" rx="5.81273" ry="5.53549" transform="rotate(26.3505 82.7505 35.3907)" fill="#6FB5D2"/>
<ellipse cx="70.9967" cy="37.3505" rx="4.15193" ry="3.95392" transform="rotate(26.3505 70.9967 37.3505)" fill="#6FB5D2"/>
<ellipse cx="78.1671" cy="40.9022" rx="4.15194" ry="3.95392" transform="rotate(26.3505 78.1671 40.9022)" fill="#6FB5D2"/>
<rect x="74.8283" y="31.1456" width="6.11464" height="6.68571" transform="rotate(26.3505 74.8283 31.1456)" fill="#6FB5D2"/>
</g>
<ellipse cx="73.8391" cy="31.4665" rx="4.64807" ry="4.36146" transform="rotate(26.3505 73.8391 31.4665)" fill="#7FDEE4"/>
<ellipse cx="81.6825" cy="35.3516" rx="4.64807" ry="4.36146" transform="rotate(26.3505 81.6825 35.3516)" fill="#7FDEE4"/>
<ellipse cx="72.32" cy="36.8455" rx="3.32005" ry="3.11533" transform="rotate(26.3505 72.32 36.8455)" fill="#7FDEE4"/>
<ellipse cx="78.0537" cy="39.6856" rx="3.32005" ry="3.11533" transform="rotate(26.3505 78.0537 39.6856)" fill="#7FDEE4"/>
<rect x="75.346" y="31.9602" width="4.88957" height="5.26774" transform="rotate(26.3505 75.346 31.9602)" fill="#7FDEE4"/>
<path d="M83.0547 26.7304C83.541 26.5986 83.9344 26.3897 84.2348 26.1037C84.5408 25.8204 84.7706 25.5236 84.9244 25.2132C85.0973 24.864 85.1749 24.5263 85.1571 24.2C85.1475 23.8708 85.1035 23.5695 85.0251 23.296C84.9941 23.1633 85.0144 23.025 85.0857 22.8809C85.1599 22.7312 85.2783 22.5966 85.441 22.4771C85.6065 22.352 85.7901 22.2531 85.9917 22.1804C86.1989 22.1105 86.4132 22.0751 86.6344 22.0743C86.8557 22.0735 87.0633 22.1211 87.2573 22.2172C87.4735 22.3242 87.6179 22.4855 87.6906 22.701C87.7661 22.9109 87.7974 23.1404 87.7845 23.3894C87.7716 23.6384 87.7269 23.8889 87.6504 24.1408C87.5766 24.3873 87.4958 24.5992 87.408 24.7765C87.2213 25.1534 86.9763 25.4807 86.6731 25.7585C86.3672 26.0417 86.0251 26.2795 85.6468 26.4718C85.2742 26.6668 84.875 26.8176 84.4495 26.9243C84.0212 27.0366 83.5913 27.1101 83.16 27.1449L83.0547 26.7304Z" fill="#7FDEE4"/>
<path d="M79.1526 24.7976C78.9628 24.3309 78.8906 23.8913 78.9361 23.479C78.976 23.064 79.0729 22.7013 79.2266 22.3909C79.3995 22.0417 79.6212 21.7754 79.8916 21.5918C80.1592 21.4 80.4255 21.2524 80.6907 21.149C80.8149 21.0932 80.9128 20.9933 80.9841 20.8492C81.0583 20.6996 81.0936 20.5238 81.09 20.3219C81.0893 20.1144 81.0567 19.9085 80.9923 19.7041C80.9224 19.4969 80.8207 19.305 80.6873 19.1285C80.5538 18.952 80.3901 18.8157 80.1961 18.7196C79.98 18.6125 79.7642 18.5953 79.5487 18.6681C79.336 18.7352 79.1345 18.8494 78.9442 19.0105C78.754 19.1717 78.5818 19.359 78.4277 19.5726C78.2764 19.7806 78.1568 19.9733 78.0689 20.1506C77.8823 20.5275 77.7703 20.9207 77.7331 21.3302C77.6932 21.7453 77.7113 22.1615 77.7876 22.5789C77.8583 22.9935 77.9801 23.4024 78.1531 23.8056C78.3234 24.2143 78.5254 24.6008 78.7591 24.965L79.1526 24.7976Z" fill="#7FDEE4"/>
</g>
<line x1="1.3531" y1="97.153" x2="153.387" y2="56.2938" stroke="#808080" stroke-opacity="0.33" stroke-linecap="round" stroke-dasharray="11 11"/>
<line x1="153.395" y1="101" x2="1.36559" y2="63.4678" stroke="#808080" stroke-opacity="0.33" stroke-linecap="round" stroke-dasharray="11 11"/>
<path d="M42.3722 68.123C42.6325 67.4688 43.5034 67.3418 43.9398 67.8943C44.3762 68.4469 44.0507 69.2646 43.354 69.3662C42.6573 69.4679 42.1119 68.7772 42.3722 68.123Z" fill="#4B4B4B" stroke="black"/>
<rect x="58.3969" y="92.05" width="5.69375" height="7.12813" rx="2.84687" fill="#4B4B4B" stroke="black"/>
<rect x="40.7062" y="92.05" width="5.69375" height="7.12813" rx="2.84687" fill="#4B4B4B" stroke="black"/>
<mask id="path-25-inside-1_209_4899" fill="white">
<path fill-rule="evenodd" clip-rule="evenodd" d="M34.5121 90.6438C34.3252 90.6623 34.1356 90.6718 33.9439 90.6718C30.8009 90.6718 28.2531 88.124 28.2531 84.981C28.2531 82.5494 29.7783 80.4739 31.9242 79.6591C33.1565 73.3937 38.6793 68.6676 45.306 68.6676H65.8313C73.3636 68.6676 79.4698 74.7737 79.4698 82.306C79.4698 87.8034 76.2173 92.541 71.5317 94.6997C71.5461 94.8396 71.5535 94.9816 71.5535 95.1253V99.3928C71.5535 101.663 69.7132 103.503 67.4431 103.503C65.173 103.503 63.3327 101.663 63.3327 99.3928V95.9445H52.0672V99.3928C52.0672 101.663 50.227 103.503 47.9569 103.503C45.6868 103.503 43.8465 101.663 43.8465 99.3928V95.8673C40.0544 95.4639 36.7265 93.5063 34.5121 90.6438Z"/>
</mask>
<path fill-rule="evenodd" clip-rule="evenodd" d="M34.5121 90.6438C34.3252 90.6623 34.1356 90.6718 33.9439 90.6718C30.8009 90.6718 28.2531 88.124 28.2531 84.981C28.2531 82.5494 29.7783 80.4739 31.9242 79.6591C33.1565 73.3937 38.6793 68.6676 45.306 68.6676H65.8313C73.3636 68.6676 79.4698 74.7737 79.4698 82.306C79.4698 87.8034 76.2173 92.541 71.5317 94.6997C71.5461 94.8396 71.5535 94.9816 71.5535 95.1253V99.3928C71.5535 101.663 69.7132 103.503 67.4431 103.503C65.173 103.503 63.3327 101.663 63.3327 99.3928V95.9445H52.0672V99.3928C52.0672 101.663 50.227 103.503 47.9569 103.503C45.6868 103.503 43.8465 101.663 43.8465 99.3928V95.8673C40.0544 95.4639 36.7265 93.5063 34.5121 90.6438Z" fill="url(#paint0_linear_209_4899)"/>
<path d="M34.5121 90.6438L35.3031 90.0319L34.9644 89.594L34.4135 89.6486L34.5121 90.6438ZM31.9242 79.6591L32.2792 80.594L32.7983 80.3969L32.9054 79.8521L31.9242 79.6591ZM71.5317 94.6997L71.1133 93.7914L70.4638 94.0907L70.537 94.802L71.5317 94.6997ZM63.3327 95.9445H64.3327V94.9445H63.3327V95.9445ZM52.0672 95.9445V94.9445H51.0672V95.9445H52.0672ZM43.8465 95.8673H44.8465V94.968L43.9523 94.8729L43.8465 95.8673ZM34.4135 89.6486C34.2593 89.6639 34.1026 89.6718 33.9439 89.6718V91.6718C34.1687 91.6718 34.3912 91.6607 34.6108 91.6389L34.4135 89.6486ZM33.9439 89.6718C31.3532 89.6718 29.2531 87.5717 29.2531 84.981H27.2531C27.2531 88.6762 30.2487 91.6718 33.9439 91.6718V89.6718ZM29.2531 84.981C29.2531 82.9782 30.5087 81.2662 32.2792 80.594L31.5693 78.7242C29.0478 79.6816 27.2531 82.1205 27.2531 84.981H29.2531ZM32.9054 79.8521C34.0473 74.0465 39.1663 69.6676 45.306 69.6676V67.6676C38.1923 67.6676 32.2657 72.7408 30.943 79.4661L32.9054 79.8521ZM45.306 69.6676H65.8313V67.6676H45.306V69.6676ZM65.8313 69.6676C72.8114 69.6676 78.4698 75.326 78.4698 82.306H80.4698C80.4698 74.2214 73.9159 67.6676 65.8313 67.6676V69.6676ZM78.4698 82.306C78.4698 87.3988 75.4576 91.79 71.1133 93.7914L71.9501 95.6079C76.9771 93.292 80.4698 88.208 80.4698 82.306H78.4698ZM70.537 94.802C70.5479 94.908 70.5535 95.0159 70.5535 95.1253H72.5535C72.5535 94.9473 72.5443 94.7712 72.5265 94.5974L70.537 94.802ZM70.5535 95.1253V99.3928H72.5535V95.1253H70.5535ZM70.5535 99.3928C70.5535 101.111 69.1609 102.503 67.4431 102.503V104.503C70.2655 104.503 72.5535 102.215 72.5535 99.3928H70.5535ZM67.4431 102.503C65.7253 102.503 64.3327 101.111 64.3327 99.3928H62.3327C62.3327 102.215 64.6207 104.503 67.4431 104.503V102.503ZM64.3327 99.3928V95.9445H62.3327V99.3928H64.3327ZM63.3327 94.9445H52.0672V96.9445H63.3327V94.9445ZM51.0672 95.9445V99.3928H53.0672V95.9445H51.0672ZM51.0672 99.3928C51.0672 101.111 49.6747 102.503 47.9569 102.503V104.503C50.7792 104.503 53.0672 102.215 53.0672 99.3928H51.0672ZM47.9569 102.503C46.239 102.503 44.8465 101.111 44.8465 99.3928H42.8465C42.8465 102.215 45.1345 104.503 47.9569 104.503V102.503ZM44.8465 99.3928V95.8673H42.8465V99.3928H44.8465ZM43.9523 94.8729C40.4408 94.4993 37.3568 92.6867 35.3031 90.0319L33.7212 91.2556C36.0963 94.3259 39.668 96.4284 43.7407 96.8617L43.9523 94.8729Z" fill="black" mask="url(#path-25-inside-1_209_4899)"/>
<path d="M52.7246 71.8691C53.8777 71.8086 54.6639 73.0191 54.1397 74.048L53.8543 74.6081C53.3301 75.6369 51.8887 75.7125 51.2598 74.7441L50.9174 74.2169C50.2885 73.2485 50.9438 71.9625 52.0969 71.902L52.7246 71.8691Z" fill="#B6ACAC" stroke="black"/>
<ellipse cx="35.5551" cy="75.9833" rx="0.632473" ry="0.660897" transform="rotate(24.984 35.5551 75.9833)" fill="#171515"/>
<circle cx="43.075" cy="80.075" r="1.43438" fill="#171515"/>
<g filter="url(#filter0_i_209_4899)">
<rect x="49.5727" y="68.8218" width="13.7643" height="4.93645" rx="2.46823" transform="rotate(59.3957 49.5727 68.8218)" fill="#C4C4C4"/>
</g>
<rect x="49.3969" y="69.5067" width="12.7643" height="3.93645" rx="1.96823" transform="rotate(59.3957 49.3969 69.5067)" stroke="black"/>
<g filter="url(#filter1_i_209_4899)">
<rect x="81.325" y="67.7855" width="47.9311" height="9.27295" rx="4.63647" transform="rotate(-38.4202 81.325 67.7855)" fill="#635656"/>
</g>
<rect x="82.0275" y="67.8666" width="46.9311" height="8.27295" rx="4.13647" transform="rotate(-38.4202 82.0275 67.8666)" stroke="black"/>
<circle cx="48.0953" cy="72.6641" r="0.717188" fill="#171515"/>
<ellipse cx="50.4859" cy="73.8594" rx="0.717188" ry="0.478125" fill="#171515"/>
<circle cx="51.4422" cy="76.9672" r="1.19531" fill="#171515"/>
<circle cx="53.8328" cy="80.3141" r="0.717188" fill="#171515"/>
<path d="M86.1063 72.6641C80.1297 72.6641 79.8906 84.3781 70.8063 81.7485C70.8063 81.7485 72.8168 79.1188 72.7678 76.7281C72.7188 74.3375 74.6312 71.9469 76.3047 71.2297C77.9781 70.5125 83.7157 70.0344 83.7157 70.0344L86.1063 72.6641Z" fill="#E4F1EA" stroke="black"/>
<path fill-rule="evenodd" clip-rule="evenodd" d="M77.1728 70.9906C76.8262 71.0776 76.529 71.1694 76.3047 71.2655C74.6312 71.9827 72.7188 74.3733 72.7678 76.764C72.8168 79.1546 70.8063 81.7843 70.8063 81.7843C75.0416 83.0103 77.3543 81.1185 79.2221 78.7496C77.709 79.1961 75.9135 79.453 73.7322 79.4401C73.7322 79.4401 76.2623 76.6156 75.8313 74.5121C75.598 73.3734 76.2012 72.0924 77.1728 70.9906Z" fill="#6FD299"/>
<path d="M76.3047 71.2655L76.5017 71.7251V71.7251L76.3047 71.2655ZM77.1728 70.9906L77.5479 71.3213L78.6125 70.114L77.0512 70.5057L77.1728 70.9906ZM70.8063 81.7843L70.4091 81.4806L69.9651 82.0613L70.6672 82.2646L70.8063 81.7843ZM79.2221 78.7496L79.6148 79.0592L80.5876 77.8254L79.0806 78.2701L79.2221 78.7496ZM73.7322 79.4401L73.3597 79.1065L72.6189 79.9336L73.7292 79.9401L73.7322 79.4401ZM75.8313 74.5121L76.3212 74.4118L75.8313 74.5121ZM76.5017 71.7251C76.6906 71.6441 76.9586 71.5599 77.2945 71.4756L77.0512 70.5057C76.6938 70.5953 76.3674 70.6947 76.1077 70.8059L76.5017 71.7251ZM73.2677 76.7537C73.2459 75.6911 73.6622 74.5971 74.3017 73.6714C74.9433 72.7425 75.7716 72.038 76.5017 71.7251L76.1077 70.8059C75.1643 71.2103 74.1996 72.0596 73.4789 73.103C72.756 74.1495 72.2407 75.4462 72.2679 76.7742L73.2677 76.7537ZM70.8063 81.7843C71.2035 82.088 71.2036 82.0879 71.2036 82.0878C71.2037 82.0877 71.2038 82.0876 71.2038 82.0875C71.204 82.0873 71.2042 82.0871 71.2044 82.0868C71.2048 82.0862 71.2054 82.0855 71.206 82.0846C71.2073 82.0829 71.2092 82.0805 71.2114 82.0775C71.216 82.0714 71.2224 82.0629 71.2305 82.052C71.2467 82.03 71.2699 81.9985 71.299 81.9579C71.3571 81.8767 71.4391 81.7595 71.5367 81.6118C71.7317 81.3169 71.991 80.8981 72.2492 80.401C72.7578 79.4213 73.2948 78.0756 73.2677 76.7537L72.2679 76.7742C72.2898 77.8429 71.846 79.0074 71.3617 79.9402C71.1233 80.3993 70.883 80.7874 70.7026 81.0602C70.6125 81.1964 70.5378 81.3033 70.4862 81.3753C70.4604 81.4113 70.4404 81.4386 70.4272 81.4564C70.4206 81.4652 70.4157 81.4718 70.4127 81.4758C70.4111 81.4779 70.41 81.4793 70.4094 81.4801C70.4091 81.4805 70.409 81.4807 70.4089 81.4808C70.4089 81.4808 70.4089 81.4809 70.4089 81.4808C70.4089 81.4808 70.4089 81.4807 70.409 81.4807C70.409 81.4807 70.4091 81.4806 70.8063 81.7843ZM78.8295 78.4401C77.9126 79.6029 76.9269 80.5942 75.6934 81.1607C74.4767 81.7193 72.965 81.8886 70.9453 81.304L70.6672 82.2646C72.8828 82.9059 74.6452 82.7423 76.1106 82.0694C77.5592 81.4043 78.6638 80.2653 79.6148 79.0592L78.8295 78.4401ZM79.0806 78.2701C77.6214 78.7007 75.8754 78.9527 73.7351 78.9401L73.7292 79.9401C75.9516 79.9532 77.7966 79.6916 79.3636 79.2292L79.0806 78.2701ZM73.7322 79.4401C74.1046 79.7738 74.1047 79.7737 74.1048 79.7736C74.1048 79.7735 74.1049 79.7734 74.105 79.7733C74.1052 79.7731 74.1054 79.7729 74.1056 79.7726C74.1062 79.772 74.1068 79.7713 74.1076 79.7704C74.1092 79.7685 74.1115 79.766 74.1143 79.7629C74.1199 79.7565 74.1278 79.7475 74.1379 79.7359C74.158 79.7127 74.1868 79.6792 74.2229 79.6363C74.2949 79.5505 74.3963 79.4268 74.5161 79.272C74.7551 78.9634 75.0703 78.5277 75.3726 78.0213C75.674 77.5166 75.9699 76.9298 76.162 76.3198C76.3532 75.7128 76.452 75.0505 76.3212 74.4118L75.3415 74.6125C75.4261 75.0255 75.3703 75.505 75.2082 76.0193C75.0472 76.5305 74.7914 77.0442 74.5141 77.5086C74.2378 77.9713 73.9474 78.3732 73.7254 78.6598C73.6147 78.8028 73.5218 78.9161 73.4572 78.993C73.4249 79.0314 73.3998 79.0607 73.3831 79.0799C73.3747 79.0895 73.3685 79.0966 73.3646 79.1011C73.3626 79.1033 73.3612 79.1049 73.3604 79.1058C73.36 79.1063 73.3597 79.1066 73.3596 79.1067C73.3595 79.1067 73.3595 79.1068 73.3596 79.1067C73.3596 79.1067 73.3596 79.1067 73.3596 79.1067C73.3597 79.1066 73.3597 79.1065 73.7322 79.4401ZM76.3212 74.4118C76.1356 73.506 76.6112 72.3835 77.5479 71.3213L76.7978 70.6599C75.7912 71.8014 75.0605 73.2407 75.3415 74.6125L76.3212 74.4118Z" fill="#6FD299"/>
<circle cx="78.9344" cy="73.8594" r="1.43438" fill="#6FD299"/>
<circle cx="77.2609" cy="76.9672" r="0.717188" fill="#6FD299"/>
<circle cx="69.1328" cy="86.0516" r="1.67344" fill="#6FD299"/>
<circle cx="71.7625" cy="88.2031" r="2.39062" fill="#6FD299"/>
<circle cx="74.6312" cy="84.3781" r="0.95625" fill="#6FD299"/>
<circle cx="76.3047" cy="80.7922" r="0.717188" fill="#6FD299"/>
<line x1="21.1031" y1="66.2094" x2="21.1031" y2="99.6781" stroke="#525B69"/>
<line x1="71.7625" y1="111.175" x2="38.2938" y2="111.175" stroke="#525B69"/>
<line x1="17.7344" y1="99.1781" x2="23.95" y2="99.1781" stroke="#525B69"/>
<line x1="38.7938" y1="107.806" x2="38.7938" y2="114.022" stroke="#525B69"/>
<line x1="17.7344" y1="66.1875" x2="23.95" y2="66.1875" stroke="#525B69"/>
<line x1="71.7844" y1="107.806" x2="71.7844" y2="114.022" stroke="#525B69"/>
<path d="M98.7563 102.525L121.466 78.9251L121.466 102.525H98.7563Z" stroke="#525B69"/>
<defs>
<filter id="filter0_i_209_4899" x="46.2363" y="69.7341" width="9.43152" height="16.5354" filterUnits="userSpaceOnUse" color-interpolation-filters="sRGB">
<feFlood flood-opacity="0" result="BackgroundImageFix"/>
<feBlend mode="normal" in="SourceGraphic" in2="BackgroundImageFix" result="shape"/>
<feColorMatrix in="SourceAlpha" type="matrix" values="0 0 0 0 0 0 0 0 0 0 0 0 0 0 0 0 0 0 127 0" result="hardAlpha"/>
<feOffset dy="4"/>
<feGaussianBlur stdDeviation="2"/>
<feComposite in2="hardAlpha" operator="arithmetic" k2="-1" k3="1"/>
<feColorMatrix type="matrix" values="0 0 0 0 0 0 0 0 0 0 0 0 0 0 0 0 0 0 0.25 0"/>
<feBlend mode="normal" in2="shape" result="effect1_innerShadow_209_4899"/>
</filter>
<filter id="filter1_i_209_4899" x="83.2021" y="39.8771" width="39.561" height="37.2964" filterUnits="userSpaceOnUse" color-interpolation-filters="sRGB">
<feFlood flood-opacity="0" result="BackgroundImageFix"/>
<feBlend mode="normal" in="SourceGraphic" in2="BackgroundImageFix" result="shape"/>
<feColorMatrix in="SourceAlpha" type="matrix" values="0 0 0 0 0 0 0 0 0 0 0 0 0 0 0 0 0 0 127 0" result="hardAlpha"/>
<feOffset dy="4"/>
<feGaussianBlur stdDeviation="2"/>
<feComposite in2="hardAlpha" operator="arithmetic" k2="-1" k3="1"/>
<feColorMatrix type="matrix" values="0 0 0 0 0 0 0 0 0 0 0 0 0 0 0 0 0 0 0.25 0"/>
<feBlend mode="normal" in2="shape" result="effect1_innerShadow_209_4899"/>
</filter>
<linearGradient id="paint0_linear_209_4899" x1="33.5645" y1="78.3418" x2="73.779" y2="90.8615" gradientUnits="userSpaceOnUse">
<stop stop-color="#BF9393"/>
<stop offset="1" stop-color="#323841"/>
</linearGradient>
<clipPath id="clip0_209_4899">
<rect width="60" height="60" fill="white" transform="translate(57.1025) rotate(23.685)"/>
</clipPath>
</defs>
</svg>
