<svg width="35" height="34" fill="none" xmlns="http://www.w3.org/2000/svg"><path d="M17.5.333c-4.526 0-5.094.02-6.872.1-1.774.082-2.985.363-4.045.775A8.17 8.17 0 0 0 3.63 3.131a8.169 8.169 0 0 0-1.923 2.952c-.412 1.06-.693 2.271-.774 4.045-.082 1.778-.1 2.346-.1 6.872s.018 5.094.1 6.872c.08 1.774.362 2.985.774 4.045a8.171 8.171 0 0 0 1.923 2.952 8.17 8.17 0 0 0 2.952 1.923c1.06.412 2.271.693 4.045.774 1.778.081 2.346.1 6.872.1s5.094-.018 6.872-.1c1.774-.08 2.985-.362 4.045-.774a8.171 8.171 0 0 0 2.952-1.923 8.171 8.171 0 0 0 1.923-2.952c.412-1.06.694-2.271.774-4.045.081-1.778.1-2.346.1-6.872s-.018-5.094-.1-6.872c-.08-1.774-.362-2.985-.774-4.045a8.17 8.17 0 0 0-1.923-2.952 8.171 8.171 0 0 0-2.952-1.923c-1.06-.412-2.271-.693-4.045-.774-1.778-.081-2.346-.1-6.872-.1zm0 3.003c4.45 0 4.977.017 6.735.098 1.625.074 2.507.345 3.095.573a5.164 5.164 0 0 1 1.916 1.247 5.164 5.164 0 0 1 1.247 1.916c.228.588.5 1.47.574 3.095.08 1.758.097 2.285.097 6.735s-.017 4.977-.098 6.735c-.074 1.625-.345 2.507-.573 3.095a5.163 5.163 0 0 1-1.247 1.916 5.163 5.163 0 0 1-1.916 1.247c-.588.228-1.47.5-3.095.574-1.757.08-2.284.097-6.735.097-4.45 0-4.977-.017-6.735-.098-1.625-.074-2.507-.345-3.094-.573a5.163 5.163 0 0 1-1.917-1.247 5.164 5.164 0 0 1-1.247-1.916c-.228-.588-.5-1.47-.573-3.095-.08-1.758-.098-2.285-.098-6.735s.017-4.977.098-6.735c.074-1.625.345-2.507.573-3.094a5.164 5.164 0 0 1 1.247-1.917A5.164 5.164 0 0 1 7.67 4.007c.588-.228 1.47-.5 3.095-.573 1.758-.08 2.285-.098 6.735-.098" fill="#7FDEE4"/><path d="M17.5 22.556a5.556 5.556 0 1 1 0-11.112 5.556 5.556 0 0 1 0 11.112zm0-14.115a8.559 8.559 0 1 0 0 17.117 8.559 8.559 0 0 0 0-17.117zm10.897-.338a2 2 0 1 1-4 0 2 2 0 0 1 4 0" fill="#7FDEE4"/></svg>