<svg width="96" height="69" fill="none" xmlns="http://www.w3.org/2000/svg"><g opacity=".87"><g opacity=".37" fill="#98D8E7"><ellipse cx="69.165" cy="38.048" rx="9.166" ry="8.88"/><ellipse cx="86.425" cy="38.048" rx="9.166" ry="8.88"/><ellipse cx="71.189" cy="49.235" rx="6.547" ry="6.343"/><ellipse cx="83.807" cy="49.235" rx="6.547" ry="6.343"/><path d="M72.26 37.587h9.642v10.725H72.26z"/></g><g opacity=".55" fill="#98D8E7"><ellipse cx="70.766" cy="39.06" rx="7.636" ry="7.251"/><ellipse cx="85.145" cy="39.06" rx="7.636" ry="7.251"/><ellipse cx="72.452" cy="48.194" rx="5.454" ry="5.179"/><ellipse cx="82.964" cy="48.194" rx="5.454" ry="5.179"/><path d="M73.345 38.683h8.032v8.757h-8.032z"/></g><ellipse cx="72.368" cy="39.635" rx="6.106" ry="5.713" fill="#7FDEE4"/><ellipse cx="83.866" cy="39.635" rx="6.106" ry="5.713" fill="#7FDEE4"/><ellipse cx="73.716" cy="46.831" rx="4.361" ry="4.081" fill="#7FDEE4"/><ellipse cx="82.121" cy="46.831" rx="4.361" ry="4.081" fill="#7FDEE4"/><path fill="#7FDEE4" d="M74.429 39.338h6.423v6.9h-6.423zM80.226 28.102c.496-.44.838-.916 1.025-1.429.195-.512.293-.997.293-1.452 0-.513-.106-.956-.317-1.33a4.81 4.81 0 0 0-.684-.99.799.799 0 0 1-.17-.524c0-.22.06-.448.182-.684.122-.244.281-.468.476-.672.204-.203.436-.37.696-.5.26-.13.533-.195.818-.195.317 0 .582.105.794.317a2.3 2.3 0 0 1 .512.757c.13.301.224.623.281.964.057.334.085.631.085.891 0 .554-.097 1.083-.292 1.587-.196.513-.46.993-.794 1.44a7.113 7.113 0 0 1-1.147 1.234c-.44.382-.904.72-1.392 1.013l-.366-.427zM74.501 28.102c-.496-.44-.838-.916-1.025-1.429-.195-.512-.293-.997-.293-1.452 0-.513.106-.956.317-1.33.204-.383.432-.713.684-.99a.798.798 0 0 0 .17-.524c0-.22-.06-.448-.182-.684a2.723 2.723 0 0 0-.476-.672 2.658 2.658 0 0 0-.696-.5 1.807 1.807 0 0 0-.818-.195c-.317 0-.582.105-.794.317a2.3 2.3 0 0 0-.512.757c-.13.301-.224.623-.281.964-.057.334-.085.631-.085.891 0 .554.097 1.083.292 1.587.196.513.46.993.794 1.44.325.448.708.86 1.147 1.234.44.382.904.72 1.392 1.013l.366-.427z"/></g><g clip-path="url(#a)"><path fill-rule="evenodd" clip-rule="evenodd" d="M45.038 58.25a5.999 5.999 0 0 1 5.992-7.551l.182-.315.707-1.225.707-1.225 1.932-.517-.517-1.932 3.863-1.035 1.036 3.863-3.01 5.214a6 6 0 1 1-10.892 4.723zm6.83 2.31a1 1 0 1 0-.517-1.931 2 2 0 0 1-2.45-1.414 1 1 0 0 0-1.932.517 4 4 0 0 0 4.9 2.829z" fill="url(#b)"/></g><rect x="-.251" y=".661" width="5.578" height="6.988" rx="2.789" transform="scale(-1 1) rotate(24.229 -140.217 -12.296)" fill="#4B4B4B" stroke="#000"/><rect x="-.166" y=".687" width="5.578" height="6.988" rx="2.789" transform="scale(-1 1) rotate(31.427 -116.89 -35.169)" fill="#4B4B4B" stroke="#000"/><path d="M39.609 37.396a1.206 1.206 0 0 0 1.383-1.4c-.198-1.122-1.698-1.369-2.245-.37-.4.73.041 1.635.862 1.77z" fill="#4B4B4B" stroke="#000"/><mask id="d" fill="#fff"><path fill-rule="evenodd" clip-rule="evenodd" d="M44.4 56.003a5.592 5.592 0 0 0 2.74-10.747c-1.099-6.178-6.44-10.92-12.952-11.04l-20.167-.368C6.62 33.713.51 39.603.375 47.004a13.4 13.4 0 0 0 6.703 11.857 4.027 4.027 0 0 0 .295 3.109l1.98 3.697a4.04 4.04 0 0 0 7.122-3.812l-.622-1.163 10.09.184c.059.598.252 1.192.59 1.736l2.213 3.563a4.04 4.04 0 1 0 6.862-4.263l-.58-.935a13.386 13.386 0 0 0 9.372-4.974z"/></mask><path fill-rule="evenodd" clip-rule="evenodd" d="M44.4 56.003a5.592 5.592 0 0 0 2.74-10.747c-1.099-6.178-6.44-10.92-12.952-11.04l-20.167-.368C6.62 33.713.51 39.603.375 47.004a13.4 13.4 0 0 0 6.703 11.857 4.027 4.027 0 0 0 .295 3.109l1.98 3.697a4.04 4.04 0 0 0 7.122-3.812l-.622-1.163 10.09.184c.059.598.252 1.192.59 1.736l2.213 3.563a4.04 4.04 0 1 0 6.862-4.263l-.58-.935a13.386 13.386 0 0 0 9.372-4.974z" fill="url(#c)"/><path d="m44.4 56.003-.78-.626.347-.431.55.064-.117.993zm2.74-10.746-.372.928-.516-.207-.097-.546.985-.175zM7.078 58.86l.5-.865.693.4-.238.763-.955-.298zm.295 3.109-.881.471.881-.471zm1.98 3.697.88-.472-.88.472zm7.122-3.812.882-.472-.882.472zm-.622-1.163-.882.472-.804-1.503 1.704.031-.018 1zm10.09.184.019-1 .89.017.087.886-.996.097zm.59 1.736-.85.528.85-.528zm2.213 3.563.85-.528-.85.528zm5.563 1.3-.528-.85.528.85zm1.3-5.563-.85.527.85-.527zm-.581-.935-.85.528-.865-1.394 1.635-.13.08.996zm9.489-5.967c.15.018.303.028.459.031l-.037 2a6.678 6.678 0 0 1-.656-.044l.233-1.987zm.459.031a4.592 4.592 0 0 0 4.675-4.508l2 .037a6.593 6.593 0 0 1-6.712 6.471l.037-2zm4.675-4.508a4.595 4.595 0 0 0-2.883-4.348l.744-1.857a6.595 6.595 0 0 1 4.14 6.242l-2-.037zm-3.496-5.101c-1.016-5.717-5.96-10.105-11.985-10.215l.037-2c6.998.128 12.737 5.225 13.917 11.865l-1.969.35zM34.17 35.217l-20.167-.369.036-2 20.168.369-.037 2zm-20.167-.369C7.153 34.723 1.5 40.174 1.375 47.023l-2-.037c.146-7.953 6.71-14.283 14.664-14.137l-.036 2zM1.375 47.023A12.4 12.4 0 0 0 7.58 57.996l-1 1.731c-4.386-2.534-7.302-7.314-7.203-12.74l2 .036zm6.658 12.136a3.027 3.027 0 0 0 .222 2.339l-1.763.944a5.027 5.027 0 0 1-.368-3.878l1.91.595zm.222 2.339 1.979 3.697-1.764.944-1.978-3.697 1.763-.944zm1.979 3.697a3.04 3.04 0 0 0 4.114 1.246l.943 1.763a5.04 5.04 0 0 1-6.82-2.065l1.763-.944zm4.114 1.246a3.04 3.04 0 0 0 1.245-4.114l1.764-.944a5.04 5.04 0 0 1-2.066 6.821l-.943-1.763zm1.245-4.114-.622-1.163 1.763-.944.623 1.163-1.764.944zm.278-2.635 10.09.185-.036 2-10.09-.185.036-2zm11.068 1.087c.043.448.188.894.444 1.306l-1.7 1.055a5.022 5.022 0 0 1-.735-2.166l1.99-.195zm.444 1.306 2.213 3.562-1.7 1.055-2.212-3.562 1.698-1.055zm2.213 3.562a3.04 3.04 0 0 0 4.185.978l1.056 1.699a5.04 5.04 0 0 1-6.94-1.621l1.699-1.056zm4.185.978a3.04 3.04 0 0 0 .978-4.186l1.699-1.055a5.04 5.04 0 0 1-1.621 6.94l-1.056-1.699zm.978-4.186-.58-.934 1.698-1.055.58.934-1.698 1.055zm.19-2.459c3.492-.279 6.589-2.01 8.671-4.603l1.56 1.253a14.386 14.386 0 0 1-10.072 5.344l-.16-1.993z" fill="#000" mask="url(#d)"/><path d="m25.446 39.395.218.448a1.5 1.5 0 0 0 2.592.183l.279-.413a1.5 1.5 0 0 0-1.137-2.336l-.497-.035a1.5 1.5 0 0 0-1.455 2.153z" fill="#B6ACAC" stroke="#000"/><ellipse rx=".622" ry=".649" transform="scale(-1 1) rotate(23.938 -119.89 -82.135)" fill="#171515"/><circle r="2.216" transform="scale(-1 1) rotate(-1.046 2489.174 2024.231)" fill="#171515"/><g filter="url(#e)"><rect width="13.527" height="4.851" rx="2.426" transform="scale(-1 1) rotate(58.35 -45.707 -9.715)" fill="#C4C4C4"/></g><rect x=".163" y=".688" width="12.527" height="3.851" rx="1.926" transform="scale(-1 1) rotate(58.35 -45.707 -9.32)" stroke="#000"/><circle r=".705" transform="scale(-1 1) rotate(-1.046 2070.59 1737.43)" fill="#171515"/><ellipse rx=".705" ry=".47" transform="scale(-1 1) rotate(-1.046 2133.75 1608.175)" fill="#171515"/><circle r="1.175" transform="scale(-1 1) rotate(-1.046 2300.55 1555.178)" fill="#171515"/><circle r=".705" transform="scale(-1 1) rotate(-1.046 2479.507 1424.871)" fill="#171515"/><path fill-rule="evenodd" clip-rule="evenodd" d="M73 39v-2a5 5 0 1 1 10 0v2a2 2 0 0 1 2 2v5a2 2 0 0 1-2 2H73a2 2 0 0 1-2-2v-5a2 2 0 0 1 2-2zm8-2v2h-6v-2a3 3 0 0 1 6 0z" fill="url(#f)"/><defs><linearGradient id="b" x1="54.316" y1="61.969" x2="59" y2="36" gradientUnits="userSpaceOnUse"><stop stop-color="#43D882"/><stop offset="1" stop-color="#43D882" stop-opacity="0"/></linearGradient><linearGradient id="c" x1="45.552" y1="43.933" x2="5.813" y2="55.513" gradientUnits="userSpaceOnUse"><stop stop-color="#BF9393"/><stop offset="1" stop-color="#323841"/></linearGradient><linearGradient id="f" x1="78" y1="32" x2="78" y2="48" gradientUnits="userSpaceOnUse"><stop/><stop offset="1" stop-color="#1C673C"/></linearGradient><clipPath id="a"><path fill="#fff" transform="rotate(165 28.211 34.905)" d="M0 0h20v20H0z"/></clipPath><filter id="e" x="23.807" y="35.203" width="9.404" height="16.237" filterUnits="userSpaceOnUse" color-interpolation-filters="sRGB"><feFlood flood-opacity="0" result="BackgroundImageFix"/><feBlend in="SourceGraphic" in2="BackgroundImageFix" result="shape"/><feColorMatrix in="SourceAlpha" values="0 0 0 0 0 0 0 0 0 0 0 0 0 0 0 0 0 0 127 0" result="hardAlpha"/><feOffset dy="4"/><feGaussianBlur stdDeviation="2"/><feComposite in2="hardAlpha" operator="arithmetic" k2="-1" k3="1"/><feColorMatrix values="0 0 0 0 0 0 0 0 0 0 0 0 0 0 0 0 0 0 0.25 0"/><feBlend in2="shape" result="effect1_innerShadow_557_116"/></filter></defs></svg>