<svg width="47" height="44" viewBox="0 0 47 44" fill="none" xmlns="http://www.w3.org/2000/svg">
<path d="M8.90004 7.24024C9.23748 5.51565 11.5574 5.17722 12.3735 6.73354C12.9691 7.8695 12.2636 9.25326 10.9944 9.43841C9.72517 9.62356 8.65374 8.49902 8.90004 7.24024Z" fill="#4B4B4B" stroke="black"/>
<mask id="path-2-inside-1_209_5114" fill="white">
<path d="M0 24.8934C0 14.6506 8.30342 6.34718 18.5462 6.34718H25.421C35.6638 6.34718 43.9672 14.6506 43.9672 24.8934C43.9672 35.1362 35.6638 43.4396 25.421 43.4396H18.5462C8.30342 43.4396 0 35.1362 0 24.8934Z"/>
</mask>
<path d="M0 24.8934C0 14.6506 8.30342 6.34718 18.5462 6.34718H25.421C35.6638 6.34718 43.9672 14.6506 43.9672 24.8934C43.9672 35.1362 35.6638 43.4396 25.421 43.4396H18.5462C8.30342 43.4396 0 35.1362 0 24.8934Z" fill="url(#paint0_linear_209_5114)"/>
<path d="M18.5462 7.34718H25.421V5.34718H18.5462V7.34718ZM25.421 42.4396H18.5462V44.4396H25.421V42.4396ZM18.5462 42.4396C8.85571 42.4396 1 34.5839 1 24.8934H-1C-1 35.6885 7.75114 44.4396 18.5462 44.4396V42.4396ZM42.9672 24.8934C42.9672 34.5839 35.1115 42.4396 25.421 42.4396V44.4396C36.216 44.4396 44.9672 35.6885 44.9672 24.8934H42.9672ZM25.421 7.34718C35.1115 7.34718 42.9672 15.2029 42.9672 24.8934H44.9672C44.9672 14.0983 36.216 5.34718 25.421 5.34718V7.34718ZM18.5462 5.34718C7.75114 5.34718 -1 14.0983 -1 24.8934H1C1 15.2029 8.85571 7.34718 18.5462 7.34718V5.34718Z" fill="black" mask="url(#path-2-inside-1_209_5114)"/>
<path d="M36.0812 8.79213C38.272 8.38502 39.8606 10.8311 38.5976 12.6669L37.6334 14.0687C36.6238 15.5362 34.4472 15.5073 33.477 14.0134L32.7685 12.9225C31.7984 11.4287 32.6572 9.42838 34.4085 9.10296L36.0812 8.79213Z" fill="#B6ACAC" stroke="black"/>
<ellipse cx="13.8499" cy="20.2157" rx="0.860067" ry="0.898719" transform="rotate(24.984 13.8499 20.2157)" fill="#171515"/>
<circle cx="28.2397" cy="22.3482" r="1.95053" fill="#171515"/>
<g filter="url(#filter0_i_209_5114)">
<rect x="27.548" y="5.00492" width="18.7174" height="6.71282" rx="3.35641" transform="rotate(36.906 27.548 5.00492)" fill="#C4C4C4"/>
</g>
<rect x="27.6476" y="5.70498" width="17.7174" height="5.71282" rx="2.85641" transform="rotate(36.906 27.6476 5.70498)" stroke="black"/>
<circle cx="27.6904" cy="10.601" r="0.975265" transform="rotate(-22.4897 27.6904 10.601)" fill="#171515"/>
<ellipse cx="31.3157" cy="10.8593" rx="0.975265" ry="0.650177" transform="rotate(-22.4897 31.3157 10.8593)" fill="#171515"/>
<circle cx="34.1338" cy="14.2666" r="1.62544" transform="rotate(-22.4897 34.1338 14.2666)" fill="#171515"/>
<circle cx="38.8784" cy="17.2282" r="0.975265" transform="rotate(-22.4897 38.8784 17.2282)" fill="#171515"/>
<circle cx="20.4293" cy="32.2158" r="7.23854" fill="url(#paint1_linear_209_5114)" stroke="black"/>
<circle cx="17.3609" cy="31.8672" r="1.95053" fill="#171515"/>
<ellipse cx="23.3688" cy="32.4544" rx="0.860067" ry="0.898719" transform="rotate(24.984 23.3688 32.4544)" fill="#171515"/>
<path fill-rule="evenodd" clip-rule="evenodd" d="M33 8H12C12.8204 4.03061 17.2091 1 22.5 1C27.7909 1 32.1796 4.03061 33 8Z" fill="white" fill-opacity="0.87"/>
<path fill-rule="evenodd" clip-rule="evenodd" d="M22.0786 7C27.3253 7 31.0786 7 31.5785 7.50855C31.5785 11.0937 23.3252 12.5 18.0785 12.5C12.8318 12.5 8.57854 10 12.5785 7.5C14.5786 7 16.8318 7 22.0786 7Z" fill="#1D2226"/>
<defs>
<filter id="filter0_i_209_5114" x="24.8597" y="6.34771" width="16.3123" height="17.922" filterUnits="userSpaceOnUse" color-interpolation-filters="sRGB">
<feFlood flood-opacity="0" result="BackgroundImageFix"/>
<feBlend mode="normal" in="SourceGraphic" in2="BackgroundImageFix" result="shape"/>
<feColorMatrix in="SourceAlpha" type="matrix" values="0 0 0 0 0 0 0 0 0 0 0 0 0 0 0 0 0 0 127 0" result="hardAlpha"/>
<feOffset dy="4"/>
<feGaussianBlur stdDeviation="2"/>
<feComposite in2="hardAlpha" operator="arithmetic" k2="-1" k3="1"/>
<feColorMatrix type="matrix" values="0 0 0 0 0 0 0 0 0 0 0 0 0 0 0 0 0 0 0.25 0"/>
<feBlend mode="normal" in2="shape" result="effect1_innerShadow_209_5114"/>
</filter>
<linearGradient id="paint0_linear_209_5114" x1="2.57953" y1="15.8034" x2="53.0902" y2="37.6802" gradientUnits="userSpaceOnUse">
<stop stop-color="#BF9393"/>
<stop offset="1" stop-color="#323841"/>
</linearGradient>
<linearGradient id="paint1_linear_209_5114" x1="20.4293" y1="24.4772" x2="20.4293" y2="39.9543" gradientUnits="userSpaceOnUse">
<stop stop-color="#8B7174"/>
<stop offset="1" stop-color="#443C3D" stop-opacity="0.7"/>
</linearGradient>
</defs>
</svg>
