<svg width="54" height="73" fill="none" xmlns="http://www.w3.org/2000/svg"><g opacity=".87"><g opacity=".37" fill="#B2E4EB" fill-opacity=".78"><ellipse cx="13.906" cy="45.59" rx="13.906" ry="13.473"/><ellipse cx="40.094" cy="45.59" rx="13.906" ry="13.473"/><ellipse cx="16.976" cy="62.563" rx="9.933" ry="9.624"/><ellipse cx="36.12" cy="62.563" rx="9.933" ry="9.624"/><path d="M18.602 44.89h14.629v16.273H18.602z"/></g><g opacity=".55" fill="#B2E4EB" fill-opacity=".78"><ellipse cx="16.335" cy="47.125" rx="11.585" ry="11.001"/><ellipse cx="38.152" cy="47.125" rx="11.585" ry="11.001"/><ellipse cx="18.893" cy="60.983" rx="8.275" ry="7.858"/><ellipse cx="34.842" cy="60.983" rx="8.275" ry="7.858"/><path d="M20.247 46.554h12.187v13.287H20.247z"/></g><ellipse cx="18.765" cy="47.998" rx="9.264" ry="8.668" fill="#7FDEE4"/><ellipse cx="36.21" cy="47.998" rx="9.264" ry="8.668" fill="#7FDEE4"/><ellipse cx="20.81" cy="58.917" rx="6.617" ry="6.191" fill="#7FDEE4"/><ellipse cx="33.563" cy="58.917" rx="6.617" ry="6.191" fill="#7FDEE4"/><path fill="#7FDEE4" d="M21.893 47.547h9.745v10.469h-9.745zM30.225 28.102c.496-.44.838-.916 1.025-1.429.196-.512.293-.997.293-1.452 0-.513-.105-.956-.317-1.33a4.817 4.817 0 0 0-.684-.99.798.798 0 0 1-.17-.524c0-.22.06-.448.183-.684.122-.244.28-.468.476-.672.203-.203.435-.37.695-.5.26-.13.534-.195.818-.195.318 0 .582.105.794.317a2.3 2.3 0 0 1 .512.757c.13.301.224.623.281.964.057.334.086.631.086.891 0 .554-.098 1.083-.293 1.587-.196.513-.46.993-.794 1.44a7.117 7.117 0 0 1-1.147 1.234 9.79 9.79 0 0 1-1.392 1.013l-.366-.427zM22.966 28.102c-.496-.44-.838-.916-1.025-1.429-.195-.512-.293-.997-.293-1.452 0-.513.106-.956.317-1.33.204-.383.432-.713.684-.99a.798.798 0 0 0 .17-.524c0-.22-.06-.448-.182-.684a2.723 2.723 0 0 0-.476-.672 2.655 2.655 0 0 0-.696-.5 1.806 1.806 0 0 0-.818-.195c-.317 0-.582.105-.793.317a2.3 2.3 0 0 0-.513.757c-.13.301-.224.623-.28.964-.058.334-.086.631-.086.891 0 .554.097 1.083.293 1.587.195.513.46.993.793 1.44.326.448.708.86 1.148 1.234.439.382.903.72 1.391 1.013l.366-.427z"/></g></svg>