<svg width="199" height="76" viewBox="0 0 199 76" fill="none" xmlns="http://www.w3.org/2000/svg">
<g opacity="0.87">
<path d="M9.13086 50.9175C8.44727 50.9175 7.94271 50.7751 7.61719 50.4902C7.29167 50.2054 7.12891 49.7497 7.12891 49.123V33.6201C6.86849 33.6445 6.54297 33.6934 6.15234 33.7666C5.76986 33.8317 5.36702 33.9294 4.94385 34.0596C4.52067 34.1898 4.09749 34.3485 3.67432 34.5356C3.25114 34.7147 2.87272 34.9263 2.53906 35.1704C2.2054 35.4064 1.93278 35.675 1.72119 35.9761C1.5096 36.2772 1.40381 36.6108 1.40381 36.9771C1.40381 37.2375 1.43636 37.445 1.50146 37.5996C1.57471 37.7542 1.65609 37.8722 1.74561 37.9536C1.83512 38.0269 1.92464 38.0757 2.01416 38.1001C2.11182 38.1164 2.18099 38.1245 2.22168 38.1245C2.42513 38.1245 2.59196 38.092 2.72217 38.0269C2.85238 37.9536 2.97038 37.8804 3.07617 37.8071C3.18197 37.7257 3.27962 37.6525 3.36914 37.5874C3.4668 37.5142 3.57666 37.4775 3.69873 37.4775C3.79639 37.4775 3.89811 37.502 4.00391 37.5508C4.11784 37.5915 4.21956 37.6606 4.30908 37.7583C4.40674 37.856 4.48812 37.9862 4.55322 38.1489C4.61833 38.3035 4.65088 38.4948 4.65088 38.7227C4.65088 39.0482 4.58577 39.3289 4.45557 39.5649C4.3335 39.8009 4.17074 40.0003 3.96729 40.1631C3.77197 40.3177 3.54411 40.4357 3.28369 40.5171C3.03141 40.5903 2.77913 40.627 2.52686 40.627C2.13623 40.627 1.78223 40.5618 1.46484 40.4316C1.1556 40.2933 0.891113 40.1061 0.671387 39.8701C0.45166 39.6341 0.284831 39.3574 0.170898 39.04C0.0569661 38.7227 0 38.3849 0 38.0269C0 37.0747 0.260417 36.2528 0.78125 35.561C1.31022 34.8612 2.03044 34.2834 2.94189 33.8276C3.85335 33.3638 4.91536 33.022 6.12793 32.8022C7.34049 32.5825 8.63851 32.4727 10.022 32.4727C10.6812 32.4727 11.3241 32.4808 11.9507 32.4971C12.5773 32.5052 13.147 32.5215 13.6597 32.5459C14.1805 32.5703 14.6281 32.5988 15.0024 32.6313C15.3768 32.6639 15.6494 32.7005 15.8203 32.7412C15.9831 32.7819 16.1133 32.8429 16.2109 32.9243C16.3086 32.9976 16.3818 33.083 16.4307 33.1807C16.4795 33.2783 16.512 33.3841 16.5283 33.498C16.5446 33.6038 16.5527 33.7137 16.5527 33.8276C16.5527 33.9172 16.5405 34.0229 16.5161 34.145C16.4917 34.259 16.4551 34.3688 16.4062 34.4746C16.3574 34.5804 16.2964 34.6699 16.2231 34.7432C16.1499 34.8164 16.0604 34.853 15.9546 34.853C15.8895 34.853 15.8203 34.8245 15.7471 34.7676C15.682 34.7106 15.5884 34.6414 15.4663 34.5601C15.3442 34.4787 15.1774 34.3851 14.9658 34.2793C14.7624 34.1735 14.4897 34.0758 14.1479 33.9863C13.8143 33.8968 13.3993 33.8154 12.9028 33.7422C12.4146 33.6689 11.8205 33.6201 11.1206 33.5957V49.123C11.1206 49.7497 10.9578 50.2054 10.6323 50.4902C10.3068 50.7751 9.80632 50.9175 9.13086 50.9175ZM19.458 40.627C19.7673 40.1549 20.0968 39.7277 20.4468 39.3452C20.5933 39.1825 20.752 39.0238 20.9229 38.8691C21.0938 38.7145 21.2687 38.5762 21.4478 38.4541C21.6349 38.332 21.8262 38.2344 22.0215 38.1611C22.2168 38.0879 22.4121 38.0513 22.6074 38.0513C23.0225 38.0513 23.348 38.1774 23.584 38.4297C23.82 38.6738 23.938 39.0197 23.938 39.4673C23.938 39.744 23.9136 40.0125 23.8647 40.2729C23.8241 40.5252 23.7386 40.8345 23.6084 41.2007H23.2666C23.2178 40.9484 23.1038 40.7409 22.9248 40.5781C22.7458 40.4072 22.4854 40.3218 22.1436 40.3218C21.8913 40.3218 21.6431 40.3706 21.3989 40.4683C21.1548 40.5578 20.9147 40.6717 20.6787 40.8101C20.4508 40.9484 20.2311 41.099 20.0195 41.2617C19.8161 41.4245 19.6289 41.5791 19.458 41.7256V49.6479C19.458 49.7537 19.4417 49.8799 19.4092 50.0264C19.3766 50.1729 19.2952 50.3112 19.165 50.4414C19.043 50.5716 18.8558 50.6815 18.6035 50.771C18.3594 50.8687 18.0216 50.9175 17.5903 50.9175C17.159 50.9175 16.8172 50.8646 16.5649 50.7588C16.3208 50.6611 16.1336 50.5431 16.0034 50.4048C15.8732 50.2664 15.7918 50.124 15.7593 49.9775C15.7267 49.8311 15.7104 49.7131 15.7104 49.6235V40.1997C15.7104 39.9637 15.6535 39.7603 15.5396 39.5894C15.4338 39.4103 15.2507 39.3208 14.9902 39.3208C14.8519 39.3208 14.7339 39.3452 14.6362 39.394C14.5386 39.4429 14.4328 39.512 14.3188 39.6016L14.0625 39.2964C14.2497 39.1418 14.4572 38.9912 14.6851 38.8447C14.9211 38.6901 15.1733 38.5558 15.4419 38.4419C15.7104 38.328 15.9993 38.2344 16.3086 38.1611C16.6178 38.0879 16.9434 38.0513 17.2852 38.0513C17.6351 38.0513 17.9321 38.1001 18.1763 38.1978C18.4285 38.2873 18.632 38.4093 18.7866 38.564C18.9494 38.7104 19.0755 38.8773 19.165 39.0645C19.2546 39.2516 19.3197 39.4429 19.3604 39.6382C19.4092 39.8254 19.4377 40.0085 19.4458 40.1875C19.4539 40.3584 19.458 40.5049 19.458 40.627ZM30.7495 44.3989C30.7495 44.1955 30.6844 44.0409 30.5542 43.9351C30.424 43.8293 30.2572 43.7764 30.0537 43.7764C29.7689 43.7764 29.4963 43.8415 29.2358 43.9717C28.9836 44.1019 28.7598 44.2931 28.5645 44.5454C28.3691 44.7977 28.2145 45.111 28.1006 45.4854C27.9867 45.8516 27.9297 46.2788 27.9297 46.7671C27.9297 47.2391 27.9622 47.6297 28.0273 47.939C28.1006 48.2482 28.1942 48.4964 28.3081 48.6836C28.4302 48.8626 28.5685 48.9888 28.7231 49.062C28.8778 49.1353 29.0405 49.1719 29.2114 49.1719C29.423 49.1719 29.6224 49.119 29.8096 49.0132C29.9967 48.8993 30.1595 48.7568 30.2979 48.5859C30.4362 48.415 30.5461 48.2238 30.6274 48.0122C30.7088 47.8006 30.7495 47.589 30.7495 47.3774V44.3989ZM28.8086 39.0522C28.5319 39.0522 28.2756 39.0848 28.0396 39.1499C27.8035 39.215 27.6001 39.2964 27.4292 39.394C27.2583 39.4917 27.124 39.6016 27.0264 39.7236C26.9287 39.8376 26.8799 39.9474 26.8799 40.0532C26.8799 40.1753 26.9409 40.2648 27.063 40.3218C27.1932 40.3706 27.3356 40.4316 27.4902 40.5049C27.6449 40.57 27.7832 40.6676 27.9053 40.7979C28.0355 40.9199 28.1006 41.1112 28.1006 41.3716C28.1006 41.5425 28.064 41.7012 27.9907 41.8477C27.9256 41.986 27.832 42.1121 27.71 42.2261C27.596 42.3319 27.4577 42.4173 27.2949 42.4824C27.1403 42.5394 26.9775 42.5679 26.8066 42.5679C26.3509 42.5679 25.9806 42.4132 25.6958 42.104C25.4191 41.7948 25.2808 41.3838 25.2808 40.8711C25.2808 40.3747 25.411 39.9515 25.6714 39.6016C25.9318 39.2435 26.2695 38.9505 26.6846 38.7227C27.1077 38.4948 27.5838 38.328 28.1128 38.2222C28.6418 38.1082 29.1707 38.0513 29.6997 38.0513C30.3345 38.0513 30.9408 38.1204 31.5186 38.2588C32.0964 38.3971 32.605 38.6169 33.0444 38.918C33.492 39.2191 33.846 39.6016 34.1064 40.0654C34.375 40.5293 34.5093 41.0908 34.5093 41.75V48.647C34.5093 48.7202 34.5133 48.8016 34.5215 48.8911C34.5296 48.9806 34.55 49.062 34.5825 49.1353C34.6151 49.2085 34.6639 49.2695 34.729 49.3184C34.7941 49.3672 34.8877 49.3916 35.0098 49.3916C35.1562 49.3916 35.2905 49.3387 35.4126 49.2329C35.5428 49.119 35.6567 49.005 35.7544 48.8911L36.0596 49.1475C35.9375 49.3184 35.791 49.5055 35.6201 49.709C35.4492 49.9124 35.2417 50.1037 34.9976 50.2827C34.7534 50.4618 34.4686 50.6123 34.1431 50.7344C33.8175 50.8564 33.4473 50.9175 33.0322 50.9175C32.5195 50.9175 32.0638 50.7669 31.665 50.4658C31.2663 50.1566 31.0059 49.6846 30.8838 49.0498C30.6234 49.3997 30.3507 49.6927 30.0659 49.9287C29.7892 50.1647 29.5044 50.356 29.2114 50.5024C28.9185 50.6489 28.6214 50.7547 28.3203 50.8198C28.0273 50.8849 27.7303 50.9175 27.4292 50.9175C27.0386 50.9175 26.6602 50.8564 26.2939 50.7344C25.9277 50.6123 25.5981 50.4211 25.3052 50.1606C25.0203 49.8921 24.7884 49.5462 24.6094 49.123C24.4385 48.6999 24.353 48.1831 24.353 47.5728C24.353 46.8322 24.4995 46.2259 24.7925 45.7539C25.0854 45.2819 25.4679 44.8872 25.9399 44.5698C26.4201 44.2443 26.9613 43.9676 27.5635 43.7397C28.1738 43.5119 28.7964 43.2718 29.4312 43.0195C29.9032 42.8324 30.245 42.5557 30.4565 42.1895C30.6763 41.8151 30.7861 41.4326 30.7861 41.042C30.7861 40.4398 30.6071 39.9596 30.249 39.6016C29.8991 39.2354 29.4189 39.0522 28.8086 39.0522ZM44.8853 44.6431C44.8853 43.6177 44.8364 42.7998 44.7388 42.1895C44.6493 41.571 44.5272 41.103 44.3726 40.7856C44.2179 40.4601 44.047 40.2485 43.8599 40.1509C43.6727 40.0451 43.4814 39.9922 43.2861 39.9922C43.0501 39.9922 42.8385 40.0573 42.6514 40.1875C42.4723 40.3096 42.3136 40.452 42.1753 40.6147C42.0451 40.7775 41.9312 40.9403 41.8335 41.103C41.744 41.2658 41.6667 41.3879 41.6016 41.4692V49.6235C41.6016 49.7293 41.5853 49.8595 41.5527 50.0142C41.5202 50.1606 41.4388 50.3031 41.3086 50.4414C41.1865 50.5716 40.9993 50.6815 40.7471 50.771C40.5029 50.8687 40.1652 50.9175 39.7339 50.9175C39.3026 50.9175 38.9608 50.8646 38.7085 50.7588C38.4644 50.6611 38.2772 50.5431 38.147 50.4048C38.0168 50.2664 37.9354 50.124 37.9028 49.9775C37.8703 49.8311 37.854 49.7131 37.854 49.6235V40.1997C37.854 39.9637 37.797 39.7603 37.6831 39.5894C37.5773 39.4103 37.3942 39.3208 37.1338 39.3208C36.9954 39.3208 36.8774 39.3452 36.7798 39.394C36.6821 39.4429 36.5763 39.512 36.4624 39.6016L36.2061 39.2964C36.3932 39.1418 36.6007 38.9912 36.8286 38.8447C37.0646 38.6901 37.3169 38.5558 37.5854 38.4419C37.854 38.328 38.1429 38.2344 38.4521 38.1611C38.7614 38.0879 39.0869 38.0513 39.4287 38.0513C39.9577 38.0513 40.3687 38.1408 40.6616 38.3198C40.9546 38.4907 41.1702 38.6982 41.3086 38.9424C41.4469 39.1865 41.5283 39.4429 41.5527 39.7114C41.5853 39.9718 41.6016 40.1916 41.6016 40.3706C41.9027 39.9393 42.2445 39.5527 42.627 39.2109C42.7816 39.0645 42.9525 38.922 43.1396 38.7837C43.335 38.6453 43.5384 38.5233 43.75 38.4175C43.9697 38.3035 44.1976 38.214 44.4336 38.1489C44.6777 38.0838 44.9259 38.0513 45.1782 38.0513C45.7316 38.0513 46.2199 38.1571 46.6431 38.3687C47.0744 38.5802 47.4365 38.9342 47.7295 39.4307C48.0225 39.9271 48.2463 40.5863 48.4009 41.4082C48.5555 42.222 48.6328 43.2352 48.6328 44.4478C48.6328 45.6278 48.527 46.6532 48.3154 47.5239C48.1038 48.3947 47.8271 49.1353 47.4854 49.7456C47.1436 50.356 46.757 50.8524 46.3257 51.2349C45.8944 51.6255 45.459 51.9307 45.0195 52.1504C44.5801 52.3701 44.1569 52.5207 43.75 52.6021C43.3512 52.6916 43.0054 52.7404 42.7124 52.7485L42.5781 52.248C42.8223 52.1911 43.0461 52.1016 43.2495 51.9795C43.4611 51.8574 43.6523 51.6784 43.8232 51.4424C43.9941 51.2064 44.1447 50.9093 44.2749 50.5513C44.4051 50.1851 44.515 49.7293 44.6045 49.1841C44.7021 48.6388 44.7713 47.9959 44.812 47.2554C44.8608 46.5067 44.8853 45.6359 44.8853 44.6431ZM55.0781 39.0278C54.891 39.0278 54.7119 39.0522 54.541 39.1011C54.3783 39.1499 54.2318 39.2313 54.1016 39.3452C53.9714 39.451 53.8696 39.5894 53.7964 39.7603C53.7231 39.923 53.6865 40.1183 53.6865 40.3462C53.6865 40.6636 53.8005 40.981 54.0283 41.2983C54.2643 41.6076 54.5532 41.9331 54.895 42.2749C55.245 42.6086 55.6193 42.9585 56.0181 43.3247C56.425 43.6828 56.7993 44.0653 57.1411 44.4722C57.491 44.8709 57.7799 45.2982 58.0078 45.7539C58.2438 46.2096 58.3618 46.6979 58.3618 47.2188C58.3618 47.8047 58.2601 48.3255 58.0566 48.7812C57.8613 49.237 57.5765 49.6235 57.2021 49.9409C56.8359 50.2583 56.3883 50.5024 55.8594 50.6733C55.3385 50.8361 54.7567 50.9175 54.1138 50.9175C53.5522 50.9175 53.0436 50.8402 52.5879 50.6855C52.1322 50.5228 51.7253 50.3275 51.3672 50.0996C51.0173 49.8636 50.7161 49.6154 50.4639 49.355C50.2116 49.0946 50.0163 48.8586 49.8779 48.647L50.3052 48.3418C50.411 48.4639 50.5452 48.5981 50.708 48.7446C50.8708 48.883 51.0498 49.0132 51.2451 49.1353C51.4486 49.2573 51.6642 49.359 51.8921 49.4404C52.12 49.5137 52.3519 49.5503 52.5879 49.5503C53.1738 49.5503 53.654 49.4119 54.0283 49.1353C54.4027 48.8504 54.5898 48.4313 54.5898 47.8779C54.5898 47.5687 54.4881 47.2513 54.2847 46.9258C54.0812 46.5921 53.8249 46.2503 53.5156 45.9004C53.2064 45.5505 52.8727 45.1883 52.5146 44.814C52.1566 44.4396 51.8229 44.0531 51.5137 43.6543C51.2044 43.2555 50.9481 42.8446 50.7446 42.4214C50.5412 41.9982 50.4395 41.5588 50.4395 41.103C50.4395 40.5903 50.5412 40.1427 50.7446 39.7603C50.9562 39.3778 51.2329 39.0604 51.5747 38.8081C51.9246 38.5558 52.3193 38.3687 52.7588 38.2466C53.2064 38.1164 53.6662 38.0513 54.1382 38.0513C54.6834 38.0513 55.1799 38.1001 55.6274 38.1978C56.075 38.2954 56.4575 38.446 56.7749 38.6494C57.1004 38.8447 57.3486 39.0929 57.5195 39.394C57.6986 39.6951 57.7881 40.0451 57.7881 40.4438C57.7881 40.7531 57.6864 41.0216 57.4829 41.2495C57.2795 41.4774 56.9946 41.5913 56.6284 41.5913C56.2785 41.5913 56.0099 41.5181 55.8228 41.3716C55.6437 41.217 55.5542 41.0094 55.5542 40.749C55.5542 40.5781 55.5949 40.4438 55.6763 40.3462C55.7658 40.2485 55.8634 40.1712 55.9692 40.1143C56.075 40.0492 56.1686 39.9963 56.25 39.9556C56.3395 39.9067 56.3843 39.8457 56.3843 39.7725C56.3843 39.5446 56.2622 39.3656 56.0181 39.2354C55.7739 39.097 55.4606 39.0278 55.0781 39.0278ZM66.6504 32.5703C66.4225 32.5703 66.2069 32.6191 66.0034 32.7168C65.8 32.8145 65.6209 32.9731 65.4663 33.1929C65.3198 33.4045 65.2018 33.6771 65.1123 34.0107C65.0228 34.3444 64.978 34.7472 64.978 35.2192V38.2222H67.6514V39.1011H64.978V48.7202C64.978 49.827 64.8315 50.8483 64.5386 51.7842C64.2537 52.7201 63.8184 53.5257 63.2324 54.2012C62.6465 54.8848 61.9141 55.4178 61.0352 55.8003C60.1562 56.1828 59.1309 56.374 57.959 56.374C57.5439 56.374 57.1452 56.3374 56.7627 56.2642C56.3802 56.1991 56.0425 56.1055 55.7495 55.9834C55.4565 55.8613 55.2246 55.7148 55.0537 55.5439C54.8747 55.3812 54.7852 55.1981 54.7852 54.9946C54.7852 54.8481 54.8055 54.6976 54.8462 54.543C54.8869 54.3965 54.9479 54.2622 55.0293 54.1401C55.1107 54.0181 55.2124 53.9163 55.3345 53.835C55.4484 53.7617 55.5827 53.7251 55.7373 53.7251C55.8268 53.7251 55.9082 53.7699 55.9814 53.8594C56.0465 53.9489 56.1157 54.0588 56.189 54.189C56.2622 54.3192 56.3477 54.4616 56.4453 54.6162C56.5348 54.779 56.6528 54.9255 56.7993 55.0557C56.9458 55.1859 57.1289 55.2957 57.3486 55.3853C57.5602 55.4748 57.8206 55.5195 58.1299 55.5195C58.5449 55.5195 58.9111 55.4341 59.2285 55.2632C59.5459 55.1004 59.8185 54.8726 60.0464 54.5796C60.2743 54.2866 60.4655 53.9408 60.6201 53.542C60.7747 53.1432 60.8968 52.716 60.9863 52.2603C61.0758 51.8045 61.1369 51.3285 61.1694 50.832C61.2101 50.3356 61.2305 49.8392 61.2305 49.3428V39.1011H58.9844V38.2222H61.2305V36.7939C61.2305 36.0778 61.3159 35.4552 61.4868 34.9263C61.6659 34.3892 61.8978 33.9334 62.1826 33.5591C62.4756 33.1847 62.8052 32.8796 63.1714 32.6436C63.5376 32.4076 63.9079 32.2204 64.2822 32.082C64.6647 31.9437 65.035 31.8501 65.3931 31.8013C65.7511 31.7524 66.0645 31.728 66.333 31.728C66.9108 31.728 67.4235 31.7728 67.8711 31.8623C68.3187 31.9437 68.693 32.0576 68.9941 32.2041C69.2952 32.3424 69.5231 32.5052 69.6777 32.6924C69.8324 32.8796 69.9097 33.0708 69.9097 33.2661C69.9097 33.4126 69.8853 33.5632 69.8364 33.7178C69.7957 33.8643 69.7347 34.0026 69.6533 34.1328C69.5719 34.2549 69.4702 34.3566 69.3481 34.438C69.2342 34.5112 69.104 34.5479 68.9575 34.5479C68.868 34.5479 68.7866 34.499 68.7134 34.4014C68.6401 34.3037 68.5628 34.1816 68.4814 34.0352C68.4001 33.8887 68.3105 33.73 68.2129 33.5591C68.1152 33.3882 67.9932 33.2295 67.8467 33.083C67.7083 32.9365 67.5415 32.8145 67.3462 32.7168C67.1509 32.6191 66.9189 32.5703 66.6504 32.5703ZM67.7368 44.4722C67.7368 43.4061 67.8914 42.4743 68.2007 41.6768C68.5099 40.8711 68.9209 40.1997 69.4336 39.6626C69.9544 39.1255 70.5566 38.7227 71.2402 38.4541C71.9238 38.1855 72.64 38.0513 73.3887 38.0513C74.1374 38.0513 74.8535 38.1774 75.5371 38.4297C76.2207 38.6738 76.8188 39.0522 77.3315 39.5649C77.8524 40.0776 78.2674 40.7287 78.5767 41.5181C78.8859 42.2993 79.0405 43.2271 79.0405 44.3013C79.0405 45.3674 78.8859 46.3114 78.5767 47.1333C78.2674 47.9552 77.8524 48.647 77.3315 49.2085C76.8188 49.77 76.2207 50.1973 75.5371 50.4902C74.8535 50.7751 74.1374 50.9175 73.3887 50.9175C72.64 50.9175 71.9238 50.7832 71.2402 50.5146C70.5566 50.238 69.9544 49.8311 69.4336 49.2939C68.9209 48.7568 68.5099 48.0854 68.2007 47.2798C67.8914 46.4741 67.7368 45.5382 67.7368 44.4722ZM75.2441 44.3501C75.2441 43.6991 75.2197 43.0724 75.1709 42.4702C75.1302 41.8599 75.0448 41.3187 74.9146 40.8467C74.7843 40.3747 74.5972 40.0003 74.353 39.7236C74.1089 39.4388 73.7874 39.2964 73.3887 39.2964C72.9899 39.2964 72.6685 39.4469 72.4243 39.748C72.1802 40.041 71.993 40.4316 71.8628 40.9199C71.7326 41.4001 71.6471 41.9494 71.6064 42.5679C71.5658 43.1864 71.5454 43.8211 71.5454 44.4722C71.5454 45.1232 71.5658 45.762 71.6064 46.3887C71.6471 47.0072 71.7326 47.5605 71.8628 48.0488C71.993 48.5371 72.1802 48.9318 72.4243 49.2329C72.6685 49.5259 72.9899 49.6724 73.3887 49.6724C73.7874 49.6724 74.1089 49.5177 74.353 49.2085C74.5972 48.8993 74.7843 48.4924 74.9146 47.9878C75.0448 47.4832 75.1302 46.9136 75.1709 46.2788C75.2197 45.644 75.2441 45.0011 75.2441 44.3501ZM85.2295 40.627C85.5387 40.1549 85.8683 39.7277 86.2183 39.3452C86.3647 39.1825 86.5234 39.0238 86.6943 38.8691C86.8652 38.7145 87.0402 38.5762 87.2192 38.4541C87.4064 38.332 87.5977 38.2344 87.793 38.1611C87.9883 38.0879 88.1836 38.0513 88.3789 38.0513C88.7939 38.0513 89.1195 38.1774 89.3555 38.4297C89.5915 38.6738 89.7095 39.0197 89.7095 39.4673C89.7095 39.744 89.6851 40.0125 89.6362 40.2729C89.5955 40.5252 89.5101 40.8345 89.3799 41.2007H89.0381C88.9893 40.9484 88.8753 40.7409 88.6963 40.5781C88.5173 40.4072 88.2568 40.3218 87.915 40.3218C87.6628 40.3218 87.4146 40.3706 87.1704 40.4683C86.9263 40.5578 86.6862 40.6717 86.4502 40.8101C86.2223 40.9484 86.0026 41.099 85.791 41.2617C85.5876 41.4245 85.4004 41.5791 85.2295 41.7256V49.6479C85.2295 49.7537 85.2132 49.8799 85.1807 50.0264C85.1481 50.1729 85.0667 50.3112 84.9365 50.4414C84.8145 50.5716 84.6273 50.6815 84.375 50.771C84.1309 50.8687 83.7931 50.9175 83.3618 50.9175C82.9305 50.9175 82.5887 50.8646 82.3364 50.7588C82.0923 50.6611 81.9051 50.5431 81.7749 50.4048C81.6447 50.2664 81.5633 50.124 81.5308 49.9775C81.4982 49.8311 81.4819 49.7131 81.4819 49.6235V40.1997C81.4819 39.9637 81.425 39.7603 81.311 39.5894C81.2052 39.4103 81.0221 39.3208 80.7617 39.3208C80.6234 39.3208 80.5054 39.3452 80.4077 39.394C80.3101 39.4429 80.2043 39.512 80.0903 39.6016L79.834 39.2964C80.0212 39.1418 80.2287 38.9912 80.4565 38.8447C80.6925 38.6901 80.9448 38.5558 81.2134 38.4419C81.4819 38.328 81.7708 38.2344 82.0801 38.1611C82.3893 38.0879 82.7148 38.0513 83.0566 38.0513C83.4066 38.0513 83.7036 38.1001 83.9478 38.1978C84.2 38.2873 84.4035 38.4093 84.5581 38.564C84.7209 38.7104 84.847 38.8773 84.9365 39.0645C85.026 39.2516 85.0911 39.4429 85.1318 39.6382C85.1807 39.8254 85.2091 40.0085 85.2173 40.1875C85.2254 40.3584 85.2295 40.5049 85.2295 40.627ZM101.697 49.6479C101.697 49.7537 101.681 49.8799 101.648 50.0264C101.615 50.1729 101.534 50.3112 101.404 50.4414C101.282 50.5716 101.095 50.6815 100.842 50.771C100.59 50.8687 100.248 50.9175 99.8169 50.9175C99.3856 50.9175 99.0438 50.8646 98.7915 50.7588C98.5474 50.6611 98.3602 50.5431 98.23 50.4048C98.1079 50.2664 98.0306 50.124 97.998 49.9775C97.9655 49.8311 97.9492 49.7131 97.9492 49.6235V40.9932C97.9492 40.8792 97.9329 40.7653 97.9004 40.6514C97.8678 40.5293 97.819 40.4194 97.7539 40.3218C97.6888 40.2241 97.6074 40.1468 97.5098 40.0898C97.4121 40.0247 97.2982 39.9922 97.168 39.9922C96.9482 39.9922 96.7326 40.0573 96.521 40.1875C96.3094 40.3096 96.11 40.452 95.9229 40.6147C95.7438 40.7775 95.5851 40.9403 95.4468 41.103C95.3166 41.2658 95.223 41.3879 95.166 41.4692V49.6479C95.166 49.7537 95.1497 49.8799 95.1172 50.0264C95.0846 50.1729 95.0033 50.3112 94.873 50.4414C94.751 50.5716 94.5638 50.6815 94.3115 50.771C94.0674 50.8687 93.7297 50.9175 93.2983 50.9175C92.867 50.9175 92.5252 50.8646 92.2729 50.7588C92.0288 50.6611 91.8416 50.5431 91.7114 50.4048C91.5812 50.2664 91.4998 50.124 91.4673 49.9775C91.4347 49.8311 91.4185 49.7131 91.4185 49.6235V40.1997C91.4185 39.9637 91.3615 39.7603 91.2476 39.5894C91.1418 39.4103 90.9587 39.3208 90.6982 39.3208C90.5599 39.3208 90.4419 39.3452 90.3442 39.394C90.2466 39.4429 90.1408 39.512 90.0269 39.6016L89.7705 39.2964C89.9577 39.1418 90.1652 38.9912 90.3931 38.8447C90.6291 38.6901 90.8813 38.5558 91.1499 38.4419C91.4185 38.328 91.7074 38.2344 92.0166 38.1611C92.3258 38.0879 92.6514 38.0513 92.9932 38.0513C93.5221 38.0513 93.9331 38.1408 94.2261 38.3198C94.519 38.4907 94.7347 38.6982 94.873 38.9424C95.0114 39.1865 95.0928 39.4429 95.1172 39.7114C95.1497 39.9718 95.166 40.1916 95.166 40.3706C95.5485 39.9393 95.9595 39.5527 96.3989 39.2109C96.578 39.0645 96.7733 38.922 96.9849 38.7837C97.2046 38.6453 97.4284 38.5233 97.6562 38.4175C97.8841 38.3035 98.1201 38.214 98.3643 38.1489C98.6084 38.0838 98.8525 38.0513 99.0967 38.0513C99.5687 38.0513 99.9715 38.1367 100.305 38.3076C100.639 38.4785 100.907 38.686 101.111 38.9302C101.314 39.1662 101.461 39.4185 101.55 39.687C101.648 39.9474 101.697 40.1753 101.697 40.3706C102.087 39.9393 102.498 39.5527 102.93 39.2109C103.109 39.0645 103.304 38.922 103.516 38.7837C103.727 38.6453 103.947 38.5233 104.175 38.4175C104.411 38.3035 104.647 38.214 104.883 38.1489C105.127 38.0838 105.371 38.0513 105.615 38.0513C106.087 38.0513 106.49 38.1408 106.824 38.3198C107.157 38.4907 107.426 38.7186 107.629 39.0034C107.833 39.2882 107.979 39.6097 108.069 39.9678C108.167 40.3258 108.215 40.6839 108.215 41.042V48.5981C108.215 48.6714 108.219 48.7528 108.228 48.8423C108.236 48.9237 108.256 49.005 108.289 49.0864C108.321 49.1597 108.37 49.2207 108.435 49.2695C108.508 49.3184 108.602 49.3428 108.716 49.3428C108.87 49.3428 109.009 49.2899 109.131 49.1841C109.253 49.0701 109.367 48.9562 109.473 48.8423L109.766 49.0986C109.652 49.2695 109.501 49.4608 109.314 49.6724C109.127 49.8758 108.903 50.0711 108.643 50.2583C108.39 50.4455 108.093 50.6001 107.751 50.7222C107.418 50.8524 107.039 50.9175 106.616 50.9175C106.258 50.9175 105.945 50.8687 105.676 50.771C105.416 50.6815 105.192 50.5594 105.005 50.4048C104.826 50.242 104.692 50.0549 104.602 49.8433C104.513 49.6235 104.468 49.3916 104.468 49.1475V40.9932C104.468 40.8792 104.451 40.7653 104.419 40.6514C104.386 40.5293 104.338 40.4194 104.272 40.3218C104.215 40.2241 104.138 40.1468 104.041 40.0898C103.943 40.0247 103.829 39.9922 103.699 39.9922C103.479 39.9922 103.259 40.0573 103.04 40.1875C102.828 40.3096 102.629 40.452 102.441 40.6147C102.262 40.7775 102.108 40.9403 101.978 41.103C101.847 41.2658 101.754 41.3879 101.697 41.4692V49.6479ZM127.075 45.5708H122.473C122.131 46.645 121.761 47.5768 121.362 48.3662C120.972 49.1556 120.536 49.8107 120.056 50.3315C119.576 50.8524 119.047 51.2389 118.469 51.4912C117.9 51.7435 117.261 51.8696 116.553 51.8696C116.162 51.8696 115.788 51.833 115.43 51.7598C115.063 51.6947 114.742 51.6011 114.465 51.479C114.189 51.3569 113.969 51.2104 113.806 51.0396C113.635 50.8768 113.55 50.6978 113.55 50.5024C113.55 50.356 113.574 50.2095 113.623 50.063C113.664 49.9084 113.725 49.77 113.806 49.6479C113.888 49.5177 113.989 49.416 114.111 49.3428C114.225 49.2614 114.355 49.2207 114.502 49.2207C114.632 49.2207 114.746 49.3102 114.844 49.4893C114.941 49.6683 115.068 49.8677 115.222 50.0874C115.369 50.299 115.56 50.4943 115.796 50.6733C116.032 50.8524 116.357 50.9419 116.772 50.9419C117.196 50.9419 117.598 50.8402 117.981 50.6367C118.363 50.4333 118.73 50.1159 119.08 49.6846C119.438 49.2451 119.779 48.6877 120.105 48.0122C120.431 47.3368 120.748 46.5229 121.057 45.5708H118.176V44.4966H121.375C121.643 43.5851 121.903 42.6655 122.156 41.7378C122.416 40.8101 122.66 39.9189 122.888 39.0645C123.116 38.21 123.319 37.4124 123.499 36.6719C123.678 35.9232 123.828 35.2721 123.95 34.7188C123.787 34.263 123.564 33.9578 123.279 33.8032C123.002 33.6486 122.628 33.5713 122.156 33.5713C121.716 33.5713 121.261 33.6405 120.789 33.7788C120.325 33.909 119.902 34.1003 119.519 34.3525C119.137 34.5967 118.819 34.9019 118.567 35.2681C118.323 35.6261 118.201 36.029 118.201 36.4766C118.201 36.737 118.233 36.9445 118.298 37.0991C118.372 37.2537 118.453 37.3717 118.542 37.4531C118.64 37.5264 118.734 37.5752 118.823 37.5996C118.913 37.6159 118.982 37.624 119.031 37.624C119.226 37.624 119.389 37.5915 119.519 37.5264C119.657 37.4531 119.775 37.3799 119.873 37.3066C119.979 37.2253 120.081 37.152 120.178 37.0869C120.276 37.0137 120.386 36.9771 120.508 36.9771C120.597 36.9771 120.695 37.0015 120.801 37.0503C120.915 37.091 121.016 37.1602 121.106 37.2578C121.204 37.3555 121.285 37.4857 121.35 37.6484C121.415 37.8031 121.448 37.9943 121.448 38.2222C121.448 38.5477 121.383 38.8285 121.252 39.0645C121.13 39.3005 120.968 39.4998 120.764 39.6626C120.569 39.8172 120.341 39.9352 120.081 40.0166C119.828 40.0898 119.576 40.1265 119.324 40.1265C118.933 40.1265 118.579 40.0573 118.262 39.9189C117.952 39.7725 117.688 39.5771 117.468 39.333C117.249 39.0889 117.082 38.804 116.968 38.4785C116.854 38.153 116.797 37.8112 116.797 37.4531C116.797 36.916 116.886 36.4237 117.065 35.9761C117.244 35.5203 117.493 35.1094 117.81 34.7432C118.127 34.3688 118.502 34.0433 118.933 33.7666C119.364 33.4818 119.828 33.2458 120.325 33.0586C120.829 32.8633 121.354 32.7168 121.899 32.6191C122.445 32.5215 122.994 32.4727 123.547 32.4727C124.329 32.4727 124.988 32.5378 125.525 32.668C126.07 32.79 126.526 32.9772 126.892 33.2295C127.258 33.4736 127.551 33.7869 127.771 34.1694C127.999 34.5438 128.186 34.9792 128.333 35.4756L130.957 44.4966H133.606V45.5708H131.25L132.202 48.769C132.235 48.8911 132.267 49.005 132.3 49.1108C132.332 49.2166 132.369 49.3102 132.41 49.3916C132.458 49.4648 132.515 49.5259 132.581 49.5747C132.654 49.6235 132.743 49.6479 132.849 49.6479C133.077 49.6479 133.289 49.6113 133.484 49.5381C133.679 49.4567 133.85 49.3753 133.997 49.2939L134.204 49.7456C134.058 49.8514 133.87 49.9735 133.643 50.1118C133.423 50.242 133.167 50.3682 132.874 50.4902C132.589 50.6123 132.271 50.714 131.921 50.7954C131.571 50.8768 131.197 50.9175 130.798 50.9175C130.245 50.9175 129.797 50.8483 129.456 50.71C129.122 50.5716 128.857 50.4007 128.662 50.1973C128.475 49.9938 128.337 49.7782 128.247 49.5503C128.166 49.3224 128.101 49.123 128.052 48.9521L127.075 45.5708ZM124.707 37.3188C124.373 38.6779 124.048 39.9556 123.73 41.1519C123.421 42.3481 123.112 43.4631 122.803 44.4966H126.782L124.707 37.3188ZM139.624 40.627C139.933 40.1549 140.263 39.7277 140.613 39.3452C140.759 39.1825 140.918 39.0238 141.089 38.8691C141.26 38.7145 141.435 38.5762 141.614 38.4541C141.801 38.332 141.992 38.2344 142.188 38.1611C142.383 38.0879 142.578 38.0513 142.773 38.0513C143.188 38.0513 143.514 38.1774 143.75 38.4297C143.986 38.6738 144.104 39.0197 144.104 39.4673C144.104 39.744 144.08 40.0125 144.031 40.2729C143.99 40.5252 143.905 40.8345 143.774 41.2007H143.433C143.384 40.9484 143.27 40.7409 143.091 40.5781C142.912 40.4072 142.651 40.3218 142.31 40.3218C142.057 40.3218 141.809 40.3706 141.565 40.4683C141.321 40.5578 141.081 40.6717 140.845 40.8101C140.617 40.9484 140.397 41.099 140.186 41.2617C139.982 41.4245 139.795 41.5791 139.624 41.7256V49.6479C139.624 49.7537 139.608 49.8799 139.575 50.0264C139.543 50.1729 139.461 50.3112 139.331 50.4414C139.209 50.5716 139.022 50.6815 138.77 50.771C138.525 50.8687 138.188 50.9175 137.756 50.9175C137.325 50.9175 136.983 50.8646 136.731 50.7588C136.487 50.6611 136.3 50.5431 136.169 50.4048C136.039 50.2664 135.958 50.124 135.925 49.9775C135.893 49.8311 135.876 49.7131 135.876 49.6235V40.1997C135.876 39.9637 135.819 39.7603 135.706 39.5894C135.6 39.4103 135.417 39.3208 135.156 39.3208C135.018 39.3208 134.9 39.3452 134.802 39.394C134.705 39.4429 134.599 39.512 134.485 39.6016L134.229 39.2964C134.416 39.1418 134.623 38.9912 134.851 38.8447C135.087 38.6901 135.339 38.5558 135.608 38.4419C135.876 38.328 136.165 38.2344 136.475 38.1611C136.784 38.0879 137.109 38.0513 137.451 38.0513C137.801 38.0513 138.098 38.1001 138.342 38.1978C138.595 38.2873 138.798 38.4093 138.953 38.564C139.115 38.7104 139.242 38.8773 139.331 39.0645C139.421 39.2516 139.486 39.4429 139.526 39.6382C139.575 39.8254 139.604 40.0085 139.612 40.1875C139.62 40.3584 139.624 40.5049 139.624 40.627ZM149.622 39.1011V48.1221C149.622 48.5534 149.703 48.8545 149.866 49.0254C150.028 49.1882 150.252 49.2695 150.537 49.2695C150.757 49.2695 150.952 49.2085 151.123 49.0864C151.294 48.9644 151.44 48.826 151.562 48.6714C151.709 48.5005 151.835 48.3011 151.941 48.0732L152.319 48.2441C152.197 48.5046 152.051 48.7894 151.88 49.0986C151.717 49.4079 151.497 49.6968 151.221 49.9653C150.944 50.2257 150.594 50.4455 150.171 50.6245C149.756 50.8035 149.231 50.8931 148.596 50.8931C148.238 50.8931 147.892 50.8402 147.559 50.7344C147.233 50.6286 146.94 50.4618 146.68 50.2339C146.427 50.006 146.224 49.7212 146.069 49.3794C145.915 49.0376 145.837 48.6266 145.837 48.1465V39.1011H144.47V38.2222C144.698 38.2222 145.015 38.1652 145.422 38.0513C145.829 37.9292 146.244 37.7298 146.667 37.4531C147.099 37.1764 147.498 36.8062 147.864 36.3423C148.23 35.8784 148.49 35.3047 148.645 34.6211H149.622V38.2222H151.611C152.262 38.2222 152.588 38.1123 152.588 37.8926C152.588 37.8112 152.547 37.7583 152.466 37.7339C152.384 37.7013 152.291 37.6647 152.185 37.624C152.087 37.5752 151.998 37.5101 151.917 37.4287C151.835 37.3473 151.794 37.2131 151.794 37.0259C151.794 36.798 151.864 36.619 152.002 36.4888C152.148 36.3586 152.336 36.2935 152.563 36.2935C152.71 36.2935 152.836 36.326 152.942 36.3911C153.056 36.4481 153.149 36.5295 153.223 36.6353C153.296 36.7329 153.349 36.8468 153.381 36.9771C153.422 37.1073 153.442 37.2375 153.442 37.3677C153.442 37.8966 153.288 38.3198 152.979 38.6372C152.677 38.9465 152.189 39.1011 151.514 39.1011H149.622Z" fill="white" fill-opacity="0.87"/>
<g opacity="0.37">
<ellipse cx="170.365" cy="38.5606" rx="9.93192" ry="9.62242" fill="#70C8CE" fill-opacity="0.79"/>
<ellipse cx="189.068" cy="38.5607" rx="9.93193" ry="9.62242" fill="#70C8CE" fill-opacity="0.79"/>
<ellipse cx="172.558" cy="50.6824" rx="7.09423" ry="6.87316" fill="#70C8CE" fill-opacity="0.79"/>
<ellipse cx="186.23" cy="50.6824" rx="7.09423" ry="6.87316" fill="#70C8CE" fill-opacity="0.79"/>
<rect x="173.719" y="38.0608" width="10.4479" height="11.6219" fill="#70C8CE" fill-opacity="0.79"/>
</g>
<g opacity="0.55">
<ellipse cx="172.1" cy="39.6568" rx="8.27412" ry="7.85691" fill="#70C8CE" fill-opacity="0.79"/>
<ellipse cx="187.681" cy="39.6568" rx="8.27412" ry="7.85691" fill="#70C8CE" fill-opacity="0.79"/>
<ellipse cx="173.927" cy="49.5545" rx="5.91007" ry="5.61208" fill="#70C8CE" fill-opacity="0.79"/>
<ellipse cx="185.317" cy="49.5545" rx="5.91008" ry="5.61208" fill="#70C8CE" fill-opacity="0.79"/>
<rect x="174.894" y="39.2487" width="8.70395" height="9.48952" fill="#70C8CE" fill-opacity="0.79"/>
</g>
<ellipse cx="173.835" cy="40.2799" rx="6.61629" ry="6.19053" fill="#7FDEE4"/>
<ellipse cx="186.294" cy="40.2799" rx="6.61629" ry="6.19053" fill="#7FDEE4"/>
<ellipse cx="175.296" cy="48.0783" rx="4.72592" ry="4.4218" fill="#7FDEE4"/>
<ellipse cx="184.404" cy="48.0783" rx="4.72592" ry="4.4218" fill="#7FDEE4"/>
<rect x="176.069" y="39.9583" width="6.96002" height="7.47687" fill="#7FDEE4"/>
<path d="M182.083 28.1172C182.46 27.7832 182.72 27.4214 182.862 27.0317C183.011 26.6421 183.085 26.2741 183.085 25.9277C183.085 25.5381 183.005 25.201 182.844 24.9165C182.689 24.6258 182.516 24.3753 182.324 24.165C182.238 24.0599 182.194 23.9269 182.194 23.7661C182.194 23.5991 182.241 23.4259 182.334 23.2466C182.426 23.061 182.547 22.891 182.695 22.7363C182.85 22.5817 183.026 22.4549 183.224 22.356C183.422 22.257 183.629 22.2075 183.846 22.2075C184.087 22.2075 184.288 22.2879 184.449 22.4487C184.61 22.6034 184.74 22.7951 184.838 23.0239C184.937 23.2528 185.009 23.4971 185.052 23.7568C185.095 24.0104 185.117 24.2362 185.117 24.4341C185.117 24.8547 185.043 25.2567 184.894 25.6401C184.746 26.0298 184.545 26.3947 184.291 26.7349C184.044 27.075 183.753 27.3874 183.419 27.6719C183.085 27.9626 182.733 28.2192 182.361 28.4419L182.083 28.1172Z" fill="#7FDEE4"/>
<path d="M176.773 28.1172C176.395 27.7832 176.135 27.4214 175.993 27.0317C175.845 26.6421 175.771 26.2741 175.771 25.9277C175.771 25.5381 175.851 25.201 176.012 24.9165C176.166 24.6258 176.34 24.3753 176.531 24.165C176.618 24.0599 176.661 23.9269 176.661 23.7661C176.661 23.5991 176.615 23.4259 176.522 23.2466C176.429 23.061 176.309 22.891 176.16 22.7363C176.006 22.5817 175.829 22.4549 175.631 22.356C175.433 22.257 175.226 22.2075 175.01 22.2075C174.769 22.2075 174.568 22.2879 174.407 22.4487C174.246 22.6034 174.116 22.7951 174.017 23.0239C173.918 23.2528 173.847 23.4971 173.804 23.7568C173.76 24.0104 173.739 24.2362 173.739 24.4341C173.739 24.8547 173.813 25.2567 173.961 25.6401C174.11 26.0298 174.311 26.3947 174.565 26.7349C174.812 27.075 175.103 27.3874 175.437 27.6719C175.771 27.9626 176.123 28.2192 176.494 28.4419L176.773 28.1172Z" fill="#7FDEE4"/>
<path d="M15.03 68.812C15.6873 69.0273 16.2087 69.39 16.594 69.9C16.9793 70.3987 17.172 71.022 17.172 71.77C17.172 72.8013 16.7753 73.6003 15.982 74.167C15.1887 74.7223 14.0327 75 12.514 75H6.598V63.1H12.174C13.5793 63.1 14.6617 63.3777 15.421 63.933C16.1803 64.477 16.56 65.2307 16.56 66.194C16.56 66.7833 16.424 67.3047 16.152 67.758C15.88 68.2113 15.506 68.5627 15.03 68.812ZM8.808 64.834V68.115H11.936C12.7067 68.115 13.296 67.979 13.704 67.707C14.1233 67.4237 14.333 67.0157 14.333 66.483C14.333 65.939 14.1233 65.531 13.704 65.259C13.296 64.9757 12.7067 64.834 11.936 64.834H8.808ZM12.378 73.266C14.0893 73.266 14.945 72.6937 14.945 71.549C14.945 70.4043 14.0893 69.832 12.378 69.832H8.808V73.266H12.378ZM27.8606 70.512C27.8606 70.6593 27.8493 70.869 27.8266 71.141H20.7036C20.8283 71.8097 21.1513 72.3423 21.6726 72.739C22.2053 73.1243 22.8626 73.317 23.6446 73.317C24.642 73.317 25.4636 72.9883 26.1096 72.331L27.2486 73.64C26.8406 74.1273 26.325 74.4957 25.7016 74.745C25.0783 74.9943 24.3756 75.119 23.5936 75.119C22.5963 75.119 21.718 74.9207 20.9586 74.524C20.1993 74.1273 19.61 73.5777 19.1906 72.875C18.7826 72.161 18.5786 71.3563 18.5786 70.461C18.5786 69.577 18.777 68.7837 19.1736 68.081C19.5816 67.367 20.1426 66.8117 20.8566 66.415C21.5706 66.0183 22.3753 65.82 23.2706 65.82C24.1546 65.82 24.9423 66.0183 25.6336 66.415C26.3363 66.8003 26.8803 67.35 27.2656 68.064C27.6623 68.7667 27.8606 69.5827 27.8606 70.512ZM23.2706 67.52C22.5906 67.52 22.0126 67.724 21.5366 68.132C21.072 68.5287 20.7886 69.0613 20.6866 69.73H25.8376C25.747 69.0727 25.4693 68.54 25.0046 68.132C24.54 67.724 23.962 67.52 23.2706 67.52ZM29.9018 62.386H32.0268V75H29.9018V62.386ZM34.8159 62.386H36.9409V75H34.8159V62.386ZM48.2639 70.512C48.2639 70.6593 48.2526 70.869 48.2299 71.141H41.1069C41.2316 71.8097 41.5546 72.3423 42.0759 72.739C42.6086 73.1243 43.2659 73.317 44.0479 73.317C45.0453 73.317 45.8669 72.9883 46.5129 72.331L47.6519 73.64C47.2439 74.1273 46.7283 74.4957 46.1049 74.745C45.4816 74.9943 44.7789 75.119 43.9969 75.119C42.9996 75.119 42.1213 74.9207 41.3619 74.524C40.6026 74.1273 40.0133 73.5777 39.5939 72.875C39.1859 72.161 38.9819 71.3563 38.9819 70.461C38.9819 69.577 39.1803 68.7837 39.5769 68.081C39.9849 67.367 40.5459 66.8117 41.2599 66.415C41.9739 66.0183 42.7786 65.82 43.6739 65.82C44.5579 65.82 45.3456 66.0183 46.0369 66.415C46.7396 66.8003 47.2836 67.35 47.6689 68.064C48.0656 68.7667 48.2639 69.5827 48.2639 70.512ZM43.6739 67.52C42.9939 67.52 42.4159 67.724 41.9399 68.132C41.4753 68.5287 41.1919 69.0613 41.0899 69.73H46.2409C46.1503 69.0727 45.8726 68.54 45.4079 68.132C44.9433 67.724 44.3653 67.52 43.6739 67.52ZM57.3111 73.3V75H49.4741V73.657L54.4551 67.622H49.5761V65.922H57.1751V67.265L52.1771 73.3H57.3111ZM62.738 65.82C64.0753 65.82 65.0953 66.143 65.798 66.789C66.512 67.4237 66.869 68.387 66.869 69.679V75H64.863V73.895C64.6023 74.2917 64.2283 74.5977 63.741 74.813C63.265 75.017 62.687 75.119 62.007 75.119C61.327 75.119 60.732 75.0057 60.222 74.779C59.712 74.541 59.3153 74.218 59.032 73.81C58.76 73.3907 58.624 72.9203 58.624 72.399C58.624 71.583 58.9243 70.9313 59.525 70.444C60.137 69.9453 61.0946 69.696 62.398 69.696H64.744V69.56C64.744 68.9253 64.5513 68.438 64.166 68.098C63.792 67.758 63.231 67.588 62.483 67.588C61.973 67.588 61.4686 67.6673 60.97 67.826C60.4826 67.9847 60.069 68.2057 59.729 68.489L58.896 66.942C59.372 66.5793 59.9443 66.3017 60.613 66.109C61.2816 65.9163 61.99 65.82 62.738 65.82ZM62.449 73.572C62.9816 73.572 63.452 73.453 63.86 73.215C64.2793 72.9657 64.574 72.6143 64.744 72.161V71.107H62.551C61.327 71.107 60.715 71.5093 60.715 72.314C60.715 72.6993 60.868 73.0053 61.174 73.232C61.48 73.4587 61.905 73.572 62.449 73.572ZM82.8284 70.512C82.8284 70.6593 82.8171 70.869 82.7944 71.141H75.6714C75.7961 71.8097 76.1191 72.3423 76.6404 72.739C77.1731 73.1243 77.8304 73.317 78.6124 73.317C79.6097 73.317 80.4314 72.9883 81.0774 72.331L82.2164 73.64C81.8084 74.1273 81.2927 74.4957 80.6694 74.745C80.0461 74.9943 79.3434 75.119 78.5614 75.119C77.5641 75.119 76.6857 74.9207 75.9264 74.524C75.1671 74.1273 74.5777 73.5777 74.1584 72.875C73.7504 72.161 73.5464 71.3563 73.5464 70.461C73.5464 69.577 73.7447 68.7837 74.1414 68.081C74.5494 67.367 75.1104 66.8117 75.8244 66.415C76.5384 66.0183 77.3431 65.82 78.2384 65.82C79.1224 65.82 79.9101 66.0183 80.6014 66.415C81.3041 66.8003 81.8481 67.35 82.2334 68.064C82.6301 68.7667 82.8284 69.5827 82.8284 70.512ZM78.2384 67.52C77.5584 67.52 76.9804 67.724 76.5044 68.132C76.0397 68.5287 75.7564 69.0613 75.6544 69.73H80.8054C80.7147 69.0727 80.4371 68.54 79.9724 68.132C79.5077 67.724 78.9297 67.52 78.2384 67.52ZM90.0206 65.82C91.1653 65.82 92.0833 66.1543 92.7746 66.823C93.4659 67.4917 93.8116 68.4833 93.8116 69.798V75H91.6866V70.07C91.6866 69.2767 91.4996 68.6817 91.1256 68.285C90.7516 67.877 90.2189 67.673 89.5276 67.673C88.7456 67.673 88.1279 67.911 87.6746 68.387C87.2213 68.8517 86.9946 69.526 86.9946 70.41V75H84.8696V65.922H86.8926V67.095C87.2439 66.6757 87.6859 66.3583 88.2186 66.143C88.7513 65.9277 89.3519 65.82 90.0206 65.82ZM104.674 65.82C106.011 65.82 107.031 66.143 107.734 66.789C108.448 67.4237 108.805 68.387 108.805 69.679V75H106.799V73.895C106.538 74.2917 106.164 74.5977 105.677 74.813C105.201 75.017 104.623 75.119 103.943 75.119C103.263 75.119 102.668 75.0057 102.158 74.779C101.648 74.541 101.251 74.218 100.968 73.81C100.696 73.3907 100.56 72.9203 100.56 72.399C100.56 71.583 100.86 70.9313 101.461 70.444C102.073 69.9453 103.03 69.696 104.334 69.696H106.68V69.56C106.68 68.9253 106.487 68.438 106.102 68.098C105.728 67.758 105.167 67.588 104.419 67.588C103.909 67.588 103.404 67.6673 102.906 67.826C102.418 67.9847 102.005 68.2057 101.665 68.489L100.832 66.942C101.308 66.5793 101.88 66.3017 102.549 66.109C103.217 65.9163 103.926 65.82 104.674 65.82ZM104.385 73.572C104.917 73.572 105.388 73.453 105.796 73.215C106.215 72.9657 106.51 72.6143 106.68 72.161V71.107H104.487C103.263 71.107 102.651 71.5093 102.651 72.314C102.651 72.6993 102.804 73.0053 103.11 73.232C103.416 73.4587 103.841 73.572 104.385 73.572ZM113.555 67.248C114.167 66.296 115.243 65.82 116.785 65.82V67.843C116.603 67.809 116.439 67.792 116.292 67.792C115.464 67.792 114.818 68.0357 114.354 68.523C113.889 68.999 113.657 69.6903 113.657 70.597V75H111.532V65.922H113.555V67.248ZM124.376 74.507C124.127 74.711 123.821 74.864 123.458 74.966C123.107 75.068 122.733 75.119 122.336 75.119C121.339 75.119 120.568 74.8583 120.024 74.337C119.48 73.8157 119.208 73.0563 119.208 72.059V67.69H117.712V65.99H119.208V63.916H121.333V65.99H123.764V67.69H121.333V72.008C121.333 72.45 121.441 72.79 121.656 73.028C121.872 73.2547 122.183 73.368 122.591 73.368C123.067 73.368 123.464 73.2433 123.781 72.994L124.376 74.507ZM134.36 70.512C134.36 70.6593 134.348 70.869 134.326 71.141H127.203C127.327 71.8097 127.65 72.3423 128.172 72.739C128.704 73.1243 129.362 73.317 130.144 73.317C131.141 73.317 131.963 72.9883 132.609 72.331L133.748 73.64C133.34 74.1273 132.824 74.4957 132.201 74.745C131.577 74.9943 130.875 75.119 130.093 75.119C129.095 75.119 128.217 74.9207 127.458 74.524C126.698 74.1273 126.109 73.5777 125.69 72.875C125.282 72.161 125.078 71.3563 125.078 70.461C125.078 69.577 125.276 68.7837 125.673 68.081C126.081 67.367 126.642 66.8117 127.356 66.415C128.07 66.0183 128.874 65.82 129.77 65.82C130.654 65.82 131.441 66.0183 132.133 66.415C132.835 66.8003 133.379 67.35 133.765 68.064C134.161 68.7667 134.36 69.5827 134.36 70.512ZM129.77 67.52C129.09 67.52 128.512 67.724 128.036 68.132C127.571 68.5287 127.288 69.0613 127.186 69.73H132.337C132.246 69.0727 131.968 68.54 131.504 68.132C131.039 67.724 130.461 67.52 129.77 67.52Z" fill="#7FDEE4"/>
</g>
</svg>
