<svg xmlns="http://www.w3.org/2000/svg" fill="none" viewBox="30 12.33 174.72 42.76"><g filter="url(#filter0_d_209_1080)"><g opacity="0.87"><path d="M37.6699 37.1641C37.0957 37.1641 36.6719 37.0444 36.3984 36.8052C36.125 36.5659 35.9883 36.1831 35.9883 35.6567V22.6343C35.7695 22.6548 35.4961 22.6958 35.168 22.7573C34.8467 22.812 34.5083 22.894 34.1528 23.0034C33.7974 23.1128 33.4419 23.2461 33.0864 23.4033C32.731 23.5537 32.4131 23.7314 32.1328 23.9365C31.8525 24.1348 31.6235 24.3604 31.4458 24.6133C31.2681 24.8662 31.1792 25.1465 31.1792 25.4541C31.1792 25.6729 31.2065 25.8472 31.2612 25.9771C31.3228 26.1069 31.3911 26.2061 31.4663 26.2744C31.5415 26.3359 31.6167 26.377 31.6919 26.3975C31.7739 26.4111 31.832 26.418 31.8662 26.418C32.0371 26.418 32.1772 26.3906 32.2866 26.3359C32.396 26.2744 32.4951 26.2129 32.584 26.1514C32.6729 26.083 32.7549 26.0215 32.8301 25.9668C32.9121 25.9053 33.0044 25.8745 33.1069 25.8745C33.189 25.8745 33.2744 25.895 33.3633 25.936C33.459 25.9702 33.5444 26.0283 33.6196 26.1104C33.7017 26.1924 33.77 26.3018 33.8247 26.4385C33.8794 26.5684 33.9067 26.729 33.9067 26.9204C33.9067 27.1938 33.8521 27.4297 33.7427 27.6279C33.6401 27.8262 33.5034 27.9937 33.3325 28.1304C33.1685 28.2603 32.9771 28.3594 32.7583 28.4277C32.5464 28.4893 32.3345 28.52 32.1226 28.52C31.7944 28.52 31.4971 28.4653 31.2305 28.356C30.9707 28.2397 30.7485 28.0825 30.564 27.8843C30.3794 27.686 30.2393 27.4536 30.1436 27.187C30.0479 26.9204 30 26.6367 30 26.3359C30 25.5361 30.2188 24.8457 30.6562 24.2646C31.1006 23.6768 31.7056 23.1914 32.4712 22.8086C33.2368 22.4189 34.1289 22.1318 35.1475 21.9473C36.166 21.7627 37.2563 21.6704 38.4185 21.6704C38.9722 21.6704 39.5122 21.6772 40.0386 21.6909C40.5649 21.6978 41.0435 21.7114 41.4741 21.7319C41.9116 21.7524 42.2876 21.7764 42.6021 21.8037C42.9165 21.8311 43.1455 21.8618 43.2891 21.896C43.4258 21.9302 43.5352 21.9814 43.6172 22.0498C43.6992 22.1113 43.7607 22.1831 43.8018 22.2651C43.8428 22.3472 43.8701 22.436 43.8838 22.5317C43.8975 22.6206 43.9043 22.7129 43.9043 22.8086C43.9043 22.8838 43.894 22.9727 43.8735 23.0752C43.853 23.1709 43.8223 23.2632 43.7812 23.3521C43.7402 23.4409 43.689 23.5161 43.6274 23.5776C43.5659 23.6392 43.4907 23.6699 43.4019 23.6699C43.3472 23.6699 43.2891 23.646 43.2275 23.5981C43.1729 23.5503 43.0942 23.4922 42.9917 23.4238C42.8892 23.3555 42.749 23.2769 42.5713 23.188C42.4004 23.0991 42.1714 23.0171 41.8843 22.9419C41.604 22.8667 41.2554 22.7983 40.8384 22.7368C40.4282 22.6753 39.9292 22.6343 39.3413 22.6138V35.6567C39.3413 36.1831 39.2046 36.5659 38.9312 36.8052C38.6577 37.0444 38.2373 37.1641 37.6699 37.1641ZM46.3447 28.52C46.6045 28.1235 46.8813 27.7646 47.1753 27.4434C47.2983 27.3066 47.4316 27.1733 47.5752 27.0435C47.7188 26.9136 47.8657 26.7974 48.0161 26.6948C48.1733 26.5923 48.334 26.5103 48.498 26.4487C48.6621 26.3872 48.8262 26.3564 48.9902 26.3564C49.3389 26.3564 49.6123 26.4624 49.8105 26.6743C50.0088 26.8794 50.1079 27.1699 50.1079 27.5459C50.1079 27.7783 50.0874 28.0039 50.0464 28.2227C50.0122 28.4346 49.9404 28.6943 49.8311 29.002H49.5439C49.5029 28.79 49.4072 28.6157 49.2568 28.479C49.1064 28.3354 48.8877 28.2637 48.6006 28.2637C48.3887 28.2637 48.1802 28.3047 47.9751 28.3867C47.77 28.4619 47.5684 28.5576 47.3701 28.6738C47.1787 28.79 46.9941 28.9165 46.8164 29.0532C46.6455 29.1899 46.4883 29.3198 46.3447 29.4429V36.0977C46.3447 36.1865 46.3311 36.2925 46.3037 36.4155C46.2764 36.5386 46.208 36.6548 46.0986 36.7642C45.9961 36.8735 45.8389 36.9658 45.627 37.041C45.4219 37.123 45.1382 37.1641 44.7759 37.1641C44.4136 37.1641 44.1265 37.1196 43.9146 37.0308C43.7095 36.9487 43.5522 36.8496 43.4429 36.7334C43.3335 36.6172 43.2651 36.4976 43.2378 36.3745C43.2104 36.2515 43.1968 36.1523 43.1968 36.0771V28.1611C43.1968 27.9629 43.1489 27.792 43.0532 27.6484C42.9644 27.498 42.8105 27.4229 42.5918 27.4229C42.4756 27.4229 42.3765 27.4434 42.2944 27.4844C42.2124 27.5254 42.1235 27.5835 42.0278 27.6587L41.8125 27.4023C41.9697 27.2725 42.144 27.146 42.3354 27.0229C42.5337 26.8931 42.7456 26.7803 42.9712 26.6846C43.1968 26.5889 43.4395 26.5103 43.6992 26.4487C43.959 26.3872 44.2324 26.3564 44.5195 26.3564C44.8135 26.3564 45.063 26.3975 45.2681 26.4795C45.48 26.5547 45.6509 26.6572 45.7808 26.7871C45.9175 26.9102 46.0234 27.0503 46.0986 27.2075C46.1738 27.3647 46.2285 27.5254 46.2627 27.6895C46.3037 27.8467 46.3276 28.0005 46.3345 28.1509C46.3413 28.2944 46.3447 28.4175 46.3447 28.52ZM55.8296 31.6885C55.8296 31.5176 55.7749 31.3877 55.6655 31.2988C55.5562 31.21 55.416 31.1655 55.2451 31.1655C55.0059 31.1655 54.7769 31.2202 54.5581 31.3296C54.3462 31.439 54.1582 31.5996 53.9941 31.8115C53.8301 32.0234 53.7002 32.2866 53.6045 32.6011C53.5088 32.9087 53.4609 33.2676 53.4609 33.6777C53.4609 34.0742 53.4883 34.4023 53.543 34.6621C53.6045 34.9219 53.6831 35.1304 53.7788 35.2876C53.8813 35.438 53.9976 35.5439 54.1274 35.6055C54.2573 35.667 54.394 35.6978 54.5376 35.6978C54.7153 35.6978 54.8828 35.6533 55.04 35.5645C55.1973 35.4688 55.334 35.3491 55.4502 35.2056C55.5664 35.062 55.6587 34.9014 55.7271 34.7236C55.7954 34.5459 55.8296 34.3682 55.8296 34.1904V31.6885ZM54.1992 27.1973C53.9668 27.1973 53.7515 27.2246 53.5532 27.2793C53.355 27.334 53.1841 27.4023 53.0405 27.4844C52.897 27.5664 52.7842 27.6587 52.7021 27.7612C52.6201 27.8569 52.5791 27.9492 52.5791 28.0381C52.5791 28.1406 52.6304 28.2158 52.7329 28.2637C52.8423 28.3047 52.9619 28.356 53.0918 28.4175C53.2217 28.4722 53.3379 28.5542 53.4404 28.6636C53.5498 28.7661 53.6045 28.9268 53.6045 29.1455C53.6045 29.2891 53.5737 29.4224 53.5122 29.5454C53.4575 29.6616 53.3789 29.7676 53.2764 29.8633C53.1807 29.9521 53.0645 30.0239 52.9277 30.0786C52.7979 30.1265 52.6611 30.1504 52.5176 30.1504C52.1348 30.1504 51.8237 30.0205 51.5845 29.7607C51.3521 29.501 51.2358 29.1558 51.2358 28.7251C51.2358 28.3081 51.3452 27.9526 51.564 27.6587C51.7827 27.3579 52.0664 27.1118 52.415 26.9204C52.7705 26.729 53.1704 26.5889 53.6147 26.5C54.0591 26.4043 54.5034 26.3564 54.9478 26.3564C55.481 26.3564 55.9902 26.4146 56.4756 26.5308C56.9609 26.647 57.3882 26.8315 57.7573 27.0845C58.1333 27.3374 58.4307 27.6587 58.6494 28.0483C58.875 28.438 58.9878 28.9097 58.9878 29.4634V35.2568C58.9878 35.3184 58.9912 35.3867 58.998 35.4619C59.0049 35.5371 59.022 35.6055 59.0493 35.667C59.0767 35.7285 59.1177 35.7798 59.1724 35.8208C59.2271 35.8618 59.3057 35.8823 59.4082 35.8823C59.5312 35.8823 59.644 35.8379 59.7466 35.749C59.856 35.6533 59.9517 35.5576 60.0337 35.4619L60.29 35.6772C60.1875 35.8208 60.0645 35.978 59.9209 36.1489C59.7773 36.3198 59.603 36.4805 59.3979 36.6309C59.1929 36.7812 58.9536 36.9077 58.6802 37.0103C58.4067 37.1128 58.0957 37.1641 57.7471 37.1641C57.3164 37.1641 56.9336 37.0376 56.5986 36.7847C56.2637 36.5249 56.0449 36.1284 55.9424 35.5952C55.7236 35.8892 55.4946 36.1353 55.2554 36.3335C55.0229 36.5317 54.7837 36.6924 54.5376 36.8154C54.2915 36.9385 54.042 37.0273 53.7891 37.082C53.543 37.1367 53.2935 37.1641 53.0405 37.1641C52.7124 37.1641 52.3945 37.1128 52.0869 37.0103C51.7793 36.9077 51.5024 36.7471 51.2563 36.5283C51.0171 36.3027 50.8223 36.0122 50.6719 35.6567C50.5283 35.3013 50.4565 34.8672 50.4565 34.3545C50.4565 33.7324 50.5796 33.2231 50.8257 32.8267C51.0718 32.4302 51.3931 32.0986 51.7896 31.832C52.1929 31.5586 52.6475 31.3262 53.1533 31.1348C53.666 30.9434 54.189 30.7417 54.7222 30.5298C55.1187 30.3726 55.4058 30.1401 55.5835 29.8325C55.7681 29.5181 55.8604 29.1968 55.8604 28.8687C55.8604 28.3628 55.71 27.9595 55.4092 27.6587C55.1152 27.3511 54.7119 27.1973 54.1992 27.1973ZM67.7036 31.8936C67.7036 31.0322 67.6626 30.3452 67.5806 29.8325C67.5054 29.313 67.4028 28.9199 67.2729 28.6533C67.1431 28.3799 66.9995 28.2021 66.8423 28.1201C66.6851 28.0312 66.5244 27.9868 66.3604 27.9868C66.1621 27.9868 65.9844 28.0415 65.8271 28.1509C65.6768 28.2534 65.5435 28.373 65.4272 28.5098C65.3179 28.6465 65.2222 28.7832 65.1401 28.9199C65.0649 29.0566 65 29.1592 64.9453 29.2275V36.0771C64.9453 36.166 64.9316 36.2754 64.9043 36.4053C64.877 36.5283 64.8086 36.6479 64.6992 36.7642C64.5967 36.8735 64.4395 36.9658 64.2275 37.041C64.0225 37.123 63.7388 37.1641 63.3765 37.1641C63.0142 37.1641 62.7271 37.1196 62.5151 37.0308C62.3101 36.9487 62.1528 36.8496 62.0435 36.7334C61.9341 36.6172 61.8657 36.4976 61.8384 36.3745C61.811 36.2515 61.7974 36.1523 61.7974 36.0771V28.1611C61.7974 27.9629 61.7495 27.792 61.6538 27.6484C61.5649 27.498 61.4111 27.4229 61.1924 27.4229C61.0762 27.4229 60.9771 27.4434 60.895 27.4844C60.813 27.5254 60.7241 27.5835 60.6284 27.6587L60.4131 27.4023C60.5703 27.2725 60.7446 27.146 60.936 27.0229C61.1343 26.8931 61.3462 26.7803 61.5718 26.6846C61.7974 26.5889 62.04 26.5103 62.2998 26.4487C62.5596 26.3872 62.833 26.3564 63.1201 26.3564C63.5645 26.3564 63.9097 26.4316 64.1558 26.582C64.4019 26.7256 64.583 26.8999 64.6992 27.105C64.8154 27.3101 64.8838 27.5254 64.9043 27.751C64.9316 27.9697 64.9453 28.1543 64.9453 28.3047C65.1982 27.9424 65.4854 27.6177 65.8066 27.3306C65.9365 27.2075 66.0801 27.0879 66.2373 26.9717C66.4014 26.8555 66.5723 26.7529 66.75 26.6641C66.9346 26.5684 67.126 26.4932 67.3242 26.4385C67.5293 26.3838 67.7378 26.3564 67.9497 26.3564C68.4146 26.3564 68.8247 26.4453 69.1802 26.623C69.5425 26.8008 69.8467 27.0981 70.0928 27.5151C70.3389 27.9321 70.5269 28.4858 70.6567 29.1763C70.7866 29.8599 70.8516 30.7109 70.8516 31.7295C70.8516 32.7207 70.7627 33.582 70.585 34.3135C70.4072 35.0449 70.1748 35.667 69.8877 36.1797C69.6006 36.6924 69.2759 37.1094 68.9136 37.4307C68.5513 37.7588 68.1855 38.0151 67.8164 38.1997C67.4473 38.3843 67.0918 38.5107 66.75 38.5791C66.415 38.6543 66.1245 38.6953 65.8784 38.7021L65.7656 38.2817C65.9707 38.2339 66.1587 38.1587 66.3296 38.0562C66.5073 37.9536 66.668 37.8032 66.8115 37.605C66.9551 37.4067 67.0815 37.1572 67.1909 36.8564C67.3003 36.5488 67.3926 36.166 67.4678 35.708C67.5498 35.25 67.6079 34.71 67.6421 34.0879C67.6831 33.459 67.7036 32.7275 67.7036 31.8936ZM76.2656 27.1768C76.1084 27.1768 75.958 27.1973 75.8145 27.2383C75.6777 27.2793 75.5547 27.3477 75.4453 27.4434C75.3359 27.5322 75.2505 27.6484 75.189 27.792C75.1274 27.9287 75.0967 28.0928 75.0967 28.2842C75.0967 28.5508 75.1924 28.8174 75.3838 29.084C75.582 29.3438 75.8247 29.6172 76.1118 29.9043C76.4058 30.1846 76.7202 30.4785 77.0552 30.7861C77.397 31.0869 77.7114 31.4082 77.9985 31.75C78.2925 32.085 78.5352 32.4438 78.7266 32.8267C78.9248 33.2095 79.0239 33.6196 79.0239 34.0571C79.0239 34.5493 78.9385 34.9868 78.7676 35.3696C78.6035 35.7524 78.3643 36.0771 78.0498 36.3438C77.7422 36.6104 77.3662 36.8154 76.9219 36.959C76.4844 37.0957 75.9956 37.1641 75.4556 37.1641C74.9839 37.1641 74.5566 37.0991 74.1738 36.9692C73.791 36.8325 73.4492 36.6685 73.1484 36.4771C72.8545 36.2788 72.6016 36.0703 72.3896 35.8516C72.1777 35.6328 72.0137 35.4346 71.8975 35.2568L72.2563 35.0005C72.3452 35.103 72.458 35.2158 72.5947 35.3389C72.7314 35.4551 72.8818 35.5645 73.0459 35.667C73.2168 35.7695 73.3979 35.855 73.5894 35.9233C73.7808 35.9849 73.9756 36.0156 74.1738 36.0156C74.666 36.0156 75.0693 35.8994 75.3838 35.667C75.6982 35.4277 75.8555 35.0757 75.8555 34.6108C75.8555 34.3511 75.77 34.0845 75.5991 33.811C75.4282 33.5308 75.2129 33.2437 74.9531 32.9497C74.6934 32.6558 74.4131 32.3516 74.1123 32.0371C73.8115 31.7227 73.5312 31.3979 73.2715 31.063C73.0117 30.728 72.7964 30.3828 72.6255 30.0273C72.4546 29.6719 72.3691 29.3027 72.3691 28.9199C72.3691 28.4893 72.4546 28.1133 72.6255 27.792C72.8032 27.4707 73.0356 27.2041 73.3228 26.9922C73.6167 26.7803 73.9482 26.623 74.3174 26.5205C74.6934 26.4111 75.0796 26.3564 75.4761 26.3564C75.9341 26.3564 76.3511 26.3975 76.7271 26.4795C77.103 26.5615 77.4243 26.688 77.6909 26.8589C77.9644 27.0229 78.1729 27.2314 78.3164 27.4844C78.4668 27.7373 78.542 28.0312 78.542 28.3662C78.542 28.626 78.4565 28.8516 78.2856 29.043C78.1147 29.2344 77.8755 29.3301 77.5679 29.3301C77.2739 29.3301 77.0483 29.2686 76.8911 29.1455C76.7407 29.0156 76.6655 28.8413 76.6655 28.6226C76.6655 28.479 76.6997 28.3662 76.7681 28.2842C76.8433 28.2021 76.9253 28.1372 77.0142 28.0894C77.103 28.0347 77.1816 27.9902 77.25 27.9561C77.3252 27.915 77.3628 27.8638 77.3628 27.8022C77.3628 27.6108 77.2603 27.4604 77.0552 27.3511C76.8501 27.2349 76.5869 27.1768 76.2656 27.1768ZM85.9863 21.7524C85.7949 21.7524 85.6138 21.7935 85.4429 21.8755C85.272 21.9575 85.1216 22.0908 84.9917 22.2754C84.8687 22.4531 84.7695 22.6821 84.6943 22.9624C84.6191 23.2427 84.5815 23.5811 84.5815 23.9775V26.5H86.8271V27.2383H84.5815V35.3184C84.5815 36.248 84.4585 37.106 84.2124 37.8921C83.9731 38.6782 83.6074 39.355 83.1152 39.9224C82.623 40.4966 82.0078 40.9443 81.2695 41.2656C80.5312 41.5869 79.6699 41.7476 78.6855 41.7476C78.3369 41.7476 78.002 41.7168 77.6807 41.6553C77.3594 41.6006 77.0757 41.522 76.8296 41.4194C76.5835 41.3169 76.3887 41.1938 76.2451 41.0503C76.0947 40.9136 76.0195 40.7598 76.0195 40.5889C76.0195 40.4658 76.0366 40.3394 76.0708 40.2095C76.105 40.0864 76.1562 39.9736 76.2246 39.8711C76.293 39.7686 76.3784 39.6831 76.481 39.6147C76.5767 39.5532 76.6895 39.5225 76.8193 39.5225C76.8945 39.5225 76.9629 39.5601 77.0244 39.6353C77.0791 39.7104 77.1372 39.8027 77.1987 39.9121C77.2603 40.0215 77.332 40.1411 77.4141 40.271C77.4893 40.4077 77.5884 40.5308 77.7114 40.6401C77.8345 40.7495 77.9883 40.8418 78.1729 40.917C78.3506 40.9922 78.5693 41.0298 78.8291 41.0298C79.1777 41.0298 79.4854 40.958 79.752 40.8145C80.0186 40.6777 80.2476 40.4863 80.439 40.2402C80.6304 39.9941 80.791 39.7036 80.9209 39.3687C81.0508 39.0337 81.1533 38.6748 81.2285 38.292C81.3037 37.9092 81.355 37.5093 81.3823 37.0923C81.4165 36.6753 81.4336 36.2583 81.4336 35.8413V27.2383H79.5469V26.5H81.4336V25.3003C81.4336 24.6987 81.5054 24.1758 81.6489 23.7314C81.7993 23.2803 81.9941 22.8975 82.2334 22.583C82.4795 22.2686 82.7563 22.0122 83.064 21.814C83.3716 21.6157 83.6826 21.4585 83.9971 21.3423C84.3184 21.2261 84.6294 21.1475 84.9302 21.1064C85.231 21.0654 85.4941 21.0449 85.7197 21.0449C86.2051 21.0449 86.6357 21.0825 87.0117 21.1577C87.3877 21.2261 87.7021 21.3218 87.9551 21.4448C88.208 21.561 88.3994 21.6978 88.5293 21.855C88.6592 22.0122 88.7241 22.1729 88.7241 22.3369C88.7241 22.46 88.7036 22.5864 88.6626 22.7163C88.6284 22.8394 88.5771 22.9556 88.5088 23.0649C88.4404 23.1675 88.355 23.2529 88.2524 23.3213C88.1567 23.3828 88.0474 23.4136 87.9243 23.4136C87.8491 23.4136 87.7808 23.3726 87.7192 23.2905C87.6577 23.2085 87.5928 23.106 87.5244 22.9829C87.4561 22.8599 87.3809 22.7266 87.2988 22.583C87.2168 22.4395 87.1143 22.3062 86.9912 22.1831C86.875 22.0601 86.7349 21.9575 86.5708 21.8755C86.4067 21.7935 86.2119 21.7524 85.9863 21.7524ZM86.8989 31.75C86.8989 30.8545 87.0288 30.0718 87.2886 29.4019C87.5483 28.7251 87.8936 28.1611 88.3242 27.71C88.7617 27.2588 89.2676 26.9204 89.8418 26.6948C90.416 26.4692 91.0176 26.3564 91.6465 26.3564C92.2754 26.3564 92.877 26.4624 93.4512 26.6743C94.0254 26.8794 94.5278 27.1973 94.9585 27.6279C95.396 28.0586 95.7446 28.6055 96.0044 29.2686C96.2642 29.9248 96.394 30.7041 96.394 31.6064C96.394 32.502 96.2642 33.2949 96.0044 33.9854C95.7446 34.6758 95.396 35.2568 94.9585 35.7285C94.5278 36.2002 94.0254 36.5591 93.4512 36.8052C92.877 37.0444 92.2754 37.1641 91.6465 37.1641C91.0176 37.1641 90.416 37.0513 89.8418 36.8257C89.2676 36.5933 88.7617 36.2515 88.3242 35.8003C87.8936 35.3491 87.5483 34.7852 87.2886 34.1084C87.0288 33.4316 86.8989 32.6455 86.8989 31.75ZM93.2051 31.6475C93.2051 31.1006 93.1846 30.5742 93.1436 30.0684C93.1094 29.5557 93.0376 29.1011 92.9282 28.7046C92.8188 28.3081 92.6616 27.9937 92.4565 27.7612C92.2515 27.522 91.9814 27.4023 91.6465 27.4023C91.3115 27.4023 91.0415 27.5288 90.8364 27.7817C90.6313 28.0278 90.4741 28.356 90.3647 28.7661C90.2554 29.1694 90.1836 29.6309 90.1494 30.1504C90.1152 30.6699 90.0981 31.2031 90.0981 31.75C90.0981 32.2969 90.1152 32.8335 90.1494 33.3599C90.1836 33.8794 90.2554 34.3442 90.3647 34.7544C90.4741 35.1646 90.6313 35.4961 90.8364 35.749C91.0415 35.9951 91.3115 36.1182 91.6465 36.1182C91.9814 36.1182 92.2515 35.9883 92.4565 35.7285C92.6616 35.4688 92.8188 35.127 92.9282 34.7031C93.0376 34.2793 93.1094 33.8008 93.1436 33.2676C93.1846 32.7344 93.2051 32.1943 93.2051 31.6475ZM101.593 28.52C101.853 28.1235 102.129 27.7646 102.423 27.4434C102.546 27.3066 102.68 27.1733 102.823 27.0435C102.967 26.9136 103.114 26.7974 103.264 26.6948C103.421 26.5923 103.582 26.5103 103.746 26.4487C103.91 26.3872 104.074 26.3564 104.238 26.3564C104.587 26.3564 104.86 26.4624 105.059 26.6743C105.257 26.8794 105.356 27.1699 105.356 27.5459C105.356 27.7783 105.335 28.0039 105.294 28.2227C105.26 28.4346 105.188 28.6943 105.079 29.002H104.792C104.751 28.79 104.655 28.6157 104.505 28.479C104.354 28.3354 104.136 28.2637 103.849 28.2637C103.637 28.2637 103.428 28.3047 103.223 28.3867C103.018 28.4619 102.816 28.5576 102.618 28.6738C102.427 28.79 102.242 28.9165 102.064 29.0532C101.894 29.1899 101.736 29.3198 101.593 29.4429V36.0977C101.593 36.1865 101.579 36.2925 101.552 36.4155C101.524 36.5386 101.456 36.6548 101.347 36.7642C101.244 36.8735 101.087 36.9658 100.875 37.041C100.67 37.123 100.386 37.1641 100.024 37.1641C99.6616 37.1641 99.3745 37.1196 99.1626 37.0308C98.9575 36.9487 98.8003 36.8496 98.6909 36.7334C98.5815 36.6172 98.5132 36.4976 98.4858 36.3745C98.4585 36.2515 98.4448 36.1523 98.4448 36.0771V28.1611C98.4448 27.9629 98.397 27.792 98.3013 27.6484C98.2124 27.498 98.0586 27.4229 97.8398 27.4229C97.7236 27.4229 97.6245 27.4434 97.5425 27.4844C97.4604 27.5254 97.3716 27.5835 97.2759 27.6587L97.0605 27.4023C97.2178 27.2725 97.3921 27.146 97.5835 27.0229C97.7817 26.8931 97.9937 26.7803 98.2192 26.6846C98.4448 26.5889 98.6875 26.5103 98.9473 26.4487C99.207 26.3872 99.4805 26.3564 99.7676 26.3564C100.062 26.3564 100.311 26.3975 100.516 26.4795C100.728 26.5547 100.899 26.6572 101.029 26.7871C101.166 26.9102 101.271 27.0503 101.347 27.2075C101.422 27.3647 101.477 27.5254 101.511 27.6895C101.552 27.8467 101.576 28.0005 101.583 28.1509C101.589 28.2944 101.593 28.4175 101.593 28.52ZM115.425 36.0977C115.425 36.1865 115.412 36.2925 115.384 36.4155C115.357 36.5386 115.289 36.6548 115.179 36.7642C115.077 36.8735 114.919 36.9658 114.708 37.041C114.496 37.123 114.208 37.1641 113.846 37.1641C113.484 37.1641 113.197 37.1196 112.985 37.0308C112.78 36.9487 112.623 36.8496 112.513 36.7334C112.411 36.6172 112.346 36.4976 112.318 36.3745C112.291 36.2515 112.277 36.1523 112.277 36.0771V28.8276C112.277 28.7319 112.264 28.6362 112.236 28.5405C112.209 28.438 112.168 28.3457 112.113 28.2637C112.059 28.1816 111.99 28.1167 111.908 28.0688C111.826 28.0142 111.73 27.9868 111.621 27.9868C111.437 27.9868 111.255 28.0415 111.078 28.1509C110.9 28.2534 110.732 28.373 110.575 28.5098C110.425 28.6465 110.292 28.7832 110.175 28.9199C110.066 29.0566 109.987 29.1592 109.939 29.2275V36.0977C109.939 36.1865 109.926 36.2925 109.898 36.4155C109.871 36.5386 109.803 36.6548 109.693 36.7642C109.591 36.8735 109.434 36.9658 109.222 37.041C109.017 37.123 108.733 37.1641 108.371 37.1641C108.008 37.1641 107.721 37.1196 107.509 37.0308C107.304 36.9487 107.147 36.8496 107.038 36.7334C106.928 36.6172 106.86 36.4976 106.833 36.3745C106.805 36.2515 106.792 36.1523 106.792 36.0771V28.1611C106.792 27.9629 106.744 27.792 106.648 27.6484C106.559 27.498 106.405 27.4229 106.187 27.4229C106.07 27.4229 105.971 27.4434 105.889 27.4844C105.807 27.5254 105.718 27.5835 105.623 27.6587L105.407 27.4023C105.564 27.2725 105.739 27.146 105.93 27.0229C106.128 26.8931 106.34 26.7803 106.566 26.6846C106.792 26.5889 107.034 26.5103 107.294 26.4487C107.554 26.3872 107.827 26.3564 108.114 26.3564C108.559 26.3564 108.904 26.4316 109.15 26.582C109.396 26.7256 109.577 26.8999 109.693 27.105C109.81 27.3101 109.878 27.5254 109.898 27.751C109.926 27.9697 109.939 28.1543 109.939 28.3047C110.261 27.9424 110.606 27.6177 110.975 27.3306C111.125 27.2075 111.29 27.0879 111.467 26.9717C111.652 26.8555 111.84 26.7529 112.031 26.6641C112.223 26.5684 112.421 26.4932 112.626 26.4385C112.831 26.3838 113.036 26.3564 113.241 26.3564C113.638 26.3564 113.976 26.4282 114.256 26.5718C114.537 26.7153 114.762 26.8896 114.933 27.0947C115.104 27.293 115.227 27.5049 115.302 27.7305C115.384 27.9492 115.425 28.1406 115.425 28.3047C115.753 27.9424 116.099 27.6177 116.461 27.3306C116.611 27.2075 116.775 27.0879 116.953 26.9717C117.131 26.8555 117.315 26.7529 117.507 26.6641C117.705 26.5684 117.903 26.4932 118.102 26.4385C118.307 26.3838 118.512 26.3564 118.717 26.3564C119.113 26.3564 119.452 26.4316 119.732 26.582C120.012 26.7256 120.238 26.917 120.409 27.1562C120.58 27.3955 120.703 27.6655 120.778 27.9663C120.86 28.2671 120.901 28.5679 120.901 28.8687V35.2158C120.901 35.2773 120.904 35.3457 120.911 35.4209C120.918 35.4893 120.935 35.5576 120.962 35.626C120.99 35.6875 121.031 35.7388 121.085 35.7798C121.147 35.8208 121.226 35.8413 121.321 35.8413C121.451 35.8413 121.567 35.7969 121.67 35.708C121.772 35.6123 121.868 35.5166 121.957 35.4209L122.203 35.6362C122.107 35.7798 121.981 35.9404 121.824 36.1182C121.667 36.2891 121.479 36.4531 121.26 36.6104C121.048 36.7676 120.798 36.8975 120.511 37C120.231 37.1094 119.913 37.1641 119.558 37.1641C119.257 37.1641 118.994 37.123 118.768 37.041C118.549 36.9658 118.361 36.8633 118.204 36.7334C118.054 36.5967 117.941 36.4395 117.866 36.2617C117.791 36.0771 117.753 35.8823 117.753 35.6772V28.8276C117.753 28.7319 117.739 28.6362 117.712 28.5405C117.685 28.438 117.644 28.3457 117.589 28.2637C117.541 28.1816 117.476 28.1167 117.394 28.0688C117.312 28.0142 117.216 27.9868 117.107 27.9868C116.922 27.9868 116.738 28.0415 116.553 28.1509C116.375 28.2534 116.208 28.373 116.051 28.5098C115.9 28.6465 115.771 28.7832 115.661 28.9199C115.552 29.0566 115.473 29.1592 115.425 29.2275V36.0977ZM136.743 32.6729H132.877C132.59 33.5752 132.279 34.3579 131.944 35.021C131.616 35.6841 131.25 36.2344 130.847 36.6719C130.444 37.1094 130 37.4341 129.514 37.646C129.036 37.8579 128.499 37.9639 127.904 37.9639C127.576 37.9639 127.262 37.9331 126.961 37.8716C126.653 37.8169 126.383 37.7383 126.151 37.6357C125.918 37.5332 125.734 37.4102 125.597 37.2666C125.454 37.1299 125.382 36.9795 125.382 36.8154C125.382 36.6924 125.402 36.5693 125.443 36.4463C125.478 36.3164 125.529 36.2002 125.597 36.0977C125.666 35.9883 125.751 35.9028 125.854 35.8413C125.949 35.7729 126.059 35.7388 126.182 35.7388C126.291 35.7388 126.387 35.814 126.469 35.9644C126.551 36.1147 126.657 36.2822 126.787 36.4668C126.91 36.6445 127.07 36.8086 127.269 36.959C127.467 37.1094 127.74 37.1846 128.089 37.1846C128.444 37.1846 128.783 37.0991 129.104 36.9282C129.425 36.7573 129.733 36.4907 130.027 36.1284C130.328 35.7593 130.615 35.291 130.888 34.7236C131.162 34.1562 131.428 33.4727 131.688 32.6729H129.268V31.7705H131.955C132.18 31.0049 132.399 30.2324 132.611 29.4531C132.83 28.6738 133.035 27.9253 133.226 27.2075C133.417 26.4897 133.588 25.8198 133.739 25.1978C133.889 24.5688 134.016 24.022 134.118 23.5571C133.981 23.1743 133.793 22.918 133.554 22.7881C133.322 22.6582 133.007 22.5933 132.611 22.5933C132.242 22.5933 131.859 22.6514 131.462 22.7676C131.073 22.877 130.717 23.0376 130.396 23.2495C130.075 23.4546 129.808 23.7109 129.596 24.0186C129.391 24.3193 129.289 24.6577 129.289 25.0337C129.289 25.2524 129.316 25.4268 129.371 25.5566C129.432 25.6865 129.5 25.7856 129.576 25.854C129.658 25.9155 129.736 25.9565 129.812 25.9771C129.887 25.9907 129.945 25.9976 129.986 25.9976C130.15 25.9976 130.287 25.9702 130.396 25.9155C130.512 25.854 130.611 25.7925 130.693 25.731C130.782 25.6626 130.868 25.6011 130.95 25.5464C131.032 25.4849 131.124 25.4541 131.227 25.4541C131.302 25.4541 131.384 25.4746 131.473 25.5156C131.568 25.5498 131.654 25.6079 131.729 25.6899C131.811 25.772 131.879 25.8813 131.934 26.0181C131.989 26.1479 132.016 26.3086 132.016 26.5C132.016 26.7734 131.961 27.0093 131.852 27.2075C131.75 27.4058 131.613 27.5732 131.442 27.71C131.278 27.8398 131.086 27.939 130.868 28.0073C130.656 28.0688 130.444 28.0996 130.232 28.0996C129.904 28.0996 129.606 28.0415 129.34 27.9253C129.08 27.8022 128.858 27.6382 128.673 27.4331C128.489 27.228 128.349 26.9888 128.253 26.7153C128.157 26.4419 128.109 26.1548 128.109 25.854C128.109 25.4028 128.185 24.9893 128.335 24.6133C128.485 24.2305 128.694 23.8853 128.96 23.5776C129.227 23.2632 129.542 22.9897 129.904 22.7573C130.266 22.5181 130.656 22.3198 131.073 22.1626C131.497 21.9985 131.938 21.8755 132.396 21.7935C132.854 21.7114 133.315 21.6704 133.78 21.6704C134.436 21.6704 134.99 21.7251 135.441 21.8345C135.899 21.937 136.282 22.0942 136.589 22.3062C136.897 22.5112 137.143 22.7744 137.328 23.0957C137.519 23.4102 137.676 23.7759 137.799 24.1929L140.004 31.7705H142.229V32.6729H140.25L141.05 35.3594C141.077 35.4619 141.104 35.5576 141.132 35.6465C141.159 35.7354 141.19 35.814 141.224 35.8823C141.265 35.9438 141.313 35.9951 141.368 36.0361C141.429 36.0771 141.504 36.0977 141.593 36.0977C141.785 36.0977 141.962 36.0669 142.126 36.0054C142.291 35.937 142.434 35.8687 142.557 35.8003L142.731 36.1797C142.608 36.2686 142.451 36.3711 142.26 36.4873C142.075 36.5967 141.86 36.7026 141.614 36.8052C141.375 36.9077 141.108 36.9932 140.814 37.0615C140.52 37.1299 140.206 37.1641 139.871 37.1641C139.406 37.1641 139.03 37.106 138.743 36.9897C138.462 36.8735 138.24 36.73 138.076 36.5591C137.919 36.3882 137.803 36.207 137.728 36.0156C137.659 35.8242 137.604 35.6567 137.563 35.5132L136.743 32.6729ZM134.754 25.7412C134.474 26.8828 134.2 27.9561 133.934 28.9609C133.674 29.9658 133.414 30.9023 133.154 31.7705H136.497L134.754 25.7412ZM147.284 28.52C147.544 28.1235 147.821 27.7646 148.115 27.4434C148.238 27.3066 148.371 27.1733 148.515 27.0435C148.658 26.9136 148.805 26.7974 148.956 26.6948C149.113 26.5923 149.273 26.5103 149.438 26.4487C149.602 26.3872 149.766 26.3564 149.93 26.3564C150.278 26.3564 150.552 26.4624 150.75 26.6743C150.948 26.8794 151.047 27.1699 151.047 27.5459C151.047 27.7783 151.027 28.0039 150.986 28.2227C150.952 28.4346 150.88 28.6943 150.771 29.002H150.483C150.442 28.79 150.347 28.6157 150.196 28.479C150.046 28.3354 149.827 28.2637 149.54 28.2637C149.328 28.2637 149.12 28.3047 148.915 28.3867C148.709 28.4619 148.508 28.5576 148.31 28.6738C148.118 28.79 147.934 28.9165 147.756 29.0532C147.585 29.1899 147.428 29.3198 147.284 29.4429V36.0977C147.284 36.1865 147.271 36.2925 147.243 36.4155C147.216 36.5386 147.147 36.6548 147.038 36.7642C146.936 36.8735 146.778 36.9658 146.566 37.041C146.361 37.123 146.078 37.1641 145.715 37.1641C145.353 37.1641 145.066 37.1196 144.854 37.0308C144.649 36.9487 144.492 36.8496 144.382 36.7334C144.273 36.6172 144.205 36.4976 144.177 36.3745C144.15 36.2515 144.136 36.1523 144.136 36.0771V28.1611C144.136 27.9629 144.088 27.792 143.993 27.6484C143.904 27.498 143.75 27.4229 143.531 27.4229C143.415 27.4229 143.316 27.4434 143.234 27.4844C143.152 27.5254 143.063 27.5835 142.967 27.6587L142.752 27.4023C142.909 27.2725 143.083 27.146 143.275 27.0229C143.473 26.8931 143.685 26.7803 143.911 26.6846C144.136 26.5889 144.379 26.5103 144.639 26.4487C144.898 26.3872 145.172 26.3564 145.459 26.3564C145.753 26.3564 146.002 26.3975 146.208 26.4795C146.419 26.5547 146.59 26.6572 146.72 26.7871C146.857 26.9102 146.963 27.0503 147.038 27.2075C147.113 27.3647 147.168 27.5254 147.202 27.6895C147.243 27.8467 147.267 28.0005 147.274 28.1509C147.281 28.2944 147.284 28.4175 147.284 28.52ZM155.682 27.2383V34.8159C155.682 35.1782 155.75 35.4312 155.887 35.5747C156.024 35.7114 156.212 35.7798 156.451 35.7798C156.636 35.7798 156.8 35.7285 156.943 35.626C157.087 35.5234 157.21 35.4072 157.312 35.2773C157.436 35.1338 157.542 34.9663 157.63 34.7749L157.948 34.9185C157.846 35.1372 157.723 35.3765 157.579 35.6362C157.442 35.896 157.258 36.1387 157.025 36.3643C156.793 36.583 156.499 36.7676 156.144 36.918C155.795 37.0684 155.354 37.1436 154.821 37.1436C154.52 37.1436 154.229 37.0991 153.949 37.0103C153.676 36.9214 153.43 36.7812 153.211 36.5898C152.999 36.3984 152.828 36.1592 152.698 35.8721C152.568 35.585 152.503 35.2397 152.503 34.8364V27.2383H151.355V26.5C151.546 26.5 151.813 26.4521 152.155 26.3564C152.497 26.2539 152.845 26.0864 153.201 25.854C153.563 25.6216 153.898 25.3105 154.206 24.9209C154.513 24.5312 154.732 24.0493 154.862 23.4751H155.682V26.5H157.354C157.9 26.5 158.174 26.4077 158.174 26.2231C158.174 26.1548 158.14 26.1104 158.071 26.0898C158.003 26.0625 157.924 26.0317 157.835 25.9976C157.753 25.9565 157.678 25.9019 157.61 25.8335C157.542 25.7651 157.507 25.6523 157.507 25.4951C157.507 25.3037 157.565 25.1533 157.682 25.0439C157.805 24.9346 157.962 24.8799 158.153 24.8799C158.276 24.8799 158.382 24.9072 158.471 24.9619C158.567 25.0098 158.646 25.0781 158.707 25.167C158.769 25.249 158.813 25.3447 158.84 25.4541C158.875 25.5635 158.892 25.6729 158.892 25.7822C158.892 26.2266 158.762 26.582 158.502 26.8486C158.249 27.1084 157.839 27.2383 157.271 27.2383H155.682Z" fill="white"></path><g opacity="0.37"><ellipse cx="178.198" cy="30.5456" rx="9.19775" ry="8.93675" fill="#6FB5D2"></ellipse><ellipse cx="195.518" cy="30.5456" rx="9.19778" ry="8.93676" fill="#6FB5D2"></ellipse><ellipse cx="180.228" cy="41.8037" rx="6.56983" ry="6.3834" fill="#6FB5D2"></ellipse><ellipse cx="192.89" cy="41.8037" rx="6.56985" ry="6.3834" fill="#6FB5D2"></ellipse><rect x="181.304" y="30.0813" width="9.67558" height="10.7937" fill="#6FB5D2"></rect></g><g opacity="0.55"><ellipse cx="179.804" cy="31.5637" rx="7.66254" ry="7.29705" fill="#6FB5D2"></ellipse><ellipse cx="194.234" cy="31.5637" rx="7.66252" ry="7.29705" fill="#6FB5D2"></ellipse><ellipse cx="181.496" cy="40.756" rx="5.47321" ry="5.21218" fill="#6FB5D2"></ellipse><ellipse cx="192.044" cy="40.756" rx="5.47321" ry="5.21218" fill="#6FB5D2"></ellipse><rect x="182.392" y="31.1844" width="8.06053" height="8.81332" fill="#6FB5D2"></rect></g><ellipse cx="181.411" cy="32.1422" rx="6.12723" ry="5.74941" fill="#7FDEE4"></ellipse><ellipse cx="192.949" cy="32.1422" rx="6.12724" ry="5.74941" fill="#7FDEE4"></ellipse><ellipse cx="182.764" cy="39.3852" rx="4.37659" ry="4.10673" fill="#7FDEE4"></ellipse><ellipse cx="191.199" cy="39.3852" rx="4.3766" ry="4.10673" fill="#7FDEE4"></ellipse><rect x="183.48" y="31.8438" width="6.4456" height="6.94411" fill="#7FDEE4"></rect><path d="M189.524 20.1016C190.02 19.6621 190.362 19.186 190.549 18.6733C190.745 18.1606 190.842 17.6764 190.842 17.2207C190.842 16.708 190.736 16.2645 190.525 15.8901C190.321 15.5076 190.094 15.1781 189.841 14.9014C189.727 14.763 189.67 14.5881 189.67 14.3765C189.67 14.1567 189.731 13.9289 189.854 13.6929C189.976 13.4487 190.134 13.2249 190.33 13.0215C190.533 12.818 190.765 12.6512 191.025 12.521C191.286 12.3908 191.558 12.3257 191.843 12.3257C192.161 12.3257 192.425 12.4315 192.637 12.6431C192.848 12.8465 193.019 13.0988 193.149 13.3999C193.28 13.701 193.373 14.0225 193.43 14.3643C193.487 14.6979 193.516 14.995 193.516 15.2554C193.516 15.8088 193.418 16.3377 193.223 16.8423C193.027 17.355 192.763 17.8351 192.429 18.2827C192.104 18.7303 191.721 19.1413 191.282 19.5156C190.842 19.8981 190.378 20.2358 189.89 20.5288L189.524 20.1016Z" fill="#7FDEE4"></path><path d="M183.789 20.1016C183.292 19.6621 182.95 19.186 182.763 18.6733C182.568 18.1606 182.47 17.6764 182.47 17.2207C182.47 16.708 182.576 16.2645 182.788 15.8901C182.991 15.5076 183.219 15.1781 183.471 14.9014C183.585 14.763 183.642 14.5881 183.642 14.3765C183.642 14.1567 183.581 13.9289 183.459 13.6929C183.337 13.4487 183.178 13.2249 182.983 13.0215C182.779 12.818 182.548 12.6512 182.287 12.521C182.027 12.3908 181.754 12.3257 181.469 12.3257C181.152 12.3257 180.887 12.4315 180.676 12.6431C180.464 12.8465 180.293 13.0988 180.163 13.3999C180.033 13.701 179.939 14.0225 179.882 14.3643C179.825 14.6979 179.797 14.995 179.797 15.2554C179.797 15.8088 179.895 16.3377 180.09 16.8423C180.285 17.355 180.55 17.8351 180.883 18.2827C181.209 18.7303 181.591 19.1413 182.031 19.5156C182.47 19.8981 182.934 20.2358 183.422 20.5288L183.789 20.1016Z" fill="#7FDEE4"></path><path d="M31.128 55V46.6H35.064C36.072 46.6 36.84 46.8 37.368 47.2C37.896 47.592 38.16 48.12 38.16 48.784C38.16 49.232 38.056 49.616 37.848 49.936C37.64 50.248 37.36 50.492 37.008 50.668C36.664 50.836 36.288 50.92 35.88 50.92L36.096 50.488C36.568 50.488 36.992 50.576 37.368 50.752C37.744 50.92 38.04 51.168 38.256 51.496C38.48 51.824 38.592 52.232 38.592 52.72C38.592 53.44 38.316 54 37.764 54.4C37.212 54.8 36.392 55 35.304 55H31.128ZM32.688 53.776H35.208C35.792 53.776 36.24 53.68 36.552 53.488C36.864 53.296 37.02 52.988 37.02 52.564C37.02 52.148 36.864 51.844 36.552 51.652C36.24 51.452 35.792 51.352 35.208 51.352H32.568V50.14H34.896C35.44 50.14 35.856 50.044 36.144 49.852C36.44 49.66 36.588 49.372 36.588 48.988C36.588 48.596 36.44 48.304 36.144 48.112C35.856 47.92 35.44 47.824 34.896 47.824H32.688V53.776ZM43.1249 55.084C42.4129 55.084 41.7889 54.944 41.2529 54.664C40.7249 54.376 40.3129 53.984 40.0169 53.488C39.7289 52.992 39.5849 52.428 39.5849 51.796C39.5849 51.156 39.7249 50.592 40.0049 50.104C40.2929 49.608 40.6849 49.22 41.1809 48.94C41.6849 48.66 42.2569 48.52 42.8969 48.52C43.5209 48.52 44.0769 48.656 44.5649 48.928C45.0529 49.2 45.4369 49.584 45.7169 50.08C45.9969 50.576 46.1369 51.16 46.1369 51.832C46.1369 51.896 46.1329 51.968 46.1249 52.048C46.1249 52.128 46.1209 52.204 46.1129 52.276H40.7729V51.28H45.3209L44.7329 51.592C44.7409 51.224 44.6649 50.9 44.5049 50.62C44.3449 50.34 44.1249 50.12 43.8449 49.96C43.5729 49.8 43.2569 49.72 42.8969 49.72C42.5289 49.72 42.2049 49.8 41.9249 49.96C41.6529 50.12 41.4369 50.344 41.2769 50.632C41.1249 50.912 41.0489 51.244 41.0489 51.628V51.868C41.0489 52.252 41.1369 52.592 41.3129 52.888C41.4889 53.184 41.7369 53.412 42.0569 53.572C42.3769 53.732 42.7449 53.812 43.1609 53.812C43.5209 53.812 43.8449 53.756 44.1329 53.644C44.4209 53.532 44.6769 53.356 44.9009 53.116L45.7049 54.04C45.4169 54.376 45.0529 54.636 44.6129 54.82C44.1809 54.996 43.6849 55.084 43.1249 55.084ZM47.5778 55V46.096H49.0778V55H47.5778ZM51.0465 55V46.096H52.5465V55H51.0465ZM57.5273 55.084C56.8153 55.084 56.1913 54.944 55.6553 54.664C55.1273 54.376 54.7153 53.984 54.4193 53.488C54.1313 52.992 53.9873 52.428 53.9873 51.796C53.9873 51.156 54.1273 50.592 54.4073 50.104C54.6953 49.608 55.0873 49.22 55.5833 48.94C56.0873 48.66 56.6593 48.52 57.2993 48.52C57.9233 48.52 58.4793 48.656 58.9673 48.928C59.4553 49.2 59.8393 49.584 60.1193 50.08C60.3993 50.576 60.5393 51.16 60.5393 51.832C60.5393 51.896 60.5353 51.968 60.5273 52.048C60.5273 52.128 60.5233 52.204 60.5153 52.276H55.1753V51.28H59.7233L59.1353 51.592C59.1433 51.224 59.0673 50.9 58.9073 50.62C58.7473 50.34 58.5273 50.12 58.2473 49.96C57.9753 49.8 57.6593 49.72 57.2993 49.72C56.9313 49.72 56.6073 49.8 56.3273 49.96C56.0553 50.12 55.8393 50.344 55.6793 50.632C55.5273 50.912 55.4513 51.244 55.4513 51.628V51.868C55.4513 52.252 55.5393 52.592 55.7153 52.888C55.8913 53.184 56.1393 53.412 56.4593 53.572C56.7793 53.732 57.1473 53.812 57.5633 53.812C57.9233 53.812 58.2473 53.756 58.5353 53.644C58.8233 53.532 59.0793 53.356 59.3033 53.116L60.1073 54.04C59.8193 54.376 59.4553 54.636 59.0153 54.82C58.5833 54.996 58.0873 55.084 57.5273 55.084ZM61.3935 55V54.052L65.3415 49.276L65.6175 49.792H61.4655V48.592H66.8175V49.54L62.8695 54.316L62.5695 53.8H66.9255V55H61.3935ZM72.2562 55V53.704L72.1722 53.428V51.16C72.1722 50.72 72.0402 50.38 71.7762 50.14C71.5122 49.892 71.1122 49.768 70.5762 49.768C70.2162 49.768 69.8602 49.824 69.5082 49.936C69.1642 50.048 68.8722 50.204 68.6322 50.404L68.0442 49.312C68.3882 49.048 68.7962 48.852 69.2682 48.724C69.7482 48.588 70.2442 48.52 70.7562 48.52C71.6842 48.52 72.4002 48.744 72.9042 49.192C73.4162 49.632 73.6722 50.316 73.6722 51.244V55H72.2562ZM70.2402 55.084C69.7602 55.084 69.3402 55.004 68.9802 54.844C68.6202 54.676 68.3402 54.448 68.1402 54.16C67.9482 53.864 67.8522 53.532 67.8522 53.164C67.8522 52.804 67.9362 52.48 68.1042 52.192C68.2802 51.904 68.5642 51.676 68.9562 51.508C69.3482 51.34 69.8682 51.256 70.5162 51.256H72.3762V52.252H70.6242C70.1122 52.252 69.7682 52.336 69.5922 52.504C69.4162 52.664 69.3282 52.864 69.3282 53.104C69.3282 53.376 69.4362 53.592 69.6522 53.752C69.8682 53.912 70.1682 53.992 70.5522 53.992C70.9202 53.992 71.2482 53.908 71.5362 53.74C71.8322 53.572 72.0442 53.324 72.1722 52.996L72.4242 53.896C72.2802 54.272 72.0202 54.564 71.6442 54.772C71.2762 54.98 70.8082 55.084 70.2402 55.084ZM81.9257 55.084C81.2137 55.084 80.5897 54.944 80.0537 54.664C79.5257 54.376 79.1137 53.984 78.8177 53.488C78.5297 52.992 78.3857 52.428 78.3857 51.796C78.3857 51.156 78.5257 50.592 78.8057 50.104C79.0937 49.608 79.4857 49.22 79.9817 48.94C80.4857 48.66 81.0577 48.52 81.6977 48.52C82.3217 48.52 82.8777 48.656 83.3657 48.928C83.8537 49.2 84.2377 49.584 84.5177 50.08C84.7977 50.576 84.9377 51.16 84.9377 51.832C84.9377 51.896 84.9337 51.968 84.9257 52.048C84.9257 52.128 84.9217 52.204 84.9137 52.276H79.5737V51.28H84.1217L83.5337 51.592C83.5417 51.224 83.4657 50.9 83.3057 50.62C83.1457 50.34 82.9257 50.12 82.6457 49.96C82.3737 49.8 82.0577 49.72 81.6977 49.72C81.3297 49.72 81.0057 49.8 80.7257 49.96C80.4537 50.12 80.2377 50.344 80.0777 50.632C79.9257 50.912 79.8497 51.244 79.8497 51.628V51.868C79.8497 52.252 79.9377 52.592 80.1137 52.888C80.2897 53.184 80.5377 53.412 80.8577 53.572C81.1777 53.732 81.5457 53.812 81.9617 53.812C82.3217 53.812 82.6457 53.756 82.9337 53.644C83.2217 53.532 83.4777 53.356 83.7017 53.116L84.5057 54.04C84.2177 54.376 83.8537 54.636 83.4137 54.82C82.9817 54.996 82.4857 55.084 81.9257 55.084ZM90.0145 48.52C90.5265 48.52 90.9825 48.62 91.3825 48.82C91.7905 49.02 92.1105 49.328 92.3425 49.744C92.5745 50.152 92.6905 50.68 92.6905 51.328V55H91.1905V51.52C91.1905 50.952 91.0545 50.528 90.7825 50.248C90.5185 49.968 90.1465 49.828 89.6665 49.828C89.3145 49.828 89.0025 49.9 88.7305 50.044C88.4585 50.188 88.2465 50.404 88.0945 50.692C87.9505 50.972 87.8785 51.328 87.8785 51.76V55H86.3785V48.592H87.8065V50.32L87.5545 49.792C87.7785 49.384 88.1025 49.072 88.5265 48.856C88.9585 48.632 89.4545 48.52 90.0145 48.52ZM101.858 55V53.704L101.774 53.428V51.16C101.774 50.72 101.642 50.38 101.378 50.14C101.114 49.892 100.714 49.768 100.178 49.768C99.8178 49.768 99.4618 49.824 99.1098 49.936C98.7658 50.048 98.4738 50.204 98.2338 50.404L97.6458 49.312C97.9898 49.048 98.3978 48.852 98.8698 48.724C99.3498 48.588 99.8458 48.52 100.358 48.52C101.286 48.52 102.002 48.744 102.506 49.192C103.018 49.632 103.274 50.316 103.274 51.244V55H101.858ZM99.8418 55.084C99.3618 55.084 98.9418 55.004 98.5818 54.844C98.2218 54.676 97.9418 54.448 97.7418 54.16C97.5498 53.864 97.4538 53.532 97.4538 53.164C97.4538 52.804 97.5378 52.48 97.7058 52.192C97.8818 51.904 98.1658 51.676 98.5578 51.508C98.9498 51.34 99.4698 51.256 100.118 51.256H101.978V52.252H100.226C99.7138 52.252 99.3698 52.336 99.1938 52.504C99.0178 52.664 98.9298 52.864 98.9298 53.104C98.9298 53.376 99.0378 53.592 99.2538 53.752C99.4698 53.912 99.7698 53.992 100.154 53.992C100.522 53.992 100.85 53.908 101.138 53.74C101.434 53.572 101.646 53.324 101.774 52.996L102.026 53.896C101.882 54.272 101.622 54.564 101.246 54.772C100.878 54.98 100.41 55.084 99.8418 55.084ZM105.199 55V48.592H106.627V50.356L106.459 49.84C106.651 49.408 106.951 49.08 107.359 48.856C107.775 48.632 108.291 48.52 108.907 48.52V49.948C108.843 49.932 108.783 49.924 108.727 49.924C108.671 49.916 108.615 49.912 108.559 49.912C107.991 49.912 107.539 50.08 107.203 50.416C106.867 50.744 106.699 51.236 106.699 51.892V55H105.199ZM112.826 55.084C112.122 55.084 111.578 54.904 111.194 54.544C110.81 54.176 110.618 53.636 110.618 52.924V47.176H112.118V52.888C112.118 53.192 112.194 53.428 112.346 53.596C112.506 53.764 112.726 53.848 113.006 53.848C113.342 53.848 113.622 53.76 113.846 53.584L114.266 54.652C114.09 54.796 113.874 54.904 113.618 54.976C113.362 55.048 113.098 55.084 112.826 55.084ZM109.562 49.84V48.64H113.834V49.84H109.562ZM118.301 55.084C117.589 55.084 116.965 54.944 116.429 54.664C115.901 54.376 115.489 53.984 115.193 53.488C114.905 52.992 114.761 52.428 114.761 51.796C114.761 51.156 114.901 50.592 115.181 50.104C115.469 49.608 115.861 49.22 116.357 48.94C116.861 48.66 117.433 48.52 118.073 48.52C118.697 48.52 119.253 48.656 119.741 48.928C120.229 49.2 120.613 49.584 120.893 50.08C121.173 50.576 121.313 51.16 121.313 51.832C121.313 51.896 121.309 51.968 121.301 52.048C121.301 52.128 121.297 52.204 121.289 52.276H115.949V51.28H120.497L119.909 51.592C119.917 51.224 119.841 50.9 119.681 50.62C119.521 50.34 119.301 50.12 119.021 49.96C118.749 49.8 118.433 49.72 118.073 49.72C117.705 49.72 117.381 49.8 117.101 49.96C116.829 50.12 116.613 50.344 116.453 50.632C116.301 50.912 116.225 51.244 116.225 51.628V51.868C116.225 52.252 116.313 52.592 116.489 52.888C116.665 53.184 116.913 53.412 117.233 53.572C117.553 53.732 117.921 53.812 118.337 53.812C118.697 53.812 119.021 53.756 119.309 53.644C119.597 53.532 119.853 53.356 120.077 53.116L120.881 54.04C120.593 54.376 120.229 54.636 119.789 54.82C119.357 54.996 118.861 55.084 118.301 55.084Z" fill="#72C5CB"></path></g></g><defs><filter id="filter0_d_209_1080" x="-5" y="-36" width="331" height="129.71" filterUnits="userSpaceOnUse" color-interpolation-filters="sRGB"><feFlood flood-opacity="0" result="BackgroundImageFix"></feFlood><feColorMatrix in="SourceAlpha" type="matrix" values="0 0 0 0 0 0 0 0 0 0 0 0 0 0 0 0 0 0 127 0" result="hardAlpha"></feColorMatrix><feOffset dy="4"></feOffset><feGaussianBlur stdDeviation="2.5"></feGaussianBlur><feComposite in2="hardAlpha" operator="out"></feComposite><feColorMatrix type="matrix" values="0 0 0 0 0 0 0 0 0 0 0 0 0 0 0 0 0 0 0.15 0"></feColorMatrix><feBlend mode="normal" in2="BackgroundImageFix" result="effect1_dropShadow_209_1080"></feBlend><feBlend mode="normal" in="SourceGraphic" in2="effect1_dropShadow_209_1080" result="shape"></feBlend></filter></defs></svg>