<svg width="99" height="120" fill="none" xmlns="http://www.w3.org/2000/svg"><g opacity=".37" fill="#8AD7DD"><ellipse cx="41.863" cy="83.213" rx="16.681" ry="16.162" transform="rotate(-22.062 41.863 83.213)"/><ellipse cx="70.977" cy="71.414" rx="16.681" ry="16.162" transform="rotate(-22.062 70.977 71.414)"/><ellipse cx="52.923" cy="100.699" rx="11.915" ry="11.544" transform="rotate(-22.062 52.923 100.699)"/><ellipse cx="74.206" cy="92.073" rx="11.915" ry="11.544" transform="rotate(-22.062 74.206 92.073)"/><path d="m46.768 80.32 16.263-6.592 7.332 18.09L54.1 98.41z"/></g><g opacity=".55" fill="#8AD7DD"><ellipse cx="45.255" cy="83.825" rx="13.897" ry="13.196" transform="rotate(-22.062 45.255 83.825)"/><ellipse cx="69.509" cy="73.995" rx="13.897" ry="13.196" transform="rotate(-22.062 69.509 73.995)"/><ellipse cx="54.343" cy="98.079" rx="9.926" ry="9.426" transform="rotate(-22.062 54.343 98.08)"/><ellipse cx="72.073" cy="90.893" rx="9.926" ry="9.426" transform="rotate(-22.062 72.073 90.893)"/><path d="m49.347 81.427 13.549-5.491 5.986 14.771-13.549 5.49z"/></g><ellipse cx="48.349" cy="83.7" rx="11.113" ry="10.398" transform="rotate(-22.062 48.35 83.7)" fill="#8AD7DD"/><ellipse cx="67.744" cy="75.84" rx="11.113" ry="10.398" transform="rotate(-22.062 67.744 75.84)" fill="#8AD7DD"/><ellipse cx="55.543" cy="94.918" rx="7.938" ry="7.427" transform="rotate(-22.062 55.543 94.918)" fill="#8AD7DD"/><ellipse cx="69.721" cy="89.171" rx="7.938" ry="7.427" transform="rotate(-22.062 69.72 89.171)" fill="#8AD7DD"/><path fill="#8AD7DD" d="m51.624 81.79 10.834-4.39 4.717 11.638-10.834 4.39z"/><path d="M53.981 61.663c.567-1.14.832-2.234.795-3.28-.022-1.054-.198-1.986-.526-2.797-.37-.912-.878-1.625-1.524-2.139a9.24 9.24 0 0 0-1.93-1.266c-.302-.164-.53-.434-.682-.811-.159-.391-.215-.84-.168-1.348a5.238 5.238 0 0 1 .363-1.538c.216-.51.508-.973.878-1.393.369-.42.807-.732 1.314-.937.565-.229 1.112-.232 1.64-.008.524.21 1.01.535 1.459.977.449.442.847.947 1.195 1.514.342.553.607 1.06.795 1.524a8.37 8.37 0 0 1 .623 3.035 11.399 11.399 0 0 1-.373 3.135 13.668 13.668 0 0 1-1.153 3.022 18.8 18.8 0 0 1-1.746 2.806l-.96-.496zM44.577 65.475c-1.2-.424-2.152-1.025-2.855-1.802-.717-.772-1.24-1.563-1.569-2.374-.37-.912-.501-1.778-.395-2.596a9.245 9.245 0 0 1 .504-2.253c.103-.328.078-.68-.075-1.057-.158-.391-.431-.752-.819-1.084a5.238 5.238 0 0 0-1.33-.852 5.105 5.105 0 0 0-1.6-.389 3.468 3.468 0 0 0-1.596.243c-.565.229-.96.608-1.183 1.137a4.42 4.42 0 0 0-.367 1.716c-.014.63.051 1.27.196 1.919.14.634.303 1.184.49 1.647.4.985.955 1.855 1.667 2.612a11.399 11.399 0 0 0 2.45 1.991 13.666 13.666 0 0 0 2.931 1.367c1.058.363 2.127.63 3.207.799l.344-1.024z" fill="#72C5CB"/></svg>