<svg width="199" height="76" fill="none" xmlns="http://www.w3.org/2000/svg"><g opacity=".87"><path d="M9.13 50.917c-.683 0-1.187-.142-1.513-.427-.325-.285-.488-.74-.488-1.367V33.62c-.26.025-.586.073-.977.147a9.602 9.602 0 0 0-1.208.293c-.423.13-.847.288-1.27.476a5.63 5.63 0 0 0-1.135.634 3.35 3.35 0 0 0-.818.806 1.702 1.702 0 0 0-.317 1.001c0 .26.032.468.097.623.074.154.155.272.245.354.09.073.179.122.268.146.098.016.167.024.208.024.203 0 .37-.032.5-.097a4.49 4.49 0 0 0 .354-.22c.106-.081.204-.154.293-.22a.536.536 0 0 1 .33-.11c.097 0 .2.025.305.074.114.04.216.11.305.207.098.098.18.228.244.39.065.155.098.347.098.575 0 .325-.065.606-.195.842a1.838 1.838 0 0 1-.489.598 2.097 2.097 0 0 1-.683.354c-.253.073-.505.11-.757.11-.39 0-.745-.065-1.062-.195a2.42 2.42 0 0 1-.794-.562 2.386 2.386 0 0 1-.5-.83A2.976 2.976 0 0 1 0 38.027c0-.952.26-1.774.781-2.466.53-.7 1.25-1.278 2.16-1.733.912-.464 1.974-.806 3.187-1.026 1.212-.22 2.51-.33 3.894-.33.66 0 1.302.009 1.929.025.626.008 1.196.025 1.709.049.52.024.968.053 1.342.085.375.033.647.07.818.11.163.04.293.102.39.183.099.074.172.159.22.257.05.097.082.203.098.317a1.651 1.651 0 0 1-.122.977.92.92 0 0 1-.183.268.365.365 0 0 1-.268.11.345.345 0 0 1-.208-.085 2.79 2.79 0 0 0-.28-.208 4.814 4.814 0 0 0-.501-.28 4.022 4.022 0 0 0-.818-.294c-.334-.09-.749-.17-1.245-.244a16.022 16.022 0 0 0-1.782-.146v15.527c0 .627-.163 1.082-.489 1.367-.325.285-.826.427-1.501.427zm10.328-10.29c.31-.472.639-.9.989-1.282a6.6 6.6 0 0 1 .476-.476c.17-.154.346-.293.525-.415a2.94 2.94 0 0 1 .573-.293c.196-.073.391-.11.586-.11.416 0 .741.126.977.379.236.244.354.59.354 1.037 0 .277-.024.546-.073.806-.04.252-.126.561-.257.928h-.341a1.099 1.099 0 0 0-.342-.623c-.18-.17-.44-.256-.781-.256-.253 0-.5.049-.745.146-.244.09-.484.204-.72.342a7.259 7.259 0 0 0-.66.452c-.203.163-.39.317-.561.464v7.922c0 .106-.016.232-.049.378a.851.851 0 0 1-.244.415c-.122.13-.31.24-.561.33-.245.098-.582.146-1.014.146-.431 0-.773-.052-1.025-.158a1.552 1.552 0 0 1-.562-.354.922.922 0 0 1-.244-.428 1.713 1.713 0 0 1-.049-.353V40.2c0-.236-.057-.44-.17-.61-.106-.18-.29-.27-.55-.27a.785.785 0 0 0-.354.074 1.906 1.906 0 0 0-.317.208l-.257-.306c.188-.154.395-.305.623-.451a4.79 4.79 0 0 1 .757-.403c.268-.114.557-.208.867-.28.309-.074.634-.11.976-.11.35 0 .647.048.891.146.253.09.456.211.61.366.163.146.29.313.379.5.09.188.155.379.195.574.05.187.078.37.086.55.008.17.012.317.012.439zm11.292 3.772c0-.203-.066-.358-.196-.464a.768.768 0 0 0-.5-.159c-.285 0-.558.066-.818.196-.252.13-.476.321-.672.573-.195.253-.35.566-.463.94-.114.367-.171.794-.171 1.282 0 .472.032.863.097 1.172.074.31.167.557.281.745.122.179.26.305.415.378.155.073.318.11.488.11.212 0 .411-.053.599-.159.187-.114.35-.256.488-.427.138-.171.248-.362.33-.574.08-.211.122-.423.122-.635V44.4zm-1.941-5.347c-.277 0-.533.033-.77.098-.236.065-.439.146-.61.244-.17.098-.305.208-.403.33-.097.114-.146.223-.146.33 0 .121.06.21.183.268.13.049.273.11.427.183.155.065.293.163.415.293.13.122.196.313.196.574 0 .17-.037.33-.11.476a1.24 1.24 0 0 1-.281.378 1.326 1.326 0 0 1-.415.256 1.4 1.4 0 0 1-.488.086c-.456 0-.826-.155-1.111-.464-.277-.31-.415-.72-.415-1.233 0-.496.13-.92.39-1.27.26-.358.599-.65 1.014-.878.423-.228.899-.395 1.428-.5a7.785 7.785 0 0 1 3.406.037 4.541 4.541 0 0 1 1.525.658c.448.301.802.684 1.062 1.147.269.464.403 1.026.403 1.685v6.897c0 .073.004.155.013.244a.77.77 0 0 0 .06.244.46.46 0 0 0 .147.183.462.462 0 0 0 .28.074c.147 0 .282-.053.404-.16a3.39 3.39 0 0 0 .341-.34l.306.255c-.123.171-.269.358-.44.562a3.545 3.545 0 0 1-1.477 1.025 3.15 3.15 0 0 1-1.11.183c-.514 0-.97-.15-1.368-.451-.399-.31-.66-.781-.781-1.416-.26.35-.533.643-.818.879a4.243 4.243 0 0 1-.855.573c-.292.147-.59.253-.89.318-.294.065-.59.097-.892.097a3.57 3.57 0 0 1-1.135-.183 2.813 2.813 0 0 1-.989-.573 3.016 3.016 0 0 1-.696-1.038c-.17-.423-.256-.94-.256-1.55 0-.74.146-1.347.44-1.82a3.88 3.88 0 0 1 1.147-1.183 7.803 7.803 0 0 1 1.623-.83 95.09 95.09 0 0 0 1.868-.72c.472-.188.814-.464 1.025-.83.22-.375.33-.757.33-1.148 0-.602-.179-1.082-.537-1.44-.35-.367-.83-.55-1.44-.55zm16.076 5.591c0-1.025-.049-1.843-.146-2.453-.09-.619-.212-1.087-.366-1.404-.155-.326-.326-.538-.513-.635a1.153 1.153 0 0 0-.574-.159c-.236 0-.447.065-.635.196-.179.122-.337.264-.476.427a4.46 4.46 0 0 0-.341.488c-.09.163-.167.285-.232.366v8.154c0 .106-.017.236-.05.391a.921.921 0 0 1-.243.427c-.122.13-.31.24-.562.33-.244.098-.582.146-1.013.146-.431 0-.773-.052-1.026-.158a1.552 1.552 0 0 1-.561-.354.923.923 0 0 1-.244-.428 1.718 1.718 0 0 1-.049-.353V40.2c0-.236-.057-.44-.17-.61-.107-.18-.29-.27-.55-.27a.785.785 0 0 0-.354.074 1.898 1.898 0 0 0-.318.208l-.256-.306c.187-.154.395-.305.623-.451.236-.155.488-.29.756-.403.269-.114.558-.208.867-.28.31-.074.635-.11.977-.11.529 0 .94.089 1.233.268.293.17.508.378.647.622.138.245.22.5.244.77.032.26.049.48.049.659a6.664 6.664 0 0 1 1.025-1.16c.155-.146.325-.289.513-.427a4.66 4.66 0 0 1 .61-.367c.22-.114.448-.203.684-.268.244-.065.492-.098.744-.098.554 0 1.042.106 1.465.318.431.211.794.565 1.087 1.062.293.496.516 1.155.67 1.977.156.814.233 1.827.233 3.04 0 1.18-.106 2.205-.318 3.076-.211.87-.488 1.611-.83 2.222-.341.61-.728 1.106-1.16 1.489a5.88 5.88 0 0 1-1.306.915c-.439.22-.862.37-1.269.452-.399.09-.745.138-1.038.147l-.134-.501c.244-.057.468-.146.671-.268.212-.123.403-.302.574-.538.171-.236.322-.533.452-.89.13-.367.24-.823.33-1.368.097-.545.166-1.188.207-1.929.049-.748.073-1.62.073-2.612zm10.193-5.615c-.187 0-.366.024-.537.073-.163.049-.31.13-.44.244-.13.106-.231.244-.305.415a1.42 1.42 0 0 0-.11.586c0 .318.114.635.342.952.236.31.525.635.867.977.35.334.724.684 1.123 1.05.407.358.781.74 1.123 1.147.35.399.639.826.867 1.282.236.456.354.944.354 1.465 0 .586-.102 1.106-.305 1.562a3.1 3.1 0 0 1-.855 1.16 3.81 3.81 0 0 1-1.343.732 5.837 5.837 0 0 1-1.745.244c-.562 0-1.07-.077-1.526-.232a6.062 6.062 0 0 1-1.22-.585 5.648 5.648 0 0 1-.904-.745 4.943 4.943 0 0 1-.586-.708l.427-.305c.106.122.24.256.403.403a3.628 3.628 0 0 0 1.184.696c.228.073.46.11.696.11.586 0 1.066-.14 1.44-.416.375-.285.562-.704.562-1.257 0-.31-.102-.627-.305-.952a7.31 7.31 0 0 0-.77-1.026 37.42 37.42 0 0 0-1-1.086 14.8 14.8 0 0 1-1.001-1.16 6.872 6.872 0 0 1-.77-1.233 3.009 3.009 0 0 1-.304-1.318c0-.513.101-.96.305-1.343.211-.382.488-.7.83-.952.35-.252.744-.44 1.184-.561.447-.13.907-.196 1.38-.196.544 0 1.04.05 1.488.147.448.097.83.248 1.148.451a2.015 2.015 0 0 1 1.013 1.794c0 .31-.102.579-.305.806-.203.228-.488.342-.855.342-.35 0-.618-.073-.805-.22a.78.78 0 0 1-.269-.622c0-.17.04-.305.122-.403.09-.097.187-.175.293-.232.106-.065.2-.118.281-.158.09-.05.134-.11.134-.184 0-.227-.122-.406-.366-.537-.244-.138-.557-.207-.94-.207zM66.65 32.57c-.228 0-.443.05-.647.147a1.408 1.408 0 0 0-.537.476 2.631 2.631 0 0 0-.354.818c-.09.333-.134.736-.134 1.208v3.003h2.673v.88h-2.673v9.618c0 1.107-.146 2.128-.44 3.064-.284.936-.72 1.742-1.306 2.417a5.996 5.996 0 0 1-2.197 1.6c-.879.382-1.904.573-3.076.573-.415 0-.814-.037-1.196-.11a4.677 4.677 0 0 1-1.014-.28 2.13 2.13 0 0 1-.695-.44c-.18-.163-.269-.346-.269-.55 0-.146.02-.296.061-.451.04-.146.102-.28.183-.403a1.09 1.09 0 0 1 .305-.305.728.728 0 0 1 .403-.11c.09 0 .171.045.244.134.066.09.135.2.208.33.073.13.159.273.256.427.09.163.208.31.354.44.147.13.33.24.55.33.211.089.472.133.78.133.416 0 .782-.085 1.1-.256.317-.163.59-.39.817-.683.228-.293.42-.64.574-1.038.155-.399.277-.826.366-1.282.09-.456.15-.931.183-1.428.041-.496.062-.993.062-1.49v-10.24h-2.247v-.88h2.246v-1.428c0-.716.086-1.339.257-1.868a4.69 4.69 0 0 1 .696-1.367c.293-.374.622-.68.988-.915a5.427 5.427 0 0 1 2.222-.842c.358-.05.671-.074.94-.074.578 0 1.09.045 1.538.134a4.37 4.37 0 0 1 1.123.342c.301.138.53.301.684.488.154.188.232.379.232.574 0 .147-.025.297-.074.452-.04.146-.101.285-.183.415a1.09 1.09 0 0 1-.305.305.707.707 0 0 1-.39.11c-.09 0-.171-.049-.245-.147a3.243 3.243 0 0 1-.232-.366 44.95 44.95 0 0 0-.268-.476c-.098-.17-.22-.33-.366-.476a1.77 1.77 0 0 0-.5-.366 1.539 1.539 0 0 0-.697-.147zm1.087 11.902c0-1.066.154-1.998.464-2.795.309-.806.72-1.477 1.233-2.014a5.079 5.079 0 0 1 1.806-1.209 5.823 5.823 0 0 1 2.149-.403c.748 0 1.465.126 2.148.379a4.78 4.78 0 0 1 1.794 1.135c.521.513.936 1.164 1.246 1.953.309.781.463 1.71.463 2.783 0 1.066-.154 2.01-.463 2.832-.31.822-.725 1.514-1.245 2.075a5.158 5.158 0 0 1-1.795 1.282 5.53 5.53 0 0 1-2.148.427 5.823 5.823 0 0 1-2.149-.402 5.218 5.218 0 0 1-1.806-1.221c-.513-.537-.924-1.209-1.233-2.014-.31-.806-.464-1.742-.464-2.808zm7.507-.122c0-.65-.024-1.278-.073-1.88a8.183 8.183 0 0 0-.256-1.623c-.13-.472-.318-.847-.562-1.123-.244-.285-.566-.428-.964-.428-.4 0-.72.15-.965.452-.244.293-.431.684-.561 1.172-.13.48-.216 1.03-.257 1.648a29.642 29.642 0 0 0 0 3.82 8.68 8.68 0 0 0 .257 1.66c.13.49.317.884.561 1.185.244.293.566.44.965.44.398 0 .72-.155.964-.465.244-.309.431-.716.562-1.22a9.23 9.23 0 0 0 .256-1.71c.049-.634.073-1.277.073-1.928zm9.986-3.723c.309-.472.638-.9.988-1.282.147-.163.305-.321.476-.476.171-.154.346-.293.525-.415.187-.122.379-.22.574-.293.195-.073.39-.11.586-.11.415 0 .74.126.977.379.236.244.354.59.354 1.037 0 .277-.025.546-.074.806-.04.252-.126.561-.256.928h-.342a1.099 1.099 0 0 0-.342-.623c-.179-.17-.44-.256-.781-.256-.252 0-.5.049-.745.146-.244.09-.484.204-.72.342a7.259 7.259 0 0 0-.659.452c-.203.163-.39.317-.561.464v7.922c0 .106-.017.232-.05.378a.851.851 0 0 1-.244.415c-.122.13-.309.24-.561.33-.244.098-.582.146-1.013.146-.431 0-.773-.052-1.026-.158a1.552 1.552 0 0 1-.561-.354.922.922 0 0 1-.244-.428 1.713 1.713 0 0 1-.05-.353V40.2c0-.236-.056-.44-.17-.61-.106-.18-.289-.27-.55-.27a.785.785 0 0 0-.353.074 1.906 1.906 0 0 0-.318.208l-.256-.306c.187-.154.395-.305.623-.451.236-.155.488-.29.756-.403.269-.114.558-.208.867-.28.31-.074.635-.11.977-.11.35 0 .647.048.89.146.253.09.456.211.611.366.163.146.289.313.378.5.09.188.155.379.196.574.049.187.077.37.085.55.008.17.013.317.013.439zm16.467 9.02c0 .107-.016.233-.049.38a.856.856 0 0 1-.244.414c-.122.13-.309.24-.562.33-.252.098-.594.146-1.025.146-.431 0-.773-.052-1.025-.158a1.552 1.552 0 0 1-.562-.354.968.968 0 0 1-.232-.428 1.718 1.718 0 0 1-.049-.353v-8.63a1.24 1.24 0 0 0-.049-.343 1.1 1.1 0 0 0-.146-.33.738.738 0 0 0-.244-.231.602.602 0 0 0-.342-.098c-.22 0-.435.065-.647.196a3.818 3.818 0 0 0-.598.427 5.32 5.32 0 0 0-.476.488c-.13.163-.224.285-.281.366v8.179c0 .106-.016.232-.049.378a.85.85 0 0 1-.244.415c-.122.13-.31.24-.562.33-.244.098-.581.146-1.013.146-.431 0-.773-.052-1.025-.158a1.552 1.552 0 0 1-.562-.354.922.922 0 0 1-.244-.428 1.711 1.711 0 0 1-.049-.353V40.2c0-.236-.056-.44-.17-.61-.106-.18-.29-.27-.55-.27a.785.785 0 0 0-.354.074 1.902 1.902 0 0 0-.317.208l-.257-.306c.188-.154.395-.305.623-.451a4.79 4.79 0 0 1 .757-.403c.268-.114.557-.208.867-.28.309-.074.634-.11.976-.11.53 0 .94.089 1.233.268.293.17.509.378.647.622.138.245.22.5.244.77.033.26.049.48.049.659a9.186 9.186 0 0 1 1.233-1.16c.179-.146.374-.289.586-.427.22-.139.443-.26.671-.367.228-.114.464-.203.708-.268.244-.065.489-.098.733-.098.472 0 .875.086 1.208.257.334.17.602.378.806.622.203.236.35.489.439.757.098.26.147.488.147.684.39-.432.801-.818 1.233-1.16.179-.146.374-.289.586-.427.211-.139.431-.26.659-.367.236-.114.472-.203.708-.268.244-.065.488-.098.732-.098.472 0 .875.09 1.209.269.333.17.602.399.805.683.204.285.35.607.44.965.098.358.146.716.146 1.074v7.556c0 .073.004.155.013.244a.874.874 0 0 0 .061.244.453.453 0 0 0 .146.184.496.496 0 0 0 .281.073.617.617 0 0 0 .415-.159c.122-.114.236-.228.342-.342l.293.257c-.114.17-.265.362-.452.573a4.398 4.398 0 0 1-.671.586c-.253.188-.55.342-.892.464a3.1 3.1 0 0 1-1.135.195c-.358 0-.671-.048-.94-.146a2.13 2.13 0 0 1-.671-.366 1.599 1.599 0 0 1-.403-.562 1.837 1.837 0 0 1-.134-.696v-8.154a1.26 1.26 0 0 0-.049-.342 1.09 1.09 0 0 0-.147-.33.637.637 0 0 0-.231-.231.604.604 0 0 0-.342-.098c-.22 0-.44.065-.659.196a3.849 3.849 0 0 0-.599.427 4.254 4.254 0 0 0-.463.488 7.564 7.564 0 0 0-.281.366v8.179zm25.378-4.076h-4.602c-.342 1.074-.712 2.006-1.111 2.795-.39.79-.826 1.445-1.306 1.965-.48.521-1.009.908-1.587 1.16-.569.252-1.208.379-1.916.379-.391 0-.765-.037-1.123-.11a4.219 4.219 0 0 1-.965-.281 2.038 2.038 0 0 1-.659-.44c-.171-.162-.256-.341-.256-.537 0-.146.024-.293.073-.439.041-.155.102-.293.183-.415a.917.917 0 0 1 .305-.305.655.655 0 0 1 .391-.122c.13 0 .244.09.342.268.097.18.224.379.378.598.147.212.338.407.574.586.236.18.561.269.976.269.424 0 .826-.102 1.209-.305.382-.204.749-.521 1.099-.952.358-.44.699-.997 1.025-1.673.326-.675.643-1.49.952-2.441h-2.881v-1.074h3.199c.268-.912.528-1.831.781-2.76.26-.927.504-1.818.732-2.672.228-.855.431-1.653.611-2.393.179-.749.329-1.4.451-1.953-.163-.456-.386-.761-.671-.916-.277-.154-.651-.232-1.123-.232-.44 0-.895.07-1.367.208-.464.13-.887.321-1.27.573a3.3 3.3 0 0 0-.952.916c-.244.358-.366.761-.366 1.209 0 .26.032.468.097.622.074.155.155.273.244.354a.857.857 0 0 0 .281.147c.09.016.159.024.208.024.195 0 .358-.032.488-.098.138-.073.256-.146.354-.22.106-.08.208-.154.305-.22a.538.538 0 0 1 .33-.109c.089 0 .187.025.293.073a.76.76 0 0 1 .305.208c.098.097.179.228.244.39.065.155.098.346.098.574 0 .326-.065.606-.196.843a1.83 1.83 0 0 1-.488.598 2.095 2.095 0 0 1-.683.354c-.253.073-.505.11-.757.11-.391 0-.745-.07-1.062-.208a2.482 2.482 0 0 1-.794-.586 2.504 2.504 0 0 1-.5-.855 3.08 3.08 0 0 1-.171-1.025c0-.537.089-1.03.268-1.477.179-.456.428-.867.745-1.233.317-.374.692-.7 1.123-.976.431-.285.895-.521 1.392-.708a8.495 8.495 0 0 1 1.574-.44 9.345 9.345 0 0 1 1.648-.146c.782 0 1.441.065 1.978.195.545.122 1.001.31 1.367.562.366.244.659.557.879.94.228.374.415.81.562 1.306l2.624 9.02h2.649v1.075h-2.356l.952 3.198c.033.122.065.236.098.342.032.106.069.2.11.28a.707.707 0 0 0 .171.184.47.47 0 0 0 .268.073c.228 0 .44-.037.635-.11.195-.081.366-.163.513-.244l.207.452a6.174 6.174 0 0 1-1.33.745 5.7 5.7 0 0 1-.953.304c-.35.082-.724.122-1.123.122-.553 0-1.001-.069-1.342-.207-.334-.138-.599-.31-.794-.513a2.093 2.093 0 0 1-.415-.647 10.285 10.285 0 0 1-.195-.598l-.977-3.381zm-2.368-8.252c-.334 1.359-.659 2.637-.977 3.833a92.307 92.307 0 0 1-.927 3.345h3.979l-2.075-7.178zm14.917 3.308c.309-.472.639-.9.989-1.282.146-.163.305-.321.476-.476.171-.154.346-.293.525-.415a2.92 2.92 0 0 1 .574-.293c.195-.073.39-.11.585-.11.415 0 .741.126.977.379.236.244.354.59.354 1.037 0 .277-.024.546-.073.806a5.436 5.436 0 0 1-.257.928h-.341a1.1 1.1 0 0 0-.342-.623c-.179-.17-.44-.256-.781-.256-.253 0-.501.049-.745.146-.244.09-.484.204-.72.342a7.16 7.16 0 0 0-.659.452c-.204.163-.391.317-.562.464v7.922c0 .106-.016.232-.049.378a.848.848 0 0 1-.244.415c-.122.13-.309.24-.561.33-.245.098-.582.146-1.014.146-.431 0-.773-.052-1.025-.158a1.562 1.562 0 0 1-.562-.354.928.928 0 0 1-.244-.428 1.756 1.756 0 0 1-.049-.353V40.2c0-.236-.057-.44-.17-.61-.106-.18-.289-.27-.55-.27a.787.787 0 0 0-.354.074 1.93 1.93 0 0 0-.317.208l-.256-.306c.187-.154.394-.305.622-.451.236-.155.488-.29.757-.403.268-.114.557-.208.867-.28a4.22 4.22 0 0 1 .976-.11c.35 0 .647.048.891.146.253.09.456.211.611.366.162.146.289.313.378.5.09.188.155.379.195.574.049.187.078.37.086.55.008.17.012.317.012.439zm9.998-1.526v9.021c0 .431.081.733.244.903.162.163.386.245.671.245.22 0 .415-.062.586-.184.171-.122.317-.26.439-.415.147-.17.273-.37.379-.598l.378.171c-.122.26-.268.545-.439.855-.163.309-.383.598-.659.866-.277.26-.627.48-1.05.66-.415.178-.94.268-1.575.268-.358 0-.704-.053-1.037-.159a2.484 2.484 0 0 1-.879-.5 2.546 2.546 0 0 1-.611-.855c-.154-.341-.232-.752-.232-1.232V39.1h-1.367v-.879c.228 0 .545-.057.952-.17a4.818 4.818 0 0 0 1.245-.599 4.909 4.909 0 0 0 1.197-1.11c.366-.465.626-1.038.781-1.722h.977v3.601h1.989c.651 0 .977-.11.977-.33 0-.08-.041-.134-.122-.158-.082-.033-.175-.07-.281-.11a1.015 1.015 0 0 1-.268-.195c-.082-.082-.123-.216-.123-.403 0-.228.07-.407.208-.537a.813.813 0 0 1 .561-.195.71.71 0 0 1 .379.097.744.744 0 0 1 .281.244.937.937 0 0 1 .158.342c.041.13.061.26.061.39 0 .53-.154.953-.463 1.27-.302.31-.79.464-1.465.464h-1.892z" fill="#fff" fill-opacity=".87"/><g opacity=".37" fill="#70C8CE" fill-opacity=".79"><ellipse cx="170.365" cy="38.561" rx="9.932" ry="9.622"/><ellipse cx="189.068" cy="38.561" rx="9.932" ry="9.622"/><ellipse cx="172.558" cy="50.682" rx="7.094" ry="6.873"/><ellipse cx="186.23" cy="50.682" rx="7.094" ry="6.873"/><path d="M173.719 38.061h10.448v11.622h-10.448z"/></g><g opacity=".55" fill="#70C8CE" fill-opacity=".79"><ellipse cx="172.1" cy="39.657" rx="8.274" ry="7.857"/><ellipse cx="187.681" cy="39.657" rx="8.274" ry="7.857"/><ellipse cx="173.927" cy="49.554" rx="5.91" ry="5.612"/><ellipse cx="185.317" cy="49.554" rx="5.91" ry="5.612"/><path d="M174.894 39.249h8.704v9.49h-8.704z"/></g><ellipse cx="173.835" cy="40.28" rx="6.616" ry="6.191" fill="#7FDEE4"/><ellipse cx="186.294" cy="40.28" rx="6.616" ry="6.191" fill="#7FDEE4"/><ellipse cx="175.296" cy="48.078" rx="4.726" ry="4.422" fill="#7FDEE4"/><ellipse cx="184.404" cy="48.078" rx="4.726" ry="4.422" fill="#7FDEE4"/><path fill="#7FDEE4" d="M176.069 39.958h6.96v7.477h-6.96zM182.083 28.117c.377-.334.637-.696.779-1.085.149-.39.223-.758.223-1.104 0-.39-.08-.727-.241-1.012a3.664 3.664 0 0 0-.52-.751.61.61 0 0 1-.13-.399c0-.167.047-.34.14-.52a2.06 2.06 0 0 1 .361-.51c.155-.154.331-.281.529-.38.198-.099.405-.149.622-.149.241 0 .442.08.603.242.161.154.291.346.389.575.099.229.171.473.214.733.043.253.065.48.065.677a3.3 3.3 0 0 1-.223 1.206c-.148.39-.349.755-.603 1.095-.247.34-.538.652-.872.937-.334.29-.686.547-1.058.77l-.278-.325zM176.773 28.117c-.378-.334-.638-.696-.78-1.085a3.114 3.114 0 0 1-.222-1.104c0-.39.08-.727.241-1.012.154-.29.328-.54.519-.751a.604.604 0 0 0 .13-.399c0-.167-.046-.34-.139-.52a2.065 2.065 0 0 0-.362-.51 2.009 2.009 0 0 0-.529-.38 1.371 1.371 0 0 0-.621-.149.819.819 0 0 0-.603.242 1.749 1.749 0 0 0-.39.575c-.099.229-.17.473-.213.733a4 4 0 0 0-.065.677c0 .42.074.823.222 1.206.149.39.35.755.604 1.095.247.34.538.652.872.937.334.29.686.547 1.057.77l.279-.325zM15.03 68.812c.657.215 1.179.578 1.564 1.088.385.499.578 1.122.578 1.87 0 1.031-.397 1.83-1.19 2.397-.793.555-1.95.833-3.468.833H6.598V63.1h5.576c1.405 0 2.488.278 3.247.833.76.544 1.139 1.298 1.139 2.261 0 .59-.136 1.11-.408 1.564a2.793 2.793 0 0 1-1.122 1.054zm-6.222-3.978v3.281h3.128c.77 0 1.36-.136 1.768-.408.42-.283.629-.691.629-1.224 0-.544-.21-.952-.629-1.224-.408-.283-.997-.425-1.768-.425H8.808zm3.57 8.432c1.711 0 2.567-.572 2.567-1.717s-.856-1.717-2.567-1.717h-3.57v3.434h3.57zm15.483-2.754c0 .147-.012.357-.034.629h-7.123c.124.669.447 1.201.969 1.598.532.385 1.19.578 1.972.578.997 0 1.819-.329 2.465-.986l1.139 1.309a3.837 3.837 0 0 1-1.547 1.105c-.624.25-1.326.374-2.108.374-.998 0-1.876-.198-2.635-.595a4.361 4.361 0 0 1-1.768-1.649c-.408-.714-.612-1.519-.612-2.414 0-.884.198-1.677.595-2.38a4.324 4.324 0 0 1 1.683-1.666c.714-.397 1.518-.595 2.414-.595.884 0 1.671.198 2.363.595a4.013 4.013 0 0 1 1.632 1.649c.396.703.595 1.519.595 2.448zm-4.59-2.992c-.68 0-1.258.204-1.734.612-.465.397-.748.93-.85 1.598h5.15c-.09-.657-.368-1.19-.832-1.598-.465-.408-1.043-.612-1.734-.612zm6.63-5.134h2.126V75h-2.125V62.386zm4.915 0h2.125V75h-2.125V62.386zm13.448 8.126c0 .147-.011.357-.034.629h-7.123c.125.669.448 1.201.969 1.598.533.385 1.19.578 1.972.578.997 0 1.819-.329 2.465-.986l1.139 1.309a3.837 3.837 0 0 1-1.547 1.105c-.623.25-1.326.374-2.108.374-.997 0-1.876-.198-2.635-.595a4.361 4.361 0 0 1-1.768-1.649c-.408-.714-.612-1.519-.612-2.414 0-.884.198-1.677.595-2.38a4.324 4.324 0 0 1 1.683-1.666c.714-.397 1.519-.595 2.414-.595.884 0 1.672.198 2.363.595a4.013 4.013 0 0 1 1.632 1.649c.397.703.595 1.519.595 2.448zm-4.59-2.992c-.68 0-1.258.204-1.734.612-.465.397-.748.93-.85 1.598h5.15c-.09-.657-.367-1.19-.832-1.598-.465-.408-1.043-.612-1.734-.612zM57.31 73.3V75h-7.837v-1.343l4.981-6.035h-4.879v-1.7h7.6v1.343L52.176 73.3h5.134zm5.427-7.48c1.337 0 2.357.323 3.06.969.714.635 1.071 1.598 1.071 2.89V75h-2.006v-1.105c-.26.397-.635.703-1.122.918-.476.204-1.054.306-1.734.306-.68 0-1.275-.113-1.785-.34-.51-.238-.907-.561-1.19-.969a2.537 2.537 0 0 1-.408-1.411c0-.816.3-1.468.901-1.955.612-.499 1.57-.748 2.873-.748h2.346v-.136c0-.635-.193-1.122-.578-1.462-.374-.34-.935-.51-1.683-.51-.51 0-1.014.08-1.513.238-.487.159-.901.38-1.241.663l-.833-1.547c.476-.363 1.048-.64 1.717-.833a7.638 7.638 0 0 1 2.125-.289zm-.289 7.752c.533 0 1.003-.119 1.411-.357.42-.25.714-.6.884-1.054v-1.054h-2.193c-1.224 0-1.836.402-1.836 1.207 0 .385.153.691.459.918.306.227.731.34 1.275.34zm20.38-3.06c0 .147-.012.357-.035.629h-7.123c.125.669.448 1.201.97 1.598.532.385 1.19.578 1.971.578.998 0 1.82-.329 2.465-.986l1.14 1.309a3.838 3.838 0 0 1-1.548 1.105c-.623.25-1.326.374-2.108.374-.997 0-1.875-.198-2.635-.595a4.36 4.36 0 0 1-1.768-1.649c-.408-.714-.612-1.519-.612-2.414 0-.884.199-1.677.595-2.38a4.324 4.324 0 0 1 1.683-1.666c.714-.397 1.52-.595 2.414-.595.884 0 1.672.198 2.363.595a4.013 4.013 0 0 1 1.632 1.649c.397.703.595 1.519.595 2.448zm-4.59-2.992c-.68 0-1.259.204-1.735.612-.464.397-.748.93-.85 1.598h5.151c-.09-.657-.368-1.19-.833-1.598-.464-.408-1.042-.612-1.734-.612zm11.782-1.7c1.144 0 2.062.334 2.754 1.003.69.669 1.037 1.66 1.037 2.975V75h-2.125v-4.93c0-.793-.187-1.388-.561-1.785-.374-.408-.907-.612-1.598-.612-.782 0-1.4.238-1.853.714-.454.465-.68 1.139-.68 2.023V75H84.87v-9.078h2.023v1.173c.35-.42.793-.737 1.326-.952.532-.215 1.133-.323 1.802-.323zm14.653 0c1.337 0 2.357.323 3.06.969.714.635 1.071 1.598 1.071 2.89V75h-2.006v-1.105c-.261.397-.635.703-1.122.918-.476.204-1.054.306-1.734.306-.68 0-1.275-.113-1.785-.34-.51-.238-.907-.561-1.19-.969a2.537 2.537 0 0 1-.408-1.411c0-.816.3-1.468.901-1.955.612-.499 1.569-.748 2.873-.748h2.346v-.136c0-.635-.193-1.122-.578-1.462-.374-.34-.935-.51-1.683-.51-.51 0-1.015.08-1.513.238-.488.159-.901.38-1.241.663l-.833-1.547c.476-.363 1.048-.64 1.717-.833a7.635 7.635 0 0 1 2.125-.289zm-.289 7.752c.532 0 1.003-.119 1.411-.357.419-.25.714-.6.884-1.054v-1.054h-2.193c-1.224 0-1.836.402-1.836 1.207 0 .385.153.691.459.918.306.227.731.34 1.275.34zm9.17-6.324c.612-.952 1.688-1.428 3.23-1.428v2.023a2.706 2.706 0 0 0-.493-.051c-.828 0-1.474.244-1.938.731-.465.476-.697 1.167-.697 2.074V75h-2.125v-9.078h2.023v1.326zm10.821 7.259a2.492 2.492 0 0 1-.918.459 4.003 4.003 0 0 1-1.122.153c-.997 0-1.768-.26-2.312-.782-.544-.521-.816-1.28-.816-2.278V67.69h-1.496v-1.7h1.496v-2.074h2.125v2.074h2.431v1.7h-2.431v4.318c0 .442.108.782.323 1.02.216.227.527.34.935.34.476 0 .873-.125 1.19-.374l.595 1.513zm9.984-3.995c0 .147-.012.357-.034.629h-7.123c.124.669.447 1.201.969 1.598.532.385 1.19.578 1.972.578.997 0 1.819-.329 2.465-.986l1.139 1.309a3.84 3.84 0 0 1-1.547 1.105c-.624.25-1.326.374-2.108.374-.998 0-1.876-.198-2.635-.595a4.354 4.354 0 0 1-1.768-1.649c-.408-.714-.612-1.519-.612-2.414 0-.884.198-1.677.595-2.38a4.324 4.324 0 0 1 1.683-1.666c.714-.397 1.518-.595 2.414-.595.884 0 1.671.198 2.363.595a4.022 4.022 0 0 1 1.632 1.649c.396.703.595 1.519.595 2.448zm-4.59-2.992c-.68 0-1.258.204-1.734.612-.465.397-.748.93-.85 1.598h5.151c-.091-.657-.369-1.19-.833-1.598-.465-.408-1.043-.612-1.734-.612z"/></g></svg>