<svg width="180" height="71" fill="none" xmlns="http://www.w3.org/2000/svg"><path d="M8.642 44.342c-.574 0-.998-.12-1.272-.36-.273-.239-.41-.621-.41-1.148V29.812c-.218.02-.492.061-.82.123-.321.055-.66.137-1.015.246-.356.11-.711.243-1.067.4-.355.15-.673.328-.953.533-.28.198-.51.424-.687.677a1.43 1.43 0 0 0-.267.84c0 .22.028.394.082.524.062.13.13.229.205.297.075.062.15.102.226.123.082.014.14.02.174.02a.94.94 0 0 0 .42-.081c.11-.062.21-.123.298-.185.089-.068.17-.13.246-.185a.45.45 0 0 1 .277-.092c.082 0 .167.02.256.062a.637.637 0 0 1 .257.174c.082.082.15.191.205.328.054.13.082.29.082.482 0 .273-.055.51-.164.708-.103.198-.24.365-.41.502-.165.13-.356.229-.575.297a2.271 2.271 0 0 1-.635.093 2.33 2.33 0 0 1-.893-.165 2.034 2.034 0 0 1-.666-.471 2.005 2.005 0 0 1-.42-.697 2.5 2.5 0 0 1-.144-.852c0-.8.219-1.49.656-2.07.445-.589 1.05-1.074 1.815-1.457.766-.39 1.658-.677 2.676-.861a18.353 18.353 0 0 1 3.271-.277c.554 0 1.094.007 1.62.02.527.007 1.005.021 1.436.042.438.02.814.044 1.128.071.315.028.543.058.687.093a.814.814 0 0 1 .328.153.61.61 0 0 1 .185.216c.04.082.068.17.082.266.013.09.02.181.02.277a1.388 1.388 0 0 1-.123.544.773.773 0 0 1-.154.225.307.307 0 0 1-.225.093.29.29 0 0 1-.175-.072 2.38 2.38 0 0 0-.235-.175 4.053 4.053 0 0 0-.42-.235c-.172-.09-.4-.171-.688-.247a9.452 9.452 0 0 0-1.046-.205c-.41-.061-.909-.102-1.497-.123v13.043c0 .527-.136.91-.41 1.149-.273.239-.694.359-1.261.359zm8.675-8.644c.26-.397.536-.756.83-1.077.123-.137.257-.27.4-.4.144-.13.29-.246.441-.349a2.47 2.47 0 0 1 .482-.246c.164-.061.328-.092.492-.092.349 0 .622.106.82.318.199.205.298.495.298.872 0 .232-.02.458-.062.676a4.594 4.594 0 0 1-.215.78h-.287a.923.923 0 0 0-.287-.523c-.15-.144-.37-.216-.656-.216-.212 0-.42.041-.626.123-.205.075-.407.171-.605.287a6.096 6.096 0 0 0-.554.38c-.17.136-.328.266-.471.39v6.654a1.5 1.5 0 0 1-.041.318.714.714 0 0 1-.205.349c-.103.11-.26.201-.472.277-.205.082-.489.123-.851.123s-.65-.045-.861-.134a1.302 1.302 0 0 1-.472-.297.774.774 0 0 1-.205-.359 1.438 1.438 0 0 1-.041-.297v-7.916a.903.903 0 0 0-.144-.513c-.089-.15-.242-.226-.461-.226a.658.658 0 0 0-.298.062c-.082.041-.17.1-.266.174l-.216-.256c.158-.13.332-.256.523-.38.199-.13.41-.242.636-.338.226-.096.468-.174.728-.236a3.55 3.55 0 0 1 .82-.092c.295 0 .544.041.75.123.211.075.382.178.512.308.137.123.242.263.318.42.075.157.13.318.164.482.04.157.065.311.072.462.006.143.01.266.01.369zm9.485 3.168c0-.17-.055-.3-.165-.39a.645.645 0 0 0-.42-.133c-.24 0-.468.055-.687.164-.212.11-.4.27-.564.482a2.436 2.436 0 0 0-.39.79 3.634 3.634 0 0 0-.143 1.076c0 .397.027.725.082.985.061.26.14.468.236.625.102.15.218.256.348.318.13.062.267.092.41.092.178 0 .346-.044.503-.133a1.58 1.58 0 0 0 .41-.359c.116-.143.209-.304.277-.482.068-.178.103-.355.103-.533v-2.502zm-1.63-4.491c-.233 0-.449.027-.647.082-.198.055-.369.123-.512.205a1.17 1.17 0 0 0-.339.277.434.434 0 0 0-.123.277c0 .102.051.177.154.225.11.041.229.092.359.154.13.055.246.137.348.246.11.103.165.263.165.482 0 .144-.031.277-.093.4a1.04 1.04 0 0 1-.236.318c-.095.089-.212.16-.348.215-.13.048-.267.072-.41.072-.383 0-.694-.13-.933-.39-.233-.26-.35-.605-.35-1.035 0-.417.11-.773.329-1.067.219-.3.502-.547.851-.738a4.289 4.289 0 0 1 1.2-.42 6.543 6.543 0 0 1 2.86.03c.486.117.913.301 1.282.554a2.8 2.8 0 0 1 .892.964c.226.39.339.861.339 1.415v5.793c0 .062.003.13.01.206a.648.648 0 0 0 .051.205.385.385 0 0 0 .123.153.388.388 0 0 0 .236.062.505.505 0 0 0 .339-.133c.109-.096.205-.192.287-.288l.256.216c-.102.143-.226.3-.37.472a2.974 2.974 0 0 1-1.24.86 2.644 2.644 0 0 1-.933.155c-.43 0-.813-.127-1.148-.38-.335-.26-.554-.656-.657-1.19-.218.295-.447.54-.687.74a3.57 3.57 0 0 1-.717.481 3.165 3.165 0 0 1-.749.267 3.439 3.439 0 0 1-.748.082c-.329 0-.647-.052-.954-.154a2.363 2.363 0 0 1-.83-.482 2.536 2.536 0 0 1-.585-.872c-.144-.355-.215-.79-.215-1.302 0-.622.123-1.131.369-1.528.246-.396.567-.728.964-.994a6.558 6.558 0 0 1 1.363-.698 80.427 80.427 0 0 0 1.57-.605c.396-.157.683-.39.86-.697.185-.314.277-.636.277-.964 0-.506-.15-.909-.45-1.21-.295-.307-.698-.461-1.21-.461zm13.504 4.696c0-.861-.041-1.548-.123-2.06-.076-.52-.178-.914-.308-1.18-.13-.274-.273-.451-.43-.533a.969.969 0 0 0-.483-.134.912.912 0 0 0-.533.164c-.15.103-.284.223-.4.36-.11.136-.205.273-.287.41a2.25 2.25 0 0 1-.195.307v6.85c0 .089-.013.198-.04.328a.775.775 0 0 1-.206.359c-.102.11-.26.201-.471.277-.206.082-.49.123-.852.123s-.649-.045-.86-.134a1.302 1.302 0 0 1-.473-.297.775.775 0 0 1-.205-.359 1.44 1.44 0 0 1-.04-.297v-7.916a.903.903 0 0 0-.144-.513c-.09-.15-.243-.226-.462-.226a.658.658 0 0 0-.297.062c-.082.041-.17.1-.267.174l-.215-.256c.157-.13.332-.256.523-.38.198-.13.41-.242.636-.338.225-.096.468-.174.728-.236a3.55 3.55 0 0 1 .82-.092c.444 0 .79.075 1.036.226.246.143.427.318.543.523.116.205.185.42.205.646.028.218.041.403.041.553a5.6 5.6 0 0 1 .862-.974c.13-.123.273-.242.43-.359.164-.116.335-.218.513-.307.185-.096.376-.171.574-.226.205-.055.414-.082.626-.082.465 0 .875.089 1.23.267.362.177.667.475.913.892.246.417.434.97.564 1.66.13.684.195 1.535.195 2.554 0 .991-.09 1.853-.267 2.584-.178.731-.41 1.354-.697 1.866-.287.513-.612.93-.974 1.251a4.94 4.94 0 0 1-1.098.77c-.369.184-.724.31-1.066.379a4.648 4.648 0 0 1-.872.123l-.112-.42c.205-.049.393-.124.564-.226.177-.103.338-.253.481-.451.144-.199.27-.448.38-.749.11-.308.202-.69.277-1.148.082-.458.14-.998.174-1.62.041-.63.062-1.36.062-2.195zm8.562-4.717c-.158 0-.308.02-.452.062a.984.984 0 0 0-.369.205.893.893 0 0 0-.256.349c-.062.136-.092.3-.092.492 0 .266.095.533.287.8.198.26.44.533.728.82.294.28.608.574.943.882.342.3.656.622.944.964.294.335.536.693.728 1.076.198.383.297.793.297 1.23 0 .493-.086.93-.256 1.313a2.605 2.605 0 0 1-.718.974 3.201 3.201 0 0 1-1.128.616 4.905 4.905 0 0 1-1.466.205c-.472 0-.9-.065-1.282-.195a5.096 5.096 0 0 1-1.026-.492 4.742 4.742 0 0 1-.758-.626 4.151 4.151 0 0 1-.493-.595l.36-.256c.088.103.201.215.338.338.136.117.287.226.45.329.172.102.353.188.544.256a1.9 1.9 0 0 0 .585.092c.492 0 .895-.116 1.21-.348.314-.24.471-.592.471-1.057 0-.26-.085-.526-.256-.8a6.137 6.137 0 0 0-.646-.86c-.26-.295-.54-.599-.84-.913-.302-.315-.582-.64-.842-.974a5.77 5.77 0 0 1-.646-1.036 2.526 2.526 0 0 1-.256-1.108c0-.43.086-.806.256-1.127a2.46 2.46 0 0 1 .698-.8c.294-.212.625-.37.994-.472.376-.11.763-.164 1.16-.164.457 0 .874.041 1.25.123.376.082.697.209.964.38a1.692 1.692 0 0 1 .851 1.507c0 .26-.085.485-.256.677-.171.191-.41.287-.718.287-.294 0-.52-.062-.677-.185a.656.656 0 0 1-.225-.523c0-.143.034-.256.102-.338a.936.936 0 0 1 .246-.195c.089-.055.168-.1.236-.133.075-.041.113-.093.113-.154 0-.192-.103-.342-.308-.451-.205-.117-.468-.175-.79-.175zm9.72-5.424c-.191 0-.372.041-.543.123-.171.082-.321.215-.451.4a2.209 2.209 0 0 0-.298.687c-.075.28-.112.619-.112 1.015v2.523h2.245v.738h-2.245v8.08c0 .93-.123 1.787-.37 2.574a5.495 5.495 0 0 1-1.097 2.03 5.036 5.036 0 0 1-1.846 1.343c-.738.322-1.6.482-2.584.482-.348 0-.683-.03-1.004-.092a3.928 3.928 0 0 1-.851-.236 1.79 1.79 0 0 1-.585-.37c-.15-.136-.225-.29-.225-.46 0-.124.017-.25.05-.38.035-.123.086-.236.155-.338a.916.916 0 0 1 .256-.257.612.612 0 0 1 .338-.092c.076 0 .144.038.205.113.055.075.113.167.175.277.061.11.133.229.215.359.075.136.174.26.297.369.123.11.277.201.462.277.178.075.396.112.656.112.349 0 .656-.071.923-.215.267-.137.495-.328.687-.574.191-.246.352-.537.482-.872.13-.335.232-.694.307-1.076a9.41 9.41 0 0 0 .154-1.2c.035-.417.052-.834.052-1.251v-8.603h-1.887v-.738h1.887v-1.2c0-.602.071-1.125.215-1.569.15-.451.345-.834.584-1.148.247-.315.523-.571.83-.77a4.556 4.556 0 0 1 1.866-.707c.302-.041.565-.061.79-.061.486 0 .917.037 1.293.112.376.069.69.164.943.287.253.117.444.253.574.41.13.158.195.318.195.483 0 .122-.02.249-.061.379-.035.123-.086.24-.154.349a.915.915 0 0 1-.257.256.594.594 0 0 1-.328.092c-.075 0-.143-.04-.205-.123a2.73 2.73 0 0 1-.195-.308 38.515 38.515 0 0 0-.225-.4 1.891 1.891 0 0 0-.308-.4 1.484 1.484 0 0 0-.42-.307 1.292 1.292 0 0 0-.585-.123zm.913 9.998c0-.896.13-1.679.39-2.349.26-.676.604-1.24 1.035-1.691.438-.452.944-.79 1.518-1.016a4.891 4.891 0 0 1 1.804-.338c.63 0 1.23.106 1.805.318a4.016 4.016 0 0 1 1.507.954c.438.43.787.977 1.046 1.64.26.656.39 1.436.39 2.338 0 .895-.13 1.688-.39 2.379-.26.69-.608 1.271-1.046 1.743-.43.472-.933.83-1.507 1.077a4.648 4.648 0 0 1-1.805.359c-.628 0-1.23-.113-1.804-.339a4.388 4.388 0 0 1-1.518-1.025c-.43-.451-.776-1.015-1.035-1.692-.26-.677-.39-1.463-.39-2.358zm6.306-.103c0-.547-.02-1.073-.062-1.58a6.865 6.865 0 0 0-.215-1.363c-.11-.396-.266-.71-.471-.943a1.015 1.015 0 0 0-.81-.36.992.992 0 0 0-.81.38c-.206.246-.363.574-.472.985a7.1 7.1 0 0 0-.216 1.384c-.034.52-.05 1.053-.05 1.6 0 .547.016 1.083.05 1.61.035.519.106.984.216 1.394.11.41.266.742.471.995.206.246.475.369.81.369.335 0 .605-.13.81-.39.206-.26.363-.602.472-1.025.11-.424.181-.903.215-1.436.042-.533.062-1.073.062-1.62zm8.388-3.127c.26-.397.536-.756.83-1.077.123-.137.257-.27.4-.4.144-.13.29-.246.441-.349.157-.102.318-.184.482-.246.164-.061.328-.092.492-.092.349 0 .622.106.82.318.199.205.298.495.298.872 0 .232-.02.458-.062.676a4.592 4.592 0 0 1-.215.78h-.287a.923.923 0 0 0-.287-.523c-.15-.144-.37-.216-.656-.216-.212 0-.42.041-.626.123-.205.075-.407.171-.605.287a6.11 6.11 0 0 0-.554.38c-.17.136-.328.266-.471.39v6.654c0 .09-.014.195-.041.318a.714.714 0 0 1-.205.349c-.103.11-.26.201-.472.277-.205.082-.489.123-.851.123s-.65-.045-.861-.134a1.302 1.302 0 0 1-.472-.297.775.775 0 0 1-.205-.359 1.445 1.445 0 0 1-.041-.297v-7.916a.903.903 0 0 0-.144-.513c-.089-.15-.242-.226-.461-.226a.658.658 0 0 0-.297.062c-.083.041-.171.1-.267.174l-.216-.256c.158-.13.332-.256.523-.38.199-.13.41-.242.636-.338.226-.096.468-.174.728-.236a3.55 3.55 0 0 1 .82-.092c.294 0 .544.041.75.123.211.075.382.178.512.308.136.123.242.263.318.42.075.157.13.318.164.482.04.157.065.311.072.462.006.143.01.266.01.369zm13.832 7.577a1.5 1.5 0 0 1-.04.318.715.715 0 0 1-.206.349c-.102.11-.26.201-.471.277-.212.082-.5.123-.862.123s-.65-.045-.861-.134a1.302 1.302 0 0 1-.472-.297.813.813 0 0 1-.195-.359 1.445 1.445 0 0 1-.04-.297v-7.25c0-.096-.014-.191-.042-.287a.923.923 0 0 0-.123-.277.62.62 0 0 0-.205-.195.505.505 0 0 0-.287-.082c-.184 0-.366.055-.543.164a3.204 3.204 0 0 0-.503.36 4.48 4.48 0 0 0-.4.41c-.11.136-.188.239-.236.307v6.87c0 .09-.013.195-.04.318a.714.714 0 0 1-.206.349c-.102.11-.26.201-.471.277-.205.082-.49.123-.851.123-.363 0-.65-.045-.862-.134a1.302 1.302 0 0 1-.471-.297.774.774 0 0 1-.206-.359 1.445 1.445 0 0 1-.04-.297v-7.916a.903.903 0 0 0-.144-.513c-.089-.15-.243-.226-.462-.226a.658.658 0 0 0-.297.062c-.082.041-.17.1-.267.174l-.215-.256a5.44 5.44 0 0 1 .523-.38c.198-.13.41-.242.636-.338a4.53 4.53 0 0 1 .728-.236 3.55 3.55 0 0 1 .82-.092c.445 0 .79.075 1.036.226.246.143.427.318.543.523.117.205.185.42.205.646.028.218.041.403.041.553a7.716 7.716 0 0 1 1.036-.974c.15-.123.314-.242.492-.359.185-.116.373-.218.564-.307.192-.096.39-.171.595-.226.205-.055.41-.082.615-.082.397 0 .735.072 1.015.215.28.144.506.318.677.523.171.199.294.41.37.636.081.219.122.41.122.574a8.637 8.637 0 0 1 1.036-.974c.15-.123.314-.242.492-.359.178-.116.362-.218.554-.307.198-.096.396-.171.594-.226.206-.055.41-.082.616-.082.396 0 .735.075 1.015.226.28.143.506.335.677.574.17.24.294.51.369.81.082.3.123.602.123.902v6.347c0 .062.003.13.01.206a.754.754 0 0 0 .051.205.384.384 0 0 0 .123.153c.062.041.14.062.236.062.13 0 .246-.044.349-.133.102-.096.198-.192.287-.288l.246.216a4.582 4.582 0 0 1-.38.482c-.157.17-.344.335-.563.492a2.866 2.866 0 0 1-.749.39c-.28.109-.598.164-.953.164-.301 0-.564-.041-.79-.123a1.787 1.787 0 0 1-.564-.308 1.337 1.337 0 0 1-.338-.472 1.534 1.534 0 0 1-.113-.584v-6.85c0-.096-.014-.191-.041-.287a.925.925 0 0 0-.123-.277.533.533 0 0 0-.195-.195.505.505 0 0 0-.287-.082c-.185 0-.37.055-.554.164a3.204 3.204 0 0 0-.502.36c-.15.136-.28.273-.39.41-.11.136-.188.239-.236.307v6.87zm21.318-3.425h-3.866a15.971 15.971 0 0 1-.933 2.349c-.328.663-.694 1.213-1.097 1.65a3.981 3.981 0 0 1-1.333.975 3.932 3.932 0 0 1-1.61.317 4.7 4.7 0 0 1-.943-.092 3.543 3.543 0 0 1-.81-.236 1.701 1.701 0 0 1-.554-.369c-.143-.137-.215-.287-.215-.451 0-.123.02-.246.061-.37.034-.129.086-.245.154-.348a.766.766 0 0 1 .257-.256.55.55 0 0 1 .328-.103c.109 0 .205.076.287.226.082.15.188.318.318.502.123.178.283.342.481.493.199.15.472.225.82.225.356 0 .695-.085 1.016-.256.321-.171.629-.438.923-.8.301-.37.588-.837.861-1.405.274-.567.54-1.25.8-2.05h-2.42v-.903h2.687c.225-.766.444-1.538.656-2.317.219-.78.424-1.528.615-2.246a94.92 94.92 0 0 0 .513-2.01c.15-.629.277-1.175.379-1.64-.137-.383-.325-.64-.564-.77-.232-.13-.547-.194-.943-.194-.369 0-.752.058-1.149.174-.389.11-.745.27-1.066.482a2.775 2.775 0 0 0-.8.77c-.205.3-.307.638-.307 1.014 0 .219.027.393.082.523.061.13.129.23.205.298.082.061.16.102.236.123.075.013.133.02.174.02a.911.911 0 0 0 .41-.082c.116-.061.215-.123.297-.185.089-.068.175-.13.257-.184a.449.449 0 0 1 .277-.092c.075 0 .157.02.246.061a.639.639 0 0 1 .256.175c.082.082.15.19.205.328.055.13.082.29.082.482 0 .273-.055.509-.164.707a1.548 1.548 0 0 1-.41.503c-.164.13-.356.229-.574.297a2.273 2.273 0 0 1-.636.092c-.328 0-.626-.058-.892-.174a2.087 2.087 0 0 1-.667-.492 2.095 2.095 0 0 1-.42-.718 2.588 2.588 0 0 1-.144-.861c0-.452.076-.865.226-1.241.15-.383.359-.728.625-1.036.267-.314.581-.588.944-.82.362-.24.752-.438 1.169-.595a7.143 7.143 0 0 1 1.322-.369c.459-.082.92-.123 1.385-.123.656 0 1.21.055 1.661.164.458.103.841.26 1.148.472.308.205.554.468.739.79.191.314.348.68.471 1.096l2.205 7.578h2.225v.902h-1.979l.8 2.687c.027.102.054.198.082.287.027.089.058.168.092.236a.615.615 0 0 0 .144.154.394.394 0 0 0 .225.061c.192 0 .369-.03.533-.092.165-.068.308-.137.431-.205l.174.38a5.222 5.222 0 0 1-1.917.882 4.152 4.152 0 0 1-.943.102c-.465 0-.841-.059-1.128-.175a1.933 1.933 0 0 1-.667-.43 1.746 1.746 0 0 1-.348-.544 7.952 7.952 0 0 1-.165-.502l-.82-2.84zm-1.989-6.931c-.28 1.141-.554 2.215-.82 3.22a77.42 77.42 0 0 1-.78 2.81h3.343l-1.743-6.03zm12.53 2.779c.26-.397.537-.756.831-1.077.123-.137.256-.27.4-.4.143-.13.29-.246.441-.349.157-.102.317-.184.481-.246.165-.061.329-.092.493-.092.348 0 .622.106.82.318.198.205.297.495.297.872 0 .232-.02.458-.061.676a4.53 4.53 0 0 1-.216.78h-.287a.919.919 0 0 0-.287-.523c-.15-.144-.369-.216-.656-.216-.212 0-.42.041-.625.123a3.7 3.7 0 0 0-.605.287 6.059 6.059 0 0 0-.554.38c-.171.136-.328.266-.472.39v6.654c0 .09-.014.195-.041.318a.714.714 0 0 1-.205.349c-.102.11-.26.201-.472.277-.205.082-.488.123-.851.123-.362 0-.649-.045-.861-.134a1.31 1.31 0 0 1-.472-.297.784.784 0 0 1-.205-.359 1.467 1.467 0 0 1-.041-.297v-7.916a.908.908 0 0 0-.143-.513c-.089-.15-.243-.226-.462-.226a.657.657 0 0 0-.297.062 1.61 1.61 0 0 0-.267.174l-.215-.256c.157-.13.331-.256.523-.38.198-.13.41-.242.636-.338.225-.096.468-.174.728-.236.259-.061.533-.092.82-.092.294 0 .543.041.749.123.211.075.382.178.512.308.137.123.243.263.318.42.075.157.13.318.164.482.041.157.065.311.072.462.007.143.01.266.01.369zm8.398-1.282v7.578c0 .362.068.615.205.758.137.137.325.205.564.205a.823.823 0 0 0 .492-.153c.144-.103.267-.22.369-.35.124-.143.229-.31.318-.502l.318.144a11.64 11.64 0 0 1-.369.718c-.137.26-.321.502-.554.728a2.942 2.942 0 0 1-.881.554c-.349.15-.79.225-1.323.225-.301 0-.592-.044-.872-.133a2.097 2.097 0 0 1-.738-.42 2.142 2.142 0 0 1-.513-.718c-.13-.287-.195-.633-.195-1.036v-7.598h-1.148v-.738c.191 0 .458-.048.8-.144.342-.102.69-.27 1.046-.502a4.149 4.149 0 0 0 1.005-.933c.307-.39.526-.872.656-1.446h.82v3.025h1.672c.546 0 .82-.093.82-.277 0-.069-.034-.113-.103-.134a17.429 17.429 0 0 0-.236-.092.858.858 0 0 1-.225-.164c-.069-.068-.103-.181-.103-.338 0-.192.058-.342.175-.452a.683.683 0 0 1 .471-.163c.123 0 .229.027.318.081a.621.621 0 0 1 .236.206.779.779 0 0 1 .133.287c.034.11.052.218.052.328 0 .444-.13.8-.39 1.066-.253.26-.663.39-1.231.39h-1.589z" fill="#fff" fill-opacity=".87"/><g opacity=".37" fill="#6FB5D2"><ellipse cx="144.091" cy="37.225" rx="8.883" ry="8.63"/><ellipse cx="160.818" cy="37.225" rx="8.883" ry="8.631"/><ellipse cx="146.052" cy="48.097" rx="6.345" ry="6.165"/><ellipse cx="158.28" cy="48.097" rx="6.345" ry="6.165"/><path d="M147.091 36.776h9.344V47.2h-9.344z"/></g><g opacity=".55" fill="#6FB5D2"><ellipse cx="145.643" cy="38.208" rx="7.4" ry="7.047"/><ellipse cx="159.578" cy="38.208" rx="7.4" ry="7.047"/><ellipse cx="147.277" cy="47.085" rx="5.286" ry="5.034"/><ellipse cx="157.464" cy="47.085" rx="5.286" ry="5.034"/><path d="M148.142 37.842h7.784v8.511h-7.784z"/></g><ellipse cx="147.195" cy="38.767" rx="5.917" ry="5.552" fill="#7FDEE4"/><ellipse cx="158.338" cy="38.767" rx="5.917" ry="5.552" fill="#7FDEE4"/><ellipse cx="148.501" cy="45.761" rx="4.227" ry="3.966" fill="#7FDEE4"/><ellipse cx="156.647" cy="45.761" rx="4.227" ry="3.966" fill="#7FDEE4"/><path fill="#7FDEE4" d="M149.193 38.478h6.225v6.706h-6.225zM155.076 28.102c.497-.44.838-.916 1.026-1.429.195-.512.293-.997.293-1.452 0-.513-.106-.956-.318-1.33a4.804 4.804 0 0 0-.683-.99.798.798 0 0 1-.171-.524c0-.22.061-.448.183-.684a2.73 2.73 0 0 1 .476-.672c.203-.203.435-.37.696-.5.26-.13.533-.195.818-.195.317 0 .581.105.793.317.212.203.382.456.513.757.13.301.223.623.28.964.057.334.086.631.086.891 0 .554-.098 1.083-.293 1.587-.195.513-.46.993-.794 1.44a7.11 7.11 0 0 1-1.147 1.234c-.439.382-.903.72-1.392 1.013l-.366-.427zM149.443 28.102c-.496-.44-.838-.916-1.025-1.429a4.072 4.072 0 0 1-.293-1.452c0-.513.105-.956.317-1.33.203-.383.431-.713.684-.99a.798.798 0 0 0 .171-.524c0-.22-.062-.448-.184-.684a2.705 2.705 0 0 0-.476-.672 2.652 2.652 0 0 0-.695-.5 1.81 1.81 0 0 0-.818-.195c-.318 0-.582.105-.794.317a2.305 2.305 0 0 0-.512.757 4.095 4.095 0 0 0-.281.964c-.057.334-.086.631-.086.891 0 .554.098 1.083.293 1.587.196.513.46.993.794 1.44a7.11 7.11 0 0 0 1.147 1.234c.44.382.904.72 1.392 1.013l.366-.427zM8.052 56.884c.464.152.832.408 1.104.768.272.352.408.792.408 1.32 0 .728-.28 1.292-.84 1.692-.56.392-1.376.588-2.448.588H2.1v-8.4h3.936c.992 0 1.756.196 2.292.588.536.384.804.916.804 1.596 0 .416-.096.784-.288 1.104-.192.32-.456.568-.792.744zM3.66 54.076v2.316h2.208c.544 0 .96-.096 1.248-.288.296-.2.444-.488.444-.864 0-.384-.148-.672-.444-.864-.288-.2-.704-.3-1.248-.3H3.66zm2.52 5.952c1.208 0 1.812-.404 1.812-1.212 0-.808-.604-1.212-1.812-1.212H3.66v2.424h2.52zm10.929-1.944c0 .104-.008.252-.024.444h-5.028c.088.472.316.848.684 1.128.376.272.84.408 1.392.408.704 0 1.284-.232 1.74-.696l.804.924a2.709 2.709 0 0 1-1.092.78c-.44.176-.936.264-1.488.264-.704 0-1.324-.14-1.86-.42a3.078 3.078 0 0 1-1.248-1.164 3.373 3.373 0 0 1-.432-1.704c0-.624.14-1.184.42-1.68a3.052 3.052 0 0 1 1.188-1.176 3.449 3.449 0 0 1 1.704-.42c.624 0 1.18.14 1.668.42.496.272.88.66 1.152 1.164.28.496.42 1.072.42 1.728zm-3.24-2.112c-.48 0-.888.144-1.224.432-.328.28-.528.656-.6 1.128h3.636a1.768 1.768 0 0 0-.588-1.128c-.328-.288-.736-.432-1.224-.432zm4.68-3.624h1.5v8.904h-1.5v-8.904zm3.47 0h1.5v8.904h-1.5v-8.904zm9.492 5.736c0 .104-.008.252-.024.444H26.46c.088.472.316.848.684 1.128.376.272.84.408 1.392.408.704 0 1.284-.232 1.74-.696l.804.924a2.709 2.709 0 0 1-1.092.78c-.44.176-.936.264-1.488.264-.704 0-1.324-.14-1.86-.42a3.078 3.078 0 0 1-1.248-1.164 3.373 3.373 0 0 1-.432-1.704c0-.624.14-1.184.42-1.68a3.052 3.052 0 0 1 1.188-1.176 3.449 3.449 0 0 1 1.704-.42c.624 0 1.18.14 1.668.42.496.272.88.66 1.152 1.164.28.496.42 1.072.42 1.728zm-3.24-2.112c-.48 0-.888.144-1.224.432-.328.28-.528.656-.6 1.128h3.636a1.768 1.768 0 0 0-.588-1.128c-.328-.288-.736-.432-1.224-.432zm9.627 4.08v1.2h-5.533v-.948l3.517-4.26h-3.444v-1.2H37.8v.948l-3.528 4.26h3.624zm3.83-5.28c.944 0 1.664.228 2.16.684.504.448.756 1.128.756 2.04v3.756h-1.416v-.78c-.184.28-.448.496-.792.648-.336.144-.744.216-1.224.216s-.9-.08-1.26-.24a2.05 2.05 0 0 1-.84-.684 1.79 1.79 0 0 1-.288-.996c0-.576.212-1.036.636-1.38.432-.352 1.108-.528 2.028-.528h1.656v-.096c0-.448-.136-.792-.408-1.032-.264-.24-.66-.36-1.188-.36-.36 0-.716.056-1.068.168a2.617 2.617 0 0 0-.876.468l-.588-1.092c.336-.256.74-.452 1.212-.588a5.393 5.393 0 0 1 1.5-.204zm-.204 5.472c.376 0 .708-.084.996-.252.296-.176.504-.424.624-.744v-.744h-1.548c-.864 0-1.296.284-1.296.852 0 .272.108.488.324.648.216.16.516.24.9.24zm14.386-2.16c0 .104-.008.252-.024.444h-5.028c.088.472.316.848.684 1.128.376.272.84.408 1.392.408.704 0 1.284-.232 1.74-.696l.804.924a2.709 2.709 0 0 1-1.092.78c-.44.176-.936.264-1.488.264-.704 0-1.324-.14-1.86-.42a3.078 3.078 0 0 1-1.248-1.164 3.373 3.373 0 0 1-.432-1.704c0-.624.14-1.184.42-1.68a3.052 3.052 0 0 1 1.188-1.176 3.449 3.449 0 0 1 1.704-.42c.624 0 1.18.14 1.668.42.496.272.88.66 1.152 1.164.28.496.42 1.072.42 1.728zm-3.24-2.112c-.48 0-.888.144-1.224.432-.328.28-.528.656-.6 1.128h3.636a1.768 1.768 0 0 0-.588-1.128c-.328-.288-.736-.432-1.224-.432zm8.316-1.2c.809 0 1.457.236 1.945.708s.732 1.172.732 2.1v3.672h-1.5v-3.48c0-.56-.132-.98-.396-1.26-.265-.288-.64-.432-1.129-.432-.551 0-.987.168-1.307.504-.32.328-.48.804-.48 1.428v3.24h-1.5v-6.408h1.428v.828c.247-.296.56-.52.935-.672.377-.152.8-.228 1.273-.228zm10.344 0c.944 0 1.664.228 2.16.684.504.448.756 1.128.756 2.04v3.756H72.83v-.78c-.184.28-.448.496-.792.648-.336.144-.744.216-1.224.216s-.9-.08-1.26-.24a2.05 2.05 0 0 1-.84-.684 1.79 1.79 0 0 1-.288-.996c0-.576.212-1.036.636-1.38.432-.352 1.108-.528 2.028-.528h1.656v-.096c0-.448-.136-.792-.408-1.032-.264-.24-.66-.36-1.188-.36-.36 0-.716.056-1.068.168a2.617 2.617 0 0 0-.876.468l-.588-1.092c.336-.256.74-.452 1.212-.588a5.393 5.393 0 0 1 1.5-.204zm-.204 5.472c.376 0 .708-.084.996-.252.296-.176.504-.424.624-.744v-.744h-1.548c-.864 0-1.296.284-1.296.852 0 .272.108.488.324.648.216.16.516.24.9.24zm6.473-4.464c.432-.672 1.192-1.008 2.28-1.008V56.2a1.904 1.904 0 0 0-.348-.036c-.584 0-1.04.172-1.368.516-.328.336-.492.824-.492 1.464v3.108h-1.5v-6.408h1.428v.936zm7.639 5.124a1.762 1.762 0 0 1-.648.324 2.828 2.828 0 0 1-.792.108c-.704 0-1.248-.184-1.632-.552-.384-.368-.576-.904-.576-1.608v-3.084h-1.056v-1.2h1.056v-1.464h1.5v1.464h1.716v1.2H83.09v3.048c0 .312.076.552.228.72.152.16.372.24.66.24.336 0 .616-.088.84-.264l.42 1.068zm7.047-2.82c0 .104-.008.252-.024.444h-5.028c.088.472.316.848.684 1.128.376.272.84.408 1.392.408.704 0 1.284-.232 1.74-.696l.804.924a2.709 2.709 0 0 1-1.092.78c-.44.176-.936.264-1.488.264-.704 0-1.324-.14-1.86-.42a3.078 3.078 0 0 1-1.248-1.164 3.373 3.373 0 0 1-.432-1.704c0-.624.14-1.184.42-1.68a3.052 3.052 0 0 1 1.188-1.176 3.449 3.449 0 0 1 1.704-.42c.624 0 1.18.14 1.668.42.496.272.88.66 1.152 1.164.28.496.42 1.072.42 1.728zm-3.24-2.112c-.48 0-.888.144-1.224.432-.328.28-.528.656-.6 1.128h3.636a1.768 1.768 0 0 0-.588-1.128c-.328-.288-.736-.432-1.224-.432z"/></svg>