<svg width="180" height="71" viewBox="0 0 180 71" fill="none" xmlns="http://www.w3.org/2000/svg">
<path d="M8.64191 44.3416C8.06769 44.3416 7.64386 44.222 7.37042 43.9828C7.09698 43.7435 6.96027 43.3607 6.96027 42.8343V29.8119C6.74152 29.8324 6.46808 29.8734 6.13995 29.9349C5.81866 29.9896 5.48029 30.0716 5.12482 30.181C4.76935 30.2904 4.41388 30.4237 4.05841 30.5809C3.70294 30.7313 3.38507 30.909 3.1048 31.1141C2.82452 31.3123 2.59552 31.5379 2.41779 31.7909C2.24005 32.0438 2.15118 32.3241 2.15118 32.6317C2.15118 32.8504 2.17853 33.0247 2.23322 33.1546C2.29474 33.2845 2.3631 33.3836 2.43829 33.452C2.51349 33.5135 2.58868 33.5545 2.66388 33.575C2.74591 33.5887 2.80402 33.5956 2.8382 33.5956C3.00909 33.5956 3.14923 33.5682 3.25861 33.5135C3.36798 33.452 3.4671 33.3905 3.55597 33.3289C3.64484 33.2606 3.72687 33.1991 3.80206 33.1444C3.88409 33.0829 3.97638 33.0521 4.07892 33.0521C4.16095 33.0521 4.2464 33.0726 4.33527 33.1136C4.43097 33.1478 4.51642 33.2059 4.59161 33.2879C4.67365 33.37 4.742 33.4793 4.79669 33.6161C4.85138 33.7459 4.87872 33.9066 4.87872 34.098C4.87872 34.3714 4.82404 34.6073 4.71466 34.8055C4.61212 35.0038 4.4754 35.1712 4.3045 35.308C4.14044 35.4378 3.94904 35.537 3.73029 35.6053C3.51837 35.6668 3.30646 35.6976 3.09454 35.6976C2.76642 35.6976 2.46906 35.6429 2.20245 35.5335C1.94269 35.4173 1.72052 35.2601 1.53595 35.0619C1.35138 34.8636 1.21124 34.6312 1.11554 34.3646C1.01984 34.098 0.971985 33.8143 0.971985 33.5135C0.971985 32.7137 1.19073 32.0233 1.62823 31.4422C2.07257 30.8543 2.67755 30.369 3.44318 29.9862C4.2088 29.5965 5.10089 29.3094 6.11945 29.1248C7.138 28.9403 8.22833 28.848 9.39044 28.848C9.94415 28.848 10.4842 28.8548 11.0106 28.8685C11.5369 28.8753 12.0154 28.889 12.4461 28.9095C12.8836 28.93 13.2596 28.9539 13.574 28.9813C13.8885 29.0086 14.1175 29.0394 14.261 29.0736C14.3978 29.1078 14.5071 29.159 14.5892 29.2274C14.6712 29.2889 14.7327 29.3607 14.7737 29.4427C14.8148 29.5247 14.8421 29.6136 14.8558 29.7093C14.8694 29.7982 14.8763 29.8905 14.8763 29.9862C14.8763 30.0614 14.866 30.1502 14.8455 30.2528C14.825 30.3485 14.7943 30.4408 14.7532 30.5296C14.7122 30.6185 14.6609 30.6937 14.5994 30.7552C14.5379 30.8167 14.4627 30.8475 14.3738 30.8475C14.3192 30.8475 14.261 30.8236 14.1995 30.7757C14.1448 30.7279 14.0662 30.6698 13.9637 30.6014C13.8611 30.5331 13.721 30.4544 13.5433 30.3656C13.3724 30.2767 13.1434 30.1947 12.8563 30.1195C12.576 30.0443 12.2274 29.9759 11.8104 29.9144C11.4002 29.8529 10.9012 29.8119 10.3133 29.7914V42.8343C10.3133 43.3607 10.1766 43.7435 9.90314 43.9828C9.6297 44.222 9.20929 44.3416 8.64191 44.3416ZM17.3167 35.6976C17.5765 35.3011 17.8533 34.9422 18.1473 34.6209C18.2703 34.4842 18.4036 34.3509 18.5472 34.221C18.6907 34.0912 18.8377 33.9749 18.9881 33.8724C19.1453 33.7699 19.306 33.6878 19.47 33.6263C19.6341 33.5648 19.7982 33.534 19.9622 33.534C20.3109 33.534 20.5843 33.64 20.7825 33.8519C20.9808 34.057 21.0799 34.3475 21.0799 34.7235C21.0799 34.9559 21.0594 35.1815 21.0184 35.4002C20.9842 35.6122 20.9124 35.8719 20.803 36.1795H20.5159C20.4749 35.9676 20.3792 35.7933 20.2288 35.6566C20.0784 35.513 19.8597 35.4413 19.5726 35.4413C19.3607 35.4413 19.1522 35.4823 18.9471 35.5643C18.742 35.6395 18.5403 35.7352 18.3421 35.8514C18.1507 35.9676 17.9661 36.0941 17.7884 36.2308C17.6175 36.3675 17.4603 36.4974 17.3167 36.6205V43.2752C17.3167 43.3641 17.303 43.4701 17.2757 43.5931C17.2484 43.7162 17.18 43.8324 17.0706 43.9417C16.9681 44.0511 16.8109 44.1434 16.5989 44.2186C16.3939 44.3006 16.1102 44.3416 15.7479 44.3416C15.3856 44.3416 15.0984 44.2972 14.8865 44.2083C14.6815 44.1263 14.5242 44.0272 14.4149 43.911C14.3055 43.7948 14.2371 43.6751 14.2098 43.5521C14.1824 43.429 14.1688 43.3299 14.1688 43.2547V35.3387C14.1688 35.1405 14.1209 34.9696 14.0252 34.826C13.9363 34.6756 13.7825 34.6004 13.5638 34.6004C13.4476 34.6004 13.3484 34.6209 13.2664 34.662C13.1844 34.703 13.0955 34.7611 12.9998 34.8363L12.7845 34.5799C12.9417 34.45 13.116 34.3236 13.3074 34.2005C13.5057 34.0706 13.7176 33.9579 13.9432 33.8622C14.1688 33.7664 14.4114 33.6878 14.6712 33.6263C14.931 33.5648 15.2044 33.534 15.4915 33.534C15.7855 33.534 16.035 33.575 16.2401 33.6571C16.452 33.7323 16.6229 33.8348 16.7527 33.9647C16.8895 34.0877 16.9954 34.2279 17.0706 34.3851C17.1458 34.5423 17.2005 34.703 17.2347 34.867C17.2757 35.0243 17.2996 35.1781 17.3065 35.3285C17.3133 35.472 17.3167 35.5951 17.3167 35.6976ZM26.8016 38.8661C26.8016 38.6952 26.7469 38.5653 26.6375 38.4764C26.5281 38.3875 26.388 38.3431 26.2171 38.3431C25.9778 38.3431 25.7488 38.3978 25.5301 38.5072C25.3182 38.6165 25.1302 38.7772 24.9661 38.9891C24.8021 39.201 24.6722 39.4642 24.5765 39.7787C24.4808 40.0863 24.4329 40.4452 24.4329 40.8553C24.4329 41.2518 24.4603 41.5799 24.515 41.8397C24.5765 42.0995 24.6551 42.308 24.7508 42.4652C24.8533 42.6156 24.9695 42.7215 25.0994 42.7831C25.2293 42.8446 25.366 42.8753 25.5096 42.8753C25.6873 42.8753 25.8548 42.8309 26.012 42.742C26.1693 42.6463 26.306 42.5267 26.4222 42.3831C26.5384 42.2396 26.6307 42.0789 26.699 41.9012C26.7674 41.7235 26.8016 41.5457 26.8016 41.368V38.8661ZM25.1712 34.3748C24.9388 34.3748 24.7234 34.4022 24.5252 34.4569C24.327 34.5116 24.1561 34.5799 24.0125 34.662C23.869 34.744 23.7562 34.8363 23.6741 34.9388C23.5921 35.0345 23.5511 35.1268 23.5511 35.2157C23.5511 35.3182 23.6024 35.3934 23.7049 35.4413C23.8143 35.4823 23.9339 35.5335 24.0638 35.5951C24.1937 35.6497 24.3099 35.7318 24.4124 35.8412C24.5218 35.9437 24.5765 36.1043 24.5765 36.3231C24.5765 36.4666 24.5457 36.5999 24.4842 36.723C24.4295 36.8392 24.3509 36.9452 24.2484 37.0409C24.1526 37.1297 24.0364 37.2015 23.8997 37.2562C23.7698 37.304 23.6331 37.328 23.4896 37.328C23.1068 37.328 22.7957 37.1981 22.5565 36.9383C22.324 36.6786 22.2078 36.3333 22.2078 35.9027C22.2078 35.4857 22.3172 35.1302 22.5359 34.8363C22.7547 34.5355 23.0384 34.2894 23.387 34.098C23.7425 33.9066 24.1424 33.7664 24.5867 33.6776C25.0311 33.5819 25.4754 33.534 25.9197 33.534C26.4529 33.534 26.9622 33.5921 27.4476 33.7083C27.9329 33.8246 28.3602 34.0091 28.7293 34.2621C29.1053 34.515 29.4026 34.8363 29.6214 35.2259C29.847 35.6156 29.9598 36.0872 29.9598 36.641V42.4344C29.9598 42.4959 29.9632 42.5643 29.97 42.6395C29.9769 42.7147 29.994 42.7831 30.0213 42.8446C30.0486 42.9061 30.0897 42.9574 30.1443 42.9984C30.199 43.0394 30.2776 43.0599 30.3802 43.0599C30.5032 43.0599 30.616 43.0155 30.7186 42.9266C30.8279 42.8309 30.9236 42.7352 31.0057 42.6395L31.262 42.8548C31.1595 42.9984 31.0364 43.1556 30.8929 43.3265C30.7493 43.4974 30.575 43.6581 30.3699 43.8084C30.1649 43.9588 29.9256 44.0853 29.6522 44.1878C29.3787 44.2904 29.0677 44.3416 28.7191 44.3416C28.2884 44.3416 27.9056 44.2152 27.5706 43.9622C27.2357 43.7025 27.0169 43.306 26.9144 42.7728C26.6956 43.0667 26.4666 43.3128 26.2274 43.5111C25.9949 43.7093 25.7557 43.87 25.5096 43.993C25.2635 44.1161 25.014 44.2049 24.761 44.2596C24.515 44.3143 24.2654 44.3416 24.0125 44.3416C23.6844 44.3416 23.3665 44.2904 23.0589 44.1878C22.7513 44.0853 22.4744 43.9247 22.2283 43.7059C21.9891 43.4803 21.7943 43.1898 21.6439 42.8343C21.5003 42.4789 21.4285 42.0448 21.4285 41.5321C21.4285 40.91 21.5516 40.4007 21.7977 40.0042C22.0438 39.6078 22.3651 39.2762 22.7615 39.0096C23.1649 38.7362 23.6194 38.5038 24.1253 38.3123C24.638 38.1209 25.1609 37.9193 25.6942 37.7074C26.0906 37.5501 26.3777 37.3177 26.5555 37.0101C26.7401 36.6956 26.8323 36.3744 26.8323 36.0462C26.8323 35.5404 26.6819 35.1371 26.3812 34.8363C26.0872 34.5287 25.6839 34.3748 25.1712 34.3748ZM38.6756 39.0711C38.6756 38.2098 38.6346 37.5228 38.5526 37.0101C38.4774 36.4906 38.3748 36.0975 38.2449 35.8309C38.1151 35.5575 37.9715 35.3797 37.8143 35.2977C37.657 35.2088 37.4964 35.1644 37.3323 35.1644C37.1341 35.1644 36.9564 35.2191 36.7991 35.3285C36.6487 35.431 36.5154 35.5506 36.3992 35.6873C36.2899 35.8241 36.1942 35.9608 36.1121 36.0975C36.0369 36.2342 35.972 36.3368 35.9173 36.4051V43.2547C35.9173 43.3436 35.9036 43.453 35.8763 43.5829C35.8489 43.7059 35.7806 43.8255 35.6712 43.9417C35.5687 44.0511 35.4114 44.1434 35.1995 44.2186C34.9944 44.3006 34.7108 44.3416 34.3484 44.3416C33.9861 44.3416 33.699 44.2972 33.4871 44.2083C33.282 44.1263 33.1248 44.0272 33.0154 43.911C32.9061 43.7948 32.8377 43.6751 32.8104 43.5521C32.783 43.429 32.7693 43.3299 32.7693 43.2547V35.3387C32.7693 35.1405 32.7215 34.9696 32.6258 34.826C32.5369 34.6756 32.3831 34.6004 32.1644 34.6004C32.0482 34.6004 31.949 34.6209 31.867 34.662C31.785 34.703 31.6961 34.7611 31.6004 34.8363L31.3851 34.5799C31.5423 34.45 31.7166 34.3236 31.908 34.2005C32.1063 34.0706 32.3182 33.9579 32.5438 33.8622C32.7693 33.7664 33.012 33.6878 33.2718 33.6263C33.5316 33.5648 33.805 33.534 34.0921 33.534C34.5364 33.534 34.8817 33.6092 35.1277 33.7596C35.3738 33.9032 35.555 34.0775 35.6712 34.2826C35.7874 34.4876 35.8558 34.703 35.8763 34.9286C35.9036 35.1473 35.9173 35.3319 35.9173 35.4823C36.1702 35.12 36.4573 34.7953 36.7786 34.5081C36.9085 34.3851 37.0521 34.2655 37.2093 34.1493C37.3734 34.0331 37.5443 33.9305 37.722 33.8416C37.9066 33.7459 38.098 33.6707 38.2962 33.6161C38.5013 33.5614 38.7098 33.534 38.9217 33.534C39.3865 33.534 39.7967 33.6229 40.1522 33.8006C40.5145 33.9784 40.8187 34.2757 41.0648 34.6927C41.3109 35.1097 41.4988 35.6634 41.6287 36.3539C41.7586 37.0374 41.8235 37.8885 41.8235 38.9071C41.8235 39.8983 41.7347 40.7596 41.5569 41.4911C41.3792 42.2225 41.1468 42.8446 40.8597 43.3573C40.5726 43.87 40.2479 44.287 39.8856 44.6082C39.5233 44.9364 39.1575 45.1927 38.7884 45.3773C38.4193 45.5619 38.0638 45.6883 37.722 45.7567C37.387 45.8319 37.0965 45.8729 36.8504 45.8797L36.7376 45.4593C36.9427 45.4115 37.1307 45.3363 37.3016 45.2337C37.4793 45.1312 37.64 44.9808 37.7835 44.7826C37.9271 44.5843 38.0535 44.3348 38.1629 44.034C38.2723 43.7264 38.3646 43.3436 38.4398 42.8856C38.5218 42.4276 38.5799 41.8875 38.6141 41.2655C38.6551 40.6366 38.6756 39.9051 38.6756 39.0711ZM47.2376 34.3543C47.0804 34.3543 46.93 34.3748 46.7864 34.4159C46.6497 34.4569 46.5267 34.5252 46.4173 34.6209C46.3079 34.7098 46.2225 34.826 46.1609 34.9696C46.0994 35.1063 46.0687 35.2704 46.0687 35.4618C46.0687 35.7284 46.1644 35.995 46.3558 36.2616C46.554 36.5213 46.7967 36.7948 47.0838 37.0819C47.3777 37.3622 47.6922 37.6561 48.0272 37.9637C48.369 38.2645 48.6834 38.5858 48.9705 38.9276C49.2645 39.2625 49.5071 39.6214 49.6985 40.0042C49.8968 40.3871 49.9959 40.7972 49.9959 41.2347C49.9959 41.7269 49.9105 42.1644 49.7396 42.5472C49.5755 42.93 49.3362 43.2547 49.0218 43.5213C48.7142 43.7879 48.3382 43.993 47.8939 44.1366C47.4564 44.2733 46.9676 44.3416 46.4276 44.3416C45.9559 44.3416 45.5286 44.2767 45.1458 44.1468C44.763 44.0101 44.4212 43.846 44.1204 43.6546C43.8265 43.4564 43.5735 43.2479 43.3616 43.0291C43.1497 42.8104 42.9857 42.6122 42.8694 42.4344L43.2283 42.1781C43.3172 42.2806 43.43 42.3934 43.5667 42.5164C43.7034 42.6327 43.8538 42.742 44.0179 42.8446C44.1888 42.9471 44.3699 43.0326 44.5613 43.1009C44.7527 43.1624 44.9476 43.1932 45.1458 43.1932C45.638 43.1932 46.0413 43.077 46.3558 42.8446C46.6702 42.6053 46.8275 42.2533 46.8275 41.7884C46.8275 41.5287 46.742 41.2621 46.5711 40.9886C46.4002 40.7083 46.1849 40.4212 45.9251 40.1273C45.6653 39.8333 45.3851 39.5291 45.0843 39.2147C44.7835 38.9002 44.5032 38.5755 44.2435 38.2406C43.9837 37.9056 43.7684 37.5604 43.5975 37.2049C43.4266 36.8495 43.3411 36.4803 43.3411 36.0975C43.3411 35.6668 43.4266 35.2909 43.5975 34.9696C43.7752 34.6483 44.0076 34.3817 44.2947 34.1698C44.5887 33.9579 44.9202 33.8006 45.2894 33.6981C45.6653 33.5887 46.0516 33.534 46.4481 33.534C46.9061 33.534 47.3231 33.575 47.699 33.6571C48.075 33.7391 48.3963 33.8656 48.6629 34.0365C48.9363 34.2005 49.1448 34.409 49.2884 34.662C49.4388 34.9149 49.514 35.2088 49.514 35.5438C49.514 35.8036 49.4285 36.0291 49.2576 36.2206C49.0867 36.412 48.8475 36.5077 48.5399 36.5077C48.2459 36.5077 48.0203 36.4461 47.8631 36.3231C47.7127 36.1932 47.6375 36.0189 47.6375 35.8001C47.6375 35.6566 47.6717 35.5438 47.7401 35.4618C47.8152 35.3797 47.8973 35.3148 47.9861 35.2669C48.075 35.2122 48.1536 35.1678 48.222 35.1336C48.2972 35.0926 48.3348 35.0414 48.3348 34.9798C48.3348 34.7884 48.2322 34.638 48.0272 34.5287C47.8221 34.4124 47.5589 34.3543 47.2376 34.3543ZM56.9583 28.93C56.7669 28.93 56.5858 28.971 56.4149 29.0531C56.244 29.1351 56.0936 29.2684 55.9637 29.453C55.8406 29.6307 55.7415 29.8597 55.6663 30.14C55.5911 30.4203 55.5535 30.7586 55.5535 31.1551V33.6776H57.7991V34.4159H55.5535V42.4959C55.5535 43.4256 55.4305 44.2835 55.1844 45.0697C54.9451 45.8558 54.5794 46.5326 54.0872 47.0999C53.595 47.6742 52.9798 48.1219 52.2415 48.4432C51.5032 48.7645 50.6419 48.9251 49.6575 48.9251C49.3089 48.9251 48.9739 48.8944 48.6526 48.8329C48.3314 48.7782 48.0477 48.6996 47.8016 48.597C47.5555 48.4945 47.3607 48.3714 47.2171 48.2279C47.0667 48.0912 46.9915 47.9373 46.9915 47.7664C46.9915 47.6434 47.0086 47.5169 47.0428 47.3871C47.077 47.264 47.1282 47.1512 47.1966 47.0487C47.265 46.9461 47.3504 46.8607 47.4529 46.7923C47.5486 46.7308 47.6614 46.7 47.7913 46.7C47.8665 46.7 47.9349 46.7376 47.9964 46.8128C48.0511 46.888 48.1092 46.9803 48.1707 47.0897C48.2322 47.1991 48.304 47.3187 48.386 47.4486C48.4612 47.5853 48.5604 47.7083 48.6834 47.8177C48.8065 47.9271 48.9603 48.0194 49.1448 48.0946C49.3226 48.1698 49.5413 48.2074 49.8011 48.2074C50.1497 48.2074 50.4573 48.1356 50.7239 47.992C50.9905 47.8553 51.2195 47.6639 51.4109 47.4178C51.6024 47.1717 51.763 46.8812 51.8929 46.5462C52.0228 46.2113 52.1253 45.8524 52.2005 45.4696C52.2757 45.0868 52.327 44.6869 52.3543 44.2699C52.3885 43.8529 52.4056 43.4359 52.4056 43.0189V34.4159H50.5189V33.6776H52.4056V32.4779C52.4056 31.8763 52.4774 31.3534 52.6209 30.909C52.7713 30.4579 52.9661 30.075 53.2054 29.7606C53.4515 29.4461 53.7283 29.1898 54.0359 28.9915C54.3436 28.7933 54.6546 28.6361 54.9691 28.5199C55.2903 28.4037 55.6014 28.325 55.9022 28.284C56.2029 28.243 56.4661 28.2225 56.6917 28.2225C57.1771 28.2225 57.6077 28.2601 57.9837 28.3353C58.3597 28.4037 58.6741 28.4994 58.9271 28.6224C59.18 28.7386 59.3714 28.8753 59.5013 29.0326C59.6312 29.1898 59.6961 29.3504 59.6961 29.5145C59.6961 29.6375 59.6756 29.764 59.6346 29.8939C59.6004 30.0169 59.5491 30.1331 59.4808 30.2425C59.4124 30.3451 59.327 30.4305 59.2244 30.4989C59.1287 30.5604 59.0193 30.5912 58.8963 30.5912C58.8211 30.5912 58.7527 30.5501 58.6912 30.4681C58.6297 30.3861 58.5648 30.2835 58.4964 30.1605C58.428 30.0374 58.3528 29.9041 58.2708 29.7606C58.1888 29.617 58.0862 29.4837 57.9632 29.3607C57.847 29.2376 57.7068 29.1351 57.5428 29.0531C57.3787 28.971 57.1839 28.93 56.9583 28.93ZM57.8709 38.9276C57.8709 38.0321 58.0008 37.2494 58.2606 36.5794C58.5203 35.9027 58.8655 35.3387 59.2962 34.8875C59.7337 34.4364 60.2396 34.098 60.8138 33.8724C61.388 33.6468 61.9896 33.534 62.6185 33.534C63.2474 33.534 63.8489 33.64 64.4232 33.8519C64.9974 34.057 65.4998 34.3748 65.9305 34.8055C66.368 35.2362 66.7166 35.7831 66.9764 36.4461C67.2361 37.1024 67.366 37.8817 67.366 38.784C67.366 39.6795 67.2361 40.4725 66.9764 41.1629C66.7166 41.8534 66.368 42.4344 65.9305 42.9061C65.4998 43.3778 64.9974 43.7367 64.4232 43.9828C63.8489 44.222 63.2474 44.3416 62.6185 44.3416C61.9896 44.3416 61.388 44.2289 60.8138 44.0033C60.2396 43.7708 59.7337 43.429 59.2962 42.9779C58.8655 42.5267 58.5203 41.9627 58.2606 41.286C58.0008 40.6092 57.8709 39.8231 57.8709 38.9276ZM64.1771 38.825C64.1771 38.2782 64.1566 37.7518 64.1155 37.2459C64.0814 36.7332 64.0096 36.2787 63.9002 35.8822C63.7908 35.4857 63.6336 35.1712 63.4285 34.9388C63.2234 34.6996 62.9534 34.5799 62.6185 34.5799C62.2835 34.5799 62.0135 34.7064 61.8084 34.9593C61.6033 35.2054 61.4461 35.5335 61.3367 35.9437C61.2274 36.347 61.1556 36.8084 61.1214 37.328C61.0872 37.8475 61.0701 38.3807 61.0701 38.9276C61.0701 39.4745 61.0872 40.0111 61.1214 40.5374C61.1556 41.057 61.2274 41.5218 61.3367 41.932C61.4461 42.3421 61.6033 42.6737 61.8084 42.9266C62.0135 43.1727 62.2835 43.2957 62.6185 43.2957C62.9534 43.2957 63.2234 43.1659 63.4285 42.9061C63.6336 42.6463 63.7908 42.3045 63.9002 41.8807C64.0096 41.4569 64.0814 40.9784 64.1155 40.4452C64.1566 39.912 64.1771 39.3719 64.1771 38.825ZM72.5648 35.6976C72.8245 35.3011 73.1014 34.9422 73.3953 34.6209C73.5184 34.4842 73.6517 34.3509 73.7952 34.221C73.9388 34.0912 74.0858 33.9749 74.2361 33.8724C74.3934 33.7699 74.554 33.6878 74.7181 33.6263C74.8821 33.5648 75.0462 33.534 75.2103 33.534C75.5589 33.534 75.8323 33.64 76.0306 33.8519C76.2288 34.057 76.3279 34.3475 76.3279 34.7235C76.3279 34.9559 76.3074 35.1815 76.2664 35.4002C76.2322 35.6122 76.1605 35.8719 76.0511 36.1795H75.764C75.723 35.9676 75.6273 35.7933 75.4769 35.6566C75.3265 35.513 75.1077 35.4413 74.8206 35.4413C74.6087 35.4413 74.4002 35.4823 74.1951 35.5643C73.9901 35.6395 73.7884 35.7352 73.5901 35.8514C73.3987 35.9676 73.2142 36.0941 73.0364 36.2308C72.8655 36.3675 72.7083 36.4974 72.5648 36.6205V43.2752C72.5648 43.3641 72.5511 43.4701 72.5237 43.5931C72.4964 43.7162 72.428 43.8324 72.3187 43.9417C72.2161 44.0511 72.0589 44.1434 71.847 44.2186C71.6419 44.3006 71.3582 44.3416 70.9959 44.3416C70.6336 44.3416 70.3465 44.2972 70.1346 44.2083C69.9295 44.1263 69.7723 44.0272 69.6629 43.911C69.5535 43.7948 69.4852 43.6751 69.4578 43.5521C69.4305 43.429 69.4168 43.3299 69.4168 43.2547V35.3387C69.4168 35.1405 69.369 34.9696 69.2733 34.826C69.1844 34.6756 69.0306 34.6004 68.8118 34.6004C68.6956 34.6004 68.5965 34.6209 68.5145 34.662C68.4324 34.703 68.3436 34.7611 68.2479 34.8363L68.0325 34.5799C68.1898 34.45 68.3641 34.3236 68.5555 34.2005C68.7537 34.0706 68.9656 33.9579 69.1912 33.8622C69.4168 33.7664 69.6595 33.6878 69.9193 33.6263C70.179 33.5648 70.4525 33.534 70.7396 33.534C71.0335 33.534 71.283 33.575 71.4881 33.6571C71.7 33.7323 71.8709 33.8348 72.0008 33.9647C72.1375 34.0877 72.2435 34.2279 72.3187 34.3851C72.3939 34.5423 72.4485 34.703 72.4827 34.867C72.5237 35.0243 72.5477 35.1781 72.5545 35.3285C72.5613 35.472 72.5648 35.5951 72.5648 35.6976ZM86.3973 43.2752C86.3973 43.3641 86.3836 43.4701 86.3563 43.5931C86.3289 43.7162 86.2606 43.8324 86.1512 43.9417C86.0486 44.0511 85.8914 44.1434 85.6795 44.2186C85.4676 44.3006 85.1805 44.3416 84.8182 44.3416C84.4559 44.3416 84.1688 44.2972 83.9568 44.2083C83.7518 44.1263 83.5945 44.0272 83.4852 43.911C83.3826 43.7948 83.3177 43.6751 83.2903 43.5521C83.263 43.429 83.2493 43.3299 83.2493 43.2547V36.0052C83.2493 35.9095 83.2357 35.8138 83.2083 35.7181C83.181 35.6156 83.14 35.5233 83.0853 35.4413C83.0306 35.3592 82.9622 35.2943 82.8802 35.2464C82.7982 35.1917 82.7025 35.1644 82.5931 35.1644C82.4085 35.1644 82.2274 35.2191 82.0496 35.3285C81.8719 35.431 81.7044 35.5506 81.5472 35.6873C81.3968 35.8241 81.2635 35.9608 81.1473 36.0975C81.0379 36.2342 80.9593 36.3368 80.9114 36.4051V43.2752C80.9114 43.3641 80.8978 43.4701 80.8704 43.5931C80.8431 43.7162 80.7747 43.8324 80.6653 43.9417C80.5628 44.0511 80.4056 44.1434 80.1937 44.2186C79.9886 44.3006 79.7049 44.3416 79.3426 44.3416C78.9803 44.3416 78.6932 44.2972 78.4813 44.2083C78.2762 44.1263 78.119 44.0272 78.0096 43.911C77.9002 43.7948 77.8318 43.6751 77.8045 43.5521C77.7772 43.429 77.7635 43.3299 77.7635 43.2547V35.3387C77.7635 35.1405 77.7156 34.9696 77.6199 34.826C77.5311 34.6756 77.3773 34.6004 77.1585 34.6004C77.0423 34.6004 76.9432 34.6209 76.8611 34.662C76.7791 34.703 76.6902 34.7611 76.5945 34.8363L76.3792 34.5799C76.5364 34.45 76.7108 34.3236 76.9022 34.2005C77.1004 34.0706 77.3123 33.9579 77.5379 33.8622C77.7635 33.7664 78.0062 33.6878 78.2659 33.6263C78.5257 33.5648 78.7991 33.534 79.0862 33.534C79.5306 33.534 79.8758 33.6092 80.1219 33.7596C80.368 33.9032 80.5491 34.0775 80.6653 34.2826C80.7816 34.4876 80.8499 34.703 80.8704 34.9286C80.8978 35.1473 80.9114 35.3319 80.9114 35.4823C81.2327 35.12 81.5779 34.7953 81.9471 34.5081C82.0975 34.3851 82.2615 34.2655 82.4393 34.1493C82.6238 34.0331 82.8118 33.9305 83.0032 33.8416C83.1946 33.7459 83.3929 33.6707 83.598 33.6161C83.803 33.5614 84.0081 33.534 84.2132 33.534C84.6097 33.534 84.9481 33.6058 85.2283 33.7494C85.5086 33.8929 85.7342 34.0672 85.9051 34.2723C86.076 34.4706 86.199 34.6825 86.2742 34.9081C86.3563 35.1268 86.3973 35.3182 86.3973 35.4823C86.7254 35.12 87.0706 34.7953 87.4329 34.5081C87.5833 34.3851 87.7474 34.2655 87.9251 34.1493C88.1028 34.0331 88.2874 33.9305 88.4788 33.8416C88.6771 33.7459 88.8753 33.6707 89.0735 33.6161C89.2786 33.5614 89.4837 33.534 89.6888 33.534C90.0853 33.534 90.4236 33.6092 90.7039 33.7596C90.9842 33.9032 91.2098 34.0946 91.3807 34.3338C91.5516 34.5731 91.6746 34.8431 91.7498 35.1439C91.8318 35.4447 91.8729 35.7455 91.8729 36.0462V42.3934C91.8729 42.4549 91.8763 42.5233 91.8831 42.5985C91.89 42.6668 91.907 42.7352 91.9344 42.8036C91.9617 42.8651 92.0027 42.9164 92.0574 42.9574C92.119 42.9984 92.1976 43.0189 92.2933 43.0189C92.4232 43.0189 92.5394 42.9745 92.6419 42.8856C92.7444 42.7899 92.8401 42.6942 92.929 42.5985L93.1751 42.8138C93.0794 42.9574 92.9529 43.118 92.7957 43.2957C92.6385 43.4666 92.4505 43.6307 92.2318 43.7879C92.0198 43.9452 91.7703 44.075 91.4832 44.1776C91.2029 44.287 90.8851 44.3416 90.5296 44.3416C90.2288 44.3416 89.9656 44.3006 89.7401 44.2186C89.5213 44.1434 89.3333 44.0409 89.1761 43.911C89.0257 43.7743 88.9129 43.617 88.8377 43.4393C88.7625 43.2547 88.7249 43.0599 88.7249 42.8548V36.0052C88.7249 35.9095 88.7112 35.8138 88.6839 35.7181C88.6566 35.6156 88.6155 35.5233 88.5609 35.4413C88.513 35.3592 88.4481 35.2943 88.366 35.2464C88.284 35.1917 88.1883 35.1644 88.0789 35.1644C87.8943 35.1644 87.7098 35.2191 87.5252 35.3285C87.3475 35.431 87.18 35.5506 87.0228 35.6873C86.8724 35.8241 86.7425 35.9608 86.6331 36.0975C86.5237 36.2342 86.4451 36.3368 86.3973 36.4051V43.2752ZM107.715 39.8504H103.849C103.562 40.7528 103.251 41.5355 102.916 42.1986C102.588 42.8617 102.222 43.412 101.819 43.8495C101.416 44.287 100.971 44.6117 100.486 44.8236C100.008 45.0355 99.471 45.1414 98.8763 45.1414C98.5482 45.1414 98.2337 45.1107 97.9329 45.0492C97.6253 44.9945 97.3553 44.9159 97.1229 44.8133C96.8904 44.7108 96.7059 44.5877 96.5692 44.4442C96.4256 44.3075 96.3538 44.1571 96.3538 43.993C96.3538 43.87 96.3743 43.7469 96.4153 43.6239C96.4495 43.494 96.5008 43.3778 96.5692 43.2752C96.6375 43.1659 96.723 43.0804 96.8255 43.0189C96.9212 42.9505 97.0306 42.9164 97.1536 42.9164C97.263 42.9164 97.3587 42.9915 97.4407 43.1419C97.5228 43.2923 97.6287 43.4598 97.7586 43.6444C97.8817 43.8221 98.0423 43.9862 98.2405 44.1366C98.4388 44.287 98.7122 44.3622 99.0609 44.3622C99.4163 44.3622 99.7547 44.2767 100.076 44.1058C100.397 43.9349 100.705 43.6683 100.999 43.306C101.3 42.9369 101.587 42.4686 101.86 41.9012C102.134 41.3338 102.4 40.6502 102.66 39.8504H100.24V38.9481H102.927C103.152 38.1825 103.371 37.41 103.583 36.6307C103.802 35.8514 104.007 35.1029 104.198 34.3851C104.389 33.6673 104.56 32.9974 104.711 32.3753C104.861 31.7464 104.988 31.1996 105.09 30.7347C104.953 30.3519 104.765 30.0956 104.526 29.9657C104.294 29.8358 103.979 29.7708 103.583 29.7708C103.214 29.7708 102.831 29.8289 102.434 29.9452C102.045 30.0545 101.689 30.2152 101.368 30.4271C101.047 30.6322 100.78 30.8885 100.568 31.1961C100.363 31.4969 100.261 31.8353 100.261 32.2113C100.261 32.43 100.288 32.6043 100.343 32.7342C100.404 32.8641 100.472 32.9632 100.548 33.0316C100.63 33.0931 100.708 33.1341 100.784 33.1546C100.859 33.1683 100.917 33.1751 100.958 33.1751C101.122 33.1751 101.259 33.1478 101.368 33.0931C101.484 33.0316 101.583 32.9701 101.665 32.9085C101.754 32.8402 101.84 32.7787 101.922 32.724C102.004 32.6624 102.096 32.6317 102.199 32.6317C102.274 32.6317 102.356 32.6522 102.445 32.6932C102.54 32.7274 102.626 32.7855 102.701 32.8675C102.783 32.9496 102.851 33.0589 102.906 33.1956C102.961 33.3255 102.988 33.4862 102.988 33.6776C102.988 33.951 102.933 34.1869 102.824 34.3851C102.721 34.5833 102.585 34.7508 102.414 34.8875C102.25 35.0174 102.058 35.1165 101.84 35.1849C101.628 35.2464 101.416 35.2772 101.204 35.2772C100.876 35.2772 100.578 35.2191 100.312 35.1029C100.052 34.9798 99.8299 34.8158 99.6453 34.6107C99.4608 34.4056 99.3206 34.1664 99.2249 33.8929C99.1292 33.6195 99.0814 33.3324 99.0814 33.0316C99.0814 32.5804 99.1566 32.1668 99.3069 31.7909C99.4573 31.4081 99.6658 31.0628 99.9324 30.7552C100.199 30.4408 100.513 30.1673 100.876 29.9349C101.238 29.6956 101.628 29.4974 102.045 29.3402C102.469 29.1761 102.909 29.0531 103.367 28.971C103.826 28.889 104.287 28.848 104.752 28.848C105.408 28.848 105.962 28.9027 106.413 29.0121C106.871 29.1146 107.254 29.2718 107.561 29.4837C107.869 29.6888 108.115 29.952 108.3 30.2733C108.491 30.5877 108.648 30.9535 108.771 31.3705L110.976 38.9481H113.201V39.8504H111.222L112.022 42.537C112.049 42.6395 112.076 42.7352 112.104 42.8241C112.131 42.9129 112.162 42.9915 112.196 43.0599C112.237 43.1214 112.285 43.1727 112.34 43.2137C112.401 43.2547 112.476 43.2752 112.565 43.2752C112.757 43.2752 112.934 43.2445 113.098 43.183C113.263 43.1146 113.406 43.0462 113.529 42.9779L113.703 43.3573C113.58 43.4461 113.423 43.5487 113.232 43.6649C113.047 43.7743 112.832 43.8802 112.586 43.9828C112.346 44.0853 112.08 44.1707 111.786 44.2391C111.492 44.3075 111.178 44.3416 110.843 44.3416C110.378 44.3416 110.002 44.2835 109.715 44.1673C109.434 44.0511 109.212 43.9076 109.048 43.7367C108.891 43.5658 108.775 43.3846 108.7 43.1932C108.631 43.0018 108.576 42.8343 108.535 42.6908L107.715 39.8504ZM105.726 32.9188C105.446 34.0604 105.172 35.1336 104.906 36.1385C104.646 37.1434 104.386 38.0799 104.126 38.9481H107.469L105.726 32.9188ZM118.256 35.6976C118.516 35.3011 118.793 34.9422 119.087 34.6209C119.21 34.4842 119.343 34.3509 119.487 34.221C119.63 34.0912 119.777 33.9749 119.928 33.8724C120.085 33.7699 120.245 33.6878 120.409 33.6263C120.574 33.5648 120.738 33.534 120.902 33.534C121.25 33.534 121.524 33.64 121.722 33.8519C121.92 34.057 122.019 34.3475 122.019 34.7235C122.019 34.9559 121.999 35.1815 121.958 35.4002C121.924 35.6122 121.852 35.8719 121.742 36.1795H121.455C121.414 35.9676 121.319 35.7933 121.168 35.6566C121.018 35.513 120.799 35.4413 120.512 35.4413C120.3 35.4413 120.092 35.4823 119.887 35.5643C119.681 35.6395 119.48 35.7352 119.282 35.8514C119.09 35.9676 118.906 36.0941 118.728 36.2308C118.557 36.3675 118.4 36.4974 118.256 36.6205V43.2752C118.256 43.3641 118.242 43.4701 118.215 43.5931C118.188 43.7162 118.119 43.8324 118.01 43.9417C117.908 44.0511 117.75 44.1434 117.538 44.2186C117.333 44.3006 117.05 44.3416 116.687 44.3416C116.325 44.3416 116.038 44.2972 115.826 44.2083C115.621 44.1263 115.464 44.0272 115.354 43.911C115.245 43.7948 115.177 43.6751 115.149 43.5521C115.122 43.429 115.108 43.3299 115.108 43.2547V35.3387C115.108 35.1405 115.06 34.9696 114.965 34.826C114.876 34.6756 114.722 34.6004 114.503 34.6004C114.387 34.6004 114.288 34.6209 114.206 34.662C114.124 34.703 114.035 34.7611 113.939 34.8363L113.724 34.5799C113.881 34.45 114.055 34.3236 114.247 34.2005C114.445 34.0706 114.657 33.9579 114.883 33.8622C115.108 33.7664 115.351 33.6878 115.611 33.6263C115.87 33.5648 116.144 33.534 116.431 33.534C116.725 33.534 116.974 33.575 117.18 33.6571C117.391 33.7323 117.562 33.8348 117.692 33.9647C117.829 34.0877 117.935 34.2279 118.01 34.3851C118.085 34.5423 118.14 34.703 118.174 34.867C118.215 35.0243 118.239 35.1781 118.246 35.3285C118.253 35.472 118.256 35.5951 118.256 35.6976ZM126.654 34.4159V41.9935C126.654 42.3558 126.722 42.6087 126.859 42.7523C126.996 42.889 127.184 42.9574 127.423 42.9574C127.608 42.9574 127.772 42.9061 127.915 42.8036C128.059 42.701 128.182 42.5848 128.284 42.4549C128.408 42.3114 128.513 42.1439 128.602 41.9525L128.92 42.096C128.818 42.3148 128.695 42.554 128.551 42.8138C128.414 43.0736 128.23 43.3163 127.997 43.5418C127.765 43.7606 127.471 43.9452 127.116 44.0956C126.767 44.2459 126.326 44.3211 125.793 44.3211C125.492 44.3211 125.201 44.2767 124.921 44.1878C124.648 44.099 124.402 43.9588 124.183 43.7674C123.971 43.576 123.8 43.3368 123.67 43.0497C123.54 42.7625 123.475 42.4173 123.475 42.014V34.4159H122.327V33.6776C122.518 33.6776 122.785 33.6297 123.127 33.534C123.469 33.4315 123.817 33.264 124.173 33.0316C124.535 32.7992 124.87 32.4881 125.178 32.0985C125.485 31.7088 125.704 31.2269 125.834 30.6527H126.654V33.6776H128.326C128.872 33.6776 129.146 33.5853 129.146 33.4007C129.146 33.3324 129.112 33.2879 129.043 33.2674C128.975 33.2401 128.896 33.2093 128.807 33.1751C128.725 33.1341 128.65 33.0794 128.582 33.0111C128.513 32.9427 128.479 32.8299 128.479 32.6727C128.479 32.4813 128.537 32.3309 128.654 32.2215C128.777 32.1122 128.934 32.0575 129.125 32.0575C129.248 32.0575 129.354 32.0848 129.443 32.1395C129.539 32.1873 129.617 32.2557 129.679 32.3446C129.741 32.4266 129.785 32.5223 129.812 32.6317C129.846 32.7411 129.864 32.8504 129.864 32.9598C129.864 33.4041 129.734 33.7596 129.474 34.0262C129.221 34.286 128.811 34.4159 128.243 34.4159H126.654Z" fill="white" fill-opacity="0.87"/>
<g opacity="0.37">
<ellipse cx="144.091" cy="37.2248" rx="8.88255" ry="8.6305" fill="#6FB5D2"/>
<ellipse cx="160.818" cy="37.2248" rx="8.8826" ry="8.63052" fill="#6FB5D2"/>
<ellipse cx="146.052" cy="48.0971" rx="6.34469" ry="6.16465" fill="#6FB5D2"/>
<ellipse cx="158.28" cy="48.0971" rx="6.34473" ry="6.16465" fill="#6FB5D2"/>
<rect x="147.091" y="36.7764" width="9.34404" height="10.4239" fill="#6FB5D2"/>
</g>
<g opacity="0.55">
<ellipse cx="145.643" cy="38.208" rx="7.39996" ry="7.047" fill="#6FB5D2"/>
<ellipse cx="159.578" cy="38.208" rx="7.39995" ry="7.047" fill="#6FB5D2"/>
<ellipse cx="147.277" cy="47.0853" rx="5.28565" ry="5.03358" fill="#6FB5D2"/>
<ellipse cx="157.464" cy="47.0853" rx="5.28566" ry="5.03358" fill="#6FB5D2"/>
<rect x="148.142" y="37.8417" width="7.7843" height="8.51131" fill="#6FB5D2"/>
</g>
<ellipse cx="147.195" cy="38.7667" rx="5.91727" ry="5.55239" fill="#7FDEE4"/>
<ellipse cx="158.338" cy="38.7667" rx="5.91727" ry="5.55239" fill="#7FDEE4"/>
<ellipse cx="148.501" cy="45.7614" rx="4.22662" ry="3.966" fill="#7FDEE4"/>
<ellipse cx="156.647" cy="45.7614" rx="4.22662" ry="3.966" fill="#7FDEE4"/>
<rect x="149.193" y="38.4784" width="6.22472" height="6.70615" fill="#7FDEE4"/>
<path d="M155.076 28.1016C155.573 27.6621 155.914 27.186 156.102 26.6733C156.297 26.1606 156.395 25.6764 156.395 25.2207C156.395 24.708 156.289 24.2645 156.077 23.8901C155.874 23.5076 155.646 23.1781 155.394 22.9014C155.28 22.763 155.223 22.5881 155.223 22.3765C155.223 22.1567 155.284 21.9289 155.406 21.6929C155.528 21.4487 155.687 21.2249 155.882 21.0215C156.085 20.818 156.317 20.6512 156.578 20.521C156.838 20.3908 157.111 20.3257 157.396 20.3257C157.713 20.3257 157.977 20.4315 158.189 20.6431C158.401 20.8465 158.571 21.0988 158.702 21.3999C158.832 21.701 158.925 22.0225 158.982 22.3643C159.039 22.6979 159.068 22.995 159.068 23.2554C159.068 23.8088 158.97 24.3377 158.775 24.8423C158.58 25.355 158.315 25.8351 157.981 26.2827C157.656 26.7303 157.273 27.1413 156.834 27.5156C156.395 27.8981 155.931 28.2358 155.442 28.5288L155.076 28.1016Z" fill="#7FDEE4"/>
<path d="M149.443 28.1016C148.947 27.6621 148.605 27.186 148.418 26.6733C148.222 26.1606 148.125 25.6764 148.125 25.2207C148.125 24.708 148.23 24.2645 148.442 23.8901C148.645 23.5076 148.873 23.1781 149.126 22.9014C149.24 22.763 149.297 22.5881 149.297 22.3765C149.297 22.1567 149.235 21.9289 149.113 21.6929C148.991 21.4487 148.833 21.2249 148.637 21.0215C148.434 20.818 148.202 20.6512 147.942 20.521C147.681 20.3908 147.408 20.3257 147.124 20.3257C146.806 20.3257 146.542 20.4315 146.33 20.6431C146.119 20.8465 145.948 21.0988 145.818 21.3999C145.687 21.701 145.594 22.0225 145.537 22.3643C145.48 22.6979 145.451 22.995 145.451 23.2554C145.451 23.8088 145.549 24.3377 145.744 24.8423C145.94 25.355 146.204 25.8351 146.538 26.2827C146.863 26.7303 147.246 27.1413 147.685 27.5156C148.125 27.8981 148.589 28.2358 149.077 28.5288L149.443 28.1016Z" fill="#7FDEE4"/>
<path d="M8.05199 56.8843C8.51599 57.0363 8.88399 57.2923 9.15599 57.6523C9.42799 58.0043 9.56399 58.4443 9.56399 58.9723C9.56399 59.7003 9.28399 60.2643 8.72399 60.6643C8.16399 61.0563 7.34799 61.2523 6.27599 61.2523H2.09998V52.8523H6.03599C7.02798 52.8523 7.79199 53.0483 8.32799 53.4403C8.86399 53.8243 9.13198 54.3563 9.13198 55.0363C9.13198 55.4523 9.03598 55.8203 8.84399 56.1403C8.65199 56.4603 8.38799 56.7083 8.05199 56.8843ZM3.65998 54.0763V56.3923H5.86799C6.41199 56.3923 6.82799 56.2963 7.11599 56.1043C7.41199 55.9043 7.55999 55.6163 7.55999 55.2403C7.55999 54.8563 7.41199 54.5683 7.11599 54.3763C6.82799 54.1763 6.41199 54.0763 5.86799 54.0763H3.65998ZM6.17999 60.0283C7.38799 60.0283 7.99199 59.6243 7.99199 58.8163C7.99199 58.0083 7.38799 57.6043 6.17999 57.6043H3.65998V60.0283H6.17999ZM17.1089 58.0843C17.1089 58.1883 17.1009 58.3363 17.0849 58.5283H12.0569C12.1449 59.0003 12.3729 59.3763 12.7409 59.6563C13.1169 59.9283 13.5809 60.0643 14.1329 60.0643C14.8369 60.0643 15.4169 59.8323 15.8729 59.3683L16.6769 60.2923C16.3889 60.6363 16.0249 60.8963 15.5849 61.0723C15.1449 61.2483 14.6489 61.3363 14.0969 61.3363C13.3929 61.3363 12.7729 61.1963 12.2369 60.9163C11.7009 60.6363 11.2849 60.2483 10.9889 59.7523C10.7009 59.2483 10.5569 58.6803 10.5569 58.0483C10.5569 57.4243 10.6969 56.8643 10.9769 56.3683C11.2649 55.8643 11.6609 55.4723 12.1649 55.1923C12.6689 54.9123 13.2369 54.7723 13.8689 54.7723C14.4929 54.7723 15.0489 54.9123 15.5369 55.1923C16.0329 55.4643 16.4169 55.8523 16.6889 56.3563C16.9689 56.8523 17.1089 57.4283 17.1089 58.0843ZM13.8689 55.9723C13.3889 55.9723 12.9809 56.1163 12.6449 56.4043C12.3169 56.6843 12.1169 57.0603 12.0449 57.5323H15.6809C15.6169 57.0683 15.4209 56.6923 15.0929 56.4043C14.7649 56.1163 14.3569 55.9723 13.8689 55.9723ZM18.5497 52.3483H20.0497V61.2523H18.5497V52.3483ZM22.0185 52.3483H23.5185V61.2523H22.0185V52.3483ZM31.5112 58.0843C31.5112 58.1883 31.5032 58.3363 31.4872 58.5283H26.4592C26.5472 59.0003 26.7752 59.3763 27.1432 59.6563C27.5192 59.9283 27.9832 60.0643 28.5352 60.0643C29.2392 60.0643 29.8192 59.8323 30.2752 59.3683L31.0792 60.2923C30.7912 60.6363 30.4272 60.8963 29.9872 61.0723C29.5472 61.2483 29.0512 61.3363 28.4992 61.3363C27.7952 61.3363 27.1752 61.1963 26.6392 60.9163C26.1032 60.6363 25.6872 60.2483 25.3912 59.7523C25.1032 59.2483 24.9592 58.6803 24.9592 58.0483C24.9592 57.4243 25.0992 56.8643 25.3792 56.3683C25.6672 55.8643 26.0632 55.4723 26.5672 55.1923C27.0712 54.9123 27.6392 54.7723 28.2712 54.7723C28.8952 54.7723 29.4512 54.9123 29.9392 55.1923C30.4352 55.4643 30.8192 55.8523 31.0912 56.3563C31.3712 56.8523 31.5112 57.4283 31.5112 58.0843ZM28.2712 55.9723C27.7912 55.9723 27.3832 56.1163 27.0472 56.4043C26.7192 56.6843 26.5192 57.0603 26.4472 57.5323H30.0832C30.0192 57.0683 29.8232 56.6923 29.4952 56.4043C29.1672 56.1163 28.7592 55.9723 28.2712 55.9723ZM37.8975 60.0523V61.2523H32.3655V60.3043L35.8815 56.0443H32.4375V54.8443H37.8015V55.7923L34.2735 60.0523H37.8975ZM41.7282 54.7723C42.6722 54.7723 43.3922 55.0003 43.8882 55.4563C44.3922 55.9043 44.6442 56.5843 44.6442 57.4963V61.2523H43.2282V60.4723C43.0442 60.7523 42.7802 60.9683 42.4362 61.1203C42.1002 61.2643 41.6922 61.3363 41.2122 61.3363C40.7322 61.3363 40.3122 61.2563 39.9522 61.0963C39.5922 60.9283 39.3122 60.7003 39.1122 60.4123C38.9202 60.1163 38.8242 59.7843 38.8242 59.4163C38.8242 58.8403 39.0362 58.3803 39.4602 58.0363C39.8922 57.6843 40.5682 57.5083 41.4882 57.5083H43.1442V57.4123C43.1442 56.9643 43.0082 56.6203 42.7362 56.3803C42.4722 56.1403 42.0762 56.0203 41.5482 56.0203C41.1882 56.0203 40.8322 56.0763 40.4802 56.1883C40.1362 56.3003 39.8442 56.4563 39.6042 56.6563L39.0162 55.5643C39.3522 55.3083 39.7562 55.1123 40.2282 54.9763C40.7002 54.8403 41.2002 54.7723 41.7282 54.7723ZM41.5242 60.2443C41.9002 60.2443 42.2322 60.1603 42.5202 59.9923C42.8162 59.8163 43.0242 59.5683 43.1442 59.2483V58.5043H41.5962C40.7322 58.5043 40.3002 58.7883 40.3002 59.3563C40.3002 59.6283 40.4082 59.8443 40.6242 60.0043C40.8402 60.1643 41.1402 60.2443 41.5242 60.2443ZM55.9097 58.0843C55.9097 58.1883 55.9017 58.3363 55.8857 58.5283H50.8577C50.9457 59.0003 51.1737 59.3763 51.5417 59.6563C51.9177 59.9283 52.3817 60.0643 52.9337 60.0643C53.6377 60.0643 54.2177 59.8323 54.6737 59.3683L55.4777 60.2923C55.1897 60.6363 54.8257 60.8963 54.3857 61.0723C53.9457 61.2483 53.4497 61.3363 52.8977 61.3363C52.1937 61.3363 51.5737 61.1963 51.0377 60.9163C50.5017 60.6363 50.0857 60.2483 49.7897 59.7523C49.5017 59.2483 49.3577 58.6803 49.3577 58.0483C49.3577 57.4243 49.4977 56.8643 49.7777 56.3683C50.0657 55.8643 50.4617 55.4723 50.9657 55.1923C51.4697 54.9123 52.0377 54.7723 52.6697 54.7723C53.2937 54.7723 53.8497 54.9123 54.3377 55.1923C54.8337 55.4643 55.2177 55.8523 55.4897 56.3563C55.7697 56.8523 55.9097 57.4283 55.9097 58.0843ZM52.6697 55.9723C52.1897 55.9723 51.7817 56.1163 51.4457 56.4043C51.1177 56.6843 50.9177 57.0603 50.8457 57.5323H54.4817C54.4177 57.0683 54.2217 56.6923 53.8937 56.4043C53.5657 56.1163 53.1577 55.9723 52.6697 55.9723ZM60.9865 54.7723C61.7945 54.7723 62.4425 55.0083 62.9305 55.4803C63.4185 55.9523 63.6625 56.6523 63.6625 57.5803V61.2523H62.1625V57.7723C62.1625 57.2123 62.0305 56.7923 61.7665 56.5123C61.5025 56.2243 61.1265 56.0803 60.6385 56.0803C60.0865 56.0803 59.6505 56.2483 59.3305 56.5843C59.0105 56.9123 58.8505 57.3883 58.8505 58.0123V61.2523H57.3505V54.8443H58.7785V55.6723C59.0265 55.3763 59.3385 55.1523 59.7145 55.0003C60.0905 54.8483 60.5145 54.7723 60.9865 54.7723ZM71.3298 54.7723C72.2738 54.7723 72.9938 55.0003 73.4898 55.4563C73.9938 55.9043 74.2458 56.5843 74.2458 57.4963V61.2523H72.8298V60.4723C72.6458 60.7523 72.3818 60.9683 72.0378 61.1203C71.7018 61.2643 71.2938 61.3363 70.8138 61.3363C70.3338 61.3363 69.9138 61.2563 69.5538 61.0963C69.1938 60.9283 68.9138 60.7003 68.7138 60.4123C68.5218 60.1163 68.4258 59.7843 68.4258 59.4163C68.4258 58.8403 68.6378 58.3803 69.0618 58.0363C69.4938 57.6843 70.1698 57.5083 71.0898 57.5083H72.7458V57.4123C72.7458 56.9643 72.6098 56.6203 72.3378 56.3803C72.0738 56.1403 71.6778 56.0203 71.1498 56.0203C70.7898 56.0203 70.4338 56.0763 70.0818 56.1883C69.7378 56.3003 69.4458 56.4563 69.2058 56.6563L68.6178 55.5643C68.9538 55.3083 69.3578 55.1123 69.8298 54.9763C70.3018 54.8403 70.8018 54.7723 71.3298 54.7723ZM71.1258 60.2443C71.5018 60.2443 71.8338 60.1603 72.1218 59.9923C72.4178 59.8163 72.6258 59.5683 72.7458 59.2483V58.5043H71.1978C70.3338 58.5043 69.9018 58.7883 69.9018 59.3563C69.9018 59.6283 70.0098 59.8443 70.2258 60.0043C70.4418 60.1643 70.7418 60.2443 71.1258 60.2443ZM77.5988 55.7803C78.0308 55.1083 78.7908 54.7723 79.8788 54.7723V56.2003C79.7508 56.1763 79.6348 56.1643 79.5308 56.1643C78.9468 56.1643 78.4908 56.3363 78.1628 56.6803C77.8348 57.0163 77.6708 57.5043 77.6708 58.1443V61.2523H76.1708V54.8443H77.5988V55.7803ZM85.2377 60.9043C85.0617 61.0483 84.8457 61.1563 84.5897 61.2283C84.3417 61.3003 84.0777 61.3363 83.7977 61.3363C83.0937 61.3363 82.5497 61.1523 82.1657 60.7843C81.7817 60.4163 81.5897 59.8803 81.5897 59.1763V56.0923H80.5337V54.8923H81.5897V53.4283H83.0897V54.8923H84.8057V56.0923H83.0897V59.1403C83.0897 59.4523 83.1657 59.6923 83.3177 59.8603C83.4697 60.0203 83.6897 60.1003 83.9777 60.1003C84.3137 60.1003 84.5937 60.0123 84.8177 59.8363L85.2377 60.9043ZM92.2847 58.0843C92.2847 58.1883 92.2767 58.3363 92.2607 58.5283H87.2327C87.3207 59.0003 87.5487 59.3763 87.9167 59.6563C88.2927 59.9283 88.7567 60.0643 89.3087 60.0643C90.0127 60.0643 90.5927 59.8323 91.0487 59.3683L91.8527 60.2923C91.5647 60.6363 91.2007 60.8963 90.7607 61.0723C90.3207 61.2483 89.8247 61.3363 89.2727 61.3363C88.5687 61.3363 87.9487 61.1963 87.4127 60.9163C86.8767 60.6363 86.4607 60.2483 86.1647 59.7523C85.8767 59.2483 85.7327 58.6803 85.7327 58.0483C85.7327 57.4243 85.8727 56.8643 86.1527 56.3683C86.4407 55.8643 86.8367 55.4723 87.3407 55.1923C87.8447 54.9123 88.4127 54.7723 89.0447 54.7723C89.6687 54.7723 90.2247 54.9123 90.7127 55.1923C91.2087 55.4643 91.5927 55.8523 91.8647 56.3563C92.1447 56.8523 92.2847 57.4283 92.2847 58.0843ZM89.0447 55.9723C88.5647 55.9723 88.1567 56.1163 87.8207 56.4043C87.4927 56.6843 87.2927 57.0603 87.2207 57.5323H90.8567C90.7927 57.0683 90.5967 56.6923 90.2687 56.4043C89.9407 56.1163 89.5327 55.9723 89.0447 55.9723Z" fill="#7FDEE4"/>
</svg>
