<svg width="98" height="74" fill="none" xmlns="http://www.w3.org/2000/svg"><g opacity=".37" fill="#6FB5D2"><ellipse cx="23.428" cy="39.698" rx="5.395" ry="5.242" transform="rotate(26.35 23.428 39.698)"/><ellipse cx="32.533" cy="44.208" rx="5.395" ry="5.242" transform="rotate(26.35 32.533 44.208)"/><ellipse cx="21.564" cy="46.144" rx="3.854" ry="3.745" transform="rotate(26.35 21.564 46.144)"/><ellipse cx="28.22" cy="49.441" rx="3.854" ry="3.745" transform="rotate(26.35 28.22 49.441)"/><path d="m25.181 40.262 5.086 2.52-2.81 5.673-5.086-2.52z"/></g><g opacity=".55" fill="#6FB5D2"><ellipse cx="24.008" cy="40.651" rx="4.495" ry="4.28" transform="rotate(26.35 24.008 40.651)"/><ellipse cx="31.593" cy="44.408" rx="4.495" ry="4.28" transform="rotate(26.35 31.593 44.408)"/><ellipse cx="22.503" cy="45.924" rx="3.211" ry="3.057" transform="rotate(26.35 22.503 45.924)"/><ellipse cx="28.048" cy="48.67" rx="3.211" ry="3.057" transform="rotate(26.35 28.048 48.67)"/><path d="m25.466 41.126 4.237 2.098-2.295 4.633-4.237-2.098z"/></g><ellipse cx="24.701" cy="41.374" rx="3.594" ry="3.373" transform="rotate(26.35 24.701 41.374)" fill="#7FDEE4"/><ellipse cx="30.767" cy="44.378" rx="3.594" ry="3.373" transform="rotate(26.35 30.767 44.378)" fill="#7FDEE4"/><ellipse cx="23.527" cy="45.533" rx="2.567" ry="2.409" transform="rotate(26.35 23.527 45.533)" fill="#7FDEE4"/><ellipse cx="27.961" cy="47.729" rx="2.567" ry="2.409" transform="rotate(26.35 27.96 47.73)" fill="#7FDEE4"/><path fill="#7FDEE4" d="m25.867 41.755 3.388 1.678-1.808 3.65-3.388-1.678zM31.782 38.27c.487-.132.88-.341 1.18-.627.306-.284.536-.58.69-.89.173-.35.25-.688.233-1.014-.01-.33-.054-.63-.133-.904a.607.607 0 0 1 .061-.415 1.13 1.13 0 0 1 .355-.404 2.07 2.07 0 0 1 .551-.297 2.02 2.02 0 0 1 .643-.106c.221 0 .429.047.623.143.216.107.36.269.433.484.075.21.107.44.094.688a3.14 3.14 0 0 1-.134.752 4.066 4.066 0 0 1-.243.636 3.312 3.312 0 0 1-.734.981 4.513 4.513 0 0 1-1.027.714 5.41 5.41 0 0 1-1.197.452 7.441 7.441 0 0 1-1.29.221l-.105-.414zM28.476 36.614c-.19-.467-.262-.906-.217-1.319.04-.415.137-.777.29-1.088.174-.349.395-.615.666-.799.267-.192.534-.34.799-.443a.607.607 0 0 0 .293-.3c.074-.149.11-.325.106-.527 0-.207-.033-.413-.098-.617a2.02 2.02 0 0 0-.305-.576 1.374 1.374 0 0 0-.49-.409.818.818 0 0 0-.648-.052 1.75 1.75 0 0 0-.605.343c-.19.161-.362.348-.516.562-.152.208-.271.4-.36.578-.186.377-.298.77-.335 1.18a4.51 4.51 0 0 0 .055 1.248c.07.415.192.824.365 1.227.17.409.372.795.606 1.16l.394-.168z"/><path d="M48 36h-4.111l-.822 3.667L48 36zm-8.222 18.333H19.222L11 39.667h32.067l-3.29 14.666zm0 0 3.289-14.666-3.29 14.666zm0 0 4.713 4.204c1.295 1.155.378 3.13-1.453 3.13H19.222l20.556-7.334zm-20.556 7.334c1.09 0 2.136.386 2.907 1.074.771.687 1.204 1.62 1.204 2.592 0 .973-.433 1.905-1.204 2.593-.77.688-1.816 1.074-2.907 1.074-1.09 0-2.136-.386-2.907-1.074-.77-.688-1.204-1.62-1.204-2.593 0-.972.433-1.905 1.204-2.592.771-.688 1.817-1.074 2.907-1.074zm16.445 3.666c0 .973.433 1.905 1.204 2.593.77.688 1.816 1.074 2.907 1.074 1.09 0 2.136-.386 2.907-1.074.77-.688 1.204-1.62 1.204-2.593 0-.972-.433-1.905-1.204-2.592-.771-.688-1.817-1.074-2.907-1.074s-2.136.386-2.907 1.074c-.771.687-1.204 1.62-1.204 2.592v0z" stroke="#D5D5D5" stroke-width="2" stroke-linecap="round" stroke-linejoin="round"/><rect x="64.506" y="40.575" width="5.694" height="7.128" rx="2.847" transform="rotate(-.694 64.506 40.575)" fill="#4B4B4B" stroke="#000"/><rect x="50.422" y="29.708" width="5.694" height="7.128" rx="2.847" transform="rotate(28.677 50.422 29.708)" fill="#4B4B4B" stroke="#000"/><path d="M58.76 9.535c.747-.898 2.207-.355 2.187.812a1.236 1.236 0 1 1-2.186-.812z" fill="#4B4B4B" stroke="#000"/><mask id="b" fill="#fff"><path fill-rule="evenodd" clip-rule="evenodd" d="M45.662 25.502a5.69 5.69 0 0 1 3-10.88c4.088-4.905 11.202-6.401 17.015-3.221l18.008 9.85c6.609 3.614 9.036 11.9 5.421 18.51-2.758 5.043-8.239 7.651-13.617 6.996l.298 1.774a4.11 4.11 0 1 1-8.107 1.363l-.708-4.209a4.092 4.092 0 0 1 .287-2.329l-8.739-4.78-1.654 3.026a4.11 4.11 0 0 1-7.213-3.945l1.692-3.093a13.622 13.622 0 0 1-5.683-9.062z"/></mask><path fill-rule="evenodd" clip-rule="evenodd" d="M45.662 25.502a5.69 5.69 0 0 1 3-10.88c4.088-4.905 11.202-6.401 17.015-3.221l18.008 9.85c6.609 3.614 9.036 11.9 5.421 18.51-2.758 5.043-8.239 7.651-13.617 6.996l.298 1.774a4.11 4.11 0 1 1-8.107 1.363l-.708-4.209a4.092 4.092 0 0 1 .287-2.329l-8.739-4.78-1.654 3.026a4.11 4.11 0 0 1-7.213-3.945l1.692-3.093a13.622 13.622 0 0 1-5.683-9.062z" fill="url(#a)"/><path d="m45.662 25.502.988-.157-.087-.547-.51-.216-.39.92zm3-10.88-.136.991.55.076.355-.426-.768-.64zM75.49 46.758l.12-.992-1.329-.162.222 1.32.987-.166zm.298 1.774.986-.166-.986.166zm-3.373 4.735-.165-.986.166.986zm-4.734-3.372.986-.166-.986.166zm-.708-4.209-.986.166.986-.166zm.287-2.329.916.402.368-.84-.804-.439-.48.877zm-8.739-4.78L59 37.7l-.877-.48-.48.878.877.48zm-8.867-.92.878.48-.878-.48zm1.692-3.092.877.48.432-.79-.74-.512-.57.822zm-5.292-9.983a4.764 4.764 0 0 1-.423-.205l-.96 1.755c.197.108.398.205.601.291l.782-1.84zm-.423-.205a4.69 4.69 0 0 1-1.865-6.366l-1.754-.96a6.69 6.69 0 0 0 2.66 9.081l.959-1.755zm-1.865-6.366a4.693 4.693 0 0 1 4.76-2.397l.275-1.98a6.693 6.693 0 0 0-6.79 3.417l1.755.96zm5.666-2.747c3.788-4.546 10.38-5.931 15.767-2.985l.96-1.755c-6.242-3.413-13.876-1.806-18.264 3.46l1.537 1.28zm15.767-2.985 18.007 9.85.96-1.755-18.008-9.85-.96 1.755zm18.007 9.85c6.124 3.349 8.373 11.029 5.024 17.153l1.755.96c3.88-7.094 1.274-15.989-5.819-19.868l-.96 1.755zM88.23 39.28c-2.556 4.672-7.633 7.09-12.62 6.484l-.241 1.985c5.77.702 11.654-2.095 14.616-7.51l-1.755-.96zm-13.727 7.642.299 1.774 1.972-.332-.298-1.773-1.973.331zm.299 1.774a3.11 3.11 0 0 1-2.552 3.583l.331 1.972a5.11 5.11 0 0 0 4.193-5.887l-1.972.332zm-2.552 3.583a3.11 3.11 0 0 1-3.583-2.552l-1.973.331a5.11 5.11 0 0 0 5.887 4.193l-.331-1.972zm-3.583-2.552-.708-4.209-1.972.332.707 4.208 1.973-.331zm-.708-4.209a3.092 3.092 0 0 1 .217-1.761l-1.831-.803a5.092 5.092 0 0 0-.358 2.896l1.972-.331zm-.219-3.04L59 37.699l-.96 1.755 8.74 4.78.96-1.755zm-10.096-4.382-1.655 3.025 1.755.96 1.655-3.026-1.755-.96zm-1.655 3.025a3.11 3.11 0 0 1-4.221 1.236l-.96 1.755a5.11 5.11 0 0 0 6.936-2.031l-1.755-.96zm-4.221 1.236a3.11 3.11 0 0 1-1.236-4.221l-1.755-.96a5.11 5.11 0 0 0 2.031 6.936l.96-1.755zm-1.236-4.221 1.691-3.093-1.755-.96-1.691 3.093 1.755.96zm1.384-4.395a12.622 12.622 0 0 1-5.265-8.397l-1.975.314a14.622 14.622 0 0 0 6.1 9.727l1.14-1.644z" fill="#000" mask="url(#b)"/><path d="M70.65 17.77a1.5 1.5 0 0 1 .196 2.59l-.52.355a1.5 1.5 0 0 1-2.34-1.126l-.048-.627a1.5 1.5 0 0 1 2.145-1.465l.567.273z" fill="#B6ACAC" stroke="#000"/><ellipse cx="53.612" cy="13.14" rx=".632" ry=".661" transform="rotate(53.66 53.612 13.14)" fill="#171515"/><circle cx="58.246" cy="20.338" r="1.434" transform="rotate(28.677 58.246 20.338)" fill="#171515"/><g filter="url(#c)"><rect x="69.347" y="13.584" width="13.764" height="4.936" rx="2.468" transform="rotate(88.072 69.347 13.584)" fill="#C4C4C4"/></g><rect x="68.864" y="14.1" width="12.764" height="3.936" rx="1.968" transform="rotate(88.072 68.864 14.1)" stroke="#000"/><circle cx="66.207" cy="16.246" r=".717" transform="rotate(28.677 66.207 16.246)" fill="#171515"/><ellipse cx="67.731" cy="18.441" rx=".717" ry=".478" transform="rotate(28.677 67.73 18.441)" fill="#171515"/><circle cx="67.078" cy="21.627" r="1.195" transform="rotate(28.677 67.078 21.627)" fill="#171515"/><circle cx="67.57" cy="25.71" r=".717" transform="rotate(28.677 67.57 25.71)" fill="#171515"/><defs><linearGradient id="a" x1="50.734" y1="14.254" x2="80.008" y2="44.536" gradientUnits="userSpaceOnUse"><stop stop-color="#BF9393"/><stop offset="1" stop-color="#323841"/></linearGradient><filter id="c" x="64.495" y="13.665" width="5.233" height="17.759" filterUnits="userSpaceOnUse" color-interpolation-filters="sRGB"><feFlood flood-opacity="0" result="BackgroundImageFix"/><feBlend in="SourceGraphic" in2="BackgroundImageFix" result="shape"/><feColorMatrix in="SourceAlpha" values="0 0 0 0 0 0 0 0 0 0 0 0 0 0 0 0 0 0 127 0" result="hardAlpha"/><feOffset dy="4"/><feGaussianBlur stdDeviation="2"/><feComposite in2="hardAlpha" operator="arithmetic" k2="-1" k3="1"/><feColorMatrix values="0 0 0 0 0 0 0 0 0 0 0 0 0 0 0 0 0 0 0.25 0"/><feBlend in2="shape" result="effect1_innerShadow_209_5017"/></filter></defs></svg>