<svg width="314" height="177" fill="none" xmlns="http://www.w3.org/2000/svg"><path stroke="gray" stroke-opacity=".33" stroke-linecap="round" stroke-dasharray="11 11" d="m1.353 124.387 319.034-85.74M320.395 131.366 1.366 52.605"/><path d="M87.637 61.258a1.5 1.5 0 0 1 2.57-.375l2.06 2.606a1.5 1.5 0 0 1-.961 2.414l-3.287.48a1.5 1.5 0 0 1-1.61-2.04l1.228-3.085z" fill="#4B4B4B" stroke="#000"/><rect x="120.5" y="112.5" width="13" height="16" rx="6.5" fill="#4B4B4B" stroke="#000"/><rect x="83.5" y="112.5" width="13" height="16" rx="6.5" fill="#4B4B4B" stroke="#000"/><mask id="b" fill="#fff"><path fill-rule="evenodd" clip-rule="evenodd" d="M71.09 110.105c-.39.038-.787.058-1.188.058-6.573 0-11.902-5.329-11.902-11.902 0-5.086 3.19-9.427 7.678-11.13 2.578-13.105 14.129-22.99 27.988-22.99h42.929c15.754 0 28.525 12.771 28.525 28.525 0 11.498-6.803 21.407-16.603 25.922.03.292.046.589.046.89v8.925a8.597 8.597 0 1 1-17.194 0v-7.212h-23.562v7.212a8.597 8.597 0 1 1-17.193 0v-7.373c-7.932-.844-14.892-4.938-19.523-10.925z"/></mask><path fill-rule="evenodd" clip-rule="evenodd" d="M71.09 110.105c-.39.038-.787.058-1.188.058-6.573 0-11.902-5.329-11.902-11.902 0-5.086 3.19-9.427 7.678-11.13 2.578-13.105 14.129-22.99 27.988-22.99h42.929c15.754 0 28.525 12.771 28.525 28.525 0 11.498-6.803 21.407-16.603 25.922.03.292.046.589.046.89v8.925a8.597 8.597 0 1 1-17.194 0v-7.212h-23.562v7.212a8.597 8.597 0 1 1-17.193 0v-7.373c-7.932-.844-14.892-4.938-19.523-10.925z" fill="url(#a)"/><path d="m71.09 110.105.792-.612-.339-.438-.55.054.098.996zM65.679 87.13l.355.935.52-.197.106-.545-.98-.193zm82.839 31.458-.418-.909-.65.3.074.711.994-.102zm-17.148 2.603h1v-1h-1v1zm-23.562 0v-1h-1v1h1zm-17.193-.161h1v-.9l-.895-.095-.105.995zm-19.622-11.921c-.358.036-.722.054-1.09.054v2c.434 0 .864-.021 1.287-.063l-.197-1.991zm-1.09.054c-6.02 0-10.902-4.881-10.902-10.902h-2c0 7.126 5.776 12.902 12.902 12.902v-2zM59 98.261c0-4.657 2.92-8.634 7.033-10.196l-.71-1.87C60.46 88.042 57 92.746 57 98.261h2zm7.66-10.938c2.486-12.644 13.633-22.182 27.006-22.182v-2c-14.346 0-26.301 10.232-28.969 23.796l1.962.386zm27.006-22.182h42.929v-2H93.666v2zm42.929 0c15.202 0 27.525 12.324 27.525 27.525h2c0-16.306-13.219-29.525-29.525-29.525v2zm27.525 27.525c0 11.093-6.562 20.656-16.021 25.013l.837 1.817c10.141-4.672 17.184-14.928 17.184-26.83h-2zm-16.597 26.024c.026.259.04.521.04.788h2c0-.335-.017-.666-.051-.993l-1.989.205zm.04.788v8.925h2v-8.925h-2zm0 8.925a7.597 7.597 0 0 1-7.597 7.597v2c5.3 0 9.597-4.297 9.597-9.597h-2zM139.966 136a7.597 7.597 0 0 1-7.597-7.597h-2c0 5.3 4.297 9.597 9.597 9.597v-2zm-7.597-7.597v-7.212h-2v7.212h2zm-1-8.212h-23.562v2h23.562v-2zm-24.562 1v7.212h2v-7.212h-2zm0 7.212A7.597 7.597 0 0 1 99.21 136v2c5.301 0 9.597-4.297 9.597-9.597h-2zM99.21 136a7.597 7.597 0 0 1-7.596-7.597h-2c0 5.3 4.296 9.597 9.596 9.597v-2zm-7.596-7.597v-7.373h-2v7.373h2zm-.895-8.368c-7.65-.814-14.366-4.763-18.837-10.542l-1.582 1.223c4.792 6.195 11.996 10.434 20.208 11.308l.211-1.989z" fill="#000" mask="url(#b)"/><path d="M112.929 70.094a1.5 1.5 0 0 1 1.416 2.18l-4.03 7.909a1.5 1.5 0 0 1-2.595.136l-4.835-7.445a1.5 1.5 0 0 1 1.18-2.315l8.864-.465z" fill="#B6ACAC" stroke="#000"/><ellipse cx="73.272" cy="79.442" rx="1.323" ry="1.382" transform="rotate(24.984 73.272 79.442)" fill="#171515"/><circle cx="89" cy="88" r="3" fill="#171515"/><g filter="url(#c)"><rect x="102.59" y="64.464" width="28.788" height="10.325" rx="5.162" transform="rotate(59.396 102.59 64.464)" fill="#C4C4C4"/></g><rect x="102.414" y="65.149" width="27.788" height="9.325" rx="4.662" transform="rotate(59.396 102.414 65.149)" stroke="#000"/><g filter="url(#d)"><rect x="169" y="62.297" width="100.248" height="19.394" rx="9.697" transform="rotate(-38.42 169 62.297)" fill="#635656"/></g><rect x="169.702" y="62.377" width="99.248" height="18.394" rx="9.197" transform="rotate(-38.42 169.702 62.377)" stroke="#000"/><circle cx="99.5" cy="72.5" r="1.5" fill="#171515"/><ellipse cx="104.5" cy="75" rx="1.5" ry="1" fill="#171515"/><circle cx="106.5" cy="81.5" r="2.5" fill="#171515"/><circle cx="111.5" cy="88.5" r="1.5" fill="#171515"/><path d="M179 72.5c-12.5 0-13 24.5-32 19 0 0 4.205-5.5 4.103-10.5C151 76 155 71 158.5 69.5 162 68 174 67 174 67l5 5.5z" fill="#E4F1EA" stroke="#000"/><path fill-rule="evenodd" clip-rule="evenodd" d="M160.316 69c-.725.182-1.347.374-1.816.575-3.5 1.5-7.5 6.5-7.397 11.5.102 5-4.103 10.5-4.103 10.5 8.858 2.564 13.695-1.392 17.602-6.347-3.165.934-6.92 1.471-11.483 1.444 0 0 5.292-5.907 4.391-10.307-.488-2.381.774-5.06 2.806-7.365z" fill="#6FD299"/><path d="m158.5 69.575.197.46-.197-.46zm1.816-.575.375.33 1.064-1.207-1.561.392.122.485zM147 91.575l-.397-.304-.444.58.702.204.139-.48zm17.602-6.347.392.31.973-1.234-1.507.444.142.48zm-11.483 1.444-.372-.333-.741.827 1.111.006.002-.5zm4.391-10.307-.49.1.49-.1zm1.187-6.33c.434-.186 1.026-.37 1.74-.55l-.243-.97c-.736.185-1.387.384-1.891.6l.394.92zm-7.095 11.03c-.048-2.368.877-4.766 2.26-6.768 1.385-2.006 3.192-3.558 4.835-4.263l-.394-.919c-1.857.796-3.8 2.494-5.264 4.613-1.467 2.123-2.49 4.724-2.436 7.357l.999-.02zM147 91.575l.397.303h.001l.001-.001.002-.004.01-.013.038-.05.138-.19c.118-.165.285-.404.486-.707.399-.605.931-1.464 1.46-2.483 1.051-2.023 2.123-4.739 2.069-7.365l-.999.02c.048 2.374-.931 4.908-1.957 6.885a26.438 26.438 0 0 1-1.872 3.068 22.476 22.476 0 0 1-.161.22l-.008.01-.002.003.397.304zm17.209-6.657c-1.936 2.456-4.063 4.61-6.76 5.849-2.68 1.23-5.979 1.581-10.31.328l-.278.96c4.527 1.31 8.076.965 11.005-.38 2.913-1.337 5.158-3.639 7.128-6.137l-.785-.62zm.251-.17c-3.111.918-6.816 1.45-11.338 1.424l-.005 1c4.603.027 8.408-.515 11.626-1.464l-.283-.96zm-11.341 1.924.373.334.001-.002.004-.004a.384.384 0 0 0 .012-.014l.047-.053c.04-.047.099-.114.172-.202a26.252 26.252 0 0 0 2.354-3.307c.617-1.033 1.214-2.22 1.599-3.442.384-1.219.567-2.504.319-3.717l-.98.2c.202.987.062 2.09-.293 3.216-.354 1.124-.91 2.238-1.504 3.231a25.266 25.266 0 0 1-2.422 3.365l-.041.047-.01.012a.008.008 0 0 1-.003.002l.372.334zM158 76.265c-.44-2.149.694-4.67 2.691-6.934l-.75-.662c-2.067 2.344-3.457 5.182-2.921 7.797l.98-.201z" fill="#6FD299"/><circle cx="164" cy="75" r="3" fill="#6FD299"/><circle cx="160.5" cy="81.5" r="1.5" fill="#6FD299"/><circle cx="143.5" cy="100.5" r="3.5" fill="#6FD299"/><circle cx="149" cy="105" r="5" fill="#6FD299"/><circle cx="155" cy="97" r="2" fill="#6FD299"/><circle cx="158.5" cy="89.5" r="1.5" fill="#6FD299"/><path stroke="#525B69" d="M42.5 59v70M149 152.5H79M36 128.5h13M79.5 146v13M36 59.5h13M148.5 146v13M204.175 135.5 253.5 84.24v51.26h-49.325z"/><path d="M103.977 164.317h-3.51L99.711 166h-.693l2.88-6.3h.657l2.88 6.3h-.702l-.756-1.683zm-.243-.54-1.512-3.384-1.512 3.384h3.024zm5.02-2.547c.594 0 1.065.174 1.413.522.354.342.531.843.531 1.503V166h-.639v-2.682c0-.492-.123-.867-.369-1.125s-.597-.387-1.053-.387c-.51 0-.915.153-1.215.459-.294.3-.441.717-.441 1.251V166h-.639v-4.734h.612v.873c.174-.288.414-.51.72-.666a2.31 2.31 0 0 1 1.08-.243zm5.659 4.815c-.468 0-.888-.102-1.26-.306a2.232 2.232 0 0 1-.864-.855 2.5 2.5 0 0 1-.315-1.251c0-.462.105-.876.315-1.242.21-.366.498-.651.864-.855a2.577 2.577 0 0 1 1.26-.306c.408 0 .771.081 1.089.243.324.156.579.387.765.693l-.477.324a1.459 1.459 0 0 0-.594-.522c-.24-.12-.501-.18-.783-.18a1.85 1.85 0 0 0-.927.234 1.62 1.62 0 0 0-.639.648c-.15.282-.225.603-.225.963 0 .366.075.69.225.972a1.7 1.7 0 0 0 .639.648c.276.15.585.225.927.225.282 0 .543-.057.783-.171.24-.114.438-.288.594-.522l.477.324a1.84 1.84 0 0 1-.765.702 2.478 2.478 0 0 1-1.089.234zm5.451-4.815c.594 0 1.065.174 1.413.522.354.342.531.843.531 1.503V166h-.639v-2.682c0-.492-.123-.867-.369-1.125s-.597-.387-1.053-.387c-.51 0-.915.153-1.215.459-.294.3-.441.717-.441 1.251V166h-.639v-6.678h.639v2.772c.174-.276.414-.489.72-.639.306-.15.657-.225 1.053-.225zm5.631 4.815c-.456 0-.867-.102-1.233-.306a2.297 2.297 0 0 1-.864-.864 2.45 2.45 0 0 1-.315-1.242c0-.462.105-.876.315-1.242.21-.366.498-.651.864-.855a2.489 2.489 0 0 1 1.233-.306c.456 0 .867.102 1.233.306.366.204.651.489.855.855.21.366.315.78.315 1.242 0 .462-.105.876-.315 1.242a2.232 2.232 0 0 1-.855.864 2.489 2.489 0 0 1-1.233.306zm0-.567c.336 0 .636-.075.9-.225.27-.156.48-.375.63-.657.15-.282.225-.603.225-.963s-.075-.681-.225-.963a1.562 1.562 0 0 0-.63-.648 1.735 1.735 0 0 0-.9-.234c-.336 0-.639.078-.909.234-.264.15-.474.366-.63.648-.15.282-.225.603-.225.963s.075.681.225.963c.156.282.366.501.63.657.27.15.573.225.909.225zM218.25 141.276h-2.214v-.576h5.094v.576h-2.214V147h-.666v-5.724zm5.201.954c.618 0 1.092.156 1.422.468.33.306.495.762.495 1.368V147h-.612v-.738a1.46 1.46 0 0 1-.639.576c-.276.138-.606.207-.99.207-.528 0-.948-.126-1.26-.378a1.22 1.22 0 0 1-.468-.999c0-.402.144-.726.432-.972.294-.246.759-.369 1.395-.369h1.503v-.288c0-.408-.114-.717-.342-.927-.228-.216-.561-.324-.999-.324-.3 0-.588.051-.864.153a2.116 2.116 0 0 0-.711.405l-.288-.477c.24-.204.528-.36.864-.468.336-.114.69-.171 1.062-.171zm-.225 4.311c.36 0 .669-.081.927-.243.258-.168.45-.408.576-.72v-.774h-1.485c-.81 0-1.215.282-1.215.846 0 .276.105.495.315.657.21.156.504.234.882.234zm9.782-4.311c.594 0 1.059.171 1.395.513.342.342.513.846.513 1.512V147h-.639v-2.682c0-.492-.12-.867-.36-1.125-.234-.258-.567-.387-.999-.387-.492 0-.879.153-1.161.459-.282.3-.423.717-.423 1.251V147h-.639v-2.682c0-.492-.12-.867-.36-1.125-.234-.258-.57-.387-1.008-.387-.486 0-.873.153-1.161.459-.282.3-.423.717-.423 1.251V147h-.639v-4.734h.612v.864c.168-.288.402-.51.702-.666.3-.156.645-.234 1.035-.234.396 0 .738.084 1.026.252.294.168.513.417.657.747.174-.312.423-.555.747-.729.33-.18.705-.27 1.125-.27zm5.297 0c.618 0 1.092.156 1.422.468.33.306.495.762.495 1.368V147h-.612v-.738a1.46 1.46 0 0 1-.639.576c-.276.138-.606.207-.99.207-.528 0-.948-.126-1.26-.378a1.22 1.22 0 0 1-.468-.999c0-.402.144-.726.432-.972.294-.246.759-.369 1.395-.369h1.503v-.288c0-.408-.114-.717-.342-.927-.228-.216-.561-.324-.999-.324-.3 0-.588.051-.864.153a2.116 2.116 0 0 0-.711.405l-.288-.477c.24-.204.528-.36.864-.468.336-.114.69-.171 1.062-.171zm-.225 4.311c.36 0 .669-.081.927-.243.258-.168.45-.408.576-.72v-.774h-1.485c-.81 0-1.215.282-1.215.846 0 .276.105.495.315.657.21.156.504.234.882.234zm6.289-4.311c.594 0 1.065.174 1.413.522.354.342.531.843.531 1.503V147h-.639v-2.682c0-.492-.123-.867-.369-1.125s-.597-.387-1.053-.387c-.51 0-.915.153-1.215.459-.294.3-.441.717-.441 1.251V147h-.639v-4.734h.612v.873c.174-.288.414-.51.72-.666a2.31 2.31 0 0 1 1.08-.243zm.369-.756a.747.747 0 0 1-.369-.09 2.407 2.407 0 0 1-.351-.27 1.773 1.773 0 0 0-.261-.189.338.338 0 0 0-.198-.063.41.41 0 0 0-.333.153c-.084.102-.129.243-.135.423h-.387c.012-.3.09-.54.234-.72a.7.7 0 0 1 .576-.27c.138 0 .258.03.36.09.108.06.231.15.369.27.096.084.177.147.243.189a.41.41 0 0 0 .531-.081.712.712 0 0 0 .144-.414h.387c-.012.294-.09.531-.234.711a.71.71 0 0 1-.576.261zm5.263 5.571c-.456 0-.867-.102-1.233-.306a2.297 2.297 0 0 1-.864-.864 2.45 2.45 0 0 1-.315-1.242c0-.462.105-.876.315-1.242.21-.366.498-.651.864-.855a2.489 2.489 0 0 1 1.233-.306c.456 0 .867.102 1.233.306.366.204.651.489.855.855.21.366.315.78.315 1.242 0 .462-.105.876-.315 1.242a2.232 2.232 0 0 1-.855.864 2.489 2.489 0 0 1-1.233.306zm0-.567c.336 0 .636-.075.9-.225.27-.156.48-.375.63-.657.15-.282.225-.603.225-.963s-.075-.681-.225-.963a1.562 1.562 0 0 0-.63-.648 1.735 1.735 0 0 0-.9-.234c-.336 0-.639.078-.909.234-.264.15-.474.366-.63.648-.15.282-.225.603-.225.963s.075.681.225.963c.156.282.366.501.63.657.27.15.573.225.909.225zM211.566 109.627l1.839 1.656 2.181-2.42.428.385-2.181 2.421 1.986 1.789-.445.495-4.681-4.217 2.891-3.21.428.386-2.446 2.715zm8.752-1.096a2.492 2.492 0 0 1-1.053.712 2.3 2.3 0 0 1-1.22.063 2.455 2.455 0 0 1-1.134-.597 2.456 2.456 0 0 1-.712-1.065 2.24 2.24 0 0 1-.057-1.214 2.49 2.49 0 0 1 .598-1.121 2.498 2.498 0 0 1 1.053-.712 2.176 2.176 0 0 1 1.207-.063c.413.089.791.288 1.134.598.343.309.581.664.712 1.065.135.396.159.801.07 1.213a2.49 2.49 0 0 1-.598 1.121zm-.421-.379c.224-.25.369-.523.435-.819a1.622 1.622 0 0 0-.067-.908 2.015 2.015 0 0 0-.565-.812 2.01 2.01 0 0 0-.866-.477 1.558 1.558 0 0 0-.903.034 1.738 1.738 0 0 0-.776.512c-.225.25-.37.527-.435.832-.065.297-.045.597.06.902.109.3.298.571.565.812.268.241.556.4.866.477.314.073.617.063.91-.028.292-.101.551-.275.776-.525zm.45-5.408a1.55 1.55 0 0 1-.089-.977c.08-.331.267-.66.56-.985l.462.416-.109.107c-.334.37-.481.762-.443 1.177.039.414.263.806.674 1.175l1.792 1.615-.428.475-3.517-3.169.409-.455.689.621zm5.197-7.208c.398-.442.836-.672 1.315-.693.483-.026.972.185 1.467.63l2.039 1.838-.427.475-1.993-1.796c-.366-.329-.725-.49-1.077-.485-.348.001-.667.162-.956.483-.329.366-.475.756-.436 1.17.034.41.25.794.646 1.152l1.846 1.662-.428.475-1.993-1.795c-.365-.33-.724-.491-1.076-.486-.349.002-.669.165-.963.49-.325.361-.47.751-.436 1.17.035.41.25.794.647 1.152l1.845 1.662-.427.475-3.518-3.168.41-.455.642.578a1.702 1.702 0 0 1-.025-.967c.085-.328.258-.636.519-.926.265-.294.556-.492.874-.594.321-.105.653-.102.995.012a1.813 1.813 0 0 1-.042-1.043 2.31 2.31 0 0 1 .552-1.016zm3.546-3.936c.413-.459.846-.707 1.299-.743.448-.04.898.142 1.348.548l2.18 1.964-.41.454-.548-.494c.086.272.086.559 0 .86-.082.298-.252.59-.509.875-.353.392-.728.62-1.124.683a1.222 1.222 0 0 1-1.056-.321c-.298-.269-.443-.593-.433-.972.014-.383.234-.81.66-1.283l1.006-1.117-.214-.192c-.303-.273-.609-.396-.918-.367-.313.025-.616.2-.909.526a2.47 2.47 0 0 0-.465.744c-.113.27-.171.536-.175.8l-.547-.106c.009-.315.086-.633.231-.955a3.28 3.28 0 0 1 .584-.904zm3.052 3.053c.241-.268.388-.551.44-.852a1.499 1.499 0 0 0-.15-.91l-.575-.517-.994 1.103c-.542.602-.603 1.091-.184 1.469a.786.786 0 0 0 .699.206c.256-.052.511-.218.764-.5zM34.317 99.023v3.51l1.683.756v.693l-6.3-2.88v-.657l6.3-2.88v.702l-1.683.756zm-.54.243-3.384 1.512 3.384 1.512v-3.024zm-4.455-2.608v-.64H36v.64h-6.678zm6.39-4.928c.108.12.192.27.252.45.054.174.081.357.081.55 0 .443-.12.785-.36 1.025-.24.24-.579.36-1.017.36h-2.862v.846h-.54v-.846h-1.035v-.639h1.035v-1.44h.54v1.44h2.826c.282 0 .498-.069.648-.207.144-.144.216-.348.216-.612 0-.132-.021-.258-.063-.378a.944.944 0 0 0-.18-.324l.459-.225zm.333-2.931c0 .456-.102.867-.306 1.233-.21.366-.498.654-.864.864a2.45 2.45 0 0 1-1.242.315 2.45 2.45 0 0 1-1.242-.315 2.232 2.232 0 0 1-.855-.864 2.489 2.489 0 0 1-.306-1.233c0-.456.102-.867.306-1.233a2.17 2.17 0 0 1 .855-.855 2.45 2.45 0 0 1 1.242-.315c.462 0 .876.105 1.242.315.366.204.654.489.864.855.204.366.306.777.306 1.233zm-.567 0a1.79 1.79 0 0 0-.225-.9 1.621 1.621 0 0 0-.657-.63 2.019 2.019 0 0 0-.963-.225c-.36 0-.681.075-.963.225-.282.15-.498.36-.648.63a1.735 1.735 0 0 0-.234.9c0 .336.078.639.234.909.15.264.366.474.648.63.282.15.603.225.963.225s.681-.075.963-.225c.282-.156.501-.366.657-.63.15-.27.225-.573.225-.909z" fill="#868F9D"/><defs><filter id="c" x="95.612" y="66.372" width="19.726" height="30.218" filterUnits="userSpaceOnUse" color-interpolation-filters="sRGB"><feFlood flood-opacity="0" result="BackgroundImageFix"/><feBlend in="SourceGraphic" in2="BackgroundImageFix" result="shape"/><feColorMatrix in="SourceAlpha" values="0 0 0 0 0 0 0 0 0 0 0 0 0 0 0 0 0 0 127 0" result="hardAlpha"/><feOffset dy="4"/><feGaussianBlur stdDeviation="2"/><feComposite in2="hardAlpha" operator="arithmetic" k2="-1" k3="1"/><feColorMatrix values="0 0 0 0 0 0 0 0 0 0 0 0 0 0 0 0 0 0 0.25 0"/><feBlend in2="shape" result="effect1_innerShadow_106_9"/></filter><filter id="d" x="172.926" y="3.926" width="82.742" height="73.64" filterUnits="userSpaceOnUse" color-interpolation-filters="sRGB"><feFlood flood-opacity="0" result="BackgroundImageFix"/><feBlend in="SourceGraphic" in2="BackgroundImageFix" result="shape"/><feColorMatrix in="SourceAlpha" values="0 0 0 0 0 0 0 0 0 0 0 0 0 0 0 0 0 0 127 0" result="hardAlpha"/><feOffset dy="4"/><feGaussianBlur stdDeviation="2"/><feComposite in2="hardAlpha" operator="arithmetic" k2="-1" k3="1"/><feColorMatrix values="0 0 0 0 0 0 0 0 0 0 0 0 0 0 0 0 0 0 0.25 0"/><feBlend in2="shape" result="effect1_innerShadow_106_9"/></filter><linearGradient id="a" x1="69.109" y1="84.375" x2="153.218" y2="110.56" gradientUnits="userSpaceOnUse"><stop stop-color="#BF9393"/><stop offset="1" stop-color="#323841"/></linearGradient></defs></svg>