<svg width="73" height="65" fill="none" xmlns="http://www.w3.org/2000/svg"><path d="M21.554 15.614c-1.143.166-2.055-.989-1.628-2.062.427-1.072 1.884-1.285 2.6-.379.715.907.17 2.274-.972 2.44z" fill="#4B4B4B" stroke="#000"/><rect x="42.752" y="47.522" width="8.541" height="10.585" rx="4.27" fill="#4B4B4B" stroke="#000"/><rect x="17.537" y="47.522" width="8.541" height="10.585" rx="4.27" fill="#4B4B4B" stroke="#000"/><mask id="b" fill="#fff"><path fill-rule="evenodd" clip-rule="evenodd" d="M8.92 45.73a8.111 8.111 0 0 1-3.689-15.656c1.757-8.93 9.63-15.667 19.074-15.667H53.56c10.736 0 19.44 8.704 19.44 19.44 0 7.835-4.636 14.588-11.315 17.664.02.2.031.402.031.607V58.2A5.859 5.859 0 0 1 50 58.2v-4.914H33.943V58.2a5.859 5.859 0 0 1-11.718 0v-5.024A19.416 19.416 0 0 1 8.921 45.73z"/></mask><path fill-rule="evenodd" clip-rule="evenodd" d="M8.92 45.73a8.111 8.111 0 0 1-3.689-15.656c1.757-8.93 9.63-15.667 19.074-15.667H53.56c10.736 0 19.44 8.704 19.44 19.44 0 7.835-4.636 14.588-11.315 17.664.02.2.031.402.031.607V58.2A5.859 5.859 0 0 1 50 58.2v-4.914H33.943V58.2a5.859 5.859 0 0 1-11.718 0v-5.024A19.416 19.416 0 0 1 8.921 45.73z" fill="url(#a)"/><path d="m8.92 45.73.792-.611-.34-.438-.55.054.099.995zM5.233 30.075l.355.935.52-.197.106-.545-.981-.193zm56.453 21.437-.418-.908-.65.3.073.71.995-.102zM50 53.286h1v-1h-1v1zm-16.056 0v-1h-1v1h1zm-11.718-.11h1v-.9l-.894-.095-.106.995zm-13.403-8.44c-.233.023-.47.034-.71.034v2c.305 0 .608-.015.907-.044l-.197-1.99zm-.71.034A7.111 7.111 0 0 1 1 37.66h-2a9.111 9.111 0 0 0 9.111 9.11v-2zM1 37.66a7.114 7.114 0 0 1 4.587-6.651l-.71-1.87A9.114 9.114 0 0 0-1 37.66h2zm5.213-7.393c1.666-8.47 9.134-14.86 18.092-14.86v-2c-9.932 0-18.207 7.084-20.054 16.474l1.962.386zm18.092-14.86H53.56v-2H24.305v2zm29.255 0c10.184 0 18.44 8.256 18.44 18.44h2c0-11.289-9.151-20.44-20.44-20.44v2zM72 33.847c0 7.43-4.396 13.837-10.733 16.756l.836 1.817C69.123 49.186 74 42.087 74 33.846h-2zM60.69 51.614c.017.165.026.334.026.504h2c0-.239-.012-.476-.036-.709l-1.99.205zm.026.504V58.2h2v-6.082h-2zm0 6.082a4.859 4.859 0 0 1-4.858 4.86v2a6.859 6.859 0 0 0 6.858-6.86h-2zm-4.858 4.86a4.859 4.859 0 0 1-4.86-4.86h-2a6.859 6.859 0 0 0 6.86 6.86v-2zm-4.86-4.86v-4.914h-2V58.2h2zm-1-5.914H33.944v2h16.056v-2zm-17.055 1V58.2h2v-4.914h-2zm0 4.914a4.859 4.859 0 0 1-4.86 4.86v2a6.859 6.859 0 0 0 6.86-6.86h-2zm-4.86 4.86a4.859 4.859 0 0 1-4.858-4.86h-2a6.859 6.859 0 0 0 6.859 6.86v-2zm-4.858-4.86v-5.024h-2V58.2h2zm-.894-6.019a18.416 18.416 0 0 1-12.62-7.062L8.13 46.342a20.416 20.416 0 0 0 13.99 7.828l.211-1.989z" fill="#000" mask="url(#b)"/><g filter="url(#c)"><rect x="30.387" y="14.627" width="19.619" height="7.036" rx="3.518" transform="rotate(59.396 30.387 14.627)" fill="#C4C4C4"/></g><rect x="30.211" y="15.312" width="18.619" height="6.036" rx="3.018" transform="rotate(59.396 30.21 15.312)" stroke="#000"/><circle cx="28.281" cy="20.104" r="1.022" fill="#171515"/><ellipse cx="31.689" cy="21.807" rx="1.022" ry=".681" fill="#171515"/><circle cx="33.051" cy="26.237" r="1.704" fill="#171515"/><circle cx="20.785" cy="28.963" r="1.704" fill="#171515"/><circle cx="36.459" cy="31.007" r="1.022" fill="#171515"/><circle cx="11.245" cy="24.192" r="1.022" fill="#171515"/><path d="M48.57 52.474H38.163s4.46-8.18 4.956-18.572c.496-10.39-4.956-18.91-4.956-18.91H48.57s5.947 6.475 5.947 19.248c0 7.295-5.947 18.234-5.947 18.234z" fill="#43D882" stroke="#000"/><path fill-rule="evenodd" clip-rule="evenodd" d="M47.602 12.155c-.57.142-1.153.295-1.75.458l3.164.708c12.69 10.192 18.833 7.682 20.671 4.626l.127.028c.005-.089.009-.18.01-.271.061-.117.116-.234.166-.351l-.176-.042c-.243-3.915-4.865-9.417-21.99-5.21l-.398-.095.176.15z" fill="#43D882"/><path d="m45.852 12.613-.132-.482.022.97.11-.488zm1.75-.458.12.486.95-.237-.747-.63-.323.381zm1.414 1.166.313-.39-.09-.072-.114-.026-.109.488zm20.671 4.626.11-.488-.352-.079-.186.31.428.257zm.127.028-.11.488.57.128.038-.583-.498-.033zm.01-.271-.443-.232-.056.106-.001.12.5.006zm.166-.351.46.193.229-.544-.574-.136-.115.487zm-.176-.042-.5.031.024.37.36.086.116-.487zm-21.99-5.21-.115.486.118.027.117-.028-.12-.486zm-.398-.095.115-.487-.44.867.325-.38zm-1.442 1.09a76.762 76.762 0 0 1 1.739-.456l-.242-.97c-.573.143-1.16.296-1.761.46l.264.965zm3.141-.263-3.164-.708-.219.976 3.165.708.218-.976zm-.422.878c6.38 5.124 11.183 7.114 14.679 7.39 3.525.278 5.71-1.193 6.734-2.896l-.857-.516c-.814 1.353-2.62 2.666-5.798 2.415-3.208-.253-7.822-2.105-14.132-7.172l-.626.78zm21.22 3.777-.127-.029-.218.976.126.028.219-.976zm-.6.21a4.672 4.672 0 0 1-.008.245l.998.065c.006-.098.01-.198.01-.298l-1-.012zm.944.238c.068-.13.129-.26.183-.39l-.922-.387a4.1 4.1 0 0 1-.147.313l.886.464zm-.162-1.07-.176-.041-.23.973.175.041.23-.973zm-22.161-4.28c8.518-2.092 13.833-1.744 17.019-.462 3.154 1.27 4.243 3.46 4.352 5.218l.998-.062c-.134-2.157-1.478-4.675-4.977-6.084-3.467-1.395-9.024-1.695-17.63.419l.238.97zm-.004-.972-.4-.095-.23.973.4.095.23-.973zm-.838.772.177.151.646-.764-.176-.148-.648.761z" fill="#000"/><path fill-rule="evenodd" clip-rule="evenodd" d="M42.012 10.051c.354.39.712.794 1.076 1.215l-2.66-.852C26.347 13.432 22.992 8.377 23.06 4.847l-.106-.034c.037-.08.076-.161.118-.242.01-.131.024-.26.042-.385l.149.045c2-3.314 7.962-5.98 18.611 5.668l.338.103-.2.049z" fill="#43D882"/><path d="m43.088 11.266.378-.327 1.163 1.346-1.694-.543.153-.476zm-1.076-1.215-.37.336-.566-.623.818-.199.118.486zm-1.583.363-.105-.49.13-.027.127.04-.152.477zm-17.37-5.567.153-.476.355.113-.007.373-.5-.01zm-.105-.034-.153.476-.538-.172.237-.514.454.21zm.118-.242.499.035-.007.103-.048.092-.444-.23zm.042-.385-.495-.072.084-.576.556.17-.145.478zm.149.045.428.259-.202.333-.372-.113.146-.479zM41.874 9.9l-.146.479-.13-.04-.093-.101.37-.338zm.338.103.145-.478 1.737.529-1.762.434-.12-.485zm.498 1.59a64.79 64.79 0 0 0-1.068-1.205l.74-.672c.357.392.718.8 1.084 1.224l-.756.654zM40.58 9.939l2.66.852-.306.952-2.659-.852.305-.952zm-.048.965c-7.087 1.519-11.583 1.032-14.324-.372-2.775-1.423-3.687-3.755-3.65-5.694l1 .02c-.03 1.59.701 3.551 3.106 4.784 2.44 1.25 6.664 1.783 13.659.284l.21.978zM23.106 4.337l.106.034-.305.952-.106-.034.306-.952zm.41.464a5.314 5.314 0 0 0-.108.221l-.908-.419c.04-.087.083-.175.128-.262l.888.46zm-.942-.265c.01-.144.025-.285.045-.422l.99.144c-.017.113-.03.23-.038.348l-.998-.07zm.685-.828.15.045-.292.957-.149-.046.291-.956zm18.246 6.529C36.21 4.446 32.16 2.305 29.265 1.95c-2.85-.348-4.661 1.026-5.574 2.539l-.856-.517C23.922 2.17 26.092.556 29.385.958c3.248.397 7.503 2.747 12.858 8.604l-.738.675zm.515-.816.337.103-.29.956-.339-.102.292-.957zm.312 1.067-.201.049-.237-.972.198-.048.24.97z" fill="#000"/><circle cx="44.297" cy="12.267" r="4.952" fill="#43D882" stroke="#000"/><circle cx="48.044" cy="26.237" r="3.748" fill="#fff"/><circle cx="48.044" cy="26.237" r="3.248" stroke="#000" stroke-opacity=".87"/><circle cx="48.726" cy="37.141" r="3.748" fill="#fff"/><circle cx="48.726" cy="37.141" r="3.248" stroke="#000" stroke-opacity=".87"/><circle cx="46" cy="47.363" r="3.748" fill="#fff"/><circle cx="46" cy="47.363" r="3.248" stroke="#000" stroke-opacity=".87"/><defs><linearGradient id="a" x1="7.57" y1="28.196" x2="64.888" y2="46.041" gradientUnits="userSpaceOnUse"><stop stop-color="#BF9393"/><stop offset="1" stop-color="#323841"/></linearGradient><filter id="c" x="25.631" y="15.928" width="13.443" height="21.867" filterUnits="userSpaceOnUse" color-interpolation-filters="sRGB"><feFlood flood-opacity="0" result="BackgroundImageFix"/><feBlend in="SourceGraphic" in2="BackgroundImageFix" result="shape"/><feColorMatrix in="SourceAlpha" values="0 0 0 0 0 0 0 0 0 0 0 0 0 0 0 0 0 0 127 0" result="hardAlpha"/><feOffset dy="4"/><feGaussianBlur stdDeviation="2"/><feComposite in2="hardAlpha" operator="arithmetic" k2="-1" k3="1"/><feColorMatrix values="0 0 0 0 0 0 0 0 0 0 0 0 0 0 0 0 0 0 0.25 0"/><feBlend in2="shape" result="effect1_innerShadow_696_22"/></filter></defs></svg>