<svg width="88" height="64" fill="none" xmlns="http://www.w3.org/2000/svg"><path d="M6.675 5.35c.224-1.146 1.765-1.37 2.307-.337a1.236 1.236 0 1 1-2.307.337z" fill="#4B4B4B" stroke="#000"/><mask id="b" fill="#fff"><path d="M0 18.306C0 10.774 6.106 4.668 13.638 4.668h5.056c7.532 0 13.638 6.106 13.638 13.638s-6.106 13.639-13.638 13.639h-5.056C6.106 31.945 0 25.838 0 18.306z"/></mask><path d="M0 18.306C0 10.774 6.106 4.668 13.638 4.668h5.056c7.532 0 13.638 6.106 13.638 13.638s-6.106 13.639-13.638 13.639h-5.056C6.106 31.945 0 25.838 0 18.306z" fill="url(#a)"/><path d="M13.638 5.668h5.056v-2h-5.056v2zm5.056 25.276h-5.056v2h5.056v-2zm-5.056 0C6.658 30.945 1 25.287 1 18.306h-2c0 8.085 6.554 14.638 14.638 14.638v-2zm17.694-12.638c0 6.98-5.658 12.639-12.638 12.639v2c8.085 0 14.638-6.554 14.638-14.639h-2zM18.694 5.668c6.98 0 12.638 5.658 12.638 12.638h2c0-8.085-6.553-14.638-14.638-14.638v2zm-5.056-2C5.554 3.668-1 10.22-1 18.306h2c0-6.98 5.658-12.638 12.638-12.638v-2z" fill="#000" mask="url(#b)"/><path d="M28.26 6.034c1.314-.244 2.268 1.223 1.51 2.325l-1.166 1.695a1.5 1.5 0 0 1-2.494-.033l-.857-1.32a1.5 1.5 0 0 1 .984-2.291l2.023-.376z" fill="#B6ACAC" stroke="#000"/><ellipse cx="10.185" cy="14.866" rx=".632" ry=".661" transform="rotate(24.984 10.185 14.866)" fill="#171515"/><circle cx="20.767" cy="16.434" r="1.434" fill="#171515"/><g filter="url(#c)"><rect x="20.258" y="3.681" width="13.764" height="4.936" rx="2.468" transform="rotate(36.906 20.258 3.68)" fill="#C4C4C4"/></g><rect x="20.358" y="4.381" width="12.764" height="3.936" rx="1.968" transform="rotate(36.906 20.358 4.38)" stroke="#000"/><circle cx="20.363" cy="7.796" r=".717" transform="rotate(-22.49 20.363 7.796)" fill="#171515"/><ellipse cx="23.029" cy="7.986" rx=".717" ry=".478" transform="rotate(-22.49 23.029 7.986)" fill="#171515"/><circle cx="25.101" cy="10.491" r="1.195" transform="rotate(-22.49 25.101 10.491)" fill="#171515"/><circle cx="28.59" cy="12.669" r=".717" transform="rotate(-22.49 28.59 12.67)" fill="#171515"/><circle cx="15.023" cy="23.691" r="5.191" fill="url(#d)" stroke="#000"/><circle cx="12.767" cy="23.434" r="1.434" fill="#171515"/><ellipse cx="17.185" cy="23.866" rx=".632" ry=".661" transform="rotate(24.984 17.185 23.866)" fill="#171515"/><g clip-path="url(#e)"><path d="m34 53 13.435-9.742L34 53zm22.829-4.608a14.571 14.571 0 0 1-5.172-1.73 14.06 14.06 0 0 1-4.11-3.485 13.35 13.35 0 0 1-2.422-4.709 12.856 12.856 0 0 1-.366-5.214c.236-1.74.83-3.415 1.745-4.928a13.352 13.352 0 0 1 3.592-3.89 14.059 14.059 0 0 1 4.891-2.261 14.571 14.571 0 0 1 5.446-.287c3.679.5 7.018 2.377 9.281 5.215 2.264 2.84 3.267 6.409 2.789 9.923-.478 3.515-2.398 6.687-5.338 8.818-2.939 2.132-6.657 3.048-10.336 2.548z" stroke="#D5D5D5" stroke-width="2" stroke-linecap="round" stroke-linejoin="round"/><g opacity=".37" fill="#6FB5D2"><ellipse cx="54.428" cy="32.698" rx="5.395" ry="5.242" transform="rotate(26.35 54.428 32.698)"/><ellipse cx="63.533" cy="37.208" rx="5.395" ry="5.242" transform="rotate(26.35 63.533 37.208)"/><ellipse cx="52.564" cy="39.144" rx="3.854" ry="3.745" transform="rotate(26.35 52.564 39.144)"/><ellipse cx="59.22" cy="42.441" rx="3.854" ry="3.745" transform="rotate(26.35 59.22 42.441)"/><path d="m56.182 33.262 5.086 2.52-2.81 5.674-5.086-2.52z"/></g><g opacity=".55" fill="#6FB5D2"><ellipse cx="55.008" cy="33.651" rx="4.495" ry="4.28" transform="rotate(26.35 55.008 33.651)"/><ellipse cx="62.593" cy="37.408" rx="4.495" ry="4.28" transform="rotate(26.35 62.593 37.408)"/><ellipse cx="53.504" cy="38.924" rx="3.211" ry="3.057" transform="rotate(26.35 53.504 38.924)"/><ellipse cx="59.048" cy="41.67" rx="3.211" ry="3.057" transform="rotate(26.35 59.048 41.67)"/><path d="m56.467 34.126 4.237 2.099-2.295 4.633-4.237-2.099z"/></g><ellipse cx="55.702" cy="34.374" rx="3.594" ry="3.373" transform="rotate(26.35 55.702 34.374)" fill="#7FDEE4"/><ellipse cx="61.767" cy="37.378" rx="3.594" ry="3.373" transform="rotate(26.35 61.767 37.378)" fill="#7FDEE4"/><ellipse cx="54.527" cy="38.533" rx="2.567" ry="2.409" transform="rotate(26.35 54.527 38.533)" fill="#7FDEE4"/><ellipse cx="58.961" cy="40.729" rx="2.567" ry="2.409" transform="rotate(26.35 58.96 40.73)" fill="#7FDEE4"/><path fill="#7FDEE4" d="m56.867 34.755 3.388 1.678-1.808 3.65-3.388-1.678zM62.782 31.27c.487-.132.88-.341 1.18-.627.306-.284.536-.58.69-.89.173-.35.25-.688.233-1.014-.01-.33-.054-.63-.133-.904a.607.607 0 0 1 .061-.415 1.13 1.13 0 0 1 .355-.404c.166-.125.35-.224.551-.296a2.02 2.02 0 0 1 .643-.107c.221 0 .429.047.623.143.216.107.36.269.433.484.076.21.107.44.094.688-.013.25-.058.5-.134.752a4.066 4.066 0 0 1-.243.636 3.31 3.31 0 0 1-.734.982 4.51 4.51 0 0 1-1.027.713 5.411 5.411 0 0 1-1.197.452 7.443 7.443 0 0 1-1.29.221l-.105-.415zM59.476 29.614c-.19-.467-.262-.906-.217-1.319.04-.415.137-.777.29-1.088.174-.349.395-.615.666-.799.267-.192.534-.34.799-.443a.606.606 0 0 0 .293-.3c.074-.149.11-.325.106-.527 0-.207-.033-.413-.098-.618a2.02 2.02 0 0 0-.305-.575 1.372 1.372 0 0 0-.49-.409.818.818 0 0 0-.648-.052 1.748 1.748 0 0 0-.605.343c-.19.161-.362.348-.516.562-.152.208-.271.4-.359.578-.187.377-.299.77-.336 1.18-.04.415-.022.83.055 1.248.07.415.192.824.365 1.227.17.409.372.795.606 1.16l.394-.168z"/><circle cx="35.691" cy="50.691" r="5.191" transform="rotate(-130.429 35.69 50.69)" fill="url(#f)" stroke="#000"/><path transform="matrix(-.96947 -.24521 .31141 -.95028 38.41 54.862)" stroke="#000" stroke-linecap="round" d="M.5-.5h2.517"/><path transform="matrix(-.96947 -.24521 .31141 -.95028 40.41 52.862)" stroke="#000" stroke-linecap="round" d="M.5-.5h2.517"/><path transform="matrix(-.96947 -.24521 .31141 -.95028 41.41 50.862)" stroke="#000" stroke-linecap="round" d="M.5-.5h2.517"/></g><defs><linearGradient id="a" x1="1.897" y1="11.621" x2="39.041" y2="27.709" gradientUnits="userSpaceOnUse"><stop stop-color="#BF9393"/><stop offset="1" stop-color="#323841"/></linearGradient><linearGradient id="d" x1="15.023" y1="18" x2="15.023" y2="29.381" gradientUnits="userSpaceOnUse"><stop stop-color="#8B7174"/><stop offset="1" stop-color="#443C3D" stop-opacity=".7"/></linearGradient><linearGradient id="f" x1="35.691" y1="45" x2="35.691" y2="56.382" gradientUnits="userSpaceOnUse"><stop stop-color="#8B7174"/><stop offset="1" stop-color="#443C3D"/></linearGradient><clipPath id="e"><path fill="#fff" transform="rotate(97.744 38.703 43.553)" d="M0 0h52.48v52.48H0z"/></clipPath><filter id="c" x="18.281" y="4.668" width="11.996" height="14.238" filterUnits="userSpaceOnUse" color-interpolation-filters="sRGB"><feFlood flood-opacity="0" result="BackgroundImageFix"/><feBlend in="SourceGraphic" in2="BackgroundImageFix" result="shape"/><feColorMatrix in="SourceAlpha" values="0 0 0 0 0 0 0 0 0 0 0 0 0 0 0 0 0 0 127 0" result="hardAlpha"/><feOffset dy="4"/><feGaussianBlur stdDeviation="2"/><feComposite in2="hardAlpha" operator="arithmetic" k2="-1" k3="1"/><feColorMatrix values="0 0 0 0 0 0 0 0 0 0 0 0 0 0 0 0 0 0 0.25 0"/><feBlend in2="shape" result="effect1_innerShadow_209_4969"/></filter></defs></svg>