<svg width="30" height="25" fill="none" xmlns="http://www.w3.org/2000/svg"><path d="M9.435 25c11.321 0 17.512-9.617 17.512-17.957 0-.273-.005-.545-.017-.816 1.204-.894 2.244-2 3.07-3.268-1.103.503-2.29.841-3.535.994A6.31 6.31 0 0 0 29.172.462a12.16 12.16 0 0 1-3.908 1.532A6.078 6.078 0 0 0 20.77 0c-3.4 0-6.156 2.826-6.156 6.31 0 .496.054.977.16 1.44C9.66 7.484 5.123 4.973 2.088 1.154a6.417 6.417 0 0 0-.834 3.172 6.35 6.35 0 0 0 2.74 5.254 5.994 5.994 0 0 1-2.788-.79l-.001.081c0 3.057 2.121 5.609 4.938 6.187a6.017 6.017 0 0 1-2.78.108c.784 2.508 3.056 4.333 5.75 4.384A12.155 12.155 0 0 1 0 22.165 17.11 17.11 0 0 0 9.435 25" fill="#7FDEE4"/></svg>