<svg width="107" height="83" viewBox="0 0 107 83" fill="none" xmlns="http://www.w3.org/2000/svg">
<rect x="75.8362" width="29.062" height="56" rx="3" transform="rotate(1.69379 75.8362 0)" fill="#1D2226"/>
<rect x="75.9185" y="0.542358" width="30.7078" height="56" rx="5" transform="rotate(1.69379 75.9185 0.542358)" fill="#1D2226" fill-opacity="0.56"/>
<g opacity="0.37">
<ellipse cx="83.703" cy="27.86" rx="5.39541" ry="5.24231" transform="rotate(-0.650457 83.703 27.86)" fill="#6FB5D2"/>
<ellipse cx="93.8626" cy="27.7446" rx="5.39544" ry="5.24232" transform="rotate(-0.650457 93.8626 27.7446)" fill="#6FB5D2"/>
<ellipse cx="84.9691" cy="34.45" rx="3.85387" ry="3.74451" transform="rotate(-0.650457 84.9691 34.45)" fill="#6FB5D2"/>
<ellipse cx="92.3961" cy="34.3657" rx="3.85389" ry="3.74451" transform="rotate(-0.650457 92.3961 34.3657)" fill="#6FB5D2"/>
<rect x="85.5217" y="27.567" width="5.67573" height="6.33162" transform="rotate(-0.650457 85.5217 27.567)" fill="#6FB5D2"/>
</g>
<g opacity="0.55">
<ellipse cx="84.6523" cy="28.4464" rx="4.49486" ry="4.28047" transform="rotate(-0.650457 84.6523 28.4464)" fill="#6FB5D2"/>
<ellipse cx="93.1161" cy="28.3503" rx="4.49485" ry="4.28047" transform="rotate(-0.650457 93.1161 28.3503)" fill="#6FB5D2"/>
<ellipse cx="85.7058" cy="33.8271" rx="3.21059" ry="3.05748" transform="rotate(-0.650457 85.7058 33.8271)" fill="#6FB5D2"/>
<ellipse cx="91.8931" cy="33.7568" rx="3.2106" ry="3.05748" transform="rotate(-0.650457 91.8931 33.7568)" fill="#6FB5D2"/>
<rect x="86.1674" y="28.2067" width="4.72832" height="5.16991" transform="rotate(-0.650457 86.1674 28.2067)" fill="#6FB5D2"/>
</g>
<ellipse cx="85.5985" cy="28.7751" rx="3.59425" ry="3.37262" transform="rotate(-0.650457 85.5985 28.7751)" fill="#7FDEE4"/>
<ellipse cx="92.3665" cy="28.6983" rx="3.59425" ry="3.37262" transform="rotate(-0.650457 92.3665 28.6983)" fill="#7FDEE4"/>
<ellipse cx="86.4403" cy="33.0145" rx="2.56732" ry="2.40901" transform="rotate(-0.650457 86.4403 33.0145)" fill="#7FDEE4"/>
<ellipse cx="91.3879" cy="32.9583" rx="2.56732" ry="2.40901" transform="rotate(-0.650457 91.3879 32.9583)" fill="#7FDEE4"/>
<rect x="86.8101" y="28.5862" width="3.781" height="4.07343" transform="rotate(-0.650457 86.8101 28.5862)" fill="#7FDEE4"/>
<path d="M90.498 22.7945C90.8715 22.4563 91.1271 22.0915 91.265 21.7003C91.409 21.309 91.479 20.9402 91.4751 20.5938C91.4706 20.2042 91.3864 19.8681 91.2224 19.5854C91.0645 19.2965 90.8885 19.048 90.6944 18.8399C90.6066 18.7357 90.5618 18.6033 90.56 18.4425C90.5581 18.2755 90.6025 18.1018 90.6932 17.9214C90.7839 17.7348 90.9025 17.5634 91.0492 17.4071C91.2021 17.2507 91.3769 17.1219 91.5737 17.0207C91.7705 16.9195 91.9771 16.8677 92.1935 16.8652C92.4347 16.8625 92.6366 16.9406 92.7993 17.0996C92.9618 17.2524 93.0939 17.4426 93.1954 17.6703C93.297 17.898 93.3709 18.1415 93.4171 18.4008C93.4633 18.6538 93.4875 18.8793 93.4897 19.0772C93.4945 19.4978 93.4248 19.9006 93.2808 20.2857C93.1368 20.677 92.9399 21.0442 92.6902 21.3872C92.4467 21.7302 92.1596 22.0458 91.8288 22.3341C91.4982 22.6285 91.1486 22.8892 90.78 23.1161L90.498 22.7945Z" fill="#7FDEE4"/>
<path d="M86.8003 22.8207C86.4193 22.491 86.1554 22.1322 86.0088 21.7442C85.8559 21.3562 85.7775 20.9891 85.7736 20.6428C85.7692 20.2531 85.8457 19.9152 86.0033 19.6289C86.1546 19.3364 86.3249 19.084 86.5143 18.8715C86.5996 18.7654 86.6414 18.632 86.6396 18.4712C86.6377 18.3042 86.5894 18.1316 86.4946 17.9533C86.3997 17.7688 86.2772 17.6001 86.127 17.4471C85.9706 17.2943 85.7929 17.1695 85.5939 17.0728C85.3949 16.9761 85.1871 16.929 84.9707 16.9314C84.7295 16.9342 84.5294 17.0168 84.3704 17.1795C84.2114 17.3359 84.0837 17.5291 83.9873 17.759C83.891 17.989 83.8226 18.2341 83.7823 18.4943C83.7418 18.7484 83.7228 18.9744 83.725 19.1723C83.7298 19.5928 83.8086 19.994 83.9613 20.3757C84.1142 20.7637 84.3193 21.1263 84.5768 21.4635C84.828 21.8009 85.1222 22.1099 85.4594 22.3906C85.7967 22.6775 86.1521 22.9301 86.5257 23.1485L86.8003 22.8207Z" fill="#7FDEE4"/>
<g filter="url(#filter0_i_209_5061)">
<rect x="74.4464" y="51.448" width="47.9311" height="9.27295" rx="4.63647" transform="rotate(156.249 74.4464 51.448)" fill="#635656"/>
</g>
<rect x="73.7873" y="51.1917" width="46.9311" height="8.27295" rx="4.13647" transform="rotate(156.249 73.7873 51.1917)" stroke="black"/>
<path d="M71.0564 45.5176C76.8382 47.0311 80.0359 35.7595 88.1582 40.604C88.1582 40.604 85.5473 42.6388 84.9893 44.9639C84.4313 47.289 81.9758 49.1174 80.1752 49.3874C78.3747 49.6575 72.7032 48.667 72.7032 48.667L71.0564 45.5176Z" fill="#E4F1EA" stroke="black"/>
<path fill-rule="evenodd" clip-rule="evenodd" d="M79.2748 49.3989C79.6322 49.4025 79.943 49.389 80.1843 49.3528C81.9848 49.0827 84.4404 47.2544 84.9984 44.9293C85.5563 42.6042 88.1673 40.5693 88.1673 40.5693C84.3805 38.3107 81.6641 39.5551 79.2573 41.3738C80.8342 41.325 82.6362 41.5313 84.7431 42.0961C84.7431 42.0961 81.5802 44.1878 81.4644 46.3319C81.4017 47.4926 80.4938 48.579 79.2748 49.3989Z" fill="#6FD299"/>
<path d="M80.1843 49.3528L80.1101 48.8583L80.1101 48.8583L80.1843 49.3528ZM79.2748 49.3989L78.9958 48.984L77.6601 49.8823L79.2697 49.8988L79.2748 49.3989ZM88.1673 40.5693L88.4746 40.9637L89.0512 40.5144L88.4234 40.1399L88.1673 40.5693ZM79.2573 41.3738L78.9558 40.9749L77.7022 41.9221L79.2727 41.8735L79.2573 41.3738ZM84.7431 42.0961L85.019 42.5132L85.9451 41.9007L84.8726 41.6132L84.7431 42.0961ZM81.4644 46.3319L80.9652 46.3049L81.4644 46.3319ZM80.1101 48.8583C79.9069 48.8888 79.6263 48.9024 79.28 48.8989L79.2697 49.8988C79.6382 49.9026 79.9791 49.8891 80.2585 49.8473L80.1101 48.8583ZM84.5122 44.8126C84.2642 45.8461 83.5843 46.799 82.7313 47.5326C81.8753 48.2687 80.8956 48.7405 80.1101 48.8583L80.2585 49.8473C81.2735 49.695 82.4218 49.1176 83.3833 48.2908C84.3477 47.4614 85.1746 46.3376 85.4846 45.046L84.5122 44.8126ZM88.1673 40.5693C87.8599 40.175 87.8598 40.175 87.8597 40.1751C87.8597 40.1752 87.8596 40.1753 87.8595 40.1753C87.8593 40.1755 87.859 40.1757 87.8588 40.1759C87.8582 40.1763 87.8575 40.1769 87.8566 40.1775C87.8549 40.1789 87.8526 40.1808 87.8496 40.1831C87.8437 40.1878 87.8353 40.1944 87.8247 40.203C87.8034 40.22 87.773 40.2447 87.7346 40.2766C87.6578 40.3404 87.5489 40.4331 87.417 40.5512C87.1536 40.7871 86.7967 41.1266 86.4211 41.5421C85.6809 42.361 84.8207 43.5269 84.5122 44.8126L85.4846 45.046C85.734 44.0065 86.4582 42.9924 87.163 42.2127C87.5099 41.8289 87.8406 41.5143 88.0842 41.296C88.2059 41.1871 88.3052 41.1026 88.3734 41.046C88.4075 41.0177 88.4337 40.9964 88.451 40.9826C88.4596 40.9756 88.466 40.9706 88.47 40.9674C88.472 40.9658 88.4734 40.9647 88.4742 40.9641C88.4745 40.9638 88.4748 40.9636 88.4749 40.9635C88.4749 40.9635 88.4749 40.9635 88.4749 40.9635C88.4749 40.9636 88.4748 40.9636 88.4748 40.9636C88.4747 40.9637 88.4746 40.9637 88.1673 40.5693ZM79.5587 41.7727C80.7402 40.88 81.9448 40.1706 83.2816 39.935C84.6001 39.7027 86.1053 39.9217 87.9112 40.9988L88.4234 40.1399C86.4425 38.9584 84.6961 38.6703 83.108 38.9502C81.5382 39.2268 80.1812 40.049 78.9558 40.9749L79.5587 41.7727ZM79.2727 41.8735C80.7935 41.8265 82.5464 42.0249 84.6137 42.579L84.8726 41.6132C82.726 41.0377 80.8749 40.8235 79.2418 40.874L79.2727 41.8735ZM84.7431 42.0961C84.4673 41.679 84.4672 41.6791 84.4671 41.6792C84.4671 41.6792 84.4669 41.6793 84.4668 41.6794C84.4666 41.6795 84.4663 41.6797 84.466 41.6799C84.4654 41.6803 84.4646 41.6809 84.4636 41.6816C84.4615 41.6829 84.4587 41.6848 84.4552 41.6871C84.4482 41.6919 84.4383 41.6986 84.4256 41.7072C84.4002 41.7246 84.3639 41.7497 84.3181 41.7821C84.2267 41.8468 84.0972 41.9409 83.9422 42.0602C83.6328 42.2983 83.2176 42.64 82.7968 43.0533C82.3775 43.4652 81.9426 43.958 81.6023 44.4994C81.2636 45.0381 81.0003 45.6539 80.9652 46.3049L81.9637 46.3589C81.9864 45.9379 82.1619 45.4881 82.4489 45.0316C82.7341 44.5779 83.1117 44.1457 83.4976 43.7667C83.882 43.389 84.2648 43.0738 84.5521 42.8527C84.6954 42.7424 84.8139 42.6563 84.8959 42.5983C84.9369 42.5693 84.9686 42.5473 84.9896 42.533C85.0001 42.5258 85.008 42.5205 85.0129 42.5172C85.0154 42.5155 85.0171 42.5144 85.0182 42.5137C85.0187 42.5133 85.019 42.5131 85.0191 42.513C85.0192 42.513 85.0192 42.513 85.0192 42.513C85.0192 42.513 85.0191 42.513 85.0191 42.5131C85.019 42.5131 85.019 42.5132 84.7431 42.0961ZM80.9652 46.3049C80.9153 47.2281 80.1709 48.1936 78.9958 48.984L79.5539 49.8137C80.8168 48.9644 81.8882 47.7571 81.9637 46.3589L80.9652 46.3049Z" fill="#6FD299"/>
<circle cx="78.2972" cy="46.1775" r="1.43438" transform="rotate(-165.331 78.2972 46.1775)" fill="#6FD299"/>
<rect x="-0.499281" y="0.500718" width="5.57815" height="6.98775" rx="2.78908" transform="matrix(-0.999999 0.0014372 0.0014372 0.999999 32.1956 56.1261)" fill="#4B4B4B" stroke="black"/>
<rect x="-0.189531" y="0.681233" width="5.57815" height="6.98775" rx="2.78908" transform="matrix(-0.870764 0.491702 0.491702 0.870764 45.8962 45.2634)" fill="#4B4B4B" stroke="black"/>
<path d="M37.93 26.0454C37.19 25.1796 35.7728 25.728 35.8082 26.8664C35.8341 27.6974 36.6733 28.2535 37.4486 27.9535C38.2239 27.6535 38.4702 26.6774 37.93 26.0454Z" fill="#4B4B4B" stroke="black"/>
<mask id="path-29-inside-1_209_5061" fill="white">
<path fill-rule="evenodd" clip-rule="evenodd" d="M51.0205 41.5552C51.1894 41.4808 51.3562 41.3973 51.5203 41.3046C54.2098 39.7859 55.1589 36.3745 53.6402 33.685C52.4652 31.6042 50.1572 30.5651 47.9271 30.9048C43.8451 26.1388 36.8354 24.7632 31.1648 27.9653L13.6007 37.8834C7.15511 41.5231 4.88048 49.6988 8.52017 56.1444C11.298 61.0637 16.7181 63.5535 21.9947 62.8387L21.7254 64.5854C21.3854 66.7903 22.8972 68.8532 25.102 69.1932C27.3068 69.5332 29.3698 68.0214 29.7098 65.8166L30.3489 61.6718C30.4732 60.8655 30.3499 60.0782 30.0356 59.3872L38.5595 54.574L40.2257 57.5247C41.3227 59.4673 43.7867 60.1528 45.7293 59.0559C47.6718 57.959 48.3574 55.4949 47.2604 53.5524L45.5569 50.5355C48.6069 48.3579 50.5087 45.0748 51.0205 41.5552Z"/>
</mask>
<path fill-rule="evenodd" clip-rule="evenodd" d="M51.0205 41.5552C51.1894 41.4808 51.3562 41.3973 51.5203 41.3046C54.2098 39.7859 55.1589 36.3745 53.6402 33.685C52.4652 31.6042 50.1572 30.5651 47.9271 30.9048C43.8451 26.1388 36.8354 24.7632 31.1648 27.9653L13.6007 37.8834C7.15511 41.5231 4.88048 49.6988 8.52017 56.1444C11.298 61.0637 16.7181 63.5535 21.9947 62.8387L21.7254 64.5854C21.3854 66.7903 22.8972 68.8532 25.102 69.1932C27.3068 69.5332 29.3698 68.0214 29.7098 65.8166L30.3489 61.6718C30.4732 60.8655 30.3499 60.0782 30.0356 59.3872L38.5595 54.574L40.2257 57.5247C41.3227 59.4673 43.7867 60.1528 45.7293 59.0559C47.6718 57.959 48.3574 55.4949 47.2604 53.5524L45.5569 50.5355C48.6069 48.3579 50.5087 45.0748 51.0205 41.5552Z" fill="url(#paint0_linear_209_5061)"/>
<path d="M51.0205 41.5552L50.0309 41.4113L50.1105 40.8635L50.6171 40.6402L51.0205 41.5552ZM47.9271 30.9048L48.0777 31.8934L47.5288 31.977L47.1676 31.5553L47.9271 30.9048ZM21.9947 62.8387L21.8605 61.8478L23.187 61.6681L22.983 62.9911L21.9947 62.8387ZM21.7254 64.5854L22.7137 64.7378L21.7254 64.5854ZM25.102 69.1932L25.2544 68.2049L25.102 69.1932ZM29.7098 65.8166L28.7215 65.6642L29.7098 65.8166ZM30.3489 61.6718L31.3372 61.8242L31.3372 61.8242L30.3489 61.6718ZM30.0356 59.3872L29.1254 59.8012L28.746 58.967L29.5439 58.5164L30.0356 59.3872ZM38.5595 54.574L38.0678 53.7032L38.9385 53.2115L39.4302 54.0822L38.5595 54.574ZM45.5569 50.5355L44.6861 51.0272L44.244 50.2442L44.9758 49.7217L45.5569 50.5355ZM50.6171 40.6402C50.7559 40.579 50.8932 40.5103 51.0286 40.4338L52.012 42.1753C51.8191 42.2843 51.6228 42.3825 51.4238 42.4702L50.6171 40.6402ZM51.0286 40.4338C53.2372 39.1867 54.0166 36.3853 52.7694 34.1767L54.511 33.1933C56.3012 36.3637 55.1824 40.3851 52.012 42.1753L51.0286 40.4338ZM52.7694 34.1767C51.8053 32.4693 49.9107 31.6142 48.0777 31.8934L47.7765 29.9162C50.4036 29.5161 53.1251 30.739 54.511 33.1933L52.7694 34.1767ZM47.1676 31.5553C43.3905 27.1453 36.903 25.8735 31.6565 28.8361L30.6731 27.0946C36.7677 23.653 44.2997 25.1323 48.6866 30.2543L47.1676 31.5553ZM31.6565 28.8361L14.0924 38.7541L13.109 37.0126L30.6731 27.0946L31.6565 28.8361ZM14.0924 38.7541C8.12772 42.1223 6.0228 49.688 9.39093 55.6527L7.6494 56.6361C3.73815 49.7096 6.1825 40.9238 13.109 37.0126L14.0924 38.7541ZM9.39093 55.6527C11.9608 60.2036 16.9757 62.5095 21.8605 61.8478L22.1289 63.8297C16.4606 64.5976 10.6353 61.9239 7.6494 56.6361L9.39093 55.6527ZM22.983 62.9911L22.7137 64.7378L20.737 64.433L21.0064 62.6863L22.983 62.9911ZM22.7137 64.7378C22.4579 66.3968 23.5954 67.9491 25.2544 68.2049L24.9496 70.1815C22.1989 69.7574 20.3129 67.1837 20.737 64.433L22.7137 64.7378ZM25.2544 68.2049C26.9134 68.4607 28.4657 67.3232 28.7215 65.6642L30.6981 65.969C30.274 68.7197 27.7003 70.6057 24.9496 70.1815L25.2544 68.2049ZM28.7215 65.6642L29.3606 61.5194L31.3372 61.8242L30.6981 65.969L28.7215 65.6642ZM29.3606 61.5194C29.4544 60.9113 29.3615 60.3204 29.1254 59.8012L30.9459 58.9732C31.3383 59.836 31.4921 60.8198 31.3372 61.8242L29.3606 61.5194ZM29.5439 58.5164L38.0678 53.7032L39.0512 55.4447L30.5273 60.2579L29.5439 58.5164ZM39.4302 54.0822L41.0965 57.033L39.355 58.0164L37.6887 55.0657L39.4302 54.0822ZM41.0965 57.033C41.9219 58.4947 43.7759 59.0105 45.2376 58.1851L46.221 59.9267C43.7975 61.2952 40.7234 60.4399 39.355 58.0164L41.0965 57.033ZM45.2376 58.1851C46.6992 57.3598 47.2151 55.5057 46.3897 54.0441L48.1312 53.0607C49.4997 55.4842 48.6444 58.5582 46.221 59.9267L45.2376 58.1851ZM46.3897 54.0441L44.6861 51.0272L46.4277 50.0438L48.1312 53.0607L46.3897 54.0441ZM44.9758 49.7217C47.7962 47.708 49.5569 44.671 50.0309 41.4113L52.01 41.6991C51.4605 45.4786 49.4176 49.0079 46.138 51.3494L44.9758 49.7217Z" fill="black" mask="url(#path-29-inside-1_209_5061)"/>
<path d="M26.4209 34.2708C25.387 34.7851 25.2977 36.2257 26.2601 36.8638L26.6752 37.1391C27.6375 37.7772 28.9298 37.1343 29.0012 35.9818L29.0321 35.4847C29.1035 34.3322 27.9006 33.5346 26.8668 34.0489L26.4209 34.2708Z" fill="#B6ACAC" stroke="black"/>
<ellipse rx="0.621551" ry="0.649484" transform="matrix(-0.581605 0.813471 0.813471 0.581605 43.044 29.5138)" fill="#171515"/>
<circle r="1.4096" transform="matrix(-0.870764 0.491702 0.491702 0.870764 38.5861 36.6489)" fill="#171515"/>
<g filter="url(#filter1_i_209_5061)">
<rect width="13.5266" height="4.8512" rx="2.4256" transform="matrix(-0.0201011 0.999798 0.999798 0.0201011 27.5881 30.159)" fill="#C4C4C4"/>
</g>
<rect x="0.489848" y="0.509949" width="12.5266" height="3.8512" rx="1.9256" transform="matrix(-0.0201011 0.999798 0.999798 0.0201011 27.578 30.1689)" stroke="black"/>
<circle r="0.704802" transform="matrix(-0.870764 0.491702 0.491702 0.870764 30.709 32.733)" fill="#171515"/>
<ellipse rx="0.704802" ry="0.469868" transform="matrix(-0.870764 0.491702 0.491702 0.870764 29.2409 34.9111)" fill="#171515"/>
<circle r="1.17467" transform="matrix(-0.870764 0.491702 0.491702 0.870764 29.9243 38.0326)" fill="#171515"/>
<circle r="0.704802" transform="matrix(-0.870764 0.491702 0.491702 0.870764 29.4959 42.0518)" fill="#171515"/>
<circle cx="93.3907" cy="45.9548" r="2.39062" fill="#6FD299"/>
<circle cx="88.5001" cy="49.0641" r="1.5" fill="#6FD299"/>
<defs>
<filter id="filter0_i_209_5061" x="28.3135" y="44.4339" width="44.6594" height="28.8452" filterUnits="userSpaceOnUse" color-interpolation-filters="sRGB">
<feFlood flood-opacity="0" result="BackgroundImageFix"/>
<feBlend mode="normal" in="SourceGraphic" in2="BackgroundImageFix" result="shape"/>
<feColorMatrix in="SourceAlpha" type="matrix" values="0 0 0 0 0 0 0 0 0 0 0 0 0 0 0 0 0 0 127 0" result="hardAlpha"/>
<feOffset dy="4"/>
<feGaussianBlur stdDeviation="2"/>
<feComposite in2="hardAlpha" operator="arithmetic" k2="-1" k3="1"/>
<feColorMatrix type="matrix" values="0 0 0 0 0 0 0 0 0 0 0 0 0 0 0 0 0 0 0.25 0"/>
<feBlend mode="normal" in2="shape" result="effect1_innerShadow_209_5061"/>
</filter>
<filter id="filter1_i_209_5061" x="27.3645" y="30.2072" width="5.0256" height="17.5249" filterUnits="userSpaceOnUse" color-interpolation-filters="sRGB">
<feFlood flood-opacity="0" result="BackgroundImageFix"/>
<feBlend mode="normal" in="SourceGraphic" in2="BackgroundImageFix" result="shape"/>
<feColorMatrix in="SourceAlpha" type="matrix" values="0 0 0 0 0 0 0 0 0 0 0 0 0 0 0 0 0 0 127 0" result="hardAlpha"/>
<feOffset dy="4"/>
<feGaussianBlur stdDeviation="2"/>
<feComposite in2="hardAlpha" operator="arithmetic" k2="-1" k3="1"/>
<feColorMatrix type="matrix" values="0 0 0 0 0 0 0 0 0 0 0 0 0 0 0 0 0 0 0.25 0"/>
<feBlend mode="normal" in2="shape" result="effect1_innerShadow_209_5061"/>
</filter>
<linearGradient id="paint0_linear_209_5061" x1="45.887" y1="30.5702" x2="17.524" y2="60.7157" gradientUnits="userSpaceOnUse">
<stop stop-color="#BF9393"/>
<stop offset="1" stop-color="#323841"/>
</linearGradient>
</defs>
</svg>
