<svg width="107" height="83" fill="none" xmlns="http://www.w3.org/2000/svg"><rect x="75.836" width="29.062" height="56" rx="3" transform="rotate(1.694 75.836 0)" fill="#1D2226"/><rect x="75.918" y=".542" width="30.708" height="56" rx="5" transform="rotate(1.694 75.918 .542)" fill="#1D2226" fill-opacity=".56"/><g opacity=".37" fill="#6FB5D2"><ellipse cx="83.703" cy="27.86" rx="5.395" ry="5.242" transform="rotate(-.65 83.703 27.86)"/><ellipse cx="93.863" cy="27.745" rx="5.395" ry="5.242" transform="rotate(-.65 93.863 27.745)"/><ellipse cx="84.969" cy="34.45" rx="3.854" ry="3.745" transform="rotate(-.65 84.97 34.45)"/><ellipse cx="92.396" cy="34.366" rx="3.854" ry="3.745" transform="rotate(-.65 92.396 34.366)"/><path d="m85.522 27.567 5.676-.064.072 6.331-5.676.065z"/></g><g opacity=".55" fill="#6FB5D2"><ellipse cx="84.652" cy="28.446" rx="4.495" ry="4.28" transform="rotate(-.65 84.652 28.446)"/><ellipse cx="93.116" cy="28.35" rx="4.495" ry="4.28" transform="rotate(-.65 93.116 28.35)"/><ellipse cx="85.706" cy="33.827" rx="3.211" ry="3.057" transform="rotate(-.65 85.706 33.827)"/><ellipse cx="91.893" cy="33.757" rx="3.211" ry="3.057" transform="rotate(-.65 91.893 33.757)"/><path d="m86.167 28.207 4.728-.054.058 5.17-4.727.054z"/></g><ellipse cx="85.599" cy="28.775" rx="3.594" ry="3.373" transform="rotate(-.65 85.599 28.775)" fill="#7FDEE4"/><ellipse cx="92.367" cy="28.698" rx="3.594" ry="3.373" transform="rotate(-.65 92.367 28.698)" fill="#7FDEE4"/><ellipse cx="86.44" cy="33.014" rx="2.567" ry="2.409" transform="rotate(-.65 86.44 33.014)" fill="#7FDEE4"/><ellipse cx="91.388" cy="32.958" rx="2.567" ry="2.409" transform="rotate(-.65 91.388 32.958)" fill="#7FDEE4"/><path fill="#7FDEE4" d="m86.81 28.586 3.78-.043.047 4.073-3.78.043zM90.498 22.794c.373-.338.63-.703.767-1.094.144-.391.214-.76.21-1.106-.004-.39-.089-.726-.253-1.009a3.658 3.658 0 0 0-.528-.745.606.606 0 0 1-.134-.398 1.13 1.13 0 0 1 .133-.52c.09-.187.21-.359.356-.515a2.02 2.02 0 0 1 .525-.386c.197-.102.403-.153.62-.156a.819.819 0 0 1 .605.235c.163.152.295.343.396.57.102.228.176.471.222.73.046.254.07.48.073.677.005.42-.065.824-.21 1.209-.143.391-.34.758-.59 1.101-.243.343-.53.659-.861.947a7.44 7.44 0 0 1-1.049.782l-.282-.322zM86.8 22.82c-.38-.329-.645-.688-.791-1.076a3.105 3.105 0 0 1-.235-1.101c-.005-.39.072-.728.23-1.014.15-.293.32-.545.51-.758a.607.607 0 0 0 .126-.4 1.13 1.13 0 0 0-.145-.518 2.074 2.074 0 0 0-.368-.506 2.022 2.022 0 0 0-.533-.374 1.373 1.373 0 0 0-.623-.142.818.818 0 0 0-.6.248 1.75 1.75 0 0 0-.384.58c-.096.23-.164.475-.205.735-.04.254-.06.48-.057.678.005.42.084.822.236 1.204.153.388.358.75.616 1.087.251.338.545.647.882.928.338.287.693.54 1.067.758l.274-.328z"/><g filter="url(#a)"><rect x="74.446" y="51.448" width="47.931" height="9.273" rx="4.636" transform="rotate(156.249 74.446 51.448)" fill="#635656"/></g><rect x="73.787" y="51.192" width="46.931" height="8.273" rx="4.136" transform="rotate(156.249 73.787 51.192)" stroke="#000"/><path d="M71.056 45.518c5.782 1.513 8.98-9.758 17.102-4.914 0 0-2.61 2.035-3.169 4.36-.558 2.325-3.013 4.153-4.814 4.423-1.8.27-7.472-.72-7.472-.72l-1.647-3.15z" fill="#E4F1EA" stroke="#000"/><path fill-rule="evenodd" clip-rule="evenodd" d="M79.275 49.399c.357.004.668-.01.91-.046 1.8-.27 4.255-2.099 4.813-4.424.558-2.325 3.17-4.36 3.17-4.36-3.788-2.258-6.504-1.014-8.91.805 1.576-.049 3.378.157 5.485.722 0 0-3.163 2.092-3.279 4.236-.062 1.16-.97 2.247-2.19 3.067z" fill="#6FD299"/><path d="m80.184 49.353-.074-.495.074.495zm-.91.046-.278-.415-1.336.898 1.61.017.005-.5zm8.893-8.83.308.395.576-.45-.628-.374-.256.43zm-8.91.805-.301-.4-1.254.948 1.57-.048-.015-.5zm5.486.722.276.417.926-.612-1.072-.288-.13.483zm-3.279 4.236-.499-.027.5.027zm-1.354 2.526c-.203.03-.484.044-.83.04l-.01 1c.368.005.71-.009.989-.05l-.149-.99zm4.402-4.045c-.248 1.033-.928 1.986-1.78 2.72-.857.736-1.836 1.207-2.622 1.325l.148.99c1.016-.153 2.164-.73 3.125-1.557.965-.83 1.792-1.953 2.102-3.245l-.973-.233zm3.655-4.244a101.418 101.418 0 0 0-.308-.394l-.002.003c-.002 0-.004.003-.007.005l-.025.02a11.442 11.442 0 0 0-.408.348 13.5 13.5 0 0 0-.996.991c-.74.819-1.6 1.985-1.909 3.27l.973.234c.249-1.04.973-2.054 1.678-2.833a12.523 12.523 0 0 1 1.288-1.23l.019-.016a.201.201 0 0 1 .004-.003l-.307-.395zm-8.608 1.204c1.181-.893 2.386-1.602 3.723-1.838 1.318-.232 2.823-.013 4.63 1.064l.511-.86c-1.98-1.18-3.727-1.469-5.315-1.189-1.57.277-2.927 1.099-4.152 2.025l.603.798zm-.286.1c1.52-.046 3.273.152 5.34.706l.26-.966c-2.147-.575-3.998-.79-5.631-.739l.03 1zm5.47.223a87.648 87.648 0 0 0-.276-.417h-.001l-.002.003-.009.005-.03.02a11.797 11.797 0 0 0-.483.353c-.31.238-.724.58-1.145.993-.42.412-.854.905-1.195 1.446-.338.54-.602 1.155-.637 1.806l.999.054c.022-.421.198-.87.485-1.327a7.211 7.211 0 0 1 1.049-1.265 11.763 11.763 0 0 1 1.492-1.234l.023-.016a.205.205 0 0 1 .005-.003l.001-.001-.276-.417zm-3.778 4.209c-.05.923-.794 1.889-1.97 2.679l.559.83c1.263-.85 2.334-2.057 2.41-3.455l-.999-.054z" fill="#6FD299"/><circle cx="78.297" cy="46.178" r="1.434" transform="rotate(-165.331 78.297 46.178)" fill="#6FD299"/><rect x="-.499" y=".501" width="5.578" height="6.988" rx="2.789" transform="matrix(-1 .00144 .00144 1 32.196 56.126)" fill="#4B4B4B" stroke="#000"/><rect x="-.19" y=".681" width="5.578" height="6.988" rx="2.789" transform="scale(-1 1) rotate(29.452 -109.054 -64.678)" fill="#4B4B4B" stroke="#000"/><path d="M37.93 26.045c-.74-.865-2.157-.317-2.122.821a1.206 1.206 0 1 0 2.122-.82z" fill="#4B4B4B" stroke="#000"/><mask id="c" fill="#fff"><path fill-rule="evenodd" clip-rule="evenodd" d="M51.02 41.555a5.592 5.592 0 0 0-3.093-10.65c-4.082-4.766-11.092-6.142-16.762-2.94L13.6 37.883C7.155 41.523 4.88 49.7 8.52 56.144c2.777 4.92 8.197 7.41 13.474 6.695l-.27 1.746a4.04 4.04 0 1 0 7.985 1.232l.639-4.145a4.02 4.02 0 0 0-.313-2.285l8.523-4.813 1.667 2.95a4.04 4.04 0 0 0 7.034-3.972l-1.703-3.017a13.387 13.387 0 0 0 5.463-8.98z"/></mask><path fill-rule="evenodd" clip-rule="evenodd" d="M51.02 41.555a5.592 5.592 0 0 0-3.093-10.65c-4.082-4.766-11.092-6.142-16.762-2.94L13.6 37.883C7.155 41.523 4.88 49.7 8.52 56.144c2.777 4.92 8.197 7.41 13.474 6.695l-.27 1.746a4.04 4.04 0 1 0 7.985 1.232l.639-4.145a4.02 4.02 0 0 0-.313-2.285l8.523-4.813 1.667 2.95a4.04 4.04 0 0 0 7.034-3.972l-1.703-3.017a13.387 13.387 0 0 0 5.463-8.98z" fill="url(#b)"/><path d="m51.02 41.555-.99-.144.08-.547.507-.224.404.915zm-3.093-10.65.15.988-.548.084-.361-.422.76-.65zM21.995 62.839l-.135-.991 1.327-.18-.204 1.323-.988-.152zm-.27 1.746.989.153-.989-.153zm3.377 4.608.152-.988-.152.988zm4.608-3.376-.989-.153.989.153zm.639-4.145.988.152-.988-.152zm-.313-2.285-.91.414-.38-.834.798-.45.492.87zm8.523-4.813-.491-.87.87-.492.492.87-.87.492zm6.998-4.038-.87.491-.443-.783.732-.522.58.813zm5.06-9.896a4.65 4.65 0 0 0 .412-.206l.983 1.741c-.193.11-.39.208-.588.295l-.807-1.83zm.412-.206a4.592 4.592 0 0 0 1.74-6.257l1.742-.984a6.592 6.592 0 0 1-2.499 8.982l-.983-1.741zm1.74-6.257a4.594 4.594 0 0 0-4.691-2.284l-.302-1.977a6.595 6.595 0 0 1 6.735 3.277l-1.742.984zm-5.601-2.622c-3.777-4.41-10.265-5.681-15.511-2.719l-.984-1.741c6.095-3.442 13.627-1.963 18.014 3.16l-1.52 1.3zm-15.511-2.719-17.565 9.918-.983-1.741 17.564-9.918.984 1.741zm-17.565 9.918c-5.964 3.368-8.07 10.934-4.701 16.899l-1.742.983c-3.91-6.926-1.466-15.712 5.46-19.623l.983 1.741zM9.391 55.653c2.57 4.55 7.585 6.857 12.47 6.195l.268 1.982c-5.668.768-11.494-1.906-14.48-7.194l1.742-.983zm13.592 7.338-.27 1.747-1.976-.305.27-1.747 1.976.305zm-.27 1.747a3.04 3.04 0 0 0 2.541 3.467l-.304 1.977a5.04 5.04 0 0 1-4.213-5.749l1.977.305zm2.541 3.467a3.04 3.04 0 0 0 3.467-2.54l1.977.304a5.04 5.04 0 0 1-5.748 4.213l.304-1.977zm3.467-2.54.64-4.146 1.976.305-.639 4.145-1.977-.305zm.64-4.146a3.02 3.02 0 0 0-.236-1.718l1.82-.828a5.02 5.02 0 0 1 .392 2.851l-1.976-.305zm.183-3.003 8.524-4.813.983 1.742-8.524 4.813-.983-1.742zm9.886-4.434 1.666 2.951-1.741.983-1.666-2.95 1.741-.984zm1.666 2.951a3.04 3.04 0 0 0 4.142 1.152l.983 1.742a5.04 5.04 0 0 1-6.866-1.91l1.742-.984zm4.142 1.152a3.04 3.04 0 0 0 1.152-4.14l1.741-.984a5.04 5.04 0 0 1-1.91 6.866l-.983-1.742zm1.152-4.14-1.704-3.018 1.742-.983 1.703 3.017-1.741.983zm-1.414-4.323a12.387 12.387 0 0 0 5.055-8.31l1.979.287a14.387 14.387 0 0 1-5.872 9.65l-1.162-1.627z" fill="#000" mask="url(#c)"/><path d="M26.42 34.27a1.5 1.5 0 0 0-.16 2.594l.415.275a1.5 1.5 0 0 0 2.326-1.157l.031-.497a1.5 1.5 0 0 0-2.165-1.436l-.446.222z" fill="#B6ACAC" stroke="#000"/><ellipse rx=".622" ry=".649" transform="scale(-1 1) rotate(54.436 -50.213 -27.088)" fill="#171515"/><circle r="1.41" transform="scale(-1 1) rotate(29.452 -89.012 -55.08)" fill="#171515"/><g filter="url(#d)"><rect width="13.527" height="4.851" rx="2.426" transform="scale(-1 1) rotate(88.848 -29.18 1.005)" fill="#C4C4C4"/></g><rect x=".49" y=".51" width="12.527" height="3.851" rx="1.926" transform="scale(-1 1) rotate(88.848 -29.18 1.015)" stroke="#000"/><circle r=".705" transform="scale(-1 1) rotate(29.452 -77.624 -42.052)" fill="#171515"/><ellipse rx=".705" ry=".47" transform="scale(-1 1) rotate(29.452 -81.033 -38.17)" fill="#171515"/><circle r="1.175" transform="scale(-1 1) rotate(29.452 -87.313 -37.91)" fill="#171515"/><circle r=".705" transform="scale(-1 1) rotate(29.452 -94.745 -35.085)" fill="#171515"/><circle cx="93.391" cy="45.955" r="2.391" fill="#6FD299"/><circle cx="88.5" cy="49.064" r="1.5" fill="#6FD299"/><defs><filter id="a" x="28.314" y="44.434" width="44.659" height="28.845" filterUnits="userSpaceOnUse" color-interpolation-filters="sRGB"><feFlood flood-opacity="0" result="BackgroundImageFix"/><feBlend in="SourceGraphic" in2="BackgroundImageFix" result="shape"/><feColorMatrix in="SourceAlpha" values="0 0 0 0 0 0 0 0 0 0 0 0 0 0 0 0 0 0 127 0" result="hardAlpha"/><feOffset dy="4"/><feGaussianBlur stdDeviation="2"/><feComposite in2="hardAlpha" operator="arithmetic" k2="-1" k3="1"/><feColorMatrix values="0 0 0 0 0 0 0 0 0 0 0 0 0 0 0 0 0 0 0.25 0"/><feBlend in2="shape" result="effect1_innerShadow_209_5061"/></filter><filter id="d" x="27.364" y="30.207" width="5.026" height="17.525" filterUnits="userSpaceOnUse" color-interpolation-filters="sRGB"><feFlood flood-opacity="0" result="BackgroundImageFix"/><feBlend in="SourceGraphic" in2="BackgroundImageFix" result="shape"/><feColorMatrix in="SourceAlpha" values="0 0 0 0 0 0 0 0 0 0 0 0 0 0 0 0 0 0 127 0" result="hardAlpha"/><feOffset dy="4"/><feGaussianBlur stdDeviation="2"/><feComposite in2="hardAlpha" operator="arithmetic" k2="-1" k3="1"/><feColorMatrix values="0 0 0 0 0 0 0 0 0 0 0 0 0 0 0 0 0 0 0.25 0"/><feBlend in2="shape" result="effect1_innerShadow_209_5061"/></filter><linearGradient id="b" x1="45.887" y1="30.57" x2="17.524" y2="60.716" gradientUnits="userSpaceOnUse"><stop stop-color="#BF9393"/><stop offset="1" stop-color="#323841"/></linearGradient></defs></svg>