<svg width="33" height="33" viewBox="0 0 33 33" fill="none" xmlns="http://www.w3.org/2000/svg">
<path d="M28.7719 8.745C24.4612 2.0625 15.6337 0.0824987 8.80687 4.22812C2.14499 8.37375 -7.0408e-06 17.4075 4.31062 24.0694L4.66124 24.6056L3.21749 30.0094L8.62124 28.5656L9.15749 28.9163C11.4881 30.1744 14.025 30.8962 16.5412 30.8962C19.2431 30.8962 21.945 30.1744 24.2756 28.7306C30.9375 24.3994 32.9175 15.5512 28.7719 8.70375V8.745ZM24.9975 22.6462C24.2756 23.7187 23.3681 24.4406 22.11 24.6262C21.3881 24.6262 20.4806 24.9769 16.8919 23.5537C13.8394 22.11 11.3025 19.7588 9.50812 17.0569C8.43562 15.7988 7.87874 14.1694 7.71374 12.54C7.71374 11.0962 8.24999 9.83812 9.15749 8.93062C9.50812 8.58 9.87937 8.39437 10.23 8.39437H11.1375C11.4881 8.39437 11.8594 8.39437 12.045 9.11625C12.3956 10.0237 13.3031 12.1894 13.3031 12.375C13.4887 12.5606 13.4062 13.9425 12.5812 14.7262C12.1275 15.2419 12.045 15.2625 12.2306 15.6337C12.9525 16.7062 13.86 17.7994 14.7469 18.7069C15.8194 19.6144 16.9125 20.3362 18.1706 20.8725C18.5212 21.0581 18.8925 21.0581 19.0781 20.6869C19.2637 20.3362 20.1506 19.4287 20.5219 19.0575C20.8725 18.7069 21.0581 18.7069 21.4294 18.8719L24.3169 20.3156C24.6675 20.5013 25.0387 20.6662 25.2244 20.8519C25.41 21.3881 25.41 22.11 25.0387 22.6462H24.9975Z" fill="#7FDEE4"/>
</svg>
