<svg width="24" height="24" fill="none" xmlns="http://www.w3.org/2000/svg"><path d="M12.015 0C5.407 0 .028 5.374.025 11.981a11.955 11.955 0 0 0 1.602 5.99L0 24l6.28-1.484a11.98 11.98 0 0 0 5.728 1.458h.005c6.606 0 11.983-5.375 11.987-11.981a11.906 11.906 0 0 0-3.507-8.48A11.91 11.91 0 0 0 12.015 0zm-.002 2.4c2.563.001 4.972 1 6.783 2.81a9.515 9.515 0 0 1 2.804 6.78c-.003 5.285-4.302 9.584-9.59 9.584a9.6 9.6 0 0 1-4.58-1.165l-.808-.44-.893.21-2.363.559.577-2.143.26-.96-.497-.863a9.575 9.575 0 0 1-1.28-4.79C2.428 6.698 6.729 2.4 12.013 2.4zm-4.24 4.05a1.1 1.1 0 0 0-.8.375c-.274.299-1.05 1.022-1.05 2.496s1.074 2.898 1.224 3.098c.149.2 2.072 3.32 5.117 4.52 2.53.997 3.043.8 3.593.75.55-.05 1.773-.724 2.023-1.423.25-.7.25-1.302.176-1.425-.075-.125-.275-.2-.575-.35-.298-.15-1.771-.873-2.046-.972-.275-.1-.476-.15-.675.15-.2.3-.772.972-.947 1.172-.175.2-.35.227-.65.077-.3-.151-1.264-.468-2.409-1.488-.89-.793-1.491-1.772-1.666-2.072-.174-.299-.017-.463.133-.612.135-.134.298-.35.448-.525.149-.175.2-.3.3-.5.1-.198.049-.374-.026-.524-.074-.15-.657-1.63-.923-2.222-.225-.498-.462-.51-.675-.518-.174-.007-.373-.007-.572-.007z" fill="#1A1F26"/></svg>