<svg width="152" height="134" viewBox="0 0 152 134" fill="none" xmlns="http://www.w3.org/2000/svg">
<path d="M42.3957 24.481C42.8227 23.4081 44.2509 23.1998 44.9666 24.1059L49.6863 30.0822C50.4019 30.9884 49.8682 32.3295 48.7256 32.4962L41.1902 33.5954C40.0476 33.7621 39.153 32.6294 39.58 31.5565L42.3957 24.481Z" fill="#4B4B4B" stroke="black"/>
<rect x="88.4762" y="98.409" width="18.8656" height="23.1225" rx="9.4328" fill="#4B4B4B" stroke="black"/>
<rect x="35.9742" y="98.409" width="18.8656" height="23.1225" rx="9.4328" fill="#4B4B4B" stroke="black"/>
<mask id="path-4-inside-1_209_2103" fill="white">
<path fill-rule="evenodd" clip-rule="evenodd" d="M18.5759 95.2196C18.021 95.2746 17.4583 95.3028 16.8889 95.3028C7.56141 95.3028 0 87.7414 0 78.4139C0 71.197 4.52661 65.0374 10.8955 62.6193C14.5526 44.0249 30.9432 29.999 50.6097 29.999H111.524C133.879 29.999 152 48.1207 152 70.4749C152 86.7899 142.348 100.85 128.442 107.257C128.484 107.672 128.506 108.093 128.506 108.52V121.185C128.506 127.922 123.045 133.383 116.307 133.383C109.57 133.383 104.109 127.922 104.109 121.185V110.951H70.6761V121.185C70.6761 127.922 65.2145 133.383 58.4774 133.383C51.7402 133.383 46.2786 127.922 46.2786 121.185V110.722C35.0244 109.525 25.1479 103.715 18.5759 95.2196Z"/>
</mask>
<path fill-rule="evenodd" clip-rule="evenodd" d="M18.5759 95.2196C18.021 95.2746 17.4583 95.3028 16.8889 95.3028C7.56141 95.3028 0 87.7414 0 78.4139C0 71.197 4.52661 65.0374 10.8955 62.6193C14.5526 44.0249 30.9432 29.999 50.6097 29.999H111.524C133.879 29.999 152 48.1207 152 70.4749C152 86.7899 142.348 100.85 128.442 107.257C128.484 107.672 128.506 108.093 128.506 108.52V121.185C128.506 127.922 123.045 133.383 116.307 133.383C109.57 133.383 104.109 127.922 104.109 121.185V110.951H70.6761V121.185C70.6761 127.922 65.2145 133.383 58.4774 133.383C51.7402 133.383 46.2786 127.922 46.2786 121.185V110.722C35.0244 109.525 25.1479 103.715 18.5759 95.2196Z" fill="url(#paint0_linear_209_2103)"/>
<path d="M18.5759 95.2196L19.3669 94.6077L19.0281 94.1698L18.4772 94.2245L18.5759 95.2196ZM10.8955 62.6193L11.2505 63.5542L11.7696 63.3571L11.8767 62.8123L10.8955 62.6193ZM128.442 107.257L128.023 106.349L127.374 106.648L127.447 107.359L128.442 107.257ZM104.109 110.951H105.109V109.951H104.109V110.951ZM70.6761 110.951V109.951H69.6761V110.951H70.6761ZM46.2786 110.722H47.2786V109.823L46.3844 109.728L46.2786 110.722ZM18.4772 94.2245C17.9551 94.2762 17.4252 94.3028 16.8889 94.3028V96.3028C17.4913 96.3028 18.087 96.273 18.6746 96.2147L18.4772 94.2245ZM16.8889 94.3028C8.1137 94.3028 1 87.1891 1 78.4139H-1C-1 88.2937 7.00913 96.3028 16.8889 96.3028V94.3028ZM1 78.4139C1 71.6259 5.25705 65.8297 11.2505 63.5542L10.5406 61.6844C3.79618 64.2451 -1 70.7681 -1 78.4139H1ZM11.8767 62.8123C15.4434 44.6778 31.4302 30.999 50.6097 30.999V28.999C30.4562 28.999 13.6619 43.3721 9.91431 62.4263L11.8767 62.8123ZM50.6097 30.999H111.524V28.999H50.6097V30.999ZM111.524 30.999C133.326 30.999 151 48.673 151 70.4749H153C153 47.5684 134.431 28.999 111.524 28.999V30.999ZM151 70.4749C151 86.3853 141.588 100.099 128.023 106.349L128.86 108.165C143.107 101.601 153 87.1945 153 70.4749H151ZM127.447 107.359C127.486 107.74 127.506 108.127 127.506 108.52H129.506C129.506 108.059 129.482 107.604 129.436 107.155L127.447 107.359ZM127.506 108.52V121.185H129.506V108.52H127.506ZM127.506 121.185C127.506 127.369 122.492 132.383 116.307 132.383V134.383C123.597 134.383 129.506 128.474 129.506 121.185H127.506ZM116.307 132.383C110.122 132.383 105.109 127.369 105.109 121.185H103.109C103.109 128.474 109.018 134.383 116.307 134.383V132.383ZM105.109 121.185V110.951H103.109V121.185H105.109ZM104.109 109.951H70.6761V111.951H104.109V109.951ZM69.6761 110.951V121.185H71.6761V110.951H69.6761ZM69.6761 121.185C69.6761 127.369 64.6623 132.383 58.4774 132.383V134.383C65.7668 134.383 71.6761 128.474 71.6761 121.185H69.6761ZM58.4774 132.383C52.2925 132.383 47.2786 127.369 47.2786 121.185H45.2786C45.2786 128.474 51.1879 134.383 58.4774 134.383V132.383ZM47.2786 121.185V110.722H45.2786V121.185H47.2786ZM46.3844 109.728C35.4107 108.56 25.7781 102.895 19.3669 94.6077L17.785 95.8315C24.5177 104.535 34.638 110.489 46.1729 111.716L46.3844 109.728Z" fill="black" mask="url(#path-4-inside-1_209_2103)"/>
<g filter="url(#filter0_i_209_2103)">
<rect x="63.2717" y="30.4566" width="40.8496" height="14.6503" rx="6.5059" transform="rotate(59.3957 63.2717 30.4566)" fill="#C4C4C4"/>
</g>
<rect x="63.0959" y="31.1415" width="39.8496" height="13.6503" rx="6.0059" transform="rotate(59.3957 63.0959 31.1415)" stroke="black"/>
<circle cx="58.8874" cy="41.8597" r="2.12846" fill="#171515"/>
<ellipse cx="65.9822" cy="45.4071" rx="2.12846" ry="1.41897" fill="#171515"/>
<circle cx="68.8201" cy="54.6304" r="3.54743" fill="#171515"/>
<circle cx="43.2786" cy="60.3063" r="3.54743" fill="#171515"/>
<circle cx="75.915" cy="64.5632" r="2.12846" fill="#171515"/>
<circle cx="23.413" cy="50.3735" r="2.12846" fill="#171515"/>
<path d="M101.131 109.261H79.4624C79.4624 109.261 88.7478 92.2267 89.781 70.5906C90.8142 48.9545 79.4624 31.2173 79.4624 31.2173H101.131C101.131 31.2173 113.514 44.6976 113.514 71.2937C113.514 86.4836 101.131 109.261 101.131 109.261Z" fill="#43D882" stroke="black"/>
<path fill-rule="evenodd" clip-rule="evenodd" d="M99.1169 25.3097C97.9308 25.6049 96.7162 25.9224 95.4724 26.2629L102.062 27.7375C128.485 48.9592 141.276 43.7324 145.103 37.3694L145.366 37.4283C145.378 37.2425 145.385 37.0541 145.387 36.8633C145.515 36.6196 145.63 36.3753 145.732 36.1317L145.366 36.045C144.86 27.8924 135.237 16.4377 99.5806 25.195L98.7494 24.998C98.8722 25.1024 98.9947 25.2063 99.1169 25.3097Z" fill="#43D882"/>
<path d="M95.4724 26.2629L95.3404 25.7807L95.3632 26.7509L95.4724 26.2629ZM99.1169 25.3097L99.2377 25.7949L100.186 25.5588L99.4398 24.9278L99.1169 25.3097ZM102.062 27.7375L102.375 27.3477L102.284 27.2749L102.171 27.2496L102.062 27.7375ZM145.103 37.3694L145.212 36.8815L144.86 36.8027L144.674 37.1117L145.103 37.3694ZM145.366 37.4283L145.256 37.9162L145.827 38.0439L145.865 37.4604L145.366 37.4283ZM145.387 36.8633L144.944 36.6312L144.889 36.7375L144.887 36.8574L145.387 36.8633ZM145.732 36.1317L146.193 36.3253L146.422 35.7812L145.847 35.6452L145.732 36.1317ZM145.366 36.045L144.867 36.0761L144.89 36.4461L145.251 36.5316L145.366 36.045ZM99.5806 25.195L99.4654 25.6815L99.5827 25.7093L99.6999 25.6806L99.5806 25.195ZM98.7494 24.998L98.8647 24.5115L98.4255 25.3789L98.7494 24.998ZM95.6044 26.7452C96.8446 26.4057 98.0555 26.0892 99.2377 25.7949L98.9962 24.8245C97.8062 25.1207 96.5878 25.4392 95.3404 25.7807L95.6044 26.7452ZM102.171 27.2496L95.5816 25.775L95.3632 26.7509L101.952 28.2254L102.171 27.2496ZM101.748 28.1273C114.995 38.7665 124.894 42.8342 132.016 43.3962C139.169 43.9605 143.512 40.9841 145.531 37.6271L144.674 37.1117C142.866 40.1177 138.901 42.9362 132.095 42.3993C125.26 41.8599 115.551 37.9302 102.375 27.3477L101.748 28.1273ZM145.475 36.9403L145.212 36.8815L144.993 37.8573L145.256 37.9162L145.475 36.9403ZM144.887 36.8574C144.885 37.0395 144.878 37.2191 144.867 37.3961L145.865 37.4604C145.877 37.266 145.885 37.0687 145.887 36.8692L144.887 36.8574ZM145.83 37.0953C145.964 36.8392 146.085 36.5821 146.193 36.3253L145.271 35.938C145.174 36.1685 145.065 36.4001 144.944 36.6312L145.83 37.0953ZM145.847 35.6452L145.482 35.5585L145.251 36.5316L145.617 36.6182L145.847 35.6452ZM99.6999 25.6806C117.484 21.3127 128.682 22.0112 135.468 24.7426C142.221 27.4612 144.626 32.1988 144.867 36.0761L145.865 36.014C145.6 31.7386 142.94 26.6725 135.841 23.815C128.774 20.9702 117.333 20.32 99.4614 24.7094L99.6999 25.6806ZM99.6959 24.7085L98.8647 24.5115L98.6341 25.4845L99.4654 25.6815L99.6959 24.7085ZM98.4255 25.3789C98.5486 25.4836 98.6715 25.5878 98.7941 25.6915L99.4398 24.9278C99.3179 24.8248 99.1958 24.7213 99.0734 24.6171L98.4255 25.3789Z" fill="black"/>
<path fill-rule="evenodd" clip-rule="evenodd" d="M87.4761 20.9283C88.212 21.7386 88.9585 22.5815 89.7157 23.4583L84.1789 21.6837C54.8547 27.9682 47.8699 17.4422 48.0132 10.0922L47.7926 10.0215C47.87 9.85364 47.9522 9.68566 48.0391 9.51789C48.0585 9.24488 48.0876 8.97725 48.1257 8.71609L48.4355 8.81044C52.6009 1.90957 65.0139 -3.64073 87.1884 20.6125L87.8913 20.8265C87.7525 20.8608 87.6141 20.8947 87.4761 20.9283Z" fill="#43D882"/>
<path d="M89.7157 23.4583L90.0941 23.1314L91.2564 24.4771L89.5631 23.9344L89.7157 23.4583ZM87.4761 20.9283L87.106 21.2644L86.5402 20.6414L87.3579 20.4425L87.4761 20.9283ZM84.1789 21.6837L84.0742 21.1948L84.2046 21.1668L84.3315 21.2075L84.1789 21.6837ZM48.0132 10.0922L48.1658 9.61602L48.5204 9.72966L48.5131 10.1019L48.0132 10.0922ZM47.7926 10.0215L47.64 10.4976L47.1018 10.3251L47.3386 9.81198L47.7926 10.0215ZM48.0391 9.51789L48.5379 9.55327L48.5306 9.65625L48.4831 9.74792L48.0391 9.51789ZM48.1257 8.71609L47.6309 8.64403L47.7147 8.06828L48.2713 8.23778L48.1257 8.71609ZM48.4355 8.81044L48.8635 9.06883L48.6623 9.4022L48.2898 9.28875L48.4355 8.81044ZM87.1884 20.6125L87.0427 21.0908L86.9117 21.0509L86.8194 20.9499L87.1884 20.6125ZM87.8913 20.8265L88.037 20.3482L89.7735 20.8771L88.0111 21.312L87.8913 20.8265ZM89.3373 23.7851C88.5827 22.9114 87.8389 22.0715 87.106 21.2644L87.8463 20.5921C88.585 21.4056 89.3342 22.2517 90.0941 23.1314L89.3373 23.7851ZM84.3315 21.2075L89.8683 22.9821L89.5631 23.9344L84.0263 22.1598L84.3315 21.2075ZM84.2837 22.1726C69.5753 25.3247 60.3615 24.2874 54.8177 21.4458C49.2388 18.5863 47.4383 13.931 47.5133 10.0824L48.5131 10.1019C48.4449 13.6033 50.0651 17.8861 55.2738 20.5559C60.5177 23.2437 69.4584 24.3271 84.0742 21.1948L84.2837 22.1726ZM47.9452 9.54531L48.1658 9.61602L47.8606 10.5683L47.64 10.4976L47.9452 9.54531ZM48.4831 9.74792C48.3997 9.90891 48.3208 10.07 48.2466 10.2309L47.3386 9.81198C47.4192 9.63724 47.5048 9.4624 47.5952 9.28786L48.4831 9.74792ZM47.5404 9.48251C47.5606 9.19724 47.5911 8.91737 47.6309 8.64403L48.6204 8.78816C48.5842 9.03714 48.5564 9.29253 48.5379 9.55327L47.5404 9.48251ZM48.2713 8.23778L48.5811 8.33213L48.2898 9.28875L47.98 9.1944L48.2713 8.23778ZM86.8194 20.9499C75.7622 8.85616 67.2176 4.28495 60.9979 3.52499C54.8243 2.77066 50.859 5.76287 48.8635 9.06883L48.0074 8.55206C50.1773 4.95715 54.5013 1.72376 61.1192 2.53237C67.6909 3.33534 76.4401 8.11558 87.5574 20.2751L86.8194 20.9499ZM87.334 20.1342L88.037 20.3482L87.7456 21.3049L87.0427 21.0908L87.334 20.1342ZM88.0111 21.312C87.8717 21.3464 87.7328 21.3804 87.5944 21.4141L87.3579 20.4425C87.4953 20.409 87.6332 20.3752 87.7715 20.3411L88.0111 21.312Z" fill="black"/>
<circle cx="92.2331" cy="25.5415" r="10.8518" fill="#43D882" stroke="black"/>
<circle cx="100.037" cy="54.6304" r="7.80434" fill="white"/>
<circle cx="100.037" cy="54.6304" r="7.30434" stroke="black" stroke-opacity="0.87"/>
<circle cx="101.456" cy="77.3339" r="7.80434" fill="white"/>
<circle cx="101.456" cy="77.3339" r="7.30434" stroke="black" stroke-opacity="0.87"/>
<circle cx="95.7805" cy="98.6185" r="7.80434" fill="white"/>
<circle cx="95.7805" cy="98.6185" r="7.30434" stroke="black" stroke-opacity="0.87"/>
<defs>
<filter id="filter0_i_209_2103" x="53.067" y="32.8615" width="28.5966" height="41.8082" filterUnits="userSpaceOnUse" color-interpolation-filters="sRGB">
<feFlood flood-opacity="0" result="BackgroundImageFix"/>
<feBlend mode="normal" in="SourceGraphic" in2="BackgroundImageFix" result="shape"/>
<feColorMatrix in="SourceAlpha" type="matrix" values="0 0 0 0 0 0 0 0 0 0 0 0 0 0 0 0 0 0 127 0" result="hardAlpha"/>
<feOffset dy="4"/>
<feGaussianBlur stdDeviation="2"/>
<feComposite in2="hardAlpha" operator="arithmetic" k2="-1" k3="1"/>
<feColorMatrix type="matrix" values="0 0 0 0 0 0 0 0 0 0 0 0 0 0 0 0 0 0 0.25 0"/>
<feBlend mode="normal" in2="shape" result="effect1_innerShadow_209_2103"/>
</filter>
<linearGradient id="paint0_linear_209_2103" x1="15.763" y1="58.7101" x2="135.111" y2="95.8658" gradientUnits="userSpaceOnUse">
<stop stop-color="#BF9393"/>
<stop offset="1" stop-color="#323841"/>
</linearGradient>
</defs>
</svg>
